<?xml version="1.0" standalone="no"?>
<!DOCTYPE svg PUBLIC "-//W3C//DTD SVG 1.1//EN" "http://www.w3.org/Graphics/SVG/1.1/DTD/svg11.dtd" >
<!--
2013-9-30: Created.
-->
<svg>
<metadata>
Created by iconfont
</metadata>
<defs>

<font id="iconfont" horiz-adv-x="1024" >
  <font-face
    font-family="iconfont"
    font-weight="500"
    font-stretch="normal"
    units-per-em="1024"
    ascent="896"
    descent="-128"
  />
    <missing-glyph />
    
    <glyph glyph-name="x" unicode="x" horiz-adv-x="1001"
d="M281 543q-27 -1 -53 -1h-83q-18 0 -36.5 -6t-32.5 -18.5t-23 -32t-9 -45.5v-76h912v41q0 16 -0.5 30t-0.5 18q0 13 -5 29t-17 29.5t-31.5 22.5t-49.5 9h-133v-97h-438v97zM955 310v-52q0 -23 0.5 -52t0.5 -58t-10.5 -47.5t-26 -30t-33 -16t-31.5 -4.5q-14 -1 -29.5 -0.5
t-29.5 0.5h-32l-45 128h-439l-44 -128h-29h-34q-20 0 -45 1q-25 0 -41 9.5t-25.5 23t-13.5 29.5t-4 30v167h911zM163 247q-12 0 -21 -8.5t-9 -21.5t9 -21.5t21 -8.5q13 0 22 8.5t9 21.5t-9 21.5t-22 8.5zM316 123q-8 -26 -14 -48q-5 -19 -10.5 -37t-7.5 -25t-3 -15t1 -14.5
t9.5 -10.5t21.5 -4h37h67h81h80h64h36q23 0 34 12t2 38q-5 13 -9.5 30.5t-9.5 34.5q-5 19 -11 39h-368zM336 498v228q0 11 2.5 23t10 21.5t20.5 15.5t34 6h188q31 0 51.5 -14.5t20.5 -52.5v-227h-327z" />
    

    
    <glyph glyph-name="b-kuaisu" unicode="&#58954;" d="M774.5 697.7H253c-40.9 0-74.1-33.2-74.1-74.1v-521.4c0-40.9 33.1-74.1 74.1-74.1h521.4c40.9 0 74.1 33.2 74.1 74.1V623.6c0 40.9-33.2 74.1-74 74.1zM669.6 375.6L458.2 161.89999999999998c-2.2-2.2-5-3.3-7.9-3.3-2.8 0-5.6 1.1-7.8 3.2-3.1 3-4 7.5-2.7 11.3 0 0.9 0.1 1.8 0.3 2.6l32.2 134.8c2.5 10.5-5.5 20.6-16.3 20.6h-90.3c-6.1 0-11.1 4.9-11.1 11.1v0.9c-0.3 3.1 0.8 6.3 3.2 8.7l211.4 213.7c4.3 4.3 11.3 4.4 15.6 0.1 2.1-2.1 3.2-4.7 3.3-7.5 0.3-1.5 0.3-3.1-0.1-4.7L556.4 416c-2.4-10.5 5.6-20.5 16.3-20.5h87c2.6 0 5-0.9 6.9-2.4 1-0.5 1.9-1.2 2.7-2 4.5-4.1 4.6-11.1 0.3-15.5z"  horiz-adv-x="1024" />

    
    <glyph glyph-name="b-kuaidi" unicode="&#58956;" d="M857.9 633.6c0 10.9-8.8 19.7-19.7 19.7H190.8c-10.9 0-19.7-8.8-19.7-19.7v-145.4h19.8v-376.6c0-21.8 17.6-39.4 39.4-39.4h568.4c21.8 0 39.4 17.6 39.4 39.4V488.2h19.8V633.6zM626 125h-33.1V265.70000000000005H626V125z m41.7 0h-16.5V265.70000000000005h16.5V125z m49.7 0h-24.8V265.70000000000005h24.8V125z m37.6 0h-16.5V265.70000000000005H755V125z m36.8 0h-16.5V265.70000000000005h16.5V125z m-403 403.5H271.9c-11.2 0-20.4 9.1-20.4 20.4V587c0 11.2 9.1 20.4 20.4 20.4h116.8c11.2 0 20.4-9.1 20.4-20.4v-38.1c0-11.3-9.1-20.4-20.3-20.4z"  horiz-adv-x="1024" />

    
    <glyph glyph-name="b-liwu" unicode="&#58957;" d="M817.6 566H663.4c37.2 8.5 76.5 35.9 81.4 68.2 5.7 36.8-38 92.5-90.8 85.4-63.2-8.8-109.5-64.5-142.2-107.8-32.4 42.4-74.7 91.9-135.3 106.3-58.7 13.9-98.8-46.9-97.8-84.6 1-32 38-59.2 76.3-67.6H200.8c-19.1 0-30.8-10.7-30.8-30.8v-123.3l324.7-0.1V566h33.9v-154.2l319.8 0.1V535.1c0 20.2-11.8 30.9-30.8 30.9zM749.3 41.700000000000045H528.6V377.9h288.6v-268.3c-0.1-37.5-30.4-67.9-67.9-67.9zM269 41.700000000000045h225.6V377.9H201.2v-268.3c0-37.5 30.4-67.9 67.8-67.9z"  horiz-adv-x="1024" />

    
    <glyph glyph-name="b-mingpian" unicode="&#58958;" d="M807.5 657.8H216.7c-43.5 0-78.8-35.3-78.8-78.8v-433.2c0-43.5 35.3-78.8 78.8-78.8h590.8c43.5 0 78.8 35.3 78.8 78.8V579c0 43.5-35.3 78.8-78.8 78.8z m-0.1-212.2c0-13.4-10.9-24.2-24.2-24.2H674.1c-13.4 0-24.2 10.8-24.2 24.2V554.7c0 13.4 10.8 24.2 24.2 24.2h109.1c13.4 0 24.2-10.9 24.2-24.2v-109.1zM419.2 316.1H249.4c-10.8 0-19.7 8.9-19.7 19.7v39.4c0 10.8 8.9 19.7 19.7 19.7h169.8c10.8 0 19.7-8.9 19.7-19.7v-39.4c0-10.8-8.9-19.7-19.7-19.7z m127.9-157.6H249.4c-10.8 0-19.7 8.9-19.7 19.7v39.4c0 10.8 8.9 19.7 19.7 19.7h297.8c10.8 0 19.7-8.9 19.7-19.7v-39.4c-0.1-10.8-8.9-19.7-19.8-19.7z"  horiz-adv-x="1024" />

    
    <glyph glyph-name="b-kaoqin" unicode="&#58959;" d="M452.9 128.89999999999998c-13.4 31-20.1 64-20.1 99.4 0 35.3 6.6 68.2 20.1 99.4 13.5 31 31.8 58.6 55 81.7 2.3 2.3 5.2 4 7.6 6.3 1.8 2.8 3.8 5.6 6.3 8.3 28.7 30.9 40.6 100.5 45.4 120.3 2.6 10.6 1.6 28.4 0.7 37.4-1.1 10.7 2.4 33.6 2.4 52 0 86-86.2 122.7-141.9 122.8h-0.8c-55.7-0.2-141.9-36.8-141.9-122.8 0-18.4 3.5-41.3 2.4-52-0.9-9-1.9-26.7 0.7-37.4 4.8-19.7 16.7-89.4 45.4-120.3 10.7-11.5 14.5-25.1 14.5-38 0-32.3-3.2-50.7-9.7-54.9-2.1-2.2-28.6-12.4-79.2-30.7-2.2-1.1-4.8-2.2-8.1-3.3-83-31.3-126.6-57.6-131-79.2l-2.2-72.7c-0.6-11.3 8.4-20.7 19.7-20.7h317c-0.6 1.5-1.6 2.8-2.3 4.4zM888.4 312.29999999999995c-11.4 26.4-26.8 49-46.5 69.1-19.6 19.5-42.3 35.1-68.6 46.4-26.4 11.3-54.2 17-84.2 17s-58.4-5.7-84.6-17c-26.4-11.3-49.1-26.8-68.6-46.4-19.6-19.5-35.1-42.9-46.5-69.1-11.4-26.4-17-54.2-17-84.1 0-29.9 5.7-57.8 17-84.1 11.4-26.4 26.8-49 46.5-69.1 19.6-19.5 42.3-35.1 68.6-46.4 26.4-11.3 54.8-17 84.6-17s57.8 5.7 84.2 17c26.4 11.3 49.1 26.8 68.6 46.4 19.7 19.5 35.1 42.9 46.5 69.1 11.4 26.4 17 54.2 17 84.1 0 29.8-5.7 57.7-17 84.1z m-140-179.9c-8.3 0-16.6 3.3-22.9 9.7l-64.4 66c-5.8 5.8-9.5 14.2-9.5 23.2V331.6c0 18.2 14.4 32.9 32.2 32.9s32.2-14.7 32.2-32.9v-86.9l55-56.2c12.6-12.9 12.6-33.6 0-46.5-6.1-6.3-14.3-9.6-22.6-9.6z m0 0"  horiz-adv-x="1024" />

    
    <glyph glyph-name="b-renwu" unicode="&#58960;" d="M746.4 698.1H225c-40.7 0-74.1-33.3-74.1-74.1v-521.4c0-40.7 33.3-74.1 74.1-74.1h521.4c40.7 0 74.1 33.3 74.1 74.1V624c0 40.8-33.4 74.1-74.1 74.1z m-25.6-214.4L485.3 192.29999999999995c-6.5-8.1-15.5-12.8-24.9-14.6-13.2-4.9-28.7-2.9-40.4 6.5L260.4 313.1c-17.8 14.4-20.6 40.7-6.3 58.5 14.3 17.8 40.7 20.6 58.5 6.3L443 272.5l212.9 263.6c14.3 17.8 40.7 20.6 58.5 6.3 17.9-14.5 20.7-40.8 6.4-58.7z"  horiz-adv-x="1024" />

    
    <glyph glyph-name="b-mokuai" unicode="&#58961;" d="M853.9 558.8H170.1v77.9c0 17.8 14.5 32.3 32.3 32.3h632.5c10.4 0 19-8.5 19-19v-91.2z m-514-459.9H189.1c-10.4 0-19 8.5-19 19v403h169.8v-422z m488 0h-450v422h476v-396c0-14.3-11.7-26-26-26z"  horiz-adv-x="1024" />

    
    <glyph glyph-name="b-sheying" unicode="&#58962;" d="M541.4 444.7c-65.1 0-118.1-53-118.1-118.1 0-65.2 53-118.2 118.1-118.2 65.2 0 118.2 53 118.2 118.2-0.1 65.1-53.1 118.1-118.2 118.1zM856.4 601.3h-181l-24.8 51.3c-4.1 8.5-15.2 15.4-24.6 15.4H456.8c-9.4 0-20.5-6.9-24.6-15.4l-24.8-51.3H226.3c-43.5 0-78.8-35.3-78.8-78.8v-393.8c0-43.5 35.3-78.8 78.8-78.8h630.2c43.5 0 78.8 35.3 78.8 78.8V522.5c-0.1 43.5-35.4 78.8-78.9 78.8zM541.4 169c-86.9 0-157.5 70.7-157.5 157.5 0 86.9 70.7 157.5 157.5 157.5 86.9 0 157.5-70.7 157.5-157.5S628.2 169 541.4 169z"  horiz-adv-x="1024" />

    
    <glyph glyph-name="b-rili" unicode="&#58963;" d="M840.4 657.7h-91.2v22.6c0 7.7-6.2 13.9-13.9 13.9H617.1c-7.7 0-13.9-6.2-13.9-13.9v-22.6H420.8v22.6c0 7.7-6.2 13.9-13.9 13.9H288.7c-7.7 0-13.9-6.2-13.9-13.9v-22.6h-91.2c-20.2 0-36.5-16.3-36.5-66.1v-54.7h729.8v54.7c0 49.8-16.3 66.1-36.5 66.1zM147.1 146.79999999999995c0-40.1 32.8-73 73-73H804c40.1 0 73 32.8 73 73V500.4H147.1v-353.6z m330.5 247.1c0 10.1 8.2 18.2 18.2 18.2h36.5c10.1 0 18.2-8.2 18.2-18.2v-219c0-10.1-8.2-18.2-18.2-18.2h-36.5c-10.1 0-18.2 8.2-18.2 18.2v219z"  horiz-adv-x="1024" />

    
    <glyph glyph-name="b-shijian" unicode="&#58964;" d="M512.1 740.6c-198.2 0-359-160.7-359-359 0-198.2 160.7-359 359-359 198.2 0 359 160.7 359 359s-160.8 359-359 359z m181.5-370.4c0-21.7-17.7-39.4-39.4-39.4h-152c-21.7 0-39.4 17.7-39.4 39.4v0.2 193.2c0 21.7 17.7 39.4 39.4 39.4s39.4-17.7 39.4-39.4v-154.1h112.6c21.7 0.1 39.4-17.6 39.4-39.3z"  horiz-adv-x="1024" />

    
    <glyph glyph-name="b-shenpi" unicode="&#58965;" d="M758.5 338.79999999999995H582.2v62c56.5 36.1 95.7 111 95.7 177.6 0 91.8-74.4 166.2-166.2 166.2-91.8 0-166.2-74.4-166.2-166.2 0-66.6 39.2-141.5 95.7-177.6v-62H264.9c-38.9 0-70.5-31.6-70.5-70.5v-132.7H829V268.29999999999995c0 38.9-31.6 70.5-70.5 70.5z m17.6-242.6H247.2c-9.7 0-17.6-8.8-17.6-19.7v-39.4c0-10.9 7.9-19.7 17.6-19.7H776c9.7 0 17.6 8.8 17.6 19.7v39.4c0.1 10.9-7.8 19.7-17.5 19.7z"  horiz-adv-x="1024" />

    
    <glyph glyph-name="b-shoucang" unicode="&#58966;" d="M746.4 739.6H273c-36.6 0-66.3-30.5-66.3-68.2v-625.1c0-12.9 12.7-22 24.9-18l247.6 82.4c15.2 5.1 31.6 5.2 46.8 0.3l262-83c12.2-3.9 24.7 5.2 24.7 18V671.5c-0.1 37.6-29.7 68.1-66.3 68.1zM654.1 517l-49.8-55.9c-8.8-9.9-12.9-23-11.4-36.1l9-76.1c0.6-4.8-4.4-8.4-8.8-6.2l-63 31.1c-12.9 6.4-28 6.4-40.9 0l-63-31.1c-4.4-2.2-9.4 1.4-8.8 6.2l9 76.1c1.6 13.1-2.6 26.3-11.4 36.1L365.3 517c-3.1 3.5-1.3 9.1 3.4 10.1l69.5 14.1c13.6 2.8 25.3 11.5 31.7 23.8l34.3 65.4c2.3 4.4 8.6 4.4 10.9 0l34.3-65.4c6.5-12.3 18.1-21.1 31.7-23.8l69.5-14.1c4.7-0.9 6.6-6.5 3.5-10.1z"  horiz-adv-x="1024" />

    
    <glyph glyph-name="b-shu" unicode="&#58967;" d="M250.4 636.9v-549.4c0-17.2 18.8-31.3 41.7-31.3h66.7v612h-66.7c-23 0-41.7-14.1-41.7-31.3zM780.8 668.2h-64.2v-176.9c0-1.8-1.8-3.1-3.5-2.5l-36.9 16c-2.2 0.7-4.5 0.7-6.6 0l-34.9-15.9c-1.7-0.6-3.5 0.7-3.5 2.5V668.2H400.4v-612h380.4c22.5 0 40.8 18.3 40.8 40.8V627.4c0 22.6-18.3 40.8-40.8 40.8z"  horiz-adv-x="1024" />

    
    <glyph glyph-name="b-shuju" unicode="&#58968;" d="M531.7 401V755.5c193.3 0 354.5-161.1 354.5-354.5H531.7z m-43.8-393.8c-193.4 0-350.1 156.7-350.1 350.1 0 193.3 161.1 358.8 354.5 358.8v-354.5h354.5c0-193.3-165.5-354.4-358.9-354.4z"  horiz-adv-x="1024" />

    
    <glyph glyph-name="b-tongji" unicode="&#58969;" d="M784.5 699.1h-545c-45.3 0-82-36.7-82-82v-348c0-45.3 36.7-82 82-82h545c45.3 0 82 36.7 82 82v348c0 45.3-36.7 82-82 82zM532.4 287.6H493c-10.8 0-19.7 8.9-19.7 19.7V554.4c0 10.8 8.9 19.7 19.7 19.7h39.4c10.8 0 19.7-8.9 19.7-19.7v-247.1c0-10.9-8.9-19.7-19.7-19.7z m-155 0.5h-49.6c-8 0-14.6 6.6-14.6 14.6V431c0 8 6.6 14.6 14.6 14.6h49.6c8 0 14.6-6.6 14.6-14.6v-128.3c0-8.1-6.6-14.6-14.6-14.6z m318.2 0h-45.7c-9.1 0-16.5 7.4-16.5 16.5V473.5c0 9.1 7.4 16.5 16.5 16.5h45.7c9.1 0 16.5-7.4 16.5-16.5v-168.9c0.1-9.1-7.4-16.5-16.5-16.5zM730.1 68.89999999999998H293.9c-10.1 0-18.2 8.2-18.2 18.2v42.3c0 10.1 8.2 18.2 18.2 18.2h436.2c10.1 0 18.2-8.2 18.2-18.2v-42.3c0-10-8.2-18.2-18.2-18.2z"  horiz-adv-x="1024" />

    
    <glyph glyph-name="b-shezhi" unicode="&#58970;" d="M797.9 594.2L551.3 736.6a78.685 78.685 0 0 1-78.8 0L225.9 594.2c-24.4-14.1-39.4-40.1-39.4-68.2v-284.7c0-28.1 15-54.1 39.4-68.2l246.6-142.4c24.4-14.1 54.4-14.1 78.8 0L797.9 173c24.4 14.1 39.4 40.1 39.4 68.2V526c0 28.1-15 54.1-39.4 68.2z m-286-348.4c-76.1 0-137.8 61.7-137.8 137.8 0 76.1 61.7 137.8 137.8 137.8s137.8-61.7 137.8-137.8c0.1-76.1-61.6-137.8-137.8-137.8z"  horiz-adv-x="1024" />

    
    <glyph glyph-name="b-tupian" unicode="&#58971;" d="M815.5 684h-607c-39.4 0-71.4-33.6-71.4-75v-450c0-41.4 32-75 71.4-75h607.1c39.4 0 71.4 33.6 71.4 75V609c0 41.4-32 75-71.5 75z m-78.6-525.5H546.2l0.2 0.3H242.5c-14.7 0-23.7 16.2-15.9 28.7l153.6 246c7.3 11.8 24.5 11.8 31.8 0l151.7-243.1L634.4 319c6.8 12.4 24.4 13.1 32.2 1.2l86.1-132.7c8.1-12.5-0.9-29-15.8-29z m9.6 272.8c-41.4 0-75 33.6-75 75s33.6 75 75 75 75-33.6 75-75c0-41.5-33.6-75-75-75z"  horiz-adv-x="1024" />

    
    <glyph glyph-name="b-wenjuan" unicode="&#58972;" d="M641.6 700.9h-37.9V717c0 6.7-5.4 12.1-12.2 12.2H476.1c-6.7 0-12.1-5.5-12.2-12.2v-16.1H420c-6.8 0-12.3-5.5-12.3-12.3v-67.7c0-6.8 5.5-12.3 12.3-12.3h221.6c6.8 0 12.3 5.5 12.3 12.3v67.7c0 6.8-5.5 12.3-12.3 12.3zM776.2 669h-82.4c0.1-0.7 0.4-1.3 0.5-2v-72.8c-0.3-11.8-10.4-21.1-22.6-20.8H389.1c-12.2-0.3-22.3 9-22.6 20.8V667c0 0.7 0.4 1.3 0.5 2h-89c-14.7 0-26.6-11.5-26.6-25.7V80c0-22.7 19-41.1 42.5-41.1h466.4c23.5 0 42.5 18.4 42.5 41.1V643.3c0 14.2-11.9 25.7-26.6 25.7zM541.7 164.60000000000002c-8-10.5-18.6-16.1-30.6-16.1-9.9 0-18.7 3.7-26.1 10.9-7.4 7.4-11.2 16.5-11.2 27.1 0 10.6 3.6 19.5 10.6 26.6 14.7 14.3 38.7 14.2 53.5-0.2 7.5-7.7 11.2-16.6 11.2-26.5 0-7.8-2.5-15.2-7.4-21.8z m55.8 196.1c-6.8-11.6-16.3-22.6-30.7-35.8-16.4-15-21.7-21.8-23.4-24.5-3.4-5.2-5-11.1-5-17.9v-20.1c0-7.8-2.8-14.8-8.3-20.3-5.5-5.4-12.4-8.3-20.1-8.3-7.6 0-14.5 2.9-19.9 8.3-5.5 5.5-8.3 12.7-8.3 21.3v22.3c0 15.6 4.5 29.4 13.5 41.3 5 6.8 13.8 15.6 30.6 30.6 16.3 14.7 26.9 34.6 26.9 50.6 0 11.7-3.9 20.3-12.2 26.9-7.5 6.1-17.2 9-29.5 9-24.9 0-37.7-10.6-41.3-34.4-4-26-21.1-28.8-28.2-28.8-7.8 0-14.7 3.1-19.7 8.9-4.2 4.7-6.5 10.9-6.5 17.9 0 15.7 4.6 31.5 13.6 46.9 16 27.3 44.2 41.1 83.9 41.1 29.3 0 53-8.3 70.4-24.8 16.8-16.2 25.3-37.4 25.3-63 0-13.9-2.9-33.6-11.1-47.2z"  horiz-adv-x="1024" />

    
    <glyph glyph-name="b-xiuxian" unicode="&#58973;" d="M250.1 172.39999999999998h433.2c43.5 0 78.8 35.3 78.8 78.8V704.1c0 10.9-8.8 19.7-19.7 19.7H191.1c-10.9 0-19.7-8.8-19.7-19.7v-452.9c0-43.5 35.2-78.8 78.7-78.8z m531.7-55.9H151.7c-10.9 0-19.7-8.8-19.7-19.7v-19.7c0-21.8 17.6-39.4 39.4-39.4h590.8c21.7 0 39.4 17.6 39.4 39.4v19.7c-0.1 10.9-8.9 19.7-19.8 19.7zM762.1 653.3c-87 0-157.5-70.5-157.5-157.5s70.5-157.5 157.5-157.5 157.5 70.5 157.5 157.5c0.1 86.9-70.5 157.5-157.5 157.5z m0-236.4c-43.5 0-78.8 35.3-78.8 78.8s35.3 78.8 78.8 78.8 78.8-35.3 78.8-78.8-35.3-78.8-78.8-78.8z"  horiz-adv-x="1024" />

    
    <glyph glyph-name="b-yinhangqia" unicode="&#58974;" d="M148.8 122.29999999999995c0-21.8 17.6-39.4 39.4-39.4h630c21.8 0 39.4 17.6 39.4 39.4V480.9H148.8v-358.6z m433 98.5c0 10.8 8.9 19.7 19.7 19.7H759c10.8 0 19.7-8.9 19.7-19.7v-39.4c0-10.8-8.9-19.7-19.7-19.7H601.5c-10.8 0-19.7 8.9-19.7 19.7v39.4zM818.2 622.7h-630c-21.7 0-39.4-17.7-39.4-39.4v-63h708.8v63c0 21.6-17.8 39.4-39.4 39.4z"  horiz-adv-x="1024" />

    
    <glyph glyph-name="b-wenjianjia" unicode="&#58975;" d="M461.06666667 649.3H224.66666667c-21.7 0-39.4-17.7-39.4-39.4v-526.8c0-10.9 8.8-19.7 19.7-19.7H480.66666667c10.9 0 19.7 8.8 19.7 19.7V609.9c0 21.7-17.7 39.4-39.3 39.4z m-165-122c0 11.8 9.7 21.5 21.5 21.5h50.5c11.8 0 21.5-9.7 21.5-21.5v-210.1c0-11.8-9.7-21.5-21.5-21.5H317.66666667c-11.8 0-21.5 9.7-21.5 21.5V527.3z m0-333.5c0 12.7 9.7 23 21.5 23h50.5c11.8 0 21.5-10.4 21.5-23v-32.7c0-12.7-9.7-23-21.5-23H317.66666667c-11.8 0-21.5 10.4-21.5 23v32.7zM815.46666667 649.3H579.16666667c-21.7 0-39.4-17.7-39.4-39.4v-526.8c0-10.9 8.8-19.7 19.7-19.7h275.7c10.9 0 19.7 8.8 19.7 19.7V609.9c0 21.7-17.7 39.4-39.4 39.4z m-164.9-122c0 11.8 9.7 21.5 21.5 21.5h50.5c11.8 0 21.5-9.7 21.5-21.5v-210.1c0-11.8-9.7-21.5-21.5-21.5h-50.5c-11.8 0-21.5 9.7-21.5 21.5V527.3z m0-333.5c0 12.7 9.7 23 21.5 23h50.5c11.8 0 21.5-10.4 21.5-23v-32.7c0-12.7-9.7-23-21.5-23h-50.5c-11.8 0-21.5 10.4-21.5 23v32.7z"  horiz-adv-x="1024" />

    
    <glyph glyph-name="b-yongche" unicode="&#58976;" d="M902.7 474H828c0.7-4.7-3.1 6.4-6.3 4.9l-37.8 98.5c-12.1 56.1-57.7 83.1-113.8 83.1H355c-64.4 0-103.4-36.3-113.8-83.1l-37.9-98.9c-3.5 1.7-2.7-4.6-7-4.6h-74.7c-12.9 0-37.3-1.6-37.3-12.8V431c0-11.1 10.5-20.2 23.4-20.2l31.8-4.7c-10-17-15.8-23.7-15.8-46.2l-11.8-103.6v-156.8c0-19.9 18.7-36.1 41.7-36.1h63.7c23.1 0 41.7 16.2 41.7 36.1v45h507v-45c0-19.9 18.7-36.1 41.7-36.1h63.7c23 0 41.7 16.2 41.7 36.1V256.29999999999995l-11.8 103.6c0 22.6-5.7 29.4-15.8 46.4l31.1 4.6c12.9 0 23.4 9.1 23.4 20.2v30.2c-0.1 11.1-24.4 12.7-37.3 12.7z m-595.2 84.3c2.6 13.9 27.1 27.2 44.8 27.2h320.2c25.5 0 41.8-13.9 44.2-27l36.8-109c-2.2-28.1-36.9-50.2-65.7-50.2H336.3c-28.8 0-63.4 22.2-65.7 50.2l36.9 108.8z m-17.7-345.2c-30.5 0-55.1 24.8-55.1 55.3 0 30.6 24.7 55.4 55.1 55.4 30.5 0 55.1-24.8 55.1-55.4 0-30.5-24.6-55.3-55.1-55.3z m444.5 0.2c-30.5 0-55.2 24.7-55.2 55.1 0 30.5 24.7 55.1 55.2 55.1 30.5 0 55.1-24.7 55.1-55.1 0.1-30.4-24.6-55.1-55.1-55.1z m0-0.9"  horiz-adv-x="1024" />

    
    <glyph glyph-name="b-yonghu" unicode="&#58977;" d="M887.01155555 112.18488889000002c-5.23377778 26.39644445-58.59555555 58.59555555-159.85777777 96.71111111-3.98222222 1.36533333-7.168 2.61688889-9.89866667 3.98222222-61.89511111 22.41422222-94.09422222 34.816-96.71111111 37.54666667-7.96444445 5.23377778-11.83288889 27.53422222-11.83288889 67.12888889 0 15.81511111 4.66488889 32.31288889 17.74933334 46.42133333 35.04355555 37.66044445 49.60711111 122.76622222 55.40977777 146.77333334 3.18577778 12.97066667 1.93422222 34.70222222 0.91022223 45.62488888-1.36533333 13.08444445 2.95822222 40.96 2.95822222 63.488 0 105.01688889-105.24444445 149.84533333-173.28355556 149.95911112h-0.91022222c-68.03911111-0.22755555-173.28355555-44.94222222-173.28355556-149.95911112 0-22.528 4.20977778-50.51733333 2.95822222-63.488-1.13777778-11.03644445-2.27555555-32.65422222 0.91022223-45.62488888 5.80266667-24.12088889 20.36622222-109.11288889 55.40977777-146.77333334 13.08444445-14.10844445 17.74933333-30.60622222 17.74933334-46.42133333 0-39.48088889-3.98222222-61.89511111-11.83288889-67.12888889-2.61688889-2.61688889-34.816-15.13244445-96.71111111-37.54666667-2.61688889-1.36533333-5.91644445-2.61688889-9.89866667-3.98222222-101.376-38.11555555-154.624-70.42844445-159.85777777-96.71111111l-2.73066667-88.74666667c-0.68266667-13.76711111 10.24-25.25866667 24.00711111-25.25866667h707.47022222c13.76711111 0 24.68977778 11.49155555 24.00711111 25.25866667l-2.73066667 88.74666667z m-335.75822222 8.41955556l-37.09155555-41.984c-0.56888889-0.68266667-1.36533333-1.024-2.048-1.024-0.79644445 0-1.47911111 0.34133333-2.048 1.024l-37.20533333 41.984c-0.79644445 0.91022222-1.024 2.16177778-0.79644445 3.41333333l24.576 153.71377777c0.34133333 1.47911111 1.47911111 2.38933333 2.84444445 2.38933334h24.91733333c1.25155555 0 2.50311111-1.024 2.84444444-2.38933334l24.80355556-153.71377777c0.22755555-1.25155555 0-2.50311111-0.79644445-3.41333333z"  horiz-adv-x="1024" />

    
    <glyph glyph-name="b-youjian" unicode="&#58978;" d="M545 438.9l320 203.3c-10.7 15.6-28.6 25.6-49.2 25.6h-603c-20.2 0-38.1-9.9-49.6-25.2l320.4-203.7c18.7-11.8 42.7-11.8 61.4 0zM514.1 392c-17.5 0-35.5 4.6-51.1 14.5l-311.2 198V153c0-42 34.3-76.3 76.3-76.3h572.1c42.1 0 76.3 34.2 76.3 76.3V604.4l-310.8-198C550 396.5 532 392 514.1 392z"  horiz-adv-x="1024" />

    
    <glyph glyph-name="b-youhuiquan" unicode="&#58979;" d="M864.2 497.2V635.6c0 18.5-15 33.6-33.6 33.6H193.3c-18.5 0-33.6-15-33.6-33.6v-138.4c57.9-14.9 100.6-67.4 100.6-130 0-62.5-42.8-115.1-100.6-130v-104.9c0-18.5 15-33.5 33.6-33.5h637.4c18.5 0 33.6 15 33.6 33.5v105c-57.9 14.9-100.6 67.4-100.6 130-0.1 62.5 42.7 115 100.5 129.9zM361 487.6c0 10.9 7.5 19.7 16.8 19.7h167.7c9.3 0 16.8-8.8 16.8-19.7v-39.4c0-10.9-7.5-19.7-16.8-19.7H377.8c-9.3 0-16.8 8.8-16.8 19.7v39.4z m302-207.2c0-10.9-7.5-19.7-16.8-19.7H377.8c-9.3 0-16.8 8.8-16.8 19.7v39.4c0 10.9 7.5 19.7 16.8 19.7h268.4c9.3 0 16.8-8.8 16.8-19.7v-39.4z"  horiz-adv-x="1024" />

    
    <glyph glyph-name="b-yun" unicode="&#58980;" d="M714.1 537.1c-10.6 0-21-0.6-31.3-1.9C650.6 621.8 561.6 684 456.9 684c-131.9 0-238.8-98.7-238.8-220.4 0-12.8 1.2-25.3 3.4-37.4-84.3-7.5-150.4-78.4-150.4-164.6 0-91.3 74-165.3 165.3-165.3 6.2 0 12.3 0.4 18.4 1v-1h440.9v0.7c6.1-0.4 12.2-0.7 18.4-0.7 131.9 0 238.8 98.7 238.8 220.4s-107 220.4-238.8 220.4z m-113.2-180l-133.3-93.3c-12.2-8.5-28.9 0.2-28.9 15V465.5c0 14.9 16.7 23.6 28.9 15l133.3-93.3c10.4-7.3 10.4-22.7 0-30.1z"  horiz-adv-x="1024" />

    
    <glyph glyph-name="b-baobiao" unicode="&#58981;" d="M640.8 568V733.6h-368c-40.6 0-73.6-32.9-73.6-73.6v-552c0-40.6 33-73.6 73.6-73.6h478.4c40.6 0 73.6 32.9 73.6 73.6V549.6H659.2c-10.2 0-18.4 8.2-18.4 18.4z m-331.2-55.3c0 10.2 8.3 18.5 18.5 18.5h183.8c10.2 0 18.5-8.3 18.5-18.5v-36.6c0-10.2-8.3-18.5-18.5-18.5H328.1c-10.2 0-18.5 8.3-18.5 18.5v36.6z m331.2-257.5c0-10.2-8.2-18.4-18.4-18.4H328c-10.2 0-18.4 8.2-18.4 18.4V292c0 10.2 8.2 18.4 18.4 18.4h294.4c10.2 0 18.4-8.2 18.4-18.4v-36.8zM696 586.4h128.8L677.6 733.6v-128.8c0-10.2 8.2-18.4 18.4-18.4z"  horiz-adv-x="1024" />

    
    <glyph glyph-name="b-bianji" unicode="&#58982;" d="M808.73244445 621.568l-83.5128889 83.39911111c-17.52177778 17.52177778-45.96622222 17.52177778-63.37422222-0.11377778l-422.11555555-423.70844444 146.88711111-146.77333334 422.11555556 423.70844445c17.52177778 17.63555555 17.408 45.96622222 0 63.488zM174.08 96.36977778000005c-4.55111111-16.72533333 10.80888889-32.08533333 27.53422222-27.53422223l153.14488889 41.87022223-138.69511111 138.35377777L174.08 96.36977778000005zM833.64977778 44.828444450000006H519.96444445c-12.288 0-22.41422222 10.12622222-22.41422223 22.41422222V112.07111110999995c0 12.288 10.12622222 22.41422222 22.41422223 22.41422222h313.68533333c12.288 0 22.41422222-10.12622222 22.41422222-22.41422222v-44.82844444c0-12.288-10.12622222-22.41422222-22.41422222-22.41422222z"  horiz-adv-x="1024" />

    
    <glyph glyph-name="b-dayin" unicode="&#58983;" d="M310.7 634.9h402c10.4 0 18.9 8.5 18.9 18.9v37.8c0 10.4-8.5 18.9-18.9 18.9h-402c-10.4 0-18.9-8.5-18.9-18.9v-37.8c0-10.4 8.4-18.9 18.9-18.9zM840.4 597.2H183c-20.9 0-37.8-16.9-37.8-37.8V223c0-10.4 8.5-18.9 18.9-18.9h91.1v-108.8c0-20.9 16.9-37.8 37.8-37.8h437.5c20.9 0 37.8 16.9 37.8 37.8V204.10000000000002h91.1c10.4 0 18.9 8.5 18.9 18.9V559.4c-0.2 20.9-17.1 37.8-37.9 37.8zM692.6 129.5c0-10.4-8.5-18.9-18.9-18.9H349.5c-10.4 0-18.9 8.5-18.9 18.9v98.3c0 10.4 8.5 18.9 18.9 18.9h324.3c10.4 0 18.9-8.5 18.9-18.9v-98.3z m53.3 282.6c-29.2 0-52.9 23.5-52.9 52.9 0 29.2 23.5 52.9 52.9 52.9 29.2 0 52.9-23.5 52.9-52.9 0-29.2-23.5-52.9-52.9-52.9z"  horiz-adv-x="1024" />

    
    <glyph glyph-name="b-dingwei" unicode="&#58984;" d="M511.8 702.1C340.2 702.1 201 563 201 391.3c0-220.4 303-406 310.8-406 7.9 0 310.8 185.7 310.8 406 0 171.7-139.1 310.8-310.8 310.8z m0-425.1C435.6 277 374 338.70000000000005 374 414.8c0 76.1 61.7 137.8 137.8 137.8S649.7 491 649.7 414.8c0-76.2-61.8-137.8-137.9-137.8z m0 4.1"  horiz-adv-x="1024" />

    
    <glyph glyph-name="b-baoxiao" unicode="&#58985;" d="M750.1 695.9H270.4c-40.9 0-74.4-33.5-74.4-74.4v-479.7c0-40.9 33.5-74.4 74.4-74.4h479.7c40.9 0 74.4 33.5 74.4 74.4V621.5c0 40.9-33.5 74.4-74.4 74.4z m-127-378.4c16.3 0 29.6-13.3 29.6-29.6s-13.3-29.6-29.6-29.6h-89.2V175c0-16.3-13.3-29.6-29.6-29.6s-29.6 13.3-29.6 29.6v83.3H387c-16.3 0-29.6 13.3-29.6 29.6s13.3 29.6 29.6 29.6h87.8v71.6H387c-16.3 0-29.6 13.3-29.6 29.6s13.3 29.6 29.6 29.6h82.3l-87.6 87.6c-11.5 11.5-11.5 30.3 0 41.8 11.5 11.5 30.3 11.5 41.8 0l80.9-80.9 80.9 80.9c11.5 11.5 30.3 11.5 41.8 0 11.5-11.5 11.5-30.3 0-41.8l-87.6-87.6h83.7c16.3 0 29.6-13.3 29.6-29.6s-13.3-29.6-29.6-29.6H534v-71.6h89.1z"  horiz-adv-x="1024" />

    
    <glyph glyph-name="b-duihua" unicode="&#58986;" d="M782.8 679.4H241.2c-39.9 0-72.2-32.3-72.2-72.2V210c0-39.9 32.3-72.2 72.2-72.2h36.2v-77.9c0-13.7 14.7-22.4 26.7-15.9l172.1 93.8h306.6c39.9 0 72.2 32.3 72.2 72.2V607.2c0.1 39.8-32.3 72.2-72.2 72.2z m-451.4-325c-29.9 0-54.2 24.3-54.2 54.2 0 29.9 24.2 54.2 54.2 54.2 29.9 0 54.2-24.2 54.2-54.2 0-30-24.2-54.2-54.2-54.2z m180.6 0c-29.9 0-54.2 24.3-54.2 54.2 0 29.9 24.2 54.2 54.2 54.2 29.9 0 54.2-24.2 54.2-54.2 0-30-24.3-54.2-54.2-54.2z m180.6 0c-29.9 0-54.2 24.3-54.2 54.2 0 29.9 24.2 54.2 54.2 54.2 29.9 0 54.2-24.2 54.2-54.2-0.1-30-24.3-54.2-54.2-54.2z"  horiz-adv-x="1024" />

    
    <glyph glyph-name="b-biaoqian" unicode="&#58987;" d="M113.3 289.6c0-22 8.6-42.9 23.5-57.4l214.5-207.7c29.8-28.6 86.3-28.6 116.1 0.1l306.8 301.2c45.9 44.4 57.6 62.2 57.6 122.4V565c0 107.7-22 155.7-152.6 155.7H571.8c-66.1 0-104.6-37.9-158.1-90.3l-276.6-283c-15.1-14.6-23.8-35.7-23.8-57.8z m456 236.5c0 43.4 35.3 78.8 78.8 78.8 43.4 0 78.8-35.4 78.8-78.8s-35.3-78.8-78.8-78.8c-43.5 0.1-78.8 35.4-78.8 78.8z m0.4 0"  horiz-adv-x="1024" />

    
    <glyph glyph-name="b-chucha" unicode="&#58988;" d="M766.2 600.6h-512c-43.5 0-78.8-35.3-78.8-78.8v-236.3h295.4v24.6c0 10.9 8.8 19.7 19.7 19.7h39.3c10.9 0 19.8-8.8 19.8-19.8v-24.5H845V521.8c0 43.5-35.3 78.8-78.8 78.8zM549.6 231.39999999999998c0-10.9-8.8-19.7-19.7-19.7h-39.2c-11 0-19.8 8.9-19.8 19.8v14.6H175.5v-131.3c0-36.2 27.3-65.6 60.9-65.6h547.8c33.6 0 60.9 29.4 60.9 65.6V246.20000000000005H549.6v-14.8zM392.1 640h236.3c10.9 0 19.7 8.8 19.7 19.7v39.4c0 10.9-8.8 19.7-19.7 19.7H392.1c-10.9 0-19.7-8.8-19.7-19.7v-39.4c0-10.9 8.8-19.7 19.7-19.7z"  horiz-adv-x="1024" />

    
    <glyph glyph-name="b-fasong" unicode="&#58998;" d="M116.9 348.5c-10.8-5.7-10-20.8 0-25.8l210.8-88.9 58.8-220.1c2.9-10.8 16.5-14.3 24.4-5.7l122.6 139.1 223.7-93.9c9.3-3.6 19.4 2.2 20.1 12.2l53.8 640.3c1.4 10.8-10.8 18.6-20.8 13.6L116.9 348.5z m251-101.8l437.4 451.7-394.4-623.8-43 172.1z m43-172.1"  horiz-adv-x="1024" />

    
    <glyph glyph-name="b-feiji" unicode="&#58999;" d="M897.25155555 499.25688889c-31.06133333 42.89422222-74.752 56.77511111-105.9271111 60.75733333-19.456 2.50311111-39.36711111 0.22755555-57.68533334-6.59911111l-155.98933333-57.344c-8.30577778 0.11377778-16.04266667 2.61688889-22.64177778 7.28177778-56.43377778 39.936-191.14666667 134.37155555-225.84888889 149.84533333-14.67733333 6.48533333-28.78577778 7.50933333-41.87022222 3.072-11.15022222-3.75466667-19.79733333-12.288-23.552-23.43822222-3.75466667-11.03644445-2.048-22.86933333 4.89244444-33.10933333l136.76088889-167.48088889-102.17244444-37.77422223c-13.42577778-4.89244445-28.44444445-4.20977778-41.18755556 2.048l-70.656 34.3608889c-9.44355555 4.66488889-20.02488889 6.71288889-30.60622222 6.03022222l-17.29422222-1.024c-9.89866667-0.56888889-17.97688889-6.71288889-21.27644445-15.92888889-3.18577778-9.10222222-0.79644445-18.77333333 6.37155556-25.37244445l109.79555556-100.57955555c14.10844445-13.08444445 32.768-20.02488889 51.76888888-20.02488889 7.62311111 0 15.36 1.13777778 22.86933334 3.52711111l569.00266666 176.69688889c9.32977778 2.84444445 16.27022222 9.78488889 19.34222222 18.88711111 2.95822222 8.87466667 1.47911111 18.432-4.096 26.16888889zM830.57777778 55.18222221999997H250.42488889c-12.288 0-22.41422222 10.12622222-22.41422222 22.41422223v44.82844444c0 12.288 10.12622222 22.41422222 22.41422222 22.41422222H830.57777778c12.288 0 22.41422222-10.12622222 22.41422222-22.41422222v-44.82844444c0-12.288-10.12622222-22.41422222-22.41422222-22.41422223z"  horiz-adv-x="1024" />

    
    <glyph glyph-name="b-gouwu" unicode="&#59000;" d="M745.6 706H275.4c-43.5 0-78.8-35.3-78.8-78.8v-512c0-43.5 35.3-78.8 78.8-78.8H748c43.5 0 78.8 35.3 78.8 78.8V624.8c-0.1 44.8-36.4 81.2-81.2 81.2zM511.7 325.70000000000005c-103.8 0-188.2 84.4-188.2 188.3 0 10.9 8.8 19.7 19.7 19.7s19.7-8.8 19.7-19.7c0-82.1 66.8-148.9 148.8-148.9S660.5 431.9 660.5 514c0 10.9 8.8 19.7 19.7 19.7 10.9 0 19.7-8.8 19.7-19.7 0-103.8-84.4-188.3-188.2-188.3z"  horiz-adv-x="1024" />

    
    <glyph glyph-name="b-gouwuche" unicode="&#59001;" d="M388.9 84.5c-28.4 0-51.2-22.8-51.2-51.2 0-28.4 22.8-51.2 51.2-51.2 28.4 0 51.2 22.8 51.2 51.2 0 28.3-22.8 51.2-51.2 51.2z m0 3.9M743.6 84.5c-28.4 0-51.2-22.8-51.2-51.2 0-28.4 22.8-51.2 51.2-51.2 28.4 0 51.2 22.8 51.2 51.2 0 28.3-23 51.2-51.2 51.2z m0 0M808.8 641.4H279l-1.9 10.8c-4.7 38.5-38.5 68.5-77 68.5h-33.4c-14.6 0-26.4-11.8-26.4-26.4 0-14.6 11.8-26.4 26.4-26.4H200c11.5 0 23.3-10.5 24.7-23.3L250.3 497l44.9-315.7c4.7-38.5 38.1-68.7 76.3-68.7h429.9c14.6 0 26.4 11.8 26.4 26.4 0 14.6-11.8 26.4-26.4 26.4h-430c-11.2 0-22.3 10.4-23.9 22.7l-4.4 30.8L762.6 245c38.1 0 71.6 30.1 76.1 67.2l41.9 238.3c9.5 53.8 0.5 90.9-71.8 90.9z"  horiz-adv-x="1024" />

    
    <glyph glyph-name="b-hezuo" unicode="&#59002;" d="M826.8 304.9L562.6 569.2l60.2 60.2c16.6 16.6 43.7 16.6 60.2 0l204-204c16.6-16.6 16.6-43.7 0-60.2l-60.2-60.3zM450 129.5c-8.3 8.3-8.3 21.8 0 30.1s21.8 8.3 30.1 0L580.8 59l51.9 51.9L532 211.5c-8.3 8.3-8.3 21.8 0 30.1s21.8 8.3 30.1 0L662.8 141l51.9 51.9L614 293.5c-8.3 8.3-8.3 21.8 0 30.1s21.8 8.3 30.1 0L744.8 223l51.9 51.9-358.3 358.2c-16.6 16.6-43.7 16.6-60.2 0L140.5 395.5c-16.6-16.6-16.6-43.7 0-60.2l328.2-328.2c16.6-16.6 43.7-16.6 60.2 0l21.8 21.8L450 129.5z"  horiz-adv-x="1024" />

    
    <glyph glyph-name="b-gongsi" unicode="&#59003;" d="M548.6 648.2H273.3c-21.9 0-39.6-17.7-39.6-39.6v-551.1h354.5V608.6c0 21.8-17.7 39.6-39.6 39.6z m-173.7-440c0-4.4-3.6-8-8-8h-62.7c-4.4 0-8 3.6-8 8v23.3c0 4.4 3.6 8 8 8h62.7c4.4 0 8-3.6 8-8v-23.3z m0 161.2c0-4.4-3.6-8-8-8h-62.7c-4.4 0-8 3.6-8 8v23.3c0 4.4 3.6 8 8 8h62.7c4.4 0 8-3.6 8-8v-23.3z m0 161.2c0-4.4-3.6-8-8-8h-62.7c-4.4 0-8 3.6-8 8v23.3c0 4.4 3.6 8 8 8h62.7c4.4 0 8-3.6 8-8v-23.3zM531 208.20000000000005c0-4.4-3.6-8-8-8h-62.7c-4.4 0-8 3.6-8 8v23.3c0 4.4 3.6 8 8 8H523c4.4 0 8-3.6 8-8v-23.3z m0 161.2c0-4.4-3.6-8-8-8h-62.7c-4.4 0-8 3.6-8 8v23.3c0 4.4 3.6 8 8 8H523c4.4 0 8-3.6 8-8v-23.3z m0 161.2c0-4.4-3.6-8-8-8h-62.7c-4.4 0-8 3.6-8 8v23.3c0 4.4 3.6 8 8 8H523c4.4 0 8-3.6 8-8v-23.3zM780.4 411.9H632.3c-24.3 0-44.1-19.7-44.1-44.1v-310.4h236.3V367.79999999999995c0 24.3-19.7 44.1-44.1 44.1z m-34.7-354.5H667v99.3c0 10.8 8.8 19.6 19.6 19.6h39.6c10.8 0 19.6-8.8 19.6-19.6v-99.3z"  horiz-adv-x="1024" />

    
    <glyph glyph-name="b-jiaoyu" unicode="&#59004;" d="M964.6 524.8l-349.1 141c-39.7 16-116.9 11.3-171.6-10.5l-298.5-119c-54.7-21.8-66.9-52.8-27.2-68.9l349.1-140.9c58.1-19.6 105.8-13.2 171.6 10.5l298.3 119c54.8 21.9 67.2 52.8 27.4 68.8z m0 0M479.9 286l-182.8 73.8v-175.3c0-42.3 110-118.4 244.3-118.4s244.3 59.3 244.3 118.4V359.79999999999995l-167.5-65.4c-51.6-21.8-97.3-22.3-138.3-8.4z m0 0M898.3 269.5h-39.4c-10.8 0-19.7 8.9-19.7 19.7V481.8c0 10.8 8.9 19.7 19.7 19.7h39.4c10.8 0 19.7-8.9 19.7-19.7v-192.6c0-10.8-8.9-19.7-19.7-19.7z"  horiz-adv-x="1024" />

    
    <glyph glyph-name="biaodanliucheng-tianjiaziduan-danhang" unicode="&#58882;" d="M648 43.5h-48.6c-14.4 0-26.2 2.7-35.1 8.1-9 5.4-13.5 13.5-13.5 24.3v563c0 24.3 1.8 37.8 5.4 40.5 3.5 2.7 23.4 4.1 59.4 4.1 50.4 0 83.7-7.5 99.9-22.3 16.2-14.9 38.6-50.6 67.5-107.3l27 4.1-43.2 153.9h-513L205.2 558l32.4-4.1c28.8 59.4 53.1 95.8 72.9 109.4 19.7 13.5 54.8 20.2 105.3 20.2 25.1 0 39.6-1.4 43.2-4.1 3.5-2.7 5.4-14.9 5.4-36.4v-567c0-10.8-3.6-18.9-10.8-24.3-7.3-5.4-19.8-8.1-37.8-8.1h-48.6v-24.3H648v24.2z"  horiz-adv-x="1024" />

    
    <glyph glyph-name="biaodanliucheng-tianjiaziduan-shouji" unicode="&#58883;" d="M768 832H256c-35.3 0-64-28.7-64-64v-768c0-35.3 28.7-64 64-64h512c35.3 0 64 28.7 64 64V768c0 35.3-28.6 64-64 64zM512 0c-35.3 0-64 14.3-64 32s28.7 32 64 32 64-14.3 64-32-28.6-32-64-32z m256 128H256V768h512v-640z"  horiz-adv-x="1024" />

    
    <glyph glyph-name="biaodanliucheng-tianjiaziduan-riqi" unicode="&#58884;" d="M832 704v64H704v-64H320v64H192v-64H64l0.5-703.6H960V704H832z m64-640H128V576h768v-512zM512 384h-64v64h128v-256h-64V384z"  horiz-adv-x="1024" />

    
    <glyph glyph-name="biaodanliucheng-tianjiaziduan-duohang" unicode="&#58885;" d="M640 401.4h256v-64H640v64zM640 273.4h256v-64H640v64zM640 145.4h256v-64H640v64zM530.6 103h-43.2c-12.8 0-23.3 2.4-31.2 7.2-8 4.8-12 12-12 21.6V632.2c0 21.6 1.6 33.6 4.8 36 3.1 2.4 20.8 3.6 52.8 3.6 44.8 0 74.4-6.6 88.8-19.8 14.4-13.2 34.3-45 60-95.4l24 3.6L636.2 697h-456L137 560.2l28.8-3.6c25.6 52.8 47.2 85.2 64.8 97.2 17.5 12 48.7 18 93.6 18 22.3 0 35.2-1.2 38.4-3.6 3.1-2.4 4.8-13.2 4.8-32.4v-504c0-9.6-3.2-16.8-9.6-21.6-6.5-4.8-17.6-7.2-33.6-7.2H281v-21.6h249.6V103z"  horiz-adv-x="1024" />

    
    <glyph glyph-name="biaodanliucheng-tianjiaziduan-danxuan" unicode="&#58886;" d="M512 768c-212 0-384-171.9-384-384s172-384 384-384c212.1 0 384 171.9 384 384S724.1 768 512 768z m0-704c-176.7 0-320 143.3-320 320s143.3 320 320 320 320-143.3 320-320-143.2-320-320-320zM512 512c70.7 0 128-57.3 128-128s-57.3-128-128-128-128 57.3-128 128 57.3 128 128 128z"  horiz-adv-x="1024" />

    
    <glyph glyph-name="biaodanliucheng-tianjiaziduan-youxiang" unicode="&#58887;" d="M64.3 703.7v-639.9h895.5V703.7H64.3zM128 128V576l384-320 384 320v-448H128z m384 192L128 640h768L512 320z"  horiz-adv-x="1024" />

    
    <glyph glyph-name="biaodanliucheng_shenpidan" unicode="&#58989;" d="M825.6 832H198.4c-37.1 0-67.2-30.1-67.2-67.2v-761.6c0-37.1 30.1-67.2 67.2-67.2h627.2c37.1 0 67.2 30.1 67.2 67.2V764.8c0 37.1-30.1 67.2-67.2 67.2zM691.2 92.79999999999995H332.8v22.4h358.4v-22.4z m44.8 87.9c0-11.4-10.6-20.7-23.6-20.7H311.6c-13 0-23.6 9.3-23.6 20.7v62.2c0 28.6 26.4 51.8 58.9 51.8h108.8c-6.6 22.5-12.9 47.3-19.1 72.2-16 63.6-36.3 127.6-36.3 154 0 60.5 50 109.5 111.7 109.5s111.7-49 111.7-109.5c0-26.5-20.3-90.5-36.3-154.1-6.3-24.9-12.5-49.7-19.1-72.1H677c32.5 0 58.9-23.2 58.9-51.8v-62.2z"  horiz-adv-x="1024" />

    
    <glyph glyph-name="biaodanliucheng_putongdan" unicode="&#58990;" d="M825.6 832H198.4c-37.1 0-67.2-30.1-67.2-67.2v-761.6c0-37.1 30.1-67.2 67.2-67.2h627.2c37.1 0 67.2 30.1 67.2 67.2V764.8c0 37.1-30.1 67.2-67.2 67.2zM534.4 137.60000000000002H332.8c-24.7 0-44.8 20.1-44.8 44.8 0 24.7 20.1 44.8 44.8 44.8h201.6c24.7 0 44.8-20.1 44.8-44.8 0-24.7-20.1-44.8-44.8-44.8z m156.8 179.2H332.8c-24.7 0-44.8 20.1-44.8 44.8 0 24.8 20.1 44.8 44.8 44.8h358.4c24.7 0 44.8-20.1 44.8-44.8 0-24.7-20.1-44.8-44.8-44.8z m0 179.2H332.8c-24.7 0-44.8 20.1-44.8 44.8 0 24.7 20.1 44.8 44.8 44.8h358.4c24.7 0 44.8-20.1 44.8-44.8 0-24.7-20.1-44.8-44.8-44.8z"  horiz-adv-x="1024" />

    
    <glyph glyph-name="biaodanliucheng_renwudan" unicode="&#58991;" d="M825.6 832H198.4c-37.1 0-67.2-30.1-67.2-67.2v-761.6c0-37.1 30.1-67.2 67.2-67.2h627.2c37.1 0 67.2 30.1 67.2 67.2V764.8c0 37.1-30.1 67.2-67.2 67.2z m-80-365.1L484.7 206c-2-3.9-4.6-7.5-7.9-10.8-8.8-8.8-20.5-13-32.1-12.6-11.5-0.4-23.1 3.8-31.9 12.6-3.2 3.2-5.8 6.8-7.8 10.6L277.7 333c-16.9 16.9-16.9 44.3 0 61.3 16.9 16.9 44.3 16.9 61.2 0l105.9-105.9L684.5 528c16.9 16.9 44.2 16.9 61 0 17-16.9 17-44.2 0.1-61.1z"  horiz-adv-x="1024" />

    
    <glyph glyph-name="biaodanliucheng_waibudan" unicode="&#58992;" d="M825.6 832H198.4c-37.1 0-67.2-30.1-67.2-67.2v-761.6c0-37.1 30.1-67.2 67.2-67.2h627.2c37.1 0 67.2 30.1 67.2 67.2V764.8c0 37.1-30.1 67.2-67.2 67.2zM675.7 315.79999999999995c-20.4-4.1-38-0.3-46.9 19.5-8.2 18 3.5 31.6 16.2 42.7 6.2 5.3 13.8 8.8 20.9 12.9 30.6 17.9 55.7 40.4 40.5 79.3-14.1 36.2-46.6 45.1-81.8 40.4-40.2-5.2-62.4-29-62.6-70.8-0.3-63.9 2-128-1.1-192-3.5-71.5-79.9-135.3-153.6-132.8-79 3.1-142.9 66.9-141.5 162.4 1.9 44.5 41.1 80.3 95.5 104 23.2 10.2 45.1 10.5 57.5-16 14.5-30.8-10.2-41-30.6-49.6-40.8-17.4-61.2-46-41.2-87.5 18.8-39 56.5-46.8 95.5-33.1 32.8 11.4 46.3 37.4 45.5 72.7-1.2 57.8-1.1 115.6 0 173.3 1.4 69.1 33.6 113.6 96.3 136 57.7 20.7 130.1 1.6 168.9-44.6 60.6-72.3 15.6-198-77.5-216.8z"  horiz-adv-x="1024" />

    
    <glyph glyph-name="ic_b-grouping_editor" unicode="&#58993;" d="M848 516.4V48H176V720h448l56 112H176c-61.8 0-112-50.1-112-112v-672c0-61.9 50.2-112 112-112h672c61.8 0 112 50.2 112 112V577.4l-112-61zM442 248.8l496.1 504.8L848 832 362.7 328l79.3-79.2z"  horiz-adv-x="1024" />

    
    <glyph glyph-name="ic_b-grouping_del" unicode="&#58994;" d="M907.8 677.2L829 756 511.1 437.6 194.4 755.2l-76.8-77 316.6-317.5-318.1-318.6 78.7-78.9 318.1 318.6L828.7-35l76.9 77-315.8 316.7z"  horiz-adv-x="1024" />

    
    <glyph glyph-name="ic_b-grouping_set" unicode="&#58995;" d="M878.4 384c0 22.3-2.4 38.6-2.4 38.6-2.2 14.7 6.8 32.8 20 40.3l49.8 28.1c13.2 7.4 17.7 24.1 10.1 37l-94.5 160c-7.6 12.9-24.6 17.4-37.8 9.9l-49.8-28.1c-13.2-7.4-33.8-6-45.8 3.1 0 0-13.3 10.1-32.6 21-19.4 11-35.7 17.5-35.7 17.5-14.1 5.6-25.6 22.4-25.6 37.3V804.9c0 14.9-12.5 27.1-27.7 27.1H417.5c-15.2 0-27.6-12.2-27.6-27.1v-56.3c0-14.9-11.5-31.7-25.6-37.3 0 0-16.3-6.5-35.6-17.4-19.4-10.9-32.7-21-32.7-21-12-9.1-32.6-10.5-45.8-3.1L200.3 698c-13.2 7.4-30.2 3-37.8-9.9L68.1 527.9c-7.6-12.9-3.1-29.5 10.1-37l49.8-28.1c13.2-7.5 22.2-25.6 20-40.3 0 0-2.4-16.2-2.4-38.6 0-22.4 2.4-38.6 2.4-38.6 2.2-14.7-6.8-32.9-20-40.3l-49.8-28c-13.2-7.5-17.7-24.1-10.1-37l94.5-160c7.6-12.9 24.6-17.3 37.8-9.9l49.8 28.1c13.2 7.4 33.8 6 45.8-3.1 0 0 12.2-9.3 30.9-20 19.9-11.4 37.4-18.4 37.4-18.4 14.1-5.6 25.6-22.4 25.6-37.3v-56.3c0-14.9 12.4-27.1 27.6-27.1h188.9c15.2 0 27.7 12.2 27.7 27.1v56.3c0 14.9 11.5 31.6 25.6 37.3 0 0 16.1 6.4 35.4 17.2 19.4 11 32.8 21.2 32.8 21.2 12 9.2 32.6 10.5 45.8 3.1l49.8-28.1c13.1-7.4 30.1-3 37.7 9.9l94.7 160c7.6 12.9 3 29.5-10.1 37L896 305.1c-13.2 7.4-22.2 25.6-20 40.3 0 0 2.4 16.2 2.4 38.6zM512 234.7c-84.3 0-148 66.8-148 149.3 0 82.5 66.8 149.3 149.1 149.3 82.4 0 149.2-66.9 149.2-149.3 0-82.5-66-149.3-150.3-149.3z m1.1 0"  horiz-adv-x="1024" />

    
    <glyph glyph-name="ic_b-grouping_more_vertical" unicode="&#58996;" d="M512 563.2c49.5 0 89.6 40.1 89.6 89.6 0 49.5-40.1 89.6-89.6 89.6-49.5 0-89.6-40.1-89.6-89.6 0-49.5 40.2-89.6 89.6-89.6z m0-268.8c49.5 0 89.6 40.1 89.6 89.6 0 49.5-40.1 89.6-89.6 89.6-49.5 0-89.6-40.1-89.6-89.6 0-49.4 40.1-89.6 89.6-89.6z m0-89.6c-49.5 0-89.6-40.1-89.6-89.6 0-49.5 40.1-89.6 89.6-89.6 49.5 0 89.6 40.1 89.6 89.6 0 49.5-40.1 89.6-89.6 89.6z"  horiz-adv-x="1024" />

    
    <glyph glyph-name="ic_b-grouping_drag" unicode="&#58997;" d="M320 704h128V832H320v-128zM576 832v-128h128V832H576zM320 448h128V576H320v-128z m256 0h128V576H576v-128zM320 192h128V320H320v-128z m256 0h128V320H576v-128zM320-64h128V64H320v-128z m256 0h128V64H576v-128z"  horiz-adv-x="1024" />

    
    <glyph glyph-name="ic_b-grouping_more_horizontal" unicode="&#59005;" d="M691.2 384c0-49.5 40.1-89.6 89.6-89.6 49.5 0 89.6 40.1 89.6 89.6 0 49.5-40.1 89.6-89.6 89.6-49.5 0-89.6-40.2-89.6-89.6z m-268.79999999 0c0-49.5 40.1-89.6 89.59999999-89.59999999 49.5 0 89.6 40.1 89.59999999 89.59999999 0 49.5-40.1 89.6-89.59999999 89.59999999-49.4 0-89.6-40.1-89.59999999-89.59999999z m-89.60000001 0c0 49.5-40.1 89.6-89.6 89.6-49.5 0-89.6-40.1-89.6-89.6 0-49.5 40.1-89.6 89.6-89.6 49.5 0 89.6 40.1 89.6 89.6z"  horiz-adv-x="1024" />

    


  </font>
</defs>
</svg>
