<?xml version="1.0" encoding="UTF-8"?>
<svg width="16px" height="16px" viewBox="0 0 16 16" version="1.1" xmlns="http://www.w3.org/2000/svg" xmlns:xlink="http://www.w3.org/1999/xlink">
    <!-- Generator: Sketch 52.2 (67145) - http://www.bohemiancoding.com/sketch -->
    <title>分组 4 copy@1x</title>
    <desc>Created with Sketch.</desc>
    <defs>
        <polygon id="path-1" points="2.99144116e-05 0.0415757576 7.389873 0.0415757576 7.389873 10.7951956 2.99144116e-05 10.7951956"></polygon>
        <polygon id="path-3" points="0.423354606 0.203289445 12.6589194 0.203289445 12.6589194 5.09090909 0.423354606 5.09090909"></polygon>
    </defs>
    <g id="分组-4-copy" stroke="none" stroke-width="1" fill="none" fill-rule="evenodd">
        <g id="分组-4">
            <rect id="Rectangle" fill="#F5F5F5" opacity="0" x="0" y="0" width="16" height="16"></rect>
            <g id="Group-25" transform="translate(0.250000, 0.000000)">
                <path d="M6.27382424,6.53371515 C5.41600606,6.56213939 4.75164242,7.26171515 4.75164242,8.14965455 C4.75164242,8.48735152 4.82333939,8.68971515 4.93873333,8.90607879 C4.99176364,9.00535152 5.09358182,9.0622 5.19879394,9.0622 C5.24546061,9.0622 5.29297576,9.0511697 5.33709697,9.02741212 C5.48091515,8.95104848 5.53521818,8.77244242 5.4584303,8.62862424 C5.3774,8.47632121 5.34133939,8.37110909 5.34133939,8.14965455 C5.34133939,7.57310909 5.77491515,7.12213939 6.32855152,7.12213939 C6.35867273,7.12213939 6.39006667,7.12383636 6.42400606,7.12638182 C6.5504303,7.13868485 6.67091515,7.06741212 6.7214,6.95032121 C6.88430909,6.57444242 7.25509697,6.33135152 7.66406667,6.33135152 C8.07388485,6.33135152 8.44382424,6.57444242 8.60715758,6.95032121 C8.65764242,7.06741212 8.77770303,7.13868485 8.90455152,7.12638182 C8.93849091,7.12383636 8.96946061,7.12213939 9.00000606,7.12213939 C9.25412727,7.12213939 9.47897576,7.21759394 9.64909697,7.39874545 C9.84679394,7.6091697 9.94903636,7.91504848 9.92909697,8.23747273 C9.91849091,8.4152303 9.89685455,8.46147273 9.80055152,8.59935152 C9.70806667,8.73298788 9.74115758,8.91668485 9.8743697,9.00959394 C10.0084303,9.10250303 10.191703,9.06941212 10.2846121,8.93577576 C10.4462485,8.70329091 10.5005515,8.54886667 10.5175212,8.27353333 C10.5472182,7.78947273 10.3868545,7.3232303 10.0784303,6.99486667 C9.81030909,6.70977576 9.4484303,6.54729091 9.05473333,6.53371515 C8.76582424,6.04710909 8.24018788,5.74207879 7.66406667,5.74207879 C7.08879394,5.74207879 6.56273333,6.04710909 6.27382424,6.53371515" id="Fill-1" fill="#E95205"></path>
                <path d="M5.91504242,9.70267879 C6.0648,9.75486061 6.11358788,9.76589091 6.29092121,9.76589091 C6.29728485,9.76589091 6.30364848,9.76546667 6.31043636,9.76546667 C6.32570909,9.76504242 6.34140606,9.76461818 6.35667879,9.76419394 C6.38170909,9.76292121 6.40631515,9.76164848 6.43134545,9.75952727 C6.44492121,9.75825455 6.45807273,9.75698182 6.47164848,9.75528485 C6.49922424,9.75231515 6.5268,9.74849697 6.55437576,9.74425455 C6.56455758,9.74255758 6.57516364,9.74086061 6.58534545,9.73873939 C6.61589091,9.7328 6.64643636,9.72686061 6.67655758,9.71922424 C6.6837697,9.71710303 6.6918303,9.71540606 6.69946667,9.71328485 C6.73170909,9.70522424 6.76352727,9.69546667 6.79492121,9.68528485 C6.80128485,9.68316364 6.80764848,9.68146667 6.81358788,9.67934545 C6.84498182,9.66873939 6.87595152,9.65728485 6.90649697,9.64413333 C6.91328485,9.64116364 6.92007273,9.63904242 6.92728485,9.63607273 C6.95316364,9.62461818 6.97904242,9.61231515 7.00449697,9.59958788 C7.01595152,9.59407273 7.02698182,9.58898182 7.03801212,9.58389091 C7.04013333,9.58261818 7.04225455,9.58092121 7.0448,9.58007273 C7.07534545,9.56395152 7.10589091,9.54698182 7.13558788,9.52873939 C7.29425455,9.57837576 7.46098182,9.60298182 7.62728485,9.60255758 C7.79443636,9.60298182 7.96073939,9.57837576 8.11940606,9.52873939 C8.14952727,9.54698182 8.17964848,9.56395152 8.21019394,9.58007273 C8.21231515,9.58092121 8.21486061,9.58261818 8.21698182,9.58389091 C8.22758788,9.58898182 8.23946667,9.59407273 8.25007273,9.59958788 C8.27552727,9.61231515 8.30140606,9.62461818 8.32770909,9.63607273 C8.33449697,9.63904242 8.34170909,9.64116364 8.34849697,9.64413333 C8.37946667,9.65728485 8.41001212,9.66873939 8.44098182,9.67934545 C8.44734545,9.68146667 8.45370909,9.68316364 8.46007273,9.68528485 C8.49146667,9.69546667 8.52328485,9.70522424 8.55552727,9.71328485 C8.56316364,9.71540606 8.5708,9.71710303 8.57843636,9.71922424 C8.60898182,9.72686061 8.63910303,9.7328 8.66964848,9.73873939 C8.68025455,9.74086061 8.69043636,9.74255758 8.70061818,9.74425455 C8.72819394,9.74849697 8.75534545,9.75231515 8.78334545,9.75528485 C8.79692121,9.75698182 8.81007273,9.75825455 8.82364848,9.75952727 C8.84825455,9.76164848 8.87328485,9.76292121 8.89789091,9.76419394 C8.91358788,9.76461818 8.92886061,9.76504242 8.94498182,9.76546667 C8.95134545,9.76546667 8.95770909,9.76589091 8.96407273,9.76589091 C9.14140606,9.76589091 9.19061818,9.75486061 9.33995152,9.70267879 L9.35904242,9.69589091 C9.51261818,9.64243636 9.59449697,9.47486061 9.54104242,9.32128485 C9.48758788,9.16728485 9.31958788,9.08625455 9.16601212,9.13928485 L9.14607273,9.14607273 C9.10067879,9.16219394 9.07861818,9.1698303 9.05443636,9.17322424 C9.05061818,9.17364848 9.04637576,9.17364848 9.04170909,9.17407273 L9.02049697,9.17534545 C8.99546667,9.17661818 8.96958788,9.17661818 8.94413333,9.17619394 C8.9318303,9.1757697 8.91952727,9.17534545 8.90764848,9.17449697 C8.88940606,9.17364848 8.87158788,9.17237576 8.8537697,9.17025455 C8.84273939,9.16898182 8.83213333,9.16770909 8.82110303,9.16601212 C8.80201212,9.16346667 8.78249697,9.16049697 8.76340606,9.15667879 C8.75364848,9.15455758 8.74473939,9.15286061 8.73498182,9.15073939 C8.71546667,9.14607273 8.69552727,9.14098182 8.67601212,9.13504242 C8.66710303,9.13249697 8.65819394,9.12995152 8.64928485,9.12740606 C8.63104242,9.12146667 8.61322424,9.11467879 8.59540606,9.10831515 C8.58522424,9.10407273 8.57461818,9.10025455 8.56443636,9.09601212 C8.55128485,9.09092121 8.53898182,9.08413333 8.52625455,9.07819394 C8.46092121,9.04764848 8.39855758,9.00989091 8.34001212,8.96534545 C8.32855758,8.95643636 8.31667879,8.94922424 8.30437576,8.94201212 C8.22292121,8.89407273 8.12237576,8.88686061 8.03455758,8.92589091 C7.90558788,8.98273939 7.76643636,9.01158788 7.62728485,9.01243636 C7.48813333,9.01158788 7.34898182,8.98273939 7.22001212,8.92589091 C7.13219394,8.88686061 7.03207273,8.89407273 6.95019394,8.94201212 C6.93831515,8.94922424 6.92643636,8.95643636 6.91498182,8.96534545 C6.85643636,9.00989091 6.79364848,9.04764848 6.72873939,9.07819394 C6.71601212,9.08413333 6.70328485,9.09092121 6.69055758,9.09601212 C6.68037576,9.10025455 6.6697697,9.10407273 6.65958788,9.10831515 C6.6417697,9.11467879 6.62395152,9.12146667 6.60570909,9.12740606 C6.59637576,9.12995152 6.58789091,9.13249697 6.57898182,9.13504242 C6.55946667,9.14098182 6.53995152,9.14607273 6.51958788,9.15073939 C6.51025455,9.15286061 6.50134545,9.15455758 6.49158788,9.15667879 C6.47249697,9.16049697 6.45340606,9.16346667 6.43389091,9.16601212 C6.42286061,9.16770909 6.41225455,9.16898182 6.40122424,9.17025455 C6.38340606,9.17237576 6.36558788,9.17364848 6.3477697,9.17449697 C6.33504242,9.17534545 6.32316364,9.1757697 6.31086061,9.17619394 C6.28540606,9.17661818 6.25952727,9.17661818 6.23407273,9.17534545 L6.21328485,9.17407273 C6.20861818,9.17364848 6.2048,9.17364848 6.20013333,9.17322424 C6.17637576,9.1698303 6.15431515,9.16219394 6.10892121,9.14607273 L6.08898182,9.13928485 C5.93540606,9.08625455 5.76740606,9.16728485 5.71395152,9.32128485 C5.66049697,9.47486061 5.74195152,9.64243636 5.89552727,9.69589091 L5.91504242,9.70267879 Z" id="Fill-3" fill="#E95205"></path>
                <path d="M5.54964242,5.76685455 C5.60309697,5.74055152 5.65146061,5.71764242 5.69812727,5.69770303 C5.73503636,5.68158182 5.76897576,5.65782424 5.79655152,5.62812727 C6.19109697,5.20600606 6.59200606,4.97267273 7.05952121,4.89333939 C7.21988485,4.86618788 7.32764242,4.71430909 7.30049091,4.55394545 C7.27291515,4.39315758 7.12146061,4.2854 6.96067273,4.31212727 C6.3854,4.40970303 5.87673333,4.6943697 5.40794545,5.1814 C5.36933939,5.19921818 5.32903636,5.21830909 5.28703636,5.23952121 C4.23576364,5.76346061 3.55697576,6.87709697 3.55697576,8.0764303 C3.55697576,8.71024848 3.67279394,9.07891515 3.90061212,9.57655152 C3.95024848,9.68473333 4.05715758,9.74879394 4.16915758,9.74879394 C4.21030909,9.74879394 4.25146061,9.73988485 4.29133939,9.72164242 C4.43982424,9.65376364 4.50430909,9.47897576 4.43685455,9.33091515 C4.23576364,8.89309697 4.14624848,8.60800606 4.14624848,8.0764303 C4.14624848,7.09897576 4.69733939,6.19194545 5.54964242,5.76685455" id="Fill-5" fill="#E95205"></path>
                <path d="M11.0357758,9.70726061 C11.0756545,9.72550303 11.1172303,9.73398788 11.1583818,9.73398788 C11.2703818,9.73398788 11.3772909,9.67035152 11.426503,9.5621697 C11.6547455,9.06410909 11.7701394,8.69586667 11.7701394,8.06247273 C11.7701394,6.86271515 11.0917758,5.74907879 10.040503,5.22513939 C9.99892727,5.20392727 9.95862424,5.18483636 9.91959394,5.16701818 C9.45080606,4.67956364 8.94213939,4.39532121 8.36686667,4.29774545 C8.20650303,4.27101818 8.05462424,4.37835152 8.02704848,4.53913939 C7.99989697,4.69950303 8.10807879,4.85180606 8.26844242,4.87895758 C8.73510909,4.95829091 9.13644242,5.1912 9.53098788,5.61374545 C9.55898788,5.64344242 9.59250303,5.6672 9.62983636,5.68332121 C9.67650303,5.70326061 9.72444242,5.72574545 9.77747273,5.75247273 C10.6302,6.17756364 11.1812909,7.0841697 11.1812909,8.06247273 C11.1812909,8.59362424 11.0917758,8.87871515 10.8906848,9.31653333 C10.8228061,9.46459394 10.8877152,9.63938182 11.0357758,9.70726061" id="Fill-7" fill="#E95205"></path>
                <path d="M4.7363697,10.6340182 C5.09273333,10.9237758 6.26491515,11.5228061 7.61485455,11.5232303 L7.6174,11.5232303 C9.12770303,11.5232303 10.1429152,10.9076545 10.5094606,10.6429273 L10.5200667,10.6352909 C10.6528545,10.5415333 10.685097,10.3582606 10.5917636,10.2246242 C10.4980061,10.0918364 10.3138848,10.0595939 10.181097,10.1529273 L10.1645515,10.1652303 C9.84467273,10.3960182 8.95546061,10.9339576 7.6174,10.9339576 L7.61527879,10.9339576 C6.3183697,10.9331091 5.29297576,10.3268667 5.10800606,10.1766848 C4.98200606,10.0740182 4.79661212,10.0931091 4.69352121,10.2191091 C4.59085455,10.3455333 4.60994545,10.5313515 4.7363697,10.6340182" id="Fill-9" fill="#E95205"></path>
                <path d="M13.7730727,6.10739394 C13.4179818,4.96745455 12.7616788,3.96539394 11.8656788,3.18436364 C11.8406485,3.16272727 11.8156182,3.14109091 11.7905879,3.11945455 C11.7676788,3.10036364 11.7456182,3.08084848 11.7222848,3.06218182 C11.6662848,3.01593939 11.6094364,2.97054545 11.5521636,2.92642424 C11.5500424,2.92472727 11.5483455,2.92345455 11.5462242,2.92175758 L11.5453758,2.92133333 C10.8886485,2.41648485 10.1262848,2.0329697 9.28458788,1.81024242 C9.12719394,1.76866667 8.96598182,1.86284848 8.92440606,2.01981818 C8.8828303,2.17721212 8.97658788,2.33842424 9.13398182,2.38042424 C9.89804242,2.58193939 10.5904061,2.93066667 11.1864667,3.38884848 C11.1868909,3.38927273 11.1873152,3.38969697 11.1877394,3.38969697 C11.2467091,3.43466667 11.3048303,3.48133333 11.3612545,3.528 C11.3693152,3.53478788 11.3765273,3.54072727 11.3841636,3.54751515 C11.4189515,3.57636364 11.4537394,3.60648485 11.4876788,3.6370303 C12.9080424,4.88812121 13.686103,6.80018182 13.4268909,8.78351515 C13.4260424,8.78945455 13.4256182,8.79539394 13.4251939,8.80133333 C13.3831939,9.11442424 13.3165879,9.4249697 13.2228303,9.73127273 C13.2143455,9.76012121 13.1184667,10.1054545 13.0777394,10.2526667 C13.0344667,10.4096364 13.1265273,10.571697 13.283497,10.6153939 C13.3093758,10.6226061 13.336103,10.626 13.3619818,10.626 C13.4913758,10.626 13.6097394,10.540303 13.6458,10.4100606 C13.6958606,10.2280606 13.7790121,9.92939394 13.7866485,9.90309091 C14.1650727,8.66260606 14.1604061,7.35042424 13.7730727,6.10739394" id="Fill-11" fill="#E95205"></path>
                <path d="M15.1949212,6.93848485 C15.1949212,6.93763636 15.194497,6.93678788 15.194497,6.93593939 C15.1868606,6.88418182 15.1792242,6.83242424 15.1703152,6.78066667 C15.1694667,6.77387879 15.1686182,6.76709091 15.1673455,6.75987879 C15.1592848,6.71448485 15.1512242,6.66824242 15.1427394,6.62284848 C15.1401939,6.60842424 15.1372242,6.59357576 15.1342545,6.57872727 C15.1270424,6.5409697 15.1194061,6.50278788 15.1117697,6.46460606 C15.1066788,6.43957576 15.1007394,6.41539394 15.0956485,6.39036364 C15.0892848,6.36236364 15.0833455,6.33393939 15.0769818,6.30593939 C15.0765576,6.30339394 15.0757091,6.30042424 15.0752848,6.29787879 C15.0672242,6.26478788 15.0591636,6.23254545 15.051103,6.19987879 C15.0464364,6.18163636 15.0426182,6.16339394 15.0379515,6.14557576 C15.0269212,6.10145455 15.0150424,6.05818182 15.0031636,6.01406061 C15.0006182,6.00430303 14.9980727,5.99412121 14.995103,5.98436364 C14.9823758,5.93769697 14.9688,5.8910303 14.9552242,5.84521212 C14.953103,5.83757576 14.9509818,5.83036364 14.9484364,5.82230303 C14.9374061,5.78539394 14.9255273,5.74806061 14.9136485,5.71115152 C14.7036485,5.04975758 14.4028606,4.41551515 14.0159515,3.82751515 C13.7877091,3.48133333 13.5323152,3.15551515 13.2544364,2.85345455 C13.2535879,2.85260606 13.2523152,2.85133333 13.2514667,2.85006061 C13.2158303,2.81145455 13.1797697,2.77327273 13.1428606,2.73509091 C13.1407394,2.73254545 13.1381939,2.73 13.1356485,2.72745455 C13.1004364,2.69054545 13.0648,2.65448485 13.0291636,2.61842424 L13.0177091,2.60739394 C12.982497,2.57260606 12.9468606,2.53781818 12.9112242,2.50387879 C12.9069818,2.49963636 12.9031636,2.49581818 12.898497,2.492 C12.8628606,2.45763636 12.8268,2.42369697 12.7903152,2.39060606 C12.786497,2.38678788 12.7826788,2.38381818 12.7788606,2.38 C12.7415273,2.34648485 12.7041939,2.31254545 12.6664364,2.27945455 C12.6638909,2.27733333 12.6613455,2.27563636 12.6592242,2.27351515 C11.8319515,1.55018182 10.8540727,1.00842424 9.7888,0.697030303 C9.78498182,0.696181818 9.78116364,0.694909091 9.77734545,0.694060606 L9.60255758,0.650787879 C9.46255758,0.609212121 9.31704242,0.589272727 9.17067879,0.58969697 C8.34043636,0.593939394 7.66801212,1.27315152 7.67267879,2.10339394 C7.67564848,2.76987879 8.10667879,3.346 8.74473939,3.53775758 C8.74813333,3.53860606 8.75195152,3.53987879 8.7557697,3.54072727 L9.10152727,3.62981818 C10.1048606,3.96284848 10.9732848,4.64587879 11.5481333,5.55290909 C11.7301333,5.83927273 11.8786182,6.14260606 11.9923152,6.45654545 C11.9927394,6.45739394 11.9927394,6.45824242 11.9931636,6.45866667 C12.0139515,6.51636364 12.0334667,6.57406061 12.0517091,6.63218182 C12.0699515,6.6890303 12.0869212,6.74672727 12.1026182,6.80442424 C12.1030424,6.80612121 12.1034667,6.8069697 12.1038909,6.80824242 C12.2366788,7.29612121 12.2901333,7.80563636 12.2587394,8.31684848 C12.2570424,8.34527273 12.2553455,8.37412121 12.2528,8.40254545 C12.2519515,8.42248485 12.2494061,8.44242424 12.2477091,8.46236364 C12.2421939,8.51709091 12.2362545,8.57139394 12.2294667,8.62569697 C12.2120727,8.75466667 12.1904364,8.87812121 12.1649818,8.99987879 C12.1598909,9.02448485 12.1552242,9.04866667 12.1492848,9.07284848 C12.1471636,9.08218182 12.1450424,9.09109091 12.1429212,9.10042424 C12.1161939,9.21242424 12.0856485,9.324 12.0500121,9.43515152 C12.0457697,9.44830303 12.0428,9.46187879 12.0402545,9.4750303 C12.0105576,9.57048485 11.9770424,9.66763636 11.9397091,9.76860606 C11.8832848,9.92090909 11.9613455,10.0906061 12.1140727,10.1466061 C12.1475879,10.1593333 12.1819515,10.1652727 12.2163152,10.1652727 C12.3363758,10.1652727 12.4483758,10.0918788 12.4929212,9.97266667 C12.5849818,9.72278788 12.6562545,9.48987879 12.7114061,9.25484848 C12.716497,9.23406061 12.7215879,9.21327273 12.7266788,9.19206061 C12.7296485,9.17593939 12.7330424,9.15981818 12.7368606,9.14327273 C12.7682545,8.9990303 12.7937091,8.85436364 12.8128,8.70927273 C12.8128,8.70757576 12.8132242,8.70587879 12.8136485,8.70418182 C12.8136485,8.70290909 12.8136485,8.70163636 12.8140727,8.70078788 C12.8212848,8.64224242 12.8280727,8.58369697 12.8335879,8.52472727 C12.8357091,8.49969697 12.8382545,8.47424242 12.8403758,8.44963636 C12.8429212,8.41866667 12.8446182,8.38854545 12.8467394,8.35842424 C12.8904364,7.68727273 12.8009212,7.01357576 12.587103,6.37593939 C12.5748,6.33987879 12.5633455,6.30339394 12.5506182,6.26775758 C12.545103,6.25290909 12.5391636,6.23806061 12.5340727,6.22278788 C12.5128606,6.16593939 12.4908,6.10866667 12.4674667,6.05181818 C12.4653455,6.04715152 12.4636485,6.04248485 12.4615273,6.03781818 C12.1178909,5.20290909 11.5591636,4.45284848 10.8116485,3.88054545 C10.8023152,3.87290909 10.7917091,3.86781818 10.7819515,3.86187879 C10.3280121,3.51739394 9.82019394,3.24630303 9.27673939,3.06727273 C9.27037576,3.06515152 9.26443636,3.06345455 9.25807273,3.06175758 L8.90892121,2.97139394 C8.52328485,2.85345455 8.26364848,2.50430303 8.26152727,2.10042424 C8.25898182,1.59472727 8.66795152,1.18193939 9.17364848,1.1789697 C9.26486061,1.18024242 9.35437576,1.19127273 9.44092121,1.21715152 C9.44516364,1.21884848 9.44940606,1.21969697 9.45407273,1.22054545 L9.62886061,1.26466667 C10.462497,1.5090303 11.2384364,1.90654545 11.9201939,2.42963636 C11.9210424,2.43006061 11.9214667,2.43048485 11.9223152,2.43133333 C12.0835273,2.55478788 12.2388,2.6850303 12.3881333,2.82121212 L12.3906788,2.82375758 C12.4267394,2.85642424 12.4623758,2.88951515 12.4975879,2.9230303 L12.5022545,2.92812121 C12.5370424,2.96163636 12.5714061,2.99515152 12.6053455,3.02866667 L12.6112848,3.03460606 C12.6456485,3.0689697 12.6795879,3.10375758 12.713103,3.13854545 C12.7143758,3.13981818 12.7160727,3.14109091 12.7173455,3.14236364 C12.7517091,3.17842424 12.7856485,3.21448485 12.8191636,3.25139394 C12.8195879,3.25139394 12.8195879,3.25181818 12.8200121,3.25224242 C13.5170424,4.00951515 14.0422545,4.91357576 14.354497,5.89654545 C14.3642545,5.92836364 14.3744364,5.96018182 14.3841939,5.99242424 C14.3871636,6.00218182 14.3901333,6.01236364 14.3926788,6.0229697 C14.4049818,6.06242424 14.4160121,6.10145455 14.4270424,6.14133333 C14.4304364,6.15321212 14.4334061,6.16551515 14.4368,6.17739394 C14.4469818,6.21472727 14.4571636,6.25248485 14.466497,6.28981818 C14.4720121,6.31060606 14.4766788,6.33054545 14.4813455,6.35133333 C14.4885576,6.38018182 14.4957697,6.40860606 14.5021333,6.43745455 C14.5093455,6.46715152 14.5152848,6.49684848 14.5220727,6.52654545 C14.5263152,6.54563636 14.5305576,6.56430303 14.5343758,6.58339394 C14.5424364,6.622 14.5496485,6.66060606 14.5572848,6.69878788 C14.5594061,6.7089697 14.5615273,6.71915152 14.5632242,6.72975758 C14.5717091,6.77430303 14.5797697,6.81927273 14.5869818,6.86424242 C14.5874061,6.86806061 14.5882545,6.87145455 14.5886788,6.87527273 C14.8245576,8.30666667 14.6149818,9.78642424 13.9841333,11.0888485 C13.9132848,11.2356364 13.9748,11.411697 14.1211636,11.4825455 C14.1623152,11.5029091 14.2064364,11.5122424 14.2492848,11.5122424 C14.3587394,11.5122424 14.4639515,11.4511515 14.5144364,11.3459394 C14.8695273,10.612 15.1015879,9.82672727 15.2068,9.02363636 C15.2072242,9.02109091 15.2076485,9.0189697 15.2080727,9.01642424 C15.2992848,8.32151515 15.2929212,7.62193939 15.1949212,6.93848485" id="Fill-13" fill="#E95205"></path>
                <path d="M1.84744848,7.28441212 C1.85678182,7.21059394 1.86823636,7.1372 1.88011515,7.0642303 C1.88181212,7.05489697 1.88393333,7.04598788 1.8856303,7.0362303 C1.89326667,6.99083636 1.90217576,6.94544242 1.91108485,6.90047273 C2.28484242,5.04526061 3.55205455,3.41532121 5.39878182,2.64871515 C5.40472121,2.6461697 5.40981212,2.64362424 5.41532727,2.64065455 C5.7076303,2.52059394 6.01011515,2.42301818 6.32150909,2.35089697 C6.35078182,2.34410909 6.69823636,2.25459394 6.84587273,2.21598788 C7.00326667,2.17526061 7.09787273,2.01404848 7.05672121,1.85665455 C7.01641818,1.69926061 6.8556303,1.6042303 6.69781212,1.64538182 C6.51538788,1.69289697 6.21544848,1.77053333 6.18829697,1.77689697 C4.92532727,2.0692 3.79090303,2.72974545 2.90805455,3.68683636 C2.09902424,4.56374545 1.55853939,5.63326061 1.33029697,6.79992727 C1.32435758,6.8321697 1.31799394,6.86441212 1.31205455,6.89665455 C1.30696364,6.92635152 1.30144848,6.95604848 1.29635758,6.98532121 C1.28447879,7.05701818 1.27344848,7.12871515 1.26411515,7.20083636 C1.26369091,7.20295758 1.26326667,7.20507879 1.26284242,7.20762424 L1.26284242,7.20932121 C1.15381212,8.0302303 1.2026,8.88253333 1.43126667,9.72210909 C1.46690303,9.85362424 1.58569091,9.93974545 1.71508485,9.93974545 C1.74096364,9.93974545 1.76726667,9.93635152 1.79272121,9.92913939 C1.94969091,9.88671515 2.0426,9.72465455 1.99975152,9.56768485 C1.79229697,8.80489697 1.74817576,8.03150303 1.84702424,7.28568485 C1.84702424,7.28526061 1.84702424,7.28483636 1.84744848,7.28441212" id="Fill-15" fill="#E95205"></path>
                <g id="Group-19" transform="translate(0.000000, 0.382836)">
                    <mask id="mask-2" fill="white">
                        <use xlink:href="#path-1"></use>
                    </mask>
                    <g id="Clip-18"></g>
                    <path d="M1.73392121,10.7951879 C1.99737576,10.7951879 2.25701212,10.7256121 2.4907697,10.5894303 C3.06646667,10.2530061 3.35028485,9.59161212 3.19713333,8.9433697 C3.19628485,8.93955152 3.19501212,8.93573333 3.19416364,8.93191515 L3.09870909,8.58827879 C2.88573939,7.55270303 3.04228485,6.45900606 3.54034545,5.5074303 C3.69731515,5.20749091 3.88525455,4.92833939 4.09949697,4.67294545 C4.1007697,4.67124848 4.10161818,4.66997576 4.10289091,4.66912727 C4.14064848,4.62415758 4.17967879,4.58046061 4.21828485,4.53718788 C4.60264848,4.11676364 5.0638,3.76676364 5.58010303,3.50924848 C5.60513333,3.4973697 5.63016364,3.48464242 5.65519394,3.47233939 C5.67386061,3.46385455 5.69295152,3.4553697 5.71161818,3.44688485 C5.7608303,3.4244 5.81046667,3.40191515 5.86095152,3.38155152 C5.98186061,3.33191515 6.09937576,3.28864242 6.21773939,3.25003636 C6.24149697,3.24197576 6.2648303,3.23433939 6.28773939,3.22712727 C6.29749697,3.22415758 6.30640606,3.22161212 6.31616364,3.21906667 C6.42646667,3.18597576 6.53804242,3.15670303 6.65173939,3.13209697 C6.66531515,3.12912727 6.67804242,3.12488485 6.69119394,3.12021818 C6.78834545,3.09858182 6.88889091,3.07906667 6.99537576,3.06082424 C7.15573939,3.03324848 7.26349697,2.88094545 7.23634545,2.72058182 C7.20834545,2.56021818 7.05646667,2.45203636 6.89567879,2.47961212 C6.63392121,2.52458182 6.39634545,2.57973333 6.16555758,2.64888485 C6.14434545,2.65524848 6.12398182,2.66118788 6.1027697,2.66797576 C6.08749697,2.67264242 6.07222424,2.67773333 6.05652727,2.68282424 C5.91610303,2.72694545 5.77864848,2.77785455 5.64373939,2.8334303 C5.64119394,2.83470303 5.63907273,2.83555152 5.63695152,2.8364 C5.63525455,2.83682424 5.63355758,2.83767273 5.63228485,2.83809697 C5.5788303,2.86058182 5.5258,2.88433939 5.4727697,2.90809697 C5.44943636,2.91912727 5.42525455,2.92973333 5.40192121,2.94033939 C5.37519394,2.95349091 5.34889091,2.96664242 5.32258788,2.97979394 C4.71889091,3.27718788 4.18010303,3.69124848 3.73507273,4.19524848 C3.70919394,4.22409697 3.68331515,4.25294545 3.65828485,4.28221818 C3.64810303,4.29452121 3.63834545,4.3064 3.62858788,4.31827879 C3.58913333,4.36579394 3.55052727,4.41373333 3.5127697,4.46209697 C3.51022424,4.46633939 3.50725455,4.47015758 3.50386061,4.47397576 C2.9527697,5.18882424 2.58240606,6.04833939 2.46022424,6.98167273 C2.45810303,6.99652121 2.45767879,7.0113697 2.45810303,7.02579394 C2.38767879,7.58833939 2.40761818,8.16021818 2.52343636,8.71767273 C2.52470909,8.72403636 2.52640606,8.7304 2.52810303,8.73633939 L2.6248303,9.08421818 C2.71519394,9.47706667 2.54210303,9.87670303 2.19337576,10.0799152 C1.98210303,10.2033697 1.73519394,10.2377333 1.49846667,10.1753697 C1.26173939,10.1134303 1.06361818,9.9624 0.940163636,9.75112727 C0.894345455,9.67264242 0.859981818,9.58821818 0.839618182,9.5004 C0.838345455,9.49615758 0.837072727,9.49191515 0.8358,9.48767273 L0.786587879,9.31415758 C0.581254545,8.46991515 0.537557576,7.5993697 0.649133333,6.74706667 C0.649557576,6.74621818 0.649557576,6.7453697 0.649981818,6.74452121 C0.66949697,6.59391515 0.694527273,6.44373333 0.7238,6.29482424 C0.7238,6.29397576 0.724224242,6.29312727 0.724224242,6.29227879 C0.733981818,6.24476364 0.743315152,6.19809697 0.75349697,6.1514303 C0.754345455,6.14803636 0.755193939,6.14421818 0.756042424,6.14082424 C0.766224242,6.09585455 0.776406061,6.05046061 0.787436364,6.00549091 C0.788284848,6.00082424 0.789557576,5.99615758 0.790406061,5.99149091 C0.801860606,5.94694545 0.812890909,5.9024 0.824769697,5.85785455 C0.826042424,5.85361212 0.826890909,5.84894545 0.828163636,5.84427879 C0.840466667,5.79930909 0.853193939,5.75433939 0.865921212,5.70979394 C0.866769697,5.70597576 0.868042424,5.70215758 0.868890909,5.69876364 C0.882042424,5.65294545 0.896042424,5.60712727 0.910466667,5.56130909 C0.911315152,5.55918788 0.911739394,5.55664242 0.912163636,5.55452121 C0.927436364,5.5074303 0.942709091,5.46033939 0.958406061,5.41324848 C0.958406061,5.41282424 0.958406061,5.41282424 0.958830303,5.4124 C1.2668303,4.49646061 1.76149697,3.64967273 2.41228485,2.93100606 C2.44240606,2.89749091 2.47252727,2.8644 2.50349697,2.83130909 C2.50561818,2.82918788 2.50773939,2.82706667 2.50943636,2.82494545 C2.54295152,2.78973333 2.57689091,2.75452121 2.6108303,2.71973333 C2.61592121,2.71421818 2.62143636,2.70955152 2.62652727,2.70488485 C2.65749697,2.67306667 2.68846667,2.64167273 2.71986061,2.61112727 C2.73216364,2.59967273 2.74404242,2.58821818 2.75592121,2.57676364 C2.78095152,2.55300606 2.80513333,2.52967273 2.83016364,2.50633939 C2.84967879,2.48809697 2.86961818,2.47027879 2.88955758,2.45203636 C2.90652727,2.43676364 2.92349697,2.42106667 2.94089091,2.40579394 C2.96846667,2.38076364 2.99646667,2.35615758 3.02446667,2.33197576 C3.0338,2.32391515 3.04313333,2.31585455 3.05204242,2.30779394 C3.08640606,2.27894545 3.12034545,2.25009697 3.15470909,2.22209697 C3.15810303,2.21912727 3.16192121,2.21573333 3.16573939,2.21318788 C4.28743636,1.29385455 5.67343636,0.735127273 7.11670909,0.629915152 C7.27919394,0.618036364 7.40095152,0.477187879 7.38907273,0.31470303 C7.37761818,0.152218182 7.2367697,0.0308848485 7.07386061,0.0419151515 C6.26101212,0.101309091 5.46470909,0.293490909 4.7167697,0.604036364 C4.71422424,0.604460606 4.71252727,0.605309091 4.71040606,0.606157576 C4.01210303,0.895915152 3.36725455,1.2853697 2.79198182,1.75712727 C2.78773939,1.76052121 2.78349697,1.76433939 2.77925455,1.76815758 C2.74234545,1.79827879 2.70543636,1.82882424 2.66895152,1.85979394 C2.65919394,1.86870303 2.64943636,1.87718788 2.63967879,1.88609697 C2.60913333,1.91282424 2.57773939,1.93912727 2.54761818,1.96627879 C2.53022424,1.98197576 2.51325455,1.99767273 2.49628485,2.0133697 C2.47337576,2.03415758 2.45004242,2.05452121 2.42798182,2.07573333 C2.42586061,2.0774303 2.42416364,2.07912727 2.42204242,2.08082424 C2.39913333,2.10246061 2.37707273,2.12452121 2.35416364,2.14573333 L2.30834545,2.1894303 C2.27737576,2.21955152 2.24725455,2.24967273 2.21713333,2.28064242 C2.2078,2.28912727 2.19931515,2.29803636 2.18998182,2.30694545 C2.15773939,2.34003636 2.12634545,2.37312727 2.09452727,2.40664242 C2.08773939,2.41385455 2.08010303,2.42106667 2.07373939,2.42827879 C2.04828485,2.4554303 2.02367879,2.48258182 1.99864848,2.51015758 C1.52943636,3.02391515 1.12895152,3.60258182 0.812466667,4.23300606 C0.650830303,4.5554303 0.5138,4.88676364 0.399678788,5.22446061 L0.399678788,5.22530909 C0.382709091,5.27621818 0.366163636,5.32712727 0.350042424,5.37803636 C0.349193939,5.38100606 0.347921212,5.3844 0.347072727,5.3873697 C0.3318,5.43573333 0.317375758,5.48452121 0.303375758,5.53373333 C0.301678788,5.53882424 0.299981818,5.54433939 0.298709091,5.54985455 C0.285133333,5.59652121 0.271981818,5.64361212 0.259254545,5.69112727 C0.257557576,5.69791515 0.255860606,5.70512727 0.254163636,5.71233939 C0.241436364,5.75773333 0.229981818,5.80355152 0.218951515,5.84979394 C0.216830303,5.85785455 0.215133333,5.86591515 0.213012121,5.87397576 C0.201981818,5.91979394 0.191375758,5.96518788 0.181193939,6.01100606 C0.17949697,6.01864242 0.1778,6.02627879 0.17610303,6.03391515 C0.166345455,6.08058182 0.156163636,6.12724848 0.146830303,6.17391515 C0.145981818,6.17985455 0.144709091,6.18579394 0.143436364,6.19130909 C0.13410303,6.24094545 0.124769697,6.29015758 0.116284848,6.3393697 L0.115012121,6.34573333 C-0.0652909091,7.37409697 -0.0347454545,8.43470303 0.215133333,9.45967273 C0.215981818,9.46306667 0.216830303,9.46688485 0.21810303,9.47070303 L0.267739394,9.64379394 C0.30210303,9.78549091 0.356830303,9.92124848 0.431072727,10.0485212 C0.633860606,10.3959758 0.96010303,10.6433091 1.34913333,10.7455515 C1.47640606,10.7786424 1.60537576,10.7956121 1.73392121,10.7951879" id="Fill-17" fill="#E95205" mask="url(#mask-2)"></path>
                </g>
                <path d="M2.57082424,11.6142727 C2.4554303,11.7283939 2.45373333,11.9150606 2.5674303,12.0308788 C2.70021818,12.1653636 2.91700606,12.3859697 2.93609697,12.4059091 C3.82064242,13.3540909 4.95973333,14.0061515 6.22991515,14.2920909 C6.69785455,14.3977273 7.17046061,14.4499091 7.6413697,14.4499091 C8.41391515,14.4499091 9.18264242,14.3090606 9.91700606,14.0294848 C9.92167273,14.0277879 9.92676364,14.0265152 9.9314303,14.0243939 C9.95773333,14.0142121 9.98403636,14.0040303 10.0103394,13.993 C10.0391879,13.9819697 10.0684606,13.9705152 10.0977333,13.9582121 C10.0990061,13.9573636 10.100703,13.9569394 10.1019758,13.9565152 C10.1028242,13.9565152 10.1032485,13.9560909 10.104097,13.9560909 C10.8694303,13.6391818 11.5825818,13.1712424 12.1956121,12.5535455 C12.3101576,12.4377273 12.3097333,12.2514848 12.1943394,12.1365152 C12.0785212,12.0223939 11.8922788,12.0228182 11.7773091,12.1382121 C11.2105212,12.7092424 10.5495515,13.139 9.84064242,13.4262121 C9.80585455,13.4406364 9.77106667,13.4537879 9.73627879,13.4673636 C9.68452121,13.487303 9.63276364,13.5068182 9.57973333,13.5250606 C9.56276364,13.531 9.5453697,13.5369394 9.5284,13.5428788 C7.73088485,14.1542121 5.67797576,13.8742121 4.08579394,12.6540909 C4.08324848,12.6519697 4.08070303,12.6511212 4.07815758,12.6494242 C3.82530909,12.454697 3.58730909,12.2400303 3.36670303,12.0041515 C3.34633939,11.9816667 3.09476364,11.726697 2.9874303,11.6176667 C2.87373333,11.5014242 2.68706667,11.4997273 2.57082424,11.6142727" id="Fill-20" fill="#E95205"></path>
                <g id="Group-24" transform="translate(0.848485, 10.564655)">
                    <mask id="mask-4" fill="white">
                        <use xlink:href="#path-3"></use>
                    </mask>
                    <g id="Clip-23"></g>
                    <path d="M11.8995758,0.446387879 C11.3209091,0.116327273 10.6060606,0.201175758 10.1211515,0.657660606 C10.1186061,0.660206061 10.1156364,0.663175758 10.1126667,0.665721212 L9.86278788,0.920266667 C9.07284848,1.62238788 8.0470303,2.03390303 6.97412121,2.07844848 C6.64066667,2.09202424 6.30890909,2.06953939 5.98563636,2.01311515 C5.978,2.01184242 5.97036364,2.01099394 5.96315152,2.00972121 C5.91818182,2.00166061 5.87448485,1.99275152 5.82993939,1.98299394 C5.2610303,1.86293333 4.71460606,1.63638788 4.22290909,1.31014545 C4.20042424,1.29487273 4.17709091,1.28002424 4.15418182,1.26432727 C4.13721212,1.25202424 4.12066667,1.24014545 4.10369697,1.22826667 C4.06,1.19687273 4.01587879,1.1646303 3.97260606,1.13153939 C3.86866667,1.05135758 3.77236364,0.970751515 3.6790303,0.887175758 C3.66121212,0.871054545 3.6429697,0.855357576 3.62557576,0.839236364 C3.61793939,0.832448485 3.61115152,0.825660606 3.60393939,0.818872727 C3.52036364,0.739539394 3.43975758,0.657660606 3.36127273,0.571539394 C3.35406061,0.56390303 3.34642424,0.558387879 3.33878788,0.5516 C3.26878788,0.475236364 3.19878788,0.395478788 3.12751515,0.309781818 C3.02357576,0.184630303 2.83818182,0.167236364 2.71260606,0.271175758 C2.58745455,0.375115152 2.57048485,0.560933333 2.67442424,0.686084848 C2.83945455,0.884630303 3.00109091,1.0585697 3.17163636,1.22020606 C3.36381818,1.40517576 3.56787879,1.57275152 3.78254545,1.72378182 C3.79484848,1.73184242 3.80672727,1.73990303 3.81818182,1.74796364 C3.85721212,1.77511515 3.89624242,1.80099394 3.93569697,1.82644848 C3.9789697,1.85487273 4.02309091,1.88287273 4.06721212,1.9096 C4.07993939,1.91766061 4.09309091,1.92529697 4.10624242,1.93335758 C4.48466667,2.16032727 4.89109091,2.33723636 5.31490909,2.46111515 C5.32424242,2.46366061 5.33315152,2.4666303 5.34290909,2.46917576 C5.39042424,2.48275152 5.43836364,2.49547879 5.48587879,2.50778182 C5.52575758,2.51838788 5.56521212,2.52772121 5.60551515,2.53747879 C5.6309697,2.54299394 5.656,2.54850909 5.68145455,2.55402424 C5.74127273,2.56717576 5.80151515,2.57905455 5.86260606,2.59050909 C5.86345455,2.59050909 5.86472727,2.59093333 5.86642424,2.59093333 C6.17187879,2.64608485 6.48242424,2.67408485 6.79509091,2.67408485 C7.46751515,2.67408485 8.14545455,2.54426667 8.79072727,2.2765697 C8.80430303,2.27105455 8.81745455,2.26384242 8.83018182,2.2566303 C9.35242424,2.03602424 9.83775758,1.73269091 10.2628485,1.35384242 C10.2670909,1.3496 10.2721818,1.34493333 10.2768485,1.34026667 L10.5292727,1.08275152 C10.8241212,0.808266667 11.2564242,0.757781818 11.607697,0.958024242 C12.0467879,1.20875152 12.1999394,1.7696 11.9492121,2.20826667 C11.9042424,2.2876 11.8482424,2.35929697 11.7829091,2.42081212 C11.7795152,2.42378182 11.7761212,2.42717576 11.7731515,2.4305697 L11.6475758,2.55996364 C11.019697,3.15941818 10.2874545,3.63244848 9.49412121,3.96166061 C9.49284848,3.96208485 9.49157576,3.96250909 9.49072727,3.96293333 C9.35030303,4.02147879 9.20818182,4.07493333 9.06478788,4.12372121 L9.06139394,4.12499394 C9.016,4.14026667 8.97060606,4.15511515 8.92478788,4.16953939 C8.92139394,4.17038788 8.91842424,4.17166061 8.91460606,4.17293333 C8.87048485,4.18650909 8.82636364,4.20050909 8.78181818,4.21323636 C8.77757576,4.21493333 8.77248485,4.21620606 8.76781818,4.21747879 C8.72412121,4.23020606 8.67957576,4.24250909 8.63545455,4.25481212 L8.62145455,4.25820606 C8.57648485,4.27050909 8.53151515,4.28238788 8.48612121,4.29341818 C8.48230303,4.29426667 8.47890909,4.29511515 8.47551515,4.29596364 C8.42884848,4.30784242 8.38218182,4.31844848 8.33551515,4.32905455 L8.32915152,4.33032727 C8.28078788,4.34135758 8.232,4.35153939 8.18363636,4.36172121 L8.18236364,4.36172121 C7.22187879,4.55517576 6.22660606,4.54711515 5.26612121,4.3345697 C5.236,4.32778182 5.20630303,4.32184242 5.17575758,4.3146303 C5.16557576,4.31208485 5.15539394,4.30911515 5.14478788,4.30699394 C5.10448485,4.29723636 5.0650303,4.28747879 5.02515152,4.27729697 C5.01369697,4.27390303 5.00181818,4.27093333 4.99036364,4.26796364 C4.95260606,4.25778182 4.91442424,4.2476 4.87666667,4.23741818 C4.85757576,4.23190303 4.83848485,4.22596364 4.81981818,4.22044848 C4.79054545,4.21196364 4.76212121,4.20347879 4.73284848,4.19499394 C4.64078788,4.1665697 4.54872727,4.13602424 4.45751515,4.10420606 C4.45454545,4.10335758 4.45157576,4.10208485 4.4490303,4.10123636 C3.03290909,3.60147879 1.80218182,2.65796364 0.961757576,1.4196 C0.870121212,1.28511515 0.686848485,1.25032727 0.552363636,1.34153939 C0.417878788,1.43275152 0.383090909,1.61602424 0.473878788,1.75050909 C0.932484848,2.42590303 1.49757576,3.02026667 2.14157576,3.51323636 C2.14284848,3.51366061 2.14369697,3.51493333 2.14454545,3.51578182 C2.74315152,3.97438788 3.40157576,4.33796364 4.09606061,4.60014545 C4.10242424,4.60226667 4.10878788,4.60481212 4.11472727,4.60693333 C4.15672727,4.6226303 4.19872727,4.63790303 4.24072727,4.65275152 C4.25345455,4.65699394 4.26533333,4.66166061 4.27763636,4.66547879 C4.31369697,4.6786303 4.34975758,4.69050909 4.38624242,4.70238788 L4.43842424,4.71978182 C4.46981818,4.72996364 4.50121212,4.73972121 4.53260606,4.74990303 C4.54363636,4.75287273 4.55466667,4.75669091 4.56569697,4.76008485 C4.57206061,4.76178182 4.578,4.76347879 4.58436364,4.7656 C4.66242424,4.78893333 4.74133333,4.81141818 4.82024242,4.8326303 C4.83466667,4.83644848 4.84824242,4.83941818 4.86224242,4.84323636 C4.94284848,4.86444848 5.0230303,4.88438788 5.10406061,4.9026303 C5.11254545,4.90432727 5.12060606,4.90644848 5.12951515,4.90814545 C5.67084848,5.02905455 6.2270303,5.09099394 6.7870303,5.09099394 C6.93593939,5.09099394 7.08484848,5.08675152 7.23460606,5.07784242 C7.64866667,5.05323636 8.05763636,4.99511515 8.45854545,4.9056 C8.45981818,4.90517576 8.46066667,4.90517576 8.46151515,4.90475152 C8.51921212,4.89202424 8.57690909,4.87802424 8.63418182,4.8636 C8.64012121,4.86232727 8.64606061,4.8606303 8.65242424,4.85935758 C8.70545455,4.84578182 8.75890909,4.83220606 8.81193939,4.81735758 C8.81915152,4.81566061 8.82678788,4.81353939 8.834,4.81141818 C8.88745455,4.7965697 8.94090909,4.78129697 8.99393939,4.76517576 C8.99945455,4.76347879 9.0049697,4.76178182 9.01048485,4.76008485 C10.1461818,4.41517576 11.1932121,3.80935758 12.0590909,2.98250909 L12.0675758,2.97402424 L12.192303,2.84420606 C12.2979394,2.74366061 12.388303,2.62826667 12.4612727,2.5005697 C12.8727879,1.77935758 12.6207879,0.85790303 11.8995758,0.446387879" id="Fill-22" fill="#E95205" mask="url(#mask-4)"></path>
                </g>
            </g>
        </g>
    </g>
</svg>