<svg width="347" height="194" xmlns="http://www.w3.org/2000/svg" xmlns:xlink="http://www.w3.org/1999/xlink"><defs><linearGradient x1="100%" y1="13.224%" x2="25.237%" y2="50%" id="a"><stop stop-color="#FDF18D" offset="0%"/><stop stop-color="#FADF54" offset="100%"/></linearGradient><linearGradient x1="20.194%" y1="18.631%" x2="75.718%" y2="78.781%" id="d"><stop stop-color="#F2A375" offset="0%"/><stop stop-color="#ED6C5D" offset="100%"/></linearGradient><ellipse id="b" cx="57.832" cy="56.876" rx="57.564" ry="56.136"/><filter x="-20.8%" y="-11.6%" width="141.7%" height="146.3%" filterUnits="objectBoundingBox" id="c"><feOffset dy="15" in="SourceAlpha" result="shadowOffsetOuter1"/><feGaussianBlur stdDeviation="5.5" in="shadowOffsetOuter1" result="shadowBlurOuter1"/><feColorMatrix values="0 0 0 0 0.849205122 0 0 0 0 0.830707779 0 0 0 0 0.912096088 0 0 0 1 0" in="shadowBlurOuter1"/></filter><linearGradient x1="99.069%" y1="22.48%" x2="19.473%" y2="83.423%" id="h"><stop stop-color="#F08F6C" offset="0%"/><stop stop-color="#F08B6B" offset="100%"/></linearGradient><path d="M36.058 12.353l24.547 2.237a2 2 0 0 1 1.776 2.4c-1.698 8.128-6.464 11.867-14.299 11.22-7.734-.64-12.456-5.128-14.165-13.463a2 2 0 0 1 2.14-2.394z" id="f"/><filter x="-8.8%" y="-15.7%" width="117.5%" height="131.4%" filterUnits="objectBoundingBox" id="g"><feOffset dy="1" in="SourceAlpha" result="shadowOffsetInner1"/><feComposite in="shadowOffsetInner1" in2="SourceAlpha" operator="arithmetic" k2="-1" k3="1" result="shadowInnerInner1"/><feColorMatrix values="0 0 0 0 1 0 0 0 0 0.26128417 0 0 0 0 0.161616162 0 0 0 1 0" in="shadowInnerInner1"/></filter></defs><g fill="none" fill-rule="evenodd"><path fill="#F5F2FE" fill-rule="nonzero" d="M0 0h347v194H0z"/><path d="M170.303 66.234c6.593 7.98 30.723 16.353 38.402 16.353 8.138 0 10.524-4.883 12.232-15.17 1.708-10.289-16.806-42.233 3.024-54.037 19.829-11.804 37.943-2.059 43.25 6.246 5.309 8.304 5.82 22.445 4.78 32.702-1.041 10.256-7.158 19.219 2.354 22.218 9.511 2.998 21.46-19.63 35.122-17.5 13.66 2.13 22.613 9.199 22.613 20.125 0 10.927-7.782 18.186-21.766 27.641-6.124 4.14-9.982 8.512-11.96 12.83.466 1.896-.112 3.794-1.546 5.593-.347 3.571.535 7.013 2.413 10.152 5.06 8.46 20.983 1.045 29.748 4.816 8.766 3.77 21.628 21.34 16.15 45.423-.286 5.09-2.605 8.547-6.956 10.373H1.753s-3.913-5.853.642-18.69c3.037-8.56 8.849-13.7 17.436-15.423-8.18-13.99-10.224-23.187-6.135-27.594 6.135-6.61 12.552-6.863 23.359-6.863 10.807 0 17.67-1.911 14.239-8.836-3.432-6.925-13.748-21.175-25.673-25.67C13.696 86.43-1.316 82.5 2.395 67.417 6.106 52.333 27.638 49.163 44.76 52.328c17.122 3.164 39.225 23.6 54.205 19.344 14.98-4.256 18.555-5.914 18.555-12.63 0-6.714-4.098-14.776 6.774-18.019 7.21-2.15 14.317 2.846 19.968 7.66-3.61-6.832-5.944-14.863-5.165-23.174 2.118-22.594 14.151-22.764 25.727-24.53 11.575-1.764 9.775 6.333 7.292 19.495-2.484 13.162-3.476 33.211-1.579 37.515 1.158 2.628 1.364 6.01-.234 8.245zM100.34 42.76c1.188 3.153.858 5.448-.99 6.884-2.771 2.154-11.213-2.154-22.095-9.797-10.882-7.642-21.171-19.644-17.26-26.015 3.91-6.371 13.831-2.737 22.584 4.895 5.835 5.088 11.756 13.099 17.761 24.033z" fill="#EFEBFA" fill-rule="nonzero"/><path d="M272.772 194c3.159-9.028-6.423-9.563-1.484-25.206 2.507-7.94 12.002-5.709 15.86-10.28 3.68-4.36-1.008-10.372 2.2-14.607 1.54-2.036 5.674-3.372 12.398-4.007 7.934-8.476 1.809-17.323 11.32-16.854 14.965.739-1.898 16.545 1.232 21.927 2.08 3.577 6.281 5.063 6.502 9.195.357 6.688-10.302 13.001-11.753 18.587-1.994 7.676 6.285 9.35 3.418 16.802-.507 1.32-1.647 2.8-3.418 4.443h-36.275zM35.991 193.786s-4.967-4.245-3.31-6.905c1.655-2.66 8.947-4.673 7.136-8.032-1.811-3.36-13.453-4.024-18.205-5.685-4.752-1.661-6.337-3.263-6.337-7.103s7.834-7.548 7.834-11.228c0-3.68-13.704-7.158-14.553-10.005-.85-2.847.201-9.834 1.396-12.635 1.195-2.8 1.397-5.701 0-9.052-1.396-3.35-3.302-8.741 0-10.504 3.303-1.763 7.06 3.766 12.32 5.17 5.26 1.404 4.48-.73 8.713-.73 4.233 0 7.14 4.586 7.88 6.064.74 1.478-1.126 8.567 3.812 10.561 4.94 1.995 11.445-.57 13.494 1.996 2.05 2.566 1.939 6.998 4.144 10.712 2.206 3.714 5.494 5.306 6.753 7.334.84 1.351 2.26 13.308 4.261 35.869l-1.204 4.173H35.991z" fill="#F8BDD0" fill-rule="nonzero"/><path d="M41.98 194c-6.24-8.272-8.73-13.953-7.471-17.045 1.89-4.637 8.62-2.065 10.98-5.39 2.362-3.326.753-5.633 0-7.87-.751-2.235-2.578-3.06-2.578-11.313 0-8.252 9.616-6.967 9.616-13.93 0-6.964-3.686-6.903-1.843-11.2s4.467-1.572 7.243-5.919c2.775-4.347 4.012-7.14 7.007-6.443 2.995.696 5.233 6.238 6.215 9.3.983 3.062 6.157 5.917 6.157 9.415 0 3.498-8.91 6.652-8.114 11.804.798 5.151 9.838 3.673 9.838 8.261 0 4.588-9.838 14.294-9.838 18.79 0 4.495 8.592 5.658 9.215 9.349.415 2.46-1.144 6.524-4.677 12.191H41.98z" fill="#ABE0FB" fill-rule="nonzero"/><path d="M63.52 123.823c-4.708 24.36-5.024 46.043-4.81 71.023M55.006 177.32c-18.274-28.881-7.15-12.73-34.684-47.523M312.107 136.047c-5.835 12.09-23.385 44.764-25.243 58.208" stroke="#FFF" opacity=".36"/><path d="M133.232 112.68c-2.474 3.752-6.083 6.399-10.583 5.488-4.5-.91-6.623-3.146-7.812-9.522-.792-4.25-1.075-7.01-.849-8.28l6.114-1.159c1.018 6.127 2.49 9.053 4.415 8.777 2.886-.414 7.471-7.7 7.471-11.84s7.047 6.233 5.604 8.528c-1.443 2.294-1.887 4.255-4.36 8.007z" fill="#D34C35"/><path d="M113.578 104.721c3.675.054 6.253-1.578 7.733-4.894-.164-1.685-.575-2.246 0-3.77.576-1.525-.41-6.98-3.126-9.227-2.715-2.247-8.72-1.204-10.695 2.086-1.975 3.29-1.317 9.627 1.563 10.911 1.92.856 3.428 2.487 4.525 4.894z" fill="#D34C35"/><path d="M6.713 52.94c5.462-5.327 15.097-7.62 28.904-6.88 20.712 1.11 23.519 3.92 37.706 1.701 4.45-.394 9.71-2.86 15.78-7.398C86.675 17.674 85.46 4.998 85.46 2.335c-.076-2.96-2.124-1.258-2.807-.888-.683.37-7.738 7.325-21.773 7.325-14.036 0-20.863-2.516-28.602-2.516-7.738 0-19.877-1.184-30.346 7.103.163 2.606 1.756 15.8 4.78 39.581z" fill="url(#a)" transform="rotate(15 7.417 477.755)"/><path d="M120.676 26.626c.087-.63.679-1.065 1.323-.973.645.092 1.097.677 1.011 1.307l-10.133 74.139c-.086.63-.678 1.065-1.322.973-.645-.092-1.098-.677-1.012-1.307l10.133-74.139z" fill="#DBB554" fill-rule="nonzero"/><path d="M108.465 99.28c-.33-1.41.11-2.114 1.316-2.114 1.81 0 5.101-.642 5.101-3.61 0-2.97-.165-6.098-2.14-6.9-1.974-.803-6.334.802-7.568 3.85-1.234 3.05.25 6.546 1.32 7.429.713.588 1.37 1.036 1.97 1.345z" fill="#E3563E"/><g transform="translate(123.804 46.88)"><mask id="e" fill="#fff"><use xlink:href="#b"/></mask><use fill="#000" filter="url(#c)" xlink:href="#b"/><use fill="url(#d)" xlink:href="#b"/><g mask="url(#e)"><g transform="scale(-1 1) rotate(-10 154.297 484.503)"><ellipse fill="#EE7A63" cx="11.773" cy="17.541" rx="10.932" ry="10.773"/><ellipse fill="#EF8869" cx="75.545" cy="22.03" rx="10.932" ry="10.773"/><use fill="#FFFEFE" xlink:href="#f"/><use fill="#000" filter="url(#g)" xlink:href="#f"/><path stroke="url(#h)" stroke-width="2" d="M36.148 11.357l24.548 2.237a3 3 0 0 1 2.664 3.601c-1.8 8.611-7.012 12.701-15.36 12.01-8.192-.677-13.267-5.5-15.063-14.257a3 3 0 0 1 3.211-3.59z"/></g></g></g><path d="M227.809 99.955c7.994 7.637 11.624 12.887 10.89 15.751-.734 2.864-2.03 4.368-3.888 4.51a159.848 159.848 0 0 1-1.705 4.276 35.781 35.781 0 0 1-3.045 5.76c2.82-.248 4.8-.693 5.938-1.335 1.706-.964 9.43-4.977 11.266-11.42 1.835-6.445-6.608-18.258-9.728-22.077-3.12-3.819-10.734-.647-10.734 1.62 0 1.512.335 2.483 1.006 2.915z" fill="#D34C35"/></g></svg>