<svg xmlns="http://www.w3.org/2000/svg" width="17" height="16"><path fill-rule="evenodd" fill="#CCC" d="M15.516 7.997c0-.398-.043-.688-.043-.688a.765.765 0 0 1 .357-.719l.889-.502a.48.48 0 0 0 .181-.66l-1.687-2.855a.502.502 0 0 0-.675-.178l-.888.502a.809.809 0 0 1-.817-.055s-.238-.181-.582-.375c-.347-.196-.637-.312-.637-.312a.776.776 0 0 1-.457-.665V.485a.49.49 0 0 0-.494-.483H7.291a.49.49 0 0 0-.493.483V1.49a.777.777 0 0 1-.458.665s-.289.116-.636.311a5.586 5.586 0 0 0-.582.376.81.81 0 0 1-.818.054l-.888-.502a.502.502 0 0 0-.674.177L1.056 5.428a.478.478 0 0 0 .18.66l.889.502a.767.767 0 0 1 .357.719s-.044.29-.044.688c0 .4.044.689.044.689a.766.766 0 0 1-.357.719l-.889.502a.478.478 0 0 0-.18.659l1.687 2.857a.5.5 0 0 0 .674.177l.888-.502a.811.811 0 0 1 .817.056s.218.165.552.357c.354.204.666.328.666.328.252.1.458.4.458.666v1.004a.49.49 0 0 0 .493.483h3.372a.49.49 0 0 0 .494-.483v-1.004c0-.266.205-.566.457-.666 0 0 .288-.115.632-.307.346-.197.586-.378.586-.378a.81.81 0 0 1 .817-.056l.889.502a.502.502 0 0 0 .675-.177l1.686-2.857a.478.478 0 0 0-.181-.659l-.888-.502a.764.764 0 0 1-.357-.719s.043-.289.043-.689zm-6.539 2.665c-1.505 0-2.641-1.193-2.641-2.665a2.664 2.664 0 0 1 2.662-2.665 2.664 2.664 0 0 1 2.663 2.665 2.66 2.66 0 0 1-2.684 2.665z"/></svg>