<?xml version="1.0" encoding="UTF-8"?>
<svg width="24px" height="24px" viewBox="0 0 24 24" version="1.1" xmlns="http://www.w3.org/2000/svg" xmlns:xlink="http://www.w3.org/1999/xlink">
    <!-- Generator: Sketch 52.2 (67145) - http://www.bohemiancoding.com/sketch -->
    <title>btn_a-commom_down</title>
    <desc>Created with Sketch.</desc>
    <g id="Page-1" stroke="none" stroke-width="1" fill="none" fill-rule="evenodd">
        <g id="详情3" transform="translate(-337.000000, -315.000000)">
            <g id="分组-4" transform="translate(0.000000, 287.000000)">
                <g id="down" transform="translate(337.000000, 28.000000)">
                    <g id="icon24*24/下载">
                        <g id="Group">
                            <g id="下载" transform="translate(4.000000, 4.000000)" fill-rule="nonzero">
                                <rect id="Rectangle-path" fill="#000000" opacity="0" x="0" y="0" width="16" height="16"></rect>
                                <path d="M4.03753125,7.77376562 L7.19723437,10.9340156 C7.41165625,11.1476875 7.69684375,11.2652812 7.999875,11.2652812 C8.30360937,11.2652812 8.58875,11.1474063 8.80290625,10.93325 L11.9625313,7.77384375 C12.2093125,7.52698438 12.2093125,7.12557812 11.9625313,6.87879687 C11.8430156,6.75925 11.6840781,6.69346875 11.5150469,6.69346875 C11.3460156,6.69346875 11.1870937,6.75926562 11.0675625,6.87879687 L8.63285937,9.31321875 L8.63285938,1.47204687 C8.63285938,1.12296875 8.34898438,0.83915625 7.99996875,0.83915625 C7.65095313,0.83915625 7.36715625,1.12307812 7.36715625,1.47204687 L7.36715625,9.31375 L4.9325,6.87879687 C4.81298437,6.75925 4.65403125,6.69346875 4.48501562,6.69346875 C4.31598437,6.69346875 4.15707813,6.75928125 4.03753125,6.87879687 C3.91798438,6.9983125 3.85217187,7.15726562 3.85217187,7.32628125 C3.85217187,7.49529687 3.91801563,7.65425 4.03753125,7.77376562 Z M12.6866719,2.5130625 C12.3376563,2.5130625 12.0538594,2.79685937 12.0538594,3.145875 C12.0538594,3.49489062 12.33775,3.7786875 12.6866719,3.7786875 C13.4452813,3.7786875 14.0624688,4.39589062 14.0624688,5.1545 L14.0624688,12.5193125 C14.0624688,13.2779375 13.4452656,13.895125 12.6866719,13.895125 L3.31332812,13.895125 C2.55470313,13.895125 1.93753125,13.2779219 1.93753125,12.5193125 L1.93753125,5.1545 C1.93753125,4.395875 2.55465625,3.7786875 3.31332812,3.7786875 C3.66234375,3.7786875 3.94614062,3.49489062 3.94614062,3.145875 C3.94614062,2.79685937 3.66225,2.5130625 3.31332812,2.5130625 C1.8568125,2.5130625 0.671875,3.69796875 0.671875,5.15454687 L0.671875,12.5193594 C0.671875,13.9758906 1.85676562,15.1608437 3.31332812,15.1608437 L12.6866719,15.1608437 C14.1431875,15.1608437 15.328125,13.9759375 15.328125,12.5193594 L15.328125,5.15454687 C15.328125,3.698 14.1432344,2.5130625 12.6866719,2.5130625 Z" id="Shape" fill="#B2B9C8"></path>
                            </g>
                        </g>
                    </g>
                </g>
            </g>
        </g>
    </g>
</svg>