<svg width="14" height="18" xmlns="http://www.w3.org/2000/svg"><g fill="none" fill-rule="evenodd"><path d="M6.922 2.322C3.15 2.322 0 5.472 0 9.4c0 3.772 3.15 6.922 6.922 6.922C10.89 16.322 14 13.172 14 9.4a7.054 7.054 0 0 0-7.078-7.078z" fill="#FFF"/><path d="M6.922 2.322C3.15 2.322 0 5.472 0 9.4c0 3.772 3.15 6.922 6.922 6.922C10.89 16.322 14 13.172 14 9.4a7.054 7.054 0 0 0-7.078-7.078zm-1.05 10.111l-2.76-2.722c-.04-.04.777-.778.777-.778l1.983 1.944 4.24-4.277.777.777-5.017 5.056z" fill="#FF548F"/></g></svg>