<svg width="32" height="32" viewBox="0 0 32 32" xmlns="http://www.w3.org/2000/svg"><g fill="none" fill-rule="evenodd"><path fill="#FFF" d="M-150-29h323v134h-323z"/><path d="M16 32C7.163 32 0 24.837 0 16S7.163 0 16 0s16 7.163 16 16-7.163 16-16 16zm1.117-13.193a.434.434 0 0 0 .112.354l.004.003a.396.396 0 0 0 .292.132.396.396 0 0 0 .31-.16l4.047-4.665a.437.437 0 0 0 .117-.327.436.436 0 0 0-.117-.327l-4.069-4.69a.401.401 0 0 0-.584 0 .436.436 0 0 0-.112.354v2.526c-3.378 0-6.117 2.879-6.117 6.432 0 .881.173 1.753.507 2.561.483-2.679 2.915-4.714 5.603-4.714l.007 2.52z" fill="#61DB8B"/><path d="M16 32C7.163 32 0 24.837 0 16S7.163 0 16 0s16 7.163 16 16-7.163 16-16 16zm1.117-13.193a.434.434 0 0 0 .112.354l.004.003a.396.396 0 0 0 .292.132.396.396 0 0 0 .31-.16l4.047-4.665a.437.437 0 0 0 .117-.327.436.436 0 0 0-.117-.327l-4.069-4.69a.401.401 0 0 0-.584 0 .436.436 0 0 0-.112.354v2.526c-3.378 0-6.117 2.879-6.117 6.432 0 .881.173 1.753.507 2.561.483-2.679 2.915-4.714 5.603-4.714l.007 2.52z" fill="#61DB8B"/></g></svg>