<?xml version="1.0" encoding="UTF-8"?>
<svg width="10px" height="7px" viewBox="0 0 10 7" version="1.1" xmlns="http://www.w3.org/2000/svg" xmlns:xlink="http://www.w3.org/1999/xlink">
    <!-- Generator: Sketch 52.2 (67145) - http://www.bohemiancoding.com/sketch -->
    <title>ic_a-gou</title>
    <desc>Created with Sketch.</desc>
    <g id="181011-流转明细" stroke="none" stroke-width="1" fill="none" fill-rule="evenodd">
        <g id="自由流程流转明细---流转中" transform="translate(-18.000000, -144.000000)" fill-rule="nonzero">
            <g id="流程节点" transform="translate(15.000000, 140.000000)">
                <g id="ic_a-gou" transform="translate(3.000000, 3.000000)">
                    <rect id="矩形" fill="#D8D8D8" opacity="0" x="0" y="0" width="10" height="10"></rect>
                    <path d="M8.22348319,1.71932683 L3.51307375,6.45339377 L1.31692025,4.29635284 C1.06875465,4.04818724 0.665566965,4.04818724 0.417401364,4.29635284 C0.169235763,4.54451844 0.169235763,4.94770612 0.417401364,5.19587173 L2.98612894,7.72483538 C3.0076236,7.75544898 3.02065067,7.76443639 3.0480075,7.79179322 C3.1763241,7.92010982 3.3450246,7.96428466 3.51307375,7.95972519 C3.6811229,7.96363331 3.85047475,7.92010982 3.97879135,7.79179322 C4.00614818,7.76443639 4.01917525,7.75544898 4.04066991,7.72483538 L9.12300208,2.61884572 C9.37116768,2.37068011 9.37116768,1.96749243 9.12300208,1.71932683 C8.87418512,1.47116123 8.47164879,1.47116123 8.22348319,1.71932683 Z" id="路径" fill="#FFFFFF"></path>
                </g>
            </g>
        </g>
    </g>
</svg>