<svg width="32" height="32" viewBox="0 0 32 32" xmlns="http://www.w3.org/2000/svg"><g fill="none" fill-rule="evenodd"><path fill="#FFF" d="M-36-29h323v134H-36z"/><path d="M16 32C7.163 32 0 24.837 0 16S7.163 0 16 0s16 7.163 16 16-7.163 16-16 16zm7.323-15.997a1.11 1.11 0 0 0-.13-.534c-.993-1.836-2.842-3.014-2.92-3.062-1.324-.844-2.764-1.274-4.271-1.277v-.01c-1.511.003-2.949.432-4.276 1.279-.075.047-1.928 1.226-2.916 3.06-.008.01-.135.232-.133.534h-.002c-.003.305.126.53.133.538.99 1.836 2.841 3.014 2.916 3.062 1.327.846 2.765 1.274 4.274 1.278v.008c1.511-.002 2.95-.431 4.278-1.277.077-.048 1.926-1.226 2.918-3.061.007-.01.134-.233.13-.538h-.001zM16 18.434a2.434 2.434 0 1 1 0-4.868 2.434 2.434 0 0 1 0 4.868z" fill="#B2BAC8"/><path d="M16 32C7.163 32 0 24.837 0 16S7.163 0 16 0s16 7.163 16 16-7.163 16-16 16zm7.323-15.997a1.11 1.11 0 0 0-.13-.534c-.993-1.836-2.842-3.014-2.92-3.062-1.324-.844-2.764-1.274-4.271-1.277v-.01c-1.511.003-2.949.432-4.276 1.279-.075.047-1.928 1.226-2.916 3.06-.008.01-.135.232-.133.534h-.002c-.003.305.126.53.133.538.99 1.836 2.841 3.014 2.916 3.062 1.327.846 2.765 1.274 4.274 1.278v.008c1.511-.002 2.95-.431 4.278-1.277.077-.048 1.926-1.226 2.918-3.061.007-.01.134-.233.13-.538h-.001zM16 18.434a2.434 2.434 0 1 1 0-4.868 2.434 2.434 0 0 1 0 4.868z" fill="#B2BAC8"/></g></svg>