<svg width="155" height="149" xmlns="http://www.w3.org/2000/svg" xmlns:xlink="http://www.w3.org/1999/xlink"><defs><linearGradient x1="100%" y1="13.224%" x2="25.237%" y2="50%" id="a"><stop stop-color="#FDF18D" offset="0%"/><stop stop-color="#FADF54" offset="100%"/></linearGradient><linearGradient x1="20.194%" y1="18.631%" x2="75.718%" y2="78.781%" id="c"><stop stop-color="#F2A375" offset="0%"/><stop stop-color="#ED6C5D" offset="100%"/></linearGradient><ellipse id="b" cx="39.31" cy="36.729" rx="39.128" ry="36.251"/><linearGradient x1="99.069%" y1="22.48%" x2="19.473%" y2="83.423%" id="g"><stop stop-color="#F08F6C" offset="0%"/><stop stop-color="#F08B6B" offset="100%"/></linearGradient><path d="M25.12 7.971L41.92 9.425a1.3 1.3 0 0 1 1.157 1.577c-1.16 5.228-4.398 7.632-9.713 7.215-5.251-.413-8.46-3.304-9.625-8.675a1.3 1.3 0 0 1 1.383-1.57z" id="e"/><filter x="-9.3%" y="-17.5%" width="118.6%" height="135%" filterUnits="objectBoundingBox" id="f"><feOffset dy="1" in="SourceAlpha" result="shadowOffsetInner1"/><feComposite in="shadowOffsetInner1" in2="SourceAlpha" operator="arithmetic" k2="-1" k3="1" result="shadowInnerInner1"/><feColorMatrix values="0 0 0 0 1 0 0 0 0 0.26128417 0 0 0 0 0.161616162 0 0 0 1 0" in="shadowInnerInner1"/></filter></defs><g fill="none" fill-rule="evenodd"><path d="M51.073 86.98c-1.68 2.423-4.135 4.133-7.193 3.545-3.06-.589-4.502-2.032-5.31-6.15-.539-2.744-.73-4.526-.577-5.346l4.155-.749c.693 3.957 1.693 5.846 3.001 5.668 1.963-.267 5.08-4.973 5.08-7.646 0-2.674 4.79 4.025 3.808 5.507-.981 1.482-1.282 2.748-2.964 5.171z" fill="#D34C35"/><path d="M37.714 81.841c2.498.035 4.25-1.019 5.257-3.16-.112-1.089-.392-1.451 0-2.436.391-.984-.28-4.507-2.125-5.958-1.846-1.45-5.928-.777-7.27 1.347-1.343 2.124-.895 6.218 1.062 7.047 1.305.552 2.33 1.606 3.076 3.16z" fill="#D34C35"/><path d="M5.242 34.187c3.713-3.44 10.263-4.92 19.648-4.443 14.078.717 15.986 2.532 25.63 1.099 3.025-.255 6.6-1.848 10.726-4.778-1.65-14.651-2.476-22.837-2.476-24.557-.051-1.911-1.443-.812-1.908-.573-.464.238-5.26 4.73-14.8 4.73-9.54 0-14.181-1.625-19.441-1.625S9.111 3.276 1.994 8.627c.11 1.683 1.194 10.203 3.248 25.56z" fill="url(#a)" transform="rotate(15 -65.163 177.626)"/><path d="M42.326 31.016c.053-.408.45-.685.888-.62.437.065.75.448.696.856l-6.235 47.96c-.053.406-.45.684-.888.619-.437-.066-.749-.448-.696-.856l6.235-47.96z" fill="#DBB554" fill-rule="nonzero"/><path d="M34.367 78.784c-.26-1.416.019-2.124.84-2.124 1.23 0 3.466-.415 3.466-2.332 0-1.917-.111-3.937-1.454-4.455-1.342-.519-4.306.518-5.144 2.487-.84 1.968-.168 5.336.559 5.906.484.38 1.062.553 1.733.518z" fill="#E3563E"/><g transform="translate(45.83 44.489)"><mask id="d" fill="#fff"><use xlink:href="#b"/></mask><use fill="url(#c)" xlink:href="#b"/><g mask="url(#d)"><g transform="scale(-1 1) rotate(-10 100.108 332.203)"><ellipse fill="#EE7A63" cx="8.682" cy="11.328" rx="7.431" ry="6.957"/><ellipse fill="#EF8869" cx="52.03" cy="14.226" rx="7.431" ry="6.957"/><use fill="#FFFEFE" xlink:href="#e"/><use fill="#000" filter="url(#f)" xlink:href="#e"/><path stroke="url(#g)" stroke-width="1.3" d="M25.177 7.324l16.798 1.454a1.95 1.95 0 0 1 1.735 2.365c-1.23 5.543-4.76 8.165-10.398 7.722-5.542-.436-8.984-3.538-10.209-9.185a1.95 1.95 0 0 1 2.074-2.356z"/></g></g></g><path d="M116.524 78.763c5.435 4.932 7.902 8.322 7.403 10.172-.499 1.85-1.38 2.82-2.643 2.912-.384.953-.77 1.874-1.159 2.762a22.735 22.735 0 0 1-2.07 3.72c1.918-.16 3.263-.449 4.037-.863 1.16-.622 6.41-3.214 7.657-7.375 1.248-4.161-4.491-11.79-6.612-14.256-2.121-2.466-7.296-.418-7.296 1.046 0 .976.228 1.603.683 1.882z" fill="#D34C35"/></g></svg>