<?xml version="1.0" encoding="UTF-8"?>
<svg width="16px" height="6px" viewBox="0 0 16 6" version="1.1" xmlns="http://www.w3.org/2000/svg" xmlns:xlink="http://www.w3.org/1999/xlink">
    <!-- Generator: Sketch 52.2 (67145) - http://www.bohemiancoding.com/sketch -->
    <title>ic_sp_freedom</title>
    <desc>Created with Sketch.</desc>
    <g id="ic_sp_freedom" stroke="none" stroke-width="1" fill="none" fill-rule="evenodd">
        <path d="M14,4.5 C13.1715729,4.5 12.5,3.82842712 12.5,3 C12.5,2.17157288 13.1715729,1.5 14,1.5 C14.8284271,1.5 15.5,2.17157288 15.5,3 C15.5,3.82842712 14.8284271,4.5 14,4.5 Z M8,4.5 C7.17157288,4.5 6.5,3.82842712 6.5,3 C6.5,2.17157288 7.17157288,1.5 8,1.5 C8.82842712,1.5 9.5,2.17157288 9.5,3 C9.5,3.82842712 8.82842712,4.5 8,4.5 Z M2,4.5 C1.17157288,4.5 0.5,3.82842712 0.5,3 C0.5,2.17157288 1.17157288,1.5 2,1.5 C2.82842712,1.5 3.5,2.17157288 3.5,3 C3.5,3.82842712 2.82842712,4.5 2,4.5 Z" id="合并形状" fill="#E4E3E8" fill-rule="nonzero"></path>
    </g>
</svg>