<svg width="19" height="19" xmlns="http://www.w3.org/2000/svg" xmlns:xlink="http://www.w3.org/1999/xlink"><defs><path id="b" d="M0 19h375v50H0z"/><filter x="-4.1%" y="-33%" width="108.3%" height="162%" filterUnits="objectBoundingBox" id="a"><feOffset dy="-1" in="SourceAlpha" result="shadowOffsetOuter1"/><feGaussianBlur stdDeviation="5" in="shadowOffsetOuter1" result="shadowBlurOuter1"/><feColorMatrix values="0 0 0 0 0.890196078 0 0 0 0 0.894117647 0 0 0 0 0.909803922 0 0 0 1 0" in="shadowBlurOuter1"/></filter></defs><g fill="none" fill-rule="evenodd"><g transform="translate(-242 -35)"><use fill="#000" filter="url(#a)" xlink:href="#b"/><use fill="#FFF" xlink:href="#b"/></g><path fill="#FFF" d="M-10.323-15.794H65.37v50h-75.693z"/><path d="M15.94 6.205l-2.858-2.86a.639.639 0 1 0-.903.903l1.103 1.104H8.28a4.596 4.596 0 0 0 0 9.193h2.41v-.005a.88.88 0 0 0 .873-.875.88.88 0 0 0-.873-.876v-.001H8.28a2.84 2.84 0 1 1 0-5.678h3.937c.076 0 .143.009.213.014V7.11h.845L12.177 8.2a.635.635 0 1 0 .903.896l2.859-2.85-.022-.02.023-.021z" fill="#596175" fill-rule="nonzero"/><g><path fill="#FFF" d="M-10.323-15.794H65.37v50h-75.693z"/><path d="M4.474 8.454a.51.51 0 0 0-.51.51v.65c0 .282.229.51.51.51h10.673a.51.51 0 0 0 .51-.51v-.65a.51.51 0 0 0-.51-.51H4.474zm6.191-4.5a.51.51 0 0 0-.51-.51h-.65a.51.51 0 0 0-.51.51v10.672c0 .282.228.51.51.51h.65a.51.51 0 0 0 .51-.51V3.953z" fill="#596175" fill-rule="nonzero"/></g></g></svg>