<svg width="15" height="17" xmlns="http://www.w3.org/2000/svg"><g transform="translate(-1 .605)" fill="none" fill-rule="evenodd"><rect fill="#FFBC00" x="1" width="15" height="16" rx="1"/><path d="M10.465 5.152c0 .856.064 1.688-.576 2.328-.376.376-.912.544-1.504.544L6.028 8V2.304l2.357.024c.592 0 1.128.168 1.504.544.64.64.576 1.424.576 2.28zm-1.112 0c0-.864-.032-1.224-.24-1.48-.192-.232-.448-.352-.832-.352L7.14 3.296v3.712l1.141.024c.384 0 .64-.12.832-.352.208-.256.24-.664.24-1.528z" fill="#FFF" opacity=".8"/><path fill="#FFF" opacity=".4" d="M4.134 10.413h8.732v1H4.134z"/><path fill="#FFF" opacity=".7" d="M4.134 12.731h8.732v1H4.134z"/></g></svg>