<svg class="icon" viewBox="0 0 1024 1024" xmlns="http://www.w3.org/2000/svg" width="200" height="200"><defs><style/></defs><path d="M512 332.8c49.5 0 89.6-40.1 89.6-89.6 0-49.5-40.1-89.6-89.6-89.6-49.5 0-89.6 40.1-89.6 89.6 0 49.5 40.2 89.6 89.6 89.6zm0 268.8c49.5 0 89.6-40.1 89.6-89.6 0-49.5-40.1-89.6-89.6-89.6-49.5 0-89.6 40.1-89.6 89.6 0 49.4 40.1 89.6 89.6 89.6zm0 89.6c-49.5 0-89.6 40.1-89.6 89.6 0 49.5 40.1 89.6 89.6 89.6 49.5 0 89.6-40.1 89.6-89.6 0-49.5-40.1-89.6-89.6-89.6z" fill="#DEDEDE"/></svg>