<svg width="30" height="30" xmlns="http://www.w3.org/2000/svg"><g fill="none" fill-rule="evenodd"><circle fill="#000" fill-rule="nonzero" opacity=".65" cx="15" cy="15" r="15"/><path d="M20.714 11.838l-3.32-3.387a1.022 1.022 0 0 0-1.135-.226 1.085 1.085 0 0 0-.645.994V21.04c0 .53.415.96.927.96s.928-.43.928-.96v-9.797l1.928 1.996a.922.922 0 0 0 1.336-.019 1.001 1.001 0 0 0-.019-1.382zM12.443 8c-.513 0-.928.43-.928.96v9.806L9.586 16.77a.912.912 0 0 0-.658-.283.912.912 0 0 0-.658.283.983.983 0 0 0 0 1.353l3.32 3.426a.994.994 0 0 0 .732.317.954.954 0 0 0 .399-.077c.379-.161.632-.536.649-.96V8.96c0-.53-.415-.959-.927-.959z" fill="#FFF" fill-rule="nonzero"/></g></svg>