<svg width="31" height="30" xmlns="http://www.w3.org/2000/svg"><g fill="none" fill-rule="evenodd"><circle fill="#000" fill-rule="nonzero" opacity=".65" cx="15.4" cy="15" r="15"/><path d="M10.402 10.779v10.176a1.1 1.1 0 0 0 1.1 1.1h7.796a1.1 1.1 0 0 0 1.1-1.1V10.779h-9.996z" stroke="#FFF" stroke-width="1.8"/><path d="M13.723 7.047h3.355c.463 0 .838.396.838.884s-.375.884-.838.884h-3.355c-.464 0-.84-.396-.84-.884s.376-.884.84-.884zM9.058 9.698h12.756c.503 0 .912.396.912.884s-.409.883-.912.883H9.058c-.503 0-.911-.395-.911-.883s.408-.884.911-.884zm4.665 3.535c.462 0 .838.395.838.883v4.418c0 .488-.376.884-.838.884-.464 0-.84-.396-.84-.884v-4.418c0-.488.376-.883.84-.883zm3.355 0c.463 0 .838.395.838.883v4.418c0 .488-.375.884-.838.884-.464 0-.84-.396-.84-.884v-4.418c0-.488.376-.883.84-.883z" fill="#FFF"/></g></svg>