<svg width="31" height="30" xmlns="http://www.w3.org/2000/svg"><g fill-rule="nonzero" fill="none"><circle fill="#000" opacity=".65" cx="15.237" cy="15" r="15"/><path d="M22.34 11.075h-2.356l-2.42-2.42a.593.593 0 0 0-.458-.197H8.602c-.393 0-.654.262-.654.654v11.776c0 .392.261.654.654.654H22.34c.393 0 .654-.262.654-.654v-9.16c0-.392-.261-.653-.654-.653h0zM9.255 9.766h7.59l1.308 1.309H9.256V9.766h0zm12.43 10.468H9.255v-7.85h12.43v7.85zM14.841 18.1l.76.76 2.552-2.551-2.552-2.552-.76.76 1.249 1.249h-3.04v1.086h3.04L14.841 18.1z" fill="#FFF" stroke="#FFF" stroke-width=".4"/></g></svg>