<svg width="164" height="128" xmlns="http://www.w3.org/2000/svg" xmlns:xlink="http://www.w3.org/1999/xlink"><defs><path d="M1 0h125.176a1 1 0 0 1 1 1v79.979a1 1 0 0 1-1 1H1a1 1 0 0 1-1-1V1a1 1 0 0 1 1-1z" id="a"/><linearGradient x1="-8.103%" y1="87.458%" x2="101.168%" y2="0%" id="b"><stop stop-color="#FFC700" offset="0%"/><stop stop-color="#C31725" offset="100%"/></linearGradient></defs><g fill="none" fill-rule="evenodd"><g transform="translate(-28.06 -19.646)"><path d="M43.744 20.153h133.209a3 3 0 0 1 3 3v90.05H40.744v-90.05a3 3 0 0 1 3-3z" fill="#FBD28D"/><use fill="#FFFEFE" xlink:href="#a" transform="translate(46.76 26.149)"/><path d="M28.86 111.511h162.976v1.305a8 8 0 0 1-8 8H36.86a8 8 0 0 1-8-8v-1.305z" fill="#F9C57F"/><path d="M98.385 111.511h22.052v.957a2 2 0 0 1-2 2h-18.052a2 2 0 0 1-2-2v-.957z" fill="#FFDDA5"/><path d="M77.333 78.786h7.188a1 1 0 0 1 1 1v20.966h-9.188V79.786a1 1 0 0 1 1-1zm19.296-11.899h7.188a1 1 0 0 1 1 1v32.865h-9.188V67.887a1 1 0 0 1 1-1zm19.295 5.492h7.188a1 1 0 0 1 1 1v27.373h-9.188V73.38a1 1 0 0 1 1-1zm19.295-11.899h7.189a1 1 0 0 1 1 1v39.272h-9.189V61.48a1 1 0 0 1 1-1z" fill="#FFF8ED" opacity=".6"/><path d="M50.06 73.261c10.624 5.899 19.656 5.899 27.095 0 11.158-8.848 12.511-26.193 27.136-26.193 14.624 0 18.78 16.69 32.735 16.69 13.954 0 16.066-23.888 32.01-25.385" stroke="url(#b)" stroke-width="4" stroke-linecap="round"/><path d="M50.414 92.896c10.388 4.783 19.302 4.225 26.74-1.674 11.16-8.849 12.512-26.193 27.137-26.193 14.624 0 17.752 14.445 31.706 14.445 13.955 0 17.095-21.644 33.039-23.14" stroke="#FBFAFB" stroke-width="4" stroke-linecap="round"/><ellipse stroke="#FF8500" stroke-width="2" fill="#FFFEFE" cx="100.797" cy="47.854" rx="6.852" ry="6.794"/><ellipse fill="#FF8500" cx="100.797" cy="47.854" rx="3.807" ry="3.775"/></g><path d="M83.755 127.06c38.06 0 68.915-2.298 68.915-5.135 0-2.836-30.854-5.135-68.915-5.135-38.061 0-68.915 2.3-68.915 5.135 0 2.837 30.854 5.136 68.915 5.136z" fill="#FFFAF3"/></g></svg>
