<svg width="650" height="200" xmlns="http://www.w3.org/2000/svg" xmlns:xlink="http://www.w3.org/1999/xlink"><defs><rect id="b" x="0" y="0" width="42" height="68" rx="2"/><filter x="-38.1%" y="-20.6%" width="176.2%" height="147.1%" filterUnits="objectBoundingBox" id="a"><feOffset dy="2" in="SourceAlpha" result="shadowOffsetOuter1"/><feGaussianBlur stdDeviation="5" in="shadowOffsetOuter1" result="shadowBlurOuter1"/><feColorMatrix values="0 0 0 0 0 0 0 0 0 0 0 0 0 0 0 0 0 0 0.1 0" in="shadowBlurOuter1"/></filter><circle id="d" cx="413" cy="106" r="43"/><filter x="-18.6%" y="-16.3%" width="137.2%" height="137.2%" filterUnits="objectBoundingBox" id="c"><feOffset dy="2" in="SourceAlpha" result="shadowOffsetOuter1"/><feGaussianBlur stdDeviation="5" in="shadowOffsetOuter1" result="shadowBlurOuter1"/><feColorMatrix values="0 0 0 0 0 0 0 0 0 0 0 0 0 0 0 0 0 0 0.1 0" in="shadowBlurOuter1"/></filter></defs><g fill="none" fill-rule="evenodd"><rect stroke="#F7F7F7" fill="#FFF" x=".5" y=".5" width="649" height="199" rx="2"/><g transform="translate(20 17)"><rect stroke="#F9F9F9" x=".5" y=".5" width="139" height="166" rx="2"/><path fill="#F9F9F9" d="M0 26h140v28H0z"/><g transform="translate(89 37)"><use fill="#000" filter="url(#a)" xlink:href="#b"/><use fill="#FFF" xlink:href="#b"/></g><path fill="#FAFAFA" d="M89 41h42v20H89z"/><path d="M105.956 54.944h-.516V50.65h4.262v3.56c0 .468-.21.701-.628.701-.296.011-.53.016-.701.016-.022-.15-.05-.29-.085-.418h-.375V52.88h-.733v1.66h-.491v-1.66h-.733v2.063zM102 53.46c.655-.088 1.429-.201 2.32-.338.215-.712.322-1.59.322-2.635v-2.61h2.268a9.946 9.946 0 0 0-.358-.596l.612-.282c.153.244.325.537.516.878h1.901v2.208h-.548v-.258h-3.843v.668c0 2.074-.394 3.572-1.184 4.496a4.583 4.583 0 0 0-.395-.5c.199-.233.368-.51.508-.83-.825.167-1.483.304-1.974.412L102 53.46zm.95-1.651c.253-.011.718-.049 1.394-.113-.026.225-.048.4-.064.524-1.053.09-1.721.158-2.006.201l-.113-.508c.274-.274.631-.823 1.072-1.647-.411.032-.768.063-1.072.093l-.153-.508c.516-.822.97-1.746 1.362-2.771l.628.225a29.033 29.033 0 0 1-1.305 2.498c.174 0 .436-.004.785-.012.143-.277.292-.58.447-.907l.58.258c-.687 1.24-1.205 2.13-1.554 2.667zm6.083-3.416h-3.843v.918h3.843v-.918zm-.185 6.01c.21 0 .314-.116.314-.347v-1.176h-.757v1.51c.137.009.284.013.443.013zm.314-3.239h-.757v1.225h.757v-1.225zm-1.982 1.225h.733v-1.225h-.733v1.225zm-1.224 0h.733v-1.225h-.733v1.225zm7.138 1.232c.239-.01.483-.02.733-.028V50.36h-.492v-.5h4.85v.5h-.531v3.04c.212-.01.427-.022.644-.035-.027.209-.046.386-.056.531-.194.008-.39.015-.588.02V55h-.564v-1.06c-1.195.054-2.514.125-3.956.214l-.04-.532zm-2.063-2.594h.862v-1.78h.532v1.78h.943v.532h-.943v1.108c.365-.043.728-.09 1.088-.141-.027.204-.046.39-.057.556-.327.037-.671.079-1.031.124V55h-.532v-1.724c-.497.064-1.02.134-1.57.21l-.065-.589c.55-.05 1.095-.106 1.635-.165V51.56h-1.45v-.508c.298-.824.55-1.563.753-2.215h-.842v-.524h1.004c.142-.486.253-.916.334-1.289l.62.13c-.088.305-.21.692-.362 1.16h1.482v.523h-1.652c-.204.618-.453 1.348-.749 2.191zm2.723-3.61h3.972v2.088h-.556v-.29h-2.852v.29h-.564v-2.087zm3.416.476h-2.852v.846h2.852v-.846zm-.08 5.539v-.68h-2.7v.813c.841-.04 1.74-.085 2.7-.133zm-2.7-1.148h2.7v-.733h-2.7v.733zm0-1.2h2.7v-.725h-2.7v.725zM102.193 72.043h7.783v.564h-3.456v1.217c0 .666-.307.999-.919.999-.327 0-.677-.006-1.047-.016a9.564 9.564 0 0 0-.097-.669c.403.043.728.064.975.064.3 0 .451-.153.451-.459v-1.136h-3.69v-.564zm3.344-2.094a7.252 7.252 0 0 0 1.812-1.555h-1.176v-.5h1.305V67h.548v.894h1.756v.5h-1.651c.58.66 1.24 1.138 1.982 1.434-.15.188-.282.365-.395.532a5.688 5.688 0 0 1-1.692-1.54v1.668h-.548v-1.667a8.002 8.002 0 0 1-1.506 1.57 6.734 6.734 0 0 0-.435-.442zm-3.537.064a6.548 6.548 0 0 0 1.805-1.62h-1.434v-.499h1.554V67h.548v.894h1.394v.5h-1.394v.596l.194-.298c.478.247.846.462 1.103.644l-.29.427a7.19 7.19 0 0 0-1.007-.644v1.377h-.548v-1.635a7.006 7.006 0 0 1-1.474 1.571 4.32 4.32 0 0 0-.451-.419zm1.112.733h5.994v.564h-5.994v-.564zm4.14 2.61l.315-.49c.725.348 1.453.716 2.183 1.103l-.362.596a47.535 47.535 0 0 0-2.135-1.209zm-3.02-.515l.41.483c-.66.451-1.372.878-2.134 1.281a6.932 6.932 0 0 0-.339-.507 14.148 14.148 0 0 0 2.063-1.257zm9.925 1.941v-2.561h-2.344c-.092 1.117-.417 2.043-.975 2.779a9.84 9.84 0 0 0-.475-.556c.349-.494.585-1.042.709-1.643.118-.58.177-1.402.177-2.466V67.46h6.566v6.405c0 .64-.304.959-.91.959-.371 0-.788-.008-1.25-.024-.026-.178-.067-.4-.12-.67.467.033.846.05 1.136.05.333 0 .5-.16.5-.476V72.22h-2.37v2.561h-.644zm.645-3.142h2.368v-1.506h-2.368v1.506zm2.368-3.585h-2.368v1.499h2.368v-1.499zm-5.313 3.585h2.3v-1.506h-2.264c.016.52.004 1.023-.036 1.506zm.036-3.585v1.499h2.264v-1.499h-2.264z" fill="#999"/><g><path d="M104.184 87.333h1.868v3.119h.6v.52h-.6v3.102c0 .51-.222.764-.666.764-.195 0-.425-.009-.69-.025a3.28 3.28 0 0 0-.098-.56c.222.038.43.06.625.065.2.005.3-.12.3-.374v-2.972h-.811v.836c0 1.348-.25 2.407-.748 3.176a3.668 3.668 0 0 0-.406-.455c.417-.634.626-1.54.626-2.72v-.837h-.674v2.875c0 .53-.225.796-.674.796a8.31 8.31 0 0 1-.601-.025 4.848 4.848 0 0 0-.098-.56c.244.038.43.057.56.057.19 0 .285-.117.285-.35v-2.793h-.804v.934c0 1.25-.258 2.271-.772 3.062a3.668 3.668 0 0 0-.406-.455c.433-.677.65-1.592.65-2.745v-.796H101v-.52h.65v-3.103h1.86v3.103h.674v-3.119zm3.89-.333h.593v6.969c0 .584-.257.877-.772.877-.308 0-.668-.006-1.08-.017a5.009 5.009 0 0 0-.113-.674c.39.038.7.06.934.065.292.006.438-.14.438-.438V87zm-.682 6.043h-.569v-5.434h.569v5.434zm-1.868-5.206h-.812v2.615h.812v-2.615zm-2.542.016h-.804v2.599h.804v-2.6zm9.259 3.517h2.046v-1.024h-1.518v-.39c-.195.163-.396.32-.601.471a4.65 4.65 0 0 0-.398-.552c1.142-.774 2.003-1.684 2.582-2.729h.666l-.105.228c.574.974 1.435 1.732 2.582 2.274-.14.254-.26.476-.357.666-1.094-.645-1.944-1.438-2.55-2.38a9.035 9.035 0 0 1-1.625 1.844h3.33v.568h-1.388v1.024h2.184v.568h-2.184v2.014c0 .623-.293.934-.878.934-.227 0-.53-.002-.91-.008-.026-.19-.064-.414-.113-.674.292.043.571.065.837.065.297 0 .446-.152.446-.455v-1.876h-2.046v-.568zm-.195.194c.151 1.024-.095 1.6-.74 1.73-.2.044-.465.046-.795.009-.044-.222-.1-.45-.17-.683.254.065.495.087.722.065.368-.038.487-.406.357-1.104-.065-.38-.3-.834-.706-1.365l.65-2.241h-1.032V95h-.601v-7.594h2.29v.569c-.26.812-.49 1.524-.69 2.136.417.563.655 1.047.715 1.453zm3.354 1.219l.455-.398c.482.476.983.999 1.502 1.567l-.503.455a55.595 55.595 0 0 0-1.454-1.624zm-2.477-.463l.536.292c-.385.71-.796 1.357-1.235 1.941-.14-.108-.311-.233-.511-.373.444-.52.847-1.14 1.21-1.86z" fill="#999"/></g></g><text font-family="MicrosoftYaHei, Microsoft YaHei" font-size="16" letter-spacing="2" fill="#8C8C8C"><tspan x="177" y="31">日</tspan> <tspan x="195" y="31">报</tspan></text><path stroke="#F9F9F9" d="M177.5 68.5h456v115h-456z"/><text font-family="MicrosoftYaHei, Microsoft YaHei" font-size="9" fill="#999" transform="translate(177 68)"><tspan x="12" y="22">时间</tspan></text><text font-family="MicrosoftYaHei, Microsoft YaHei" font-size="9" fill="#999" transform="translate(177 68)"><tspan x="73" y="21">统计对象</tspan></text><text font-family="MicrosoftYaHei, Microsoft YaHei" font-size="9" fill="#999" transform="translate(177 68)"><tspan x="159" y="22">应提交</tspan></text><text font-family="MicrosoftYaHei, Microsoft YaHei" font-size="11" fill="#8C8C8C" transform="translate(177 68)"><tspan x="159" y="52">1200</tspan></text><text font-family="MicrosoftYaHei, Microsoft YaHei" font-size="12" fill="#FF8B16" transform="translate(177 68)"><tspan x="220" y="52">1060</tspan></text><text font-family="MicrosoftYaHei, Microsoft YaHei" font-size="11" fill="#FF7D08" transform="translate(177 68)"><tspan x="286" y="52">40</tspan></text><text font-family="MicrosoftYaHei, Microsoft YaHei" font-size="11" fill="#8C8C8C" transform="translate(177 68)"><tspan x="405" y="52">88.3%</tspan></text><text font-family="MicrosoftYaHei, Microsoft YaHei" font-size="12" fill="#FF7D08" transform="translate(177 68)"><tspan x="350" y="52">12</tspan></text><text font-family="MicrosoftYaHei, Microsoft YaHei" font-size="9" fill="#B3B3B3" transform="translate(177 68)"><tspan x="222" y="22">已提交</tspan></text><text font-family="MicrosoftYaHei, Microsoft YaHei" font-size="9" fill="#999" transform="translate(177 68)"><tspan x="285" y="22">未提交</tspan></text><text font-family="MicrosoftYaHei, Microsoft YaHei" font-size="9" fill="#999" transform="translate(177 68)"><tspan x="348" y="22">请假</tspan></text><text font-family="MicrosoftYaHei, Microsoft YaHei" font-size="9" fill="#999" transform="translate(177 68)"><tspan x="402" y="22">提交比例</tspan></text><path fill="#F9F9F9" d="M189 109h40v13h-40zM189 139h425v22H189zM250 109h66v13h-66z"/><g transform="translate(176 44)"><text font-family="MicrosoftYaHei, Microsoft YaHei" font-size="8" fill="#B3B3B3"><tspan x="8" y="11">全部</tspan></text><rect stroke="#F7F7F7" x=".5" y=".5" width="31" height="15" rx="1"/></g><g transform="translate(601 44)"><text font-family="MicrosoftYaHei, Microsoft YaHei" font-size="8" fill="#B3B3B3"><tspan x="8" y="11">导出</tspan></text><rect stroke="#F7F7F7" x=".5" y=".5" width="31" height="15" rx="1"/></g><g transform="translate(215 44)"><text font-family="MicrosoftYaHei, Microsoft YaHei" font-size="8" fill="#FF8B16"><tspan x="8" y="11">最近7天</tspan></text><rect stroke="#F7F7F7" x=".5" y=".5" width="43" height="15" rx="1"/></g><g transform="translate(266 44)"><text font-family="MicrosoftYaHei, Microsoft YaHei" font-size="8" fill="#B3B3B3"><tspan x="8" y="11">最近30天</tspan></text><rect stroke="#F7F7F7" x=".5" y=".5" width="48" height="15" rx="1"/></g><g transform="translate(216 24)"><text font-family="MicrosoftYaHei, Microsoft YaHei" font-size="8" fill="#CCC"><tspan x="119" y="31">自定义时间</tspan></text><rect stroke="#F7F7F7" x="106.5" y="20.5" width="65" height="15" rx="1"/></g><text font-family="PingFangSC-Regular, PingFang SC" font-size="12" fill="#999"><tspan x="33" y="61">日报</tspan></text><g><use fill="#000" filter="url(#c)" xlink:href="#d"/><use fill="#FFF" xlink:href="#d"/></g><text font-family="PingFangSC-Regular, PingFang SC" font-size="12" fill="#8C8C8C"><tspan x="394" y="97">已提交</tspan></text><text font-family="PingFangSC-Regular, PingFang SC" font-size="16" fill="#FF7D08"><tspan x="394" y="121">1060</tspan></text></g></svg>