<svg width="130" height="144" xmlns="http://www.w3.org/2000/svg" xmlns:xlink="http://www.w3.org/1999/xlink"><defs><rect id="b" x="25" y="22" width="80" height="100" rx="2"/><filter x="-11.2%" y="-9%" width="122.5%" height="118%" filterUnits="objectBoundingBox" id="a"><feOffset in="SourceAlpha" result="shadowOffsetOuter1"/><feGaussianBlur stdDeviation="3" in="shadowOffsetOuter1" result="shadowBlurOuter1"/><feColorMatrix values="0 0 0 0 0.770780187 0 0 0 0 0.770780187 0 0 0 0 0.770780187 0 0 0 0.372056159 0" in="shadowBlurOuter1"/></filter><path d="M43.502 65v-3H57v3H43.502zM39 65v-3h3v3h-3zm4.502 6v-3H57v3H43.502zM39 71v-3h3v3h-3zm4.502 6v-3.001H57V77H43.502zM39 77v-3.001h3V77h-3z" id="d"/><filter x="-50%" y="-60%" width="200%" height="220%" filterUnits="objectBoundingBox" id="c"><feOffset in="SourceAlpha" result="shadowOffsetOuter1"/><feGaussianBlur stdDeviation="3" in="shadowOffsetOuter1" result="shadowBlurOuter1"/><feColorMatrix values="0 0 0 0 0.770780187 0 0 0 0 0.770780187 0 0 0 0 0.770780187 0 0 0 0.372056159 0" in="shadowBlurOuter1"/></filter></defs><g fill="none" fill-rule="evenodd"><rect fill="#F8F8F6" width="130" height="144" rx="2"/><use fill="#000" filter="url(#a)" xlink:href="#b"/><use fill="#FFF" xlink:href="#b"/><g opacity=".7"><use fill="#000" filter="url(#c)" xlink:href="#d"/><use fill="#CCC" xlink:href="#d"/></g><path d="M80.56 71h-3.12A1.44 1.44 0 0 0 76 72.44v3.12c0 .795.645 1.44 1.44 1.44h3.12A1.44 1.44 0 0 0 82 75.56v-3.12A1.44 1.44 0 0 0 80.56 71m9 0h-3.12A1.44 1.44 0 0 0 85 72.44v3.12c0 .795.644 1.44 1.44 1.44h3.12A1.44 1.44 0 0 0 91 75.56v-3.12A1.44 1.44 0 0 0 89.56 71m0-9h-3.12c-.796 0-1.44.644-1.44 1.44v3.12c0 .798.644 1.44 1.44 1.44h3.12c.796 0 1.44-.642 1.44-1.44v-3.12c0-.796-.644-1.44-1.44-1.44m-9 0h-3.12A1.44 1.44 0 0 0 76 63.44v3.12c0 .798.645 1.44 1.44 1.44h3.12c.795 0 1.44-.642 1.44-1.44v-3.12A1.44 1.44 0 0 0 80.56 62" fill="#F87B00" opacity=".7"/><circle fill="#F87B00" opacity=".054" cx="79" cy="75" r="21"/><circle fill="#F87B00" opacity=".2" cx="79" cy="75" r="13"/><g fill="#000" fill-rule="nonzero" stroke="#FFF"><path d="M94.711 85.54l-12.064-6.424c-.44-.264-.722-.062-.63.447l2.912 13.751c.093.51.41.58.704.156 0 0 1.147-2.087 2.49-3.53l3.493 4.956a.787.787 0 0 0 1.103.214l1.783-1.35a.825.825 0 0 0 .21-1.127l-3.693-4.772c1.722-.718 3.59-1.619 3.59-1.619.496-.123.542-.44.102-.703z"/></g></g></svg>