<?xml version="1.0" encoding="UTF-8"?>
<svg width="36px" height="36px" viewBox="0 0 36 36" version="1.1" xmlns="http://www.w3.org/2000/svg" xmlns:xlink="http://www.w3.org/1999/xlink">
    <!-- Generator: Sketch 52.2 (67145) - http://www.bohemiancoding.com/sketch -->
    <title>icon_a-tabbar_add</title>
    <desc>Created with Sketch.</desc>
    <g id="2_个人组件" stroke="none" stroke-width="1" fill="none" fill-rule="evenodd">
        <g id="底部导航栏_舵式" transform="translate(-170.000000, -559.000000)" fill-rule="nonzero">
            <g id="tabbar/组件/2栏-copy-5" transform="translate(0.000000, 553.000000)">
                <g id="导航(圆)" transform="translate(150.000000, 0.000000)">
                    <g id="分组-2" transform="translate(20.000000, 6.000000)">
                        <circle id="椭圆形" fill="#5585F0" cx="18" cy="18" r="18"></circle>
                        <path d="M17,17 L17,12 C17,11.4477153 17.4477153,11 18,11 C18.5522847,11 19,11.4477153 19,12 L19,17 L24,17 C24.5522847,17 25,17.4477153 25,18 C25,18.5522847 24.5522847,19 24,19 L19,19 L19,24 C19,24.5522847 18.5522847,25 18,25 C17.4477153,25 17,24.5522847 17,24 L17,19 L12,19 C11.4477153,19 11,18.5522847 11,18 C11,17.4477153 11.4477153,17 12,17 L17,17 Z" id="合并形状" fill="#FFFFFF"></path>
                    </g>
                </g>
            </g>
        </g>
    </g>
</svg>