<?xml version="1.0" encoding="UTF-8"?>
<svg width="66px" height="66px" viewBox="0 0 66 66" version="1.1" xmlns="http://www.w3.org/2000/svg" xmlns:xlink="http://www.w3.org/1999/xlink">
    <!-- Generator: Sketch 52.5 (67469) - http://www.bohemiancoding.com/sketch -->
    <title>icon_A-FK_add_draft</title>
    <desc>Created with Sketch.</desc>
    <defs>
        <rect id="path-1" x="0" y="0" width="9" height="2" rx="1"></rect>
        <filter x="-144.4%" y="-550.0%" width="388.9%" height="1400.0%" filterUnits="objectBoundingBox" id="filter-2">
            <feOffset dx="0" dy="2" in="SourceAlpha" result="shadowOffsetOuter1"></feOffset>
            <feGaussianBlur stdDeviation="4" in="shadowOffsetOuter1" result="shadowBlurOuter1"></feGaussianBlur>
            <feColorMatrix values="0 0 0 0 0.339009028   0 0 0 0 0.563130295   0 0 0 0 0.881802721  0 0 0 0.47973279 0" type="matrix" in="shadowBlurOuter1"></feColorMatrix>
        </filter>
        <path d="M1,6 L4,6 C4.55228475,6 5,6.44771525 5,7 L5,7 C5,7.55228475 4.55228475,8 4,8 L1,8 C0.44771525,8 6.76353751e-17,7.55228475 0,7 L0,7 C-6.76353751e-17,6.44771525 0.44771525,6 1,6 Z" id="path-3"></path>
        <filter x="-260.0%" y="-550.0%" width="620.0%" height="1400.0%" filterUnits="objectBoundingBox" id="filter-4">
            <feOffset dx="0" dy="2" in="SourceAlpha" result="shadowOffsetOuter1"></feOffset>
            <feGaussianBlur stdDeviation="4" in="shadowOffsetOuter1" result="shadowBlurOuter1"></feGaussianBlur>
            <feColorMatrix values="0 0 0 0 0.339009028   0 0 0 0 0.563130295   0 0 0 0 0.881802721  0 0 0 0.47973279 0" type="matrix" in="shadowBlurOuter1"></feColorMatrix>
        </filter>
    </defs>
    <g id="Page-1" stroke="none" stroke-width="1" fill="none" fill-rule="evenodd">
        <g id="首页-添加" transform="translate(-279.000000, -409.000000)">
            <g id="icon_A-FK_add_draft" transform="translate(279.000000, 409.000000)">
                <circle id="Oval-Copy-5" fill="#F5F6F7" cx="33" cy="33" r="33"></circle>
                <g id="Group-2" transform="translate(22.000000, 20.000000)">
                    <path d="M4.91293907,1.5 L23.5,1.5 C24.0522847,1.5 24.5,1.94771525 24.5,2.5 L24.5,23.5 C24.5,24.0522847 24.0522847,24.5 23.5,24.5 L-0.5,24.5 C-1.05228475,24.5 -1.5,24.0522847 -1.5,23.5 L-1.5,7.81003432 C-1.5,7.54149089 -1.39199103,7.28423247 -1.20028867,7.09617455 L4.2126504,1.78614023 C4.39960508,1.60273972 4.65104636,1.5 4.91293907,1.5 Z" id="Combined-Shape-Copy-2" fill="#969EA9" transform="translate(11.500000, 13.000000) rotate(90.000000) translate(-11.500000, -13.000000) "></path>
                    <g id="Group-5" transform="translate(7.000000, 10.000000)">
                        <g id="Rectangle-18">
                            <use fill="black" fill-opacity="1" filter="url(#filter-2)" xlink:href="#path-1"></use>
                            <use fill="#FFFFFF" fill-rule="evenodd" xlink:href="#path-1"></use>
                        </g>
                        <g id="Rectangle-18-Copy">
                            <use fill="black" fill-opacity="1" filter="url(#filter-4)" xlink:href="#path-3"></use>
                            <use fill="#FFFFFF" fill-rule="evenodd" xlink:href="#path-3"></use>
                        </g>
                    </g>
                </g>
            </g>
        </g>
    </g>
</svg>