<?xml version="1.0" encoding="UTF-8"?>
<svg width="24px" height="24px" viewBox="0 0 24 24" version="1.1" xmlns="http://www.w3.org/2000/svg" xmlns:xlink="http://www.w3.org/1999/xlink">
    <!-- Generator: Sketch 52.5 (67469) - http://www.bohemiancoding.com/sketch -->
    <title>icon_a-fk_wait_nor</title>
    <desc>Created with Sketch.</desc>
    <g id="Page-1" stroke="none" stroke-width="1" fill="none" fill-rule="evenodd">
        <g id="cut" transform="translate(-295.000000, -165.000000)">
            <g id="Group" transform="translate(269.000000, 158.000000)">
                <rect id="cherkbox" x="0" y="0" width="75" height="49"></rect>
                <g id="icon_a-fk_wait_nor" transform="translate(26.000000, 7.000000)">
                    <g>
                        <rect fill="#D8D8D8" opacity="0" x="0" y="0" width="24" height="24"></rect>
                        <path d="M2.74241173,17.9353972 L21.2575883,17.9353972 C21.4785022,17.9353972 21.6575883,18.1144833 21.6575883,18.3353972 L21.6575883,19.6 C21.6575883,19.8209139 21.4785022,20 21.2575883,20 L2.74241173,20 C2.52149782,20 2.34241172,19.8209139 2.34241172,19.6 L2.34241172,18.3353972 C2.34241172,18.1144833 2.52149782,17.9353972 2.74241173,17.9353972 Z" id="Rectangle-12" fill="#B2B9C8"></path>
                        <g id="Group-14" transform="translate(2.000000, 3.000000)" fill="#B2B9C8">
                            <path d="M1.94241172,9 L18.0575883,9 C18.9412439,9 19.6575883,9.7163444 19.6575883,10.6 L19.6575883,13.4953165 L0.342411721,13.4953165 L0.342411721,10.6 C0.342411721,9.7163444 1.05875612,9 1.94241172,9 Z" id="Rectangle-7"></path>
                            <path d="M12.0136851,5.82584012 C11.4688903,6.17730602 11.1081985,6.78960454 11.1081985,7.48614713 C11.1081985,8.09406852 11.3829473,8.63781891 11.8150464,9 L8.19105511,9 C8.62315424,8.63781891 8.89790295,8.09406852 8.89790295,7.48614713 C8.89790295,6.77688345 8.52391616,6.15496906 7.96238413,5.80684552 C7.21666216,5.20925281 6.73914546,4.29081867 6.73914546,3.26085454 C6.73914546,1.45993431 8.19907977,0 10,0 C11.8009202,0 13.2608545,1.45993431 13.2608545,3.26085454 C13.2608545,4.30179415 12.7731066,5.22881412 12.0136851,5.82584012 Z" id="Combined-Shape"></path>
                        </g>
                    </g>
                </g>
            </g>
        </g>
    </g>
</svg>