<?xml version="1.0" encoding="UTF-8"?>
<svg width="24px" height="24px" viewBox="0 0 24 24" version="1.1" xmlns="http://www.w3.org/2000/svg" xmlns:xlink="http://www.w3.org/1999/xlink">
    <!-- Generator: Sketch 52.5 (67469) - http://www.bohemiancoding.com/sketch -->
    <title>icon_a-fk_borrow_nor</title>
    <desc>Created with Sketch.</desc>
    <g id="Page-1" stroke="none" stroke-width="1" fill="none" fill-rule="evenodd">
        <g id="cut" transform="translate(-149.000000, -236.000000)">
            <rect fill="#FFFFFF" x="0" y="0" width="454" height="299"></rect>
            <rect id="Rectangle-Copy" fill="#FFFFFF" x="48" y="229" width="375" height="49"></rect>
            <g id="goods_nor-copy" transform="translate(123.000000, 229.000000)">
                <g id="Group">
                    <rect id="cherkbox" x="0" y="0" width="75" height="49"></rect>
                    <g id="icon_a-fk_borrow_nor" transform="translate(26.000000, 7.000000)">
                        <rect fill="#D8D8D8" opacity="0" x="0" y="0" width="24" height="24"></rect>
                        <g id="Group-3" transform="translate(1.000000, 13.545015)" fill="#5585F0">
                            <path d="M20.6961765,1.32217108 C20.1257654,0.926690469 19.383675,1.12626275 18.6454712,1.17985065 C18.6229197,1.18151302 16.1086382,1.87359565 11.1026268,3.25609854 C8.18416364,2.90390159 6.51143575,1.54457722 5.75532684,1.45938123 L5.75532684,0.0448737811 C5.19994196,-0.014957927 4.79166242,0.0448737811 3.97003,0.0448737811 C3.42227505,0.0448737811 2.61918787,0.0448737811 1.56076844,0.0448737811 C1.21701448,-0.0233024707 0.872020053,0.15883802 0.793752647,0.446073024 C0.714853318,0.732782864 0.930837608,4.67809691 1.27583206,4.74366672 L7.96547487,6.33064742 C8.66459591,6.5719939 9.54940259,6.72 10.2609712,6.72 C10.9652373,6.72 11.4879116,6.64968779 12.4465292,6.33064742 C13.0856077,6.11795384 15.9484507,5.09310421 21.0350582,3.25609854 C21.2924231,3.16611755 21.4501984,2.94756452 21.4251547,2.71652386 C21.3575368,2.10198447 21.2665876,1.71712653 20.6961765,1.32217108 Z" id="Shape" fill-rule="nonzero"></path>
                            <path d="M12.7406885,0.0630011036 C13.540543,0.0630011036 12.563375,2.26617313 10.8059368,2.26617313 C9.21433062,2.26617313 6.88590198,2.26617313 1.84819005,2.26617313 L1.98918564,1.75922745 C2.07541138,2.09163844 2.35774402,2.07281761 2.83618356,1.70276495 C3.55384286,1.14768597 3.95299125,0.130559068 5.4970854,0.0630011036 C7.04117955,-0.00455686073 11.9408341,0.0630011036 12.7406885,0.0630011036 Z" id="Path"></path>
                        </g>
                        <g id="Group-4" transform="translate(7.000000, 2.985015)">
                            <ellipse id="Oval-2" fill="#5585F0" cx="4.59357211" cy="4.40982922" rx="4.59357211" ry="4.40982922"></ellipse>
                            <polygon id="Rectangle-9" fill="#FFFFFF" transform="translate(4.593572, 4.409829) rotate(45.000000) translate(-4.593572, -4.409829) " points="3.71160626 3.52786338 5.51228653 3.4911148 5.47553795 5.29179507 3.67485769 5.32854365"></polygon>
                        </g>
                    </g>
                </g>
            </g>
        </g>
    </g>
</svg>