<?xml version="1.0" encoding="UTF-8"?>
<svg width="24px" height="24px" viewBox="0 0 24 24" version="1.1" xmlns="http://www.w3.org/2000/svg" xmlns:xlink="http://www.w3.org/1999/xlink">
    <!-- Generator: Sketch 52.2 (67145) - http://www.bohemiancoding.com/sketch -->
    <title>矩形</title>
    <desc>Created with Sketch.</desc>
    <g id="Page-1" stroke="none" stroke-width="1" fill="none" fill-rule="evenodd">
        <g id="单选-样式2" transform="translate(-338.000000, -125.000000)">
            <g id="icon_a-common_Radio2_nor" transform="translate(338.000000, 125.000000)">
                <rect id="矩形" fill="#000000" opacity="0" x="0" y="0" width="24" height="24"></rect>
                <path d="M17.8947368,9.15789475 L11.1578947,16 C10.9473684,16.2105263 10.7368421,16.3157895 10.5263158,16.3157895 C10.3157895,16.3157895 10.1052631,16.2105263 9.89473684,16.1052632 L6.10526316,12.2105263 C5.89473686,12 5.78947369,11.7894737 5.78947369,11.5789474 C5.78947369,11.0526316 6.21052633,10.6315789 6.63157895,10.6315789 C6.84210525,10.6315789 7.05263158,10.7368421 7.26315789,10.8421053 L10.4210526,14.1052632 L16.5263158,7.89473684 C16.8421053,7.78947367 17.0526316,7.68421053 17.2631579,7.68421053 C17.7894737,7.68421053 18.1052631,8.10526316 18.1052632,8.63157895 C18.2105263,8.84210525 18.1052632,9.05263158 17.8947368,9.15789475" id="路径" fill="#FFFFFF"></path>
                <path d="M7.77346525,11.3485005 C7.40239289,10.9460839 6.78166401,10.9397762 6.40032092,11.3211193 L6.29433179,11.4271084 C5.90703747,11.8144027 5.90117293,12.4533274 6.28138288,12.8543446 L9.18883097,15.9209055 C9.5689738,16.321852 10.1971977,16.3325105 10.5893243,15.9473483 L17.8677227,8.79821821 C18.261051,8.41187565 18.2599913,7.7787678 17.8786482,7.39742472 L17.7726591,7.29143558 C17.3853648,6.90414126 16.7529895,6.90174741 16.3552858,7.29090665 L10.2339049,13.280772 C10.0368694,13.4735743 9.72791423,13.4680403 9.53680218,13.2607851 L7.77346525,11.3485005 Z" id="Checkmark" fill="#5585F0"></path>
            </g>
        </g>
    </g>
</svg>