<?xml version="1.0" encoding="UTF-8"?>
<svg width="24px" height="24px" viewBox="0 0 24 24" version="1.1" xmlns="http://www.w3.org/2000/svg" xmlns:xlink="http://www.w3.org/1999/xlink">
    <!-- Generator: Sketch 52.5 (67469) - http://www.bohemiancoding.com/sketch -->
    <title>Group 2</title>
    <desc>Created with Sketch.</desc>
    <g id="Page-1" stroke="none" stroke-width="1" fill="none" fill-rule="evenodd">
        <g id="cut" transform="translate(-374.000000, -236.000000)">
            <g id="more_nor-copy" transform="translate(348.000000, 229.000000)">
                <g id="Group">
                    <rect id="cherkbox" x="0" y="0" width="75" height="49"></rect>
                    <g id="icon_a-tabbars_mine_nor" transform="translate(26.000000, 7.000000)" fill-rule="nonzero">
                        <rect id="checkbox" x="0" y="0" width="24" height="24"></rect>
                        <path d="M5.5,3.5 L9.0014831,3.5 C10.1060526,3.5 11.0014831,4.3954305 11.0014831,5.5 L11.0014831,9.0014831 C11.0014831,10.1060526 10.1060526,11.0014831 9.0014831,11.0014831 L5.5,11.0014831 C4.3954305,11.0014831 3.5,10.1060526 3.5,9.0014831 L3.5,5.5 C3.5,4.3954305 4.3954305,3.5 5.5,3.5 Z M5.5,13.0031755 L8.99682448,13.0031755 C10.101394,13.0031755 10.9968245,13.898606 10.9968245,15.0031755 L10.9968245,18.5 C10.9968245,19.6045695 10.101394,20.5 8.99682448,20.5 L5.5,20.5 C4.3954305,20.5 3.5,19.6045695 3.5,18.5 L3.5,15.0031755 C3.5,13.898606 4.3954305,13.0031755 5.5,13.0031755 Z M15.0009154,3.5 L18.5,3.5 C19.6045695,3.5 20.5,4.3954305 20.5,5.5 L20.5,8.99908462 C20.5,10.1036541 19.6045695,10.9990846 18.5,10.9990846 L15.0009154,10.9990846 C13.8963459,10.9990846 13.0009154,10.1036541 13.0009154,8.99908462 L13.0009154,5.5 C13.0009154,4.3954305 13.8963459,3.5 15.0009154,3.5 Z M14.9980779,12.9980779 L18.5,12.9980779 C19.6045695,12.9980779 20.5,13.8935084 20.5,14.9980779 L20.5,18.5 C20.5,19.6045695 19.6045695,20.5 18.5,20.5 L14.9980779,20.5 C13.8935084,20.5 12.9980779,19.6045695 12.9980779,18.5 L12.9980779,14.9980779 C12.9980779,13.8935084 13.8935084,12.9980779 14.9980779,12.9980779 Z" id="Combined-Shape" fill="#5585F0"></path>
                    </g>
                </g>
            </g>
        </g>
    </g>
</svg>