<?xml version="1.0" encoding="UTF-8"?>
<svg width="16px" height="16px" viewBox="0 0 16 16" version="1.1" xmlns="http://www.w3.org/2000/svg" xmlns:xlink="http://www.w3.org/1999/xlink">
    <!-- Generator: Sketch 52.3 (67297) - http://www.bohemiancoding.com/sketch -->
    <title>ic/客户</title>
    <desc>Created with Sketch.</desc>
    <g id="ic/客户" stroke="none" stroke-width="1" fill="none" fill-rule="evenodd">
        <path d="M5.72792857,16 L1.42857143,16 L1.42857143,12.8 L1.44017103,12.8 L1.44017103,2.05714286 C1.44017103,0.921014229 2.36118526,0 3.49731389,0 L12.5142857,0 C13.6504143,0 14.5714286,0.921014229 14.5714286,2.05714286 L14.5714286,13.9428571 C14.5714286,14.0170924 14.5674964,14.0904093 14.559829,14.1626108 L14.559829,16 L10.0156862,16 L10.0156862,13.3333333 L5.72792857,13.3333333 L5.72792857,16 Z M4.63478806,2.64603686 L4.63478806,4.77937017 L7.31463657,4.77937017 L7.31463657,2.64603686 L4.63478806,2.64603686 Z M4.63478806,5.86666669 L4.63478806,8 L7.31463657,8 L7.31463657,5.86666669 L4.63478806,5.86666669 Z M4.63478806,9.06666669 L4.63478806,11.2 L7.31463657,11.2 L7.31463657,9.06666669 L4.63478806,9.06666669 Z M8.40797823,2.64603686 L8.40797823,4.77937017 L11.0878267,4.77937017 L11.0878267,2.64603686 L8.40797823,2.64603686 Z M8.40797823,5.86666669 L8.40797823,8 L11.0878267,8 L11.0878267,5.86666669 L8.40797823,5.86666669 Z M8.40797823,9.06666669 L8.40797823,11.2 L11.0878267,11.2 L11.0878267,9.06666669 L8.40797823,9.06666669 Z" id="Combined-Shape" fill="#FFBC00" fill-rule="nonzero"></path>
    </g>
</svg>