<?xml version="1.0" encoding="UTF-8"?>
<svg width="16px" height="16px" viewBox="0 0 16 16" version="1.1" xmlns="http://www.w3.org/2000/svg" xmlns:xlink="http://www.w3.org/1999/xlink">
    <!-- Generator: Sketch 52.3 (67297) - http://www.bohemiancoding.com/sketch -->
    <title>ic/合同</title>
    <desc>Created with Sketch.</desc>
    <g id="ic/合同" stroke="none" stroke-width="1" fill="none" fill-rule="evenodd">
        <g id="ic_周报">
            <rect id="Rectangle-4" fill="#E7E7E7" opacity="0" x="0" y="0" width="16" height="16"></rect>
            <polygon id="Rectangle-11" fill="#FFFFFF" opacity="0.699999988" points="4 10 12.7315204 10 12.7315204 11 4 11"></polygon>
            <rect id="Rectangle-11" fill="#FFFFFF" opacity="0.400000006" x="4" y="12.3061177" width="8.73152038" height="1"></rect>
        </g>
        <g id="合同" transform="translate(-1.391885, -1.391885)">
            <rect id="Rectangle" fill="#000000" opacity="0" x="0" y="0" width="18.7837695" height="18.7837695"></rect>
            <path d="M3.60476472,1.43079494 L15.169833,1.43079494 C15.7221178,1.43079494 16.169833,1.87851019 16.169833,2.43079494 L16.169833,16.4307949 C16.169833,16.9830797 15.7221178,17.4307949 15.169833,17.4307949 L3.60476472,17.4307949 C3.05247997,17.4307949 2.60476472,16.9830797 2.60476472,16.4307949 L2.60476472,2.43079494 C2.60476472,1.87851019 3.05247997,1.43079494 3.60476472,1.43079494 Z M5.73602024,4.56203465 C5.4480269,4.56203465 5.21506413,4.79499741 5.21506413,5.08299075 C5.21506413,5.3709841 5.4480269,5.60394686 5.73602024,5.60394686 L12.2589777,5.60394686 C12.546971,5.60394686 12.7799338,5.3709841 12.7799338,5.08299075 C12.7799338,4.79499741 12.546971,4.56203465 12.2589777,4.56203465 L5.73602024,4.56203465 Z M5.73602024,7.43096194 C5.4480269,7.43096194 5.21322978,7.66392471 5.21506413,7.95191805 C5.21506413,8.23991139 5.4480269,8.47287416 5.73602024,8.47287416 L9.64869411,8.47287416 C9.93668745,8.47287416 10.1696502,8.23991139 10.1696502,7.95191805 C10.1696502,7.66392471 9.93668745,7.43096194 9.64869411,7.43096194 L5.73602024,7.43096194 Z M7.56120097,11.0831578 C7.84919431,11.0831578 8.08399143,10.850195 8.08215708,10.5622016 C8.08215708,10.2742083 7.84919431,10.0412455 7.56120097,10.0412455 L5.73418589,10.0412455 C5.44619255,10.0412455 5.21322978,10.2742083 5.21322978,10.5622016 C5.21322978,10.850195 5.44619255,11.0831578 5.73418589,11.0831578 L7.56120097,11.0831578 Z M13.5182607,14.4748755 L13.1238749,12.9101728 L14.3437193,11.3454702 L12.6909677,11.3454702 L11.8655091,9.78076748 L11.0400505,11.3454702 L9.38729888,11.3454702 L10.6053089,12.9101728 L10.2127575,14.4748755 L11.8655091,13.691607 L13.5182607,14.4748755 Z" id="Shape" fill="#81C5FF" fill-rule="nonzero"></path>
        </g>
    </g>
</svg>