<?xml version="1.0" encoding="UTF-8"?>
<svg width="16px" height="16px" viewBox="0 0 16 16" version="1.1" xmlns="http://www.w3.org/2000/svg" xmlns:xlink="http://www.w3.org/1999/xlink">
    <!-- Generator: Sketch 52.3 (67297) - http://www.bohemiancoding.com/sketch -->
    <title>图标/选人/部门</title>
    <desc>Created with Sketch.</desc>
    <g id="Symbols" stroke="none" stroke-width="1" fill="none" fill-rule="evenodd">
        <g id="图标/选人/部门-copy-16">
            <g id="流程" transform="translate(0.400000, 0.800000)">
                <rect id="Rectangle" fill="#000000" opacity="0" x="0" y="0" width="14.7837559" height="14.7837559"></rect>
                <path d="M0.960944134,6.83748711 C0.887025355,6.91140589 0.813106575,7.02228406 0.813106575,7.17012162 C0.813106575,7.28099979 0.850065965,7.39187796 0.960944134,7.50275612 L3.2524263,9.86815707 C3.32634508,9.90511646 3.43722325,9.97903524 3.58506081,9.97903524 C3.69593898,9.97903524 3.84377654,9.94207585 3.91769532,9.83119768 L6.32005565,7.46579673 C6.39397443,7.39187796 6.46789321,7.28099979 6.46789321,7.13316223 C6.46789321,6.98532467 6.43093382,6.8744465 6.32005565,6.80052772 L3.91769532,4.47208616 C3.84377654,4.39816738 3.73289837,4.3242486 3.58506081,4.3242486 C3.47418264,4.3242486 3.36330447,4.36120799 3.2524263,4.47208616 L0.960944134,6.83748711 Z M9.35072561,3.47787666 L8.48486651,3.47787666 C8.26395261,3.47787666 8.08486651,3.65696276 8.08486651,3.87787666 L8.08486651,10.5034307 C8.08486651,10.7243446 8.26395261,10.9034307 8.48486651,10.9034307 L9.35072561,10.9034307 L9.35072561,3.47787666 L9.35072561,3.47787666 L9.35072561,10.4976777 L9.35072561,10.2759214 C9.35072561,10.1650432 9.42464439,10.0172057 9.49856317,9.94328689 C9.60944134,9.83240872 9.72031951,9.79544933 9.83119768,9.79544933 L13.4901773,9.79544933 C13.6010554,9.79544933 13.748893,9.86936811 13.8228118,9.94328689 C13.9336899,10.0541651 13.9706493,10.1650432 13.9706493,10.2759214 L13.9706493,13.269632 C13.9706493,13.3805101 13.8967306,13.5283477 13.8228118,13.6022665 C13.7119336,13.7131446 13.6010554,13.750104 13.4901773,13.750104 L9.83119768,13.750104 C9.72031951,13.750104 9.57248195,13.6761853 9.49856317,13.6022665 C9.387685,13.4913883 9.35072561,13.3805101 9.35072561,13.269632 L9.35072561,12.2894079 L7.85387033,12.2894079 C7.21599197,12.2894079 6.6988894,11.7723053 6.6988894,11.1344269 L6.6988894,3.24688048 C6.6988894,2.60900212 7.21599197,2.09189955 7.85387033,2.09189955 L9.35072561,2.09189955 L9.35072561,1.18270047 C9.35072561,1.0718223 9.42464439,0.923984744 9.49856317,0.850065965 C9.60944134,0.739187796 9.72031951,0.702228406 9.83119768,0.702228406 L13.4901773,0.702228406 C13.6010554,0.702228406 13.748893,0.776147185 13.8228118,0.850065965 C13.9336899,0.960944134 13.9706493,1.0718223 13.9706493,1.18270047 L13.9706493,4.13945165 C13.9706493,4.25032982 13.8967306,4.39816738 13.8228118,4.47208616 C13.7119336,4.58296433 13.6010554,4.61992372 13.4901773,4.61992372 L9.83119768,4.61992372 C9.72031951,4.61992372 9.57248195,4.54600494 9.49856317,4.47208616 C9.387685,4.36120799 9.35072561,4.25032982 9.35072561,4.13945165 L9.35072561,3.47787666 Z" id="Shape" fill="#84A7FF" fill-rule="nonzero"></path>
            </g>
        </g>
    </g>
</svg>