<?xml version="1.0" encoding="UTF-8"?>
<svg width="16px" height="16px" viewBox="0 0 16 16" version="1.1" xmlns="http://www.w3.org/2000/svg" xmlns:xlink="http://www.w3.org/1999/xlink">
    <!-- Generator: Sketch 52.3 (67297) - http://www.bohemiancoding.com/sketch -->
    <title>ic/公海</title>
    <desc>Created with Sketch.</desc>
    <g id="ic/公海" stroke="none" stroke-width="1" fill="none" fill-rule="evenodd">
        <g id="客户" transform="translate(0.310063, -0.700052)" fill="#53CAD8">
            <path d="M1.6899367,0.700052299 L13.6899367,0.700052299 C14.2422214,0.700052299 14.6899367,1.14776755 14.6899367,1.7000523 L14.6899367,15.7000523 C14.6899367,16.252337 14.2422214,16.7000523 13.6899367,16.7000523 L1.6899367,16.7000523 C1.13765195,16.7000523 0.6899367,16.252337 0.6899367,15.7000523 L0.6899367,1.7000523 C0.6899367,1.14776755 1.13765195,0.700052299 1.6899367,0.700052299 Z M3.9138629,13.5550043 L11.4660105,13.5550043 C11.4660105,11.936687 11.142347,9.91163254 9.48249288,9.0835935 C8.99171321,9.52938102 8.35295107,9.77715845 7.6899367,9.77893053 L8.76881493,11.936687 L7.6899367,12.9227817 L6.61105847,11.936687 L7.6899367,9.77893053 C7.02692233,9.77715845 6.38816019,9.52938102 5.89738052,9.0835935 C4.23752636,9.91163254 3.9138629,11.936687 3.9138629,13.5550043 Z M7.6899367,9.18580516 C8.39103897,9.18580516 9.06342591,8.90729337 9.55918007,8.4115392 C10.0549342,7.91578504 10.333446,7.2433981 10.333446,6.54229583 C10.333446,5.08232595 9.14990658,3.89878651 7.68993669,3.89878652 C6.22996681,3.89878652 5.04642737,5.08232596 5.04642738,6.54229584 C5.04642738,8.00226573 6.22996682,9.18580516 7.6899367,9.18580516 Z" id="Combined-Shape"></path>
        </g>
    </g>
</svg>