<?xml version="1.0" encoding="UTF-8"?>
<svg width="16px" height="16px" viewBox="0 0 16 16" version="1.1" xmlns="http://www.w3.org/2000/svg" xmlns:xlink="http://www.w3.org/1999/xlink">
    <!-- Generator: Sketch 52.3 (67297) - http://www.bohemiancoding.com/sketch -->
    <title>ic/组织</title>
    <desc>Created with Sketch.</desc>
    <g id="ic/组织" stroke="none" stroke-width="1" fill="none" fill-rule="evenodd">
        <g id="icon_deparment" transform="translate(-2.000000, -2.000000)">
            <rect id="Rectangle-15" x="0" y="0" width="20" height="20"></rect>
            <path d="M11,10 L16,10 C16.5522847,10 17,10.4477153 17,11 L17,14 C17.5522847,14 18,14.4477153 18,15 L18,17 C18,17.5522847 17.5522847,18 17,18 L15,18 C14.4477153,18 14,17.5522847 14,17 L14,15 C14,14.4477153 14.4477153,14 15,14 L15,12 L11,12 L11,14 C11.5522847,14 12,14.4477153 12,15 L12,17 C12,17.5522847 11.5522847,18 11,18 L9,18 C8.44771525,18 8,17.5522847 8,17 L8,15 C8,14.4477153 8.44771525,14 9,14 L9,12 L5,12 L5,14 C5.55228475,14 6,14.4477153 6,15 L6,17 C6,17.5522847 5.55228475,18 5,18 L3,18 C2.44771525,18 2,17.5522847 2,17 L2,15 C2,14.4477153 2.44771525,14 3,14 L3,11 C3,10.4477153 3.44771525,10 4,10 L9,10 L9,8 L8,8 C7.44771525,8 7,7.55228475 7,7 L7,3 C7,2.44771525 7.44771525,2 8,2 L12,2 C12.5522847,2 13,2.44771525 13,3 L13,7 C13,7.55228475 12.5522847,8 12,8 L11,8 L11,10 Z" id="Combined-Shape" fill="#C31725"></path>
        </g>
    </g>
</svg>
