<svg 
 xmlns="http://www.w3.org/2000/svg"
 xmlns:xlink="http://www.w3.org/1999/xlink"
 width="6px" height="14px">
<path fill-rule="evenodd"  fill="rgb(166, 166, 166)"
 d="M3.999,14.000 L3.999,12.000 L5.999,12.000 L5.999,14.000 L3.999,14.000 ZM3.999,8.000 L5.999,8.000 L5.999,10.000 L3.999,10.000 L3.999,8.000 ZM3.999,4.000 L5.999,4.000 L5.999,6.000 L3.999,6.000 L3.999,4.000 ZM3.999,-0.000 L5.999,-0.000 L5.999,2.000 L3.999,2.000 L3.999,-0.000 ZM-0.001,12.000 L2.000,12.000 L2.000,14.000 L-0.001,14.000 L-0.001,12.000 ZM-0.001,8.000 L2.000,8.000 L2.000,10.000 L-0.001,10.000 L-0.001,8.000 ZM-0.001,4.000 L2.000,4.000 L2.000,6.000 L-0.001,6.000 L-0.001,4.000 ZM-0.001,-0.000 L2.000,-0.000 L2.000,2.000 L-0.001,2.000 L-0.001,-0.000 Z"/>
</svg>