<svg 
 xmlns="http://www.w3.org/2000/svg"
 xmlns:xlink="http://www.w3.org/1999/xlink"
 width="160px" height="133px">
<path fill-rule="evenodd"  fill="rgb(255, 255, 255)"
 d="M1.990,0.980 L157.990,0.980 C159.094,0.980 159.990,1.875 159.990,2.980 L159.990,132.980 L-0.010,132.980 L-0.010,2.980 C-0.010,1.875 0.885,0.980 1.990,0.980 Z"/>
<path fill-rule="evenodd"  fill="rgb(250, 250, 250)"
 d="M11.000,81.000 L11.000,71.000 L146.000,71.000 L146.000,81.000 L11.000,81.000 ZM11.000,53.000 L146.000,53.000 L146.000,63.000 L11.000,63.000 L11.000,53.000 ZM11.000,19.000 L95.000,19.000 L95.000,37.000 L11.000,37.000 L11.000,19.000 ZM111.000,99.000 L11.000,99.000 L11.000,89.000 L111.000,89.000 L111.000,99.000 Z"/>
</svg>