<?xml version="1.0" encoding="UTF-8"?>
<svg width="130px" height="144px" viewBox="0 0 130 144" version="1.1" xmlns="http://www.w3.org/2000/svg" xmlns:xlink="http://www.w3.org/1999/xlink">
    <!-- Generator: Sketch 50.2 (55047) - http://www.bohemiancoding.com/sketch -->
    <title>pic_b-guide</title>
    <desc>Created with Sketch.</desc>
    <defs>
        <rect id="path-1" x="25" y="22" width="80" height="100" rx="2"></rect>
        <filter x="-11.2%" y="-9.0%" width="122.5%" height="118.0%" filterUnits="objectBoundingBox" id="filter-2">
            <feOffset dx="0" dy="0" in="SourceAlpha" result="shadowOffsetOuter1"></feOffset>
            <feGaussianBlur stdDeviation="3" in="shadowOffsetOuter1" result="shadowBlurOuter1"></feGaussianBlur>
            <feColorMatrix values="0 0 0 0 0.770780187   0 0 0 0 0.770780187   0 0 0 0 0.770780187  0 0 0 0.372056159 0" type="matrix" in="shadowBlurOuter1"></feColorMatrix>
        </filter>
        <path d="M43.5015,65 L43.5015,62 L57,62 L57,65 L43.5015,65 Z M39,65 L39,62 L42,62 L42,65 L39,65 Z M43.5015,71 L43.5015,68 L57,68 L57,71 L43.5015,71 Z M39,71 L39,68 L42,68 L42,71 L39,71 Z M43.5015,77 L43.5015,73.9985 L57,73.9985 L57,77 L43.5015,77 Z M39,77 L39,73.9985 L42,73.9985 L42,77 L39,77 Z" id="path-3"></path>
        <filter x="-50.0%" y="-60.0%" width="200.0%" height="220.0%" filterUnits="objectBoundingBox" id="filter-4">
            <feOffset dx="0" dy="0" in="SourceAlpha" result="shadowOffsetOuter1"></feOffset>
            <feGaussianBlur stdDeviation="3" in="shadowOffsetOuter1" result="shadowBlurOuter1"></feGaussianBlur>
            <feColorMatrix values="0 0 0 0 0.770780187   0 0 0 0 0.770780187   0 0 0 0 0.770780187  0 0 0 0.372056159 0" type="matrix" in="shadowBlurOuter1"></feColorMatrix>
        </filter>
    </defs>
    <g id="Page-1" stroke="none" stroke-width="1" fill="none" fill-rule="evenodd">
        <g id="引导" transform="translate(-761.000000, -260.000000)">
            <g id="pop" transform="translate(729.000000, 215.000000)">
                <g id="pic_b-guide" transform="translate(32.000000, 45.000000)">
                    <rect id="Rectangle-3" fill="#F8F8F6" x="0" y="0" width="130" height="144" rx="2"></rect>
                    <g id="Rectangle-4">
                        <use fill="black" fill-opacity="1" filter="url(#filter-2)" xlink:href="#path-1"></use>
                        <use fill="#FFFFFF" fill-rule="evenodd" xlink:href="#path-1"></use>
                    </g>
                    <g id="Combined-Shape" opacity="0.699999988">
                        <use fill="black" fill-opacity="1" filter="url(#filter-4)" xlink:href="#path-3"></use>
                        <use fill="#CCCCCC" fill-rule="evenodd" xlink:href="#path-3"></use>
                    </g>
                    <path d="M80.5601152,71 L77.4398848,71 C76.6450684,71 76,71.6450684 76,72.4398848 L76,75.5601152 C76,76.3549316 76.6450684,77 77.4398848,77 L80.5601152,77 C81.3549316,77 82,76.3549316 82,75.5601152 L82,72.4398848 C82,71.6450684 81.3549316,71 80.5601152,71 M89.5601152,71 L86.4398848,71 C85.6436285,71 85,71.6450684 85,72.4398848 L85,75.5601152 C85,76.3549316 85.6436285,77 86.4398848,77 L89.5601152,77 C90.3563715,77 91,76.3549316 91,75.5601152 L91,72.4398848 C91,71.6450684 90.3563715,71 89.5601152,71 M89.5601152,62 L86.4398848,62 C85.6436285,62 85,62.643783 85,63.4402304 L85,66.5597696 C85,67.3576572 85.6436285,68 86.4398848,68 L89.5601152,68 C90.3563715,68 91,67.3576572 91,66.5597696 L91,63.4402304 C91,62.643783 90.3563715,62 89.5601152,62 M80.5601152,62 L77.4398848,62 C76.6450684,62 76,62.643783 76,63.4402304 L76,66.5597696 C76,67.3576572 76.6450684,68 77.4398848,68 L80.5601152,68 C81.3549316,68 82,67.3576572 82,66.5597696 L82,63.4402304 C82,62.643783 81.3549316,62 80.5601152,62" id="Fill-1" fill="#F87B00" opacity="0.699999988"></path>
                    <circle id="Oval" fill="#F87B00" opacity="0.0539620566" cx="79" cy="75" r="21"></circle>
                    <circle id="Oval" fill="#F87B00" opacity="0.200000003" cx="79" cy="75" r="13"></circle>
                    <g id="点击选择线" transform="translate(82.000000, 79.000000)" fill="#000000" fill-rule="nonzero" stroke="#FFFFFF">
                        <path d="M12.7113573,6.539234 L0.646913221,0.115893894 C0.207203191,-0.147578197 -0.0754172466,0.0536315623 0.0177723812,0.562842796 L2.92867558,14.3140076 C3.02212602,14.8230612 3.33860042,14.8935989 3.63285324,14.4700312 C3.63285324,14.4700312 4.78026666,12.3832609 6.12297456,10.9401148 L9.61647345,15.8962732 C9.86234489,16.2643302 10.358313,16.3603771 10.7194652,16.1103032 L12.5021566,14.7593931 C12.862761,14.5088201 12.9566027,14.0015529 12.7113573,13.6327603 L9.01941292,8.86135286 C10.7407477,8.14273529 12.6092999,7.24206266 12.6092999,7.24206268 C13.1052941,7.11882532 13.1511977,6.80262728 12.7113573,6.539234 Z" id="Shape"></path>
                    </g>
                </g>
            </g>
        </g>
    </g>
</svg>