<svg width="47" height="47" xmlns="http://www.w3.org/2000/svg"><defs><linearGradient x1="50%" y1="0%" x2="50%" y2="100%" id="a"><stop stop-color="#71E7CF" offset="0%"/><stop stop-color="#39C9BA" offset="100%"/></linearGradient></defs><g fill="none" fill-rule="evenodd"><path fill="#FFF" d="M-282-90H93v1356h-375z"/><g><circle fill="url(#a)" cx="23.5" cy="23.5" r="23.5"/><g transform="translate(13.283 12.26)"><path d="M5.109 1.022v1.24a.3.3 0 0 0 .3.3h9.617a.3.3 0 0 0 .3-.3v-1.24h3.109a2 2 0 0 1 2 2V21.5a2 2 0 0 1-2 2H2a2 2 0 0 1-2-2V3.022a2 2 0 0 1 2-2h3.109z" fill="#FFF"/><path d="M9.003 19.6h1.99v-2.127h-1.99V19.6zm4.09-12.202c-.678-.678-1.648-1.02-2.883-1.02-.474 0-.999.094-1.56.28-.542.137-.99.406-1.461.877-.42.42-.722.722-.877 1.325-.086.262-.28.963-.28 1.965v.251H7.89v-.251c0-.887.19-1.545.56-1.965.378-.42.952-.625 1.757-.625.668 0 1.17.19 1.58.604.435.434.467 1.009.467 1.174 0 .345-.115.823-.334 1.042l-1.217 1.217c-.575.575-.988.988-1.143 1.451-.064.194-.129.356-.197.528-.068.17-.136.345-.208.557-.148.445-.148.999-.148 1.703v.251h1.857v-.251c0-.528 0-.906.122-1.275.087-.26.237-.525.37-.758.058-.104.115-.201.158-.291.083-.162.349-.492 1.15-1.135l.021-.018c.575-.575.995-1.146 1.25-1.527.313-.47.313-.94.313-1.357.003-1.074-.374-1.972-1.153-2.752z" fill="#50D5C3"/><rect fill="#FFF" opacity=".7" x="6.641" width="7.152" height="6.13" rx="1"/></g></g></g></svg>