<svg width="47" height="47" xmlns="http://www.w3.org/2000/svg" xmlns:xlink="http://www.w3.org/1999/xlink"><defs><linearGradient x1="50%" y1="0%" x2="50%" y2="100%" id="a"><stop stop-color="#FFA77F" offset="0%"/><stop stop-color="#FF8F6A" offset="100%"/></linearGradient><path d="M3.676 1.8c1.225-.366 2.425-.783 3.625-1.086 1.933-.493 3.815-.114 5.646.518 2.06.707 4.106.985 6.19.151.745-.29 1.415-.795 2.122-1.136.29-.14.72-.266.973-.152.176.076.29.581.265.872-.165 2.488-.38 4.976-.543 7.465-.038.543-.203.922-.657 1.225-2.097 1.503-4.434 2.147-6.998 1.87-1.781-.19-3.499-.051-5.078.846-.29.164-.58.366-.833.594-.632.543-.91 1.111-.569 1.995.556 1.428.947 2.918 1.44 4.383.164.518.126.91-.404 1.074-.543.152-.745-.215-.897-.67a5913.895 5913.895 0 0 0-5.09-16.041c-.228-.733-.493-1.465-.72-2.185-.127-.392-.165-.784.315-.948.518-.177.809.089.973.556.114.24.177.48.24.67z" id="c"/><filter x="-24.5%" y="-19.6%" width="148.9%" height="149%" filterUnits="objectBoundingBox" id="b"><feOffset dy="1" in="SourceAlpha" result="shadowOffsetOuter1"/><feGaussianBlur stdDeviation="1.5" in="shadowOffsetOuter1" result="shadowBlurOuter1"/><feColorMatrix values="0 0 0 0 0.998883929 0 0 0 0 0.499436334 0 0 0 0 0.318220835 0 0 0 0.658854167 0" in="shadowBlurOuter1"/></filter></defs><g fill="none" fill-rule="evenodd"><path fill="#FFF" d="M-164-90h375v1356h-375z"/><g><circle fill="url(#a)" cx="23.5" cy="23.5" r="23.5"/><g transform="translate(11.24 12.26)"><ellipse fill="#F97D54" opacity=".4" cx="12.283" cy="19.902" rx="11.922" ry="4.638"/><ellipse fill="#FEE3D1" cx="11.28" cy="20.033" rx="10.465" ry="4.071"/><use fill="#000" filter="url(#b)" xlink:href="#c"/><use fill="#FFF" xlink:href="#c"/></g></g></g></svg>