<svg width="196" height="124" xmlns="http://www.w3.org/2000/svg" xmlns:xlink="http://www.w3.org/1999/xlink"><defs><linearGradient x1="50%" y1="169.886%" x2="50%" y2="27.931%" id="a"><stop stop-color="#F9FBFF" offset="0%"/><stop stop-color="#EDF5FE" offset="100%"/></linearGradient><linearGradient x1="51.308%" y1="-72.998%" x2="96.049%" y2="132.285%" id="b"><stop stop-color="#FFF" stop-opacity="0" offset="0%"/><stop stop-color="#FFF" stop-opacity=".831" offset="100%"/></linearGradient><linearGradient x1="13.872%" y1="50%" x2="109.846%" y2="76.39%" id="c"><stop stop-color="#DDECFD" offset="0%"/><stop stop-color="#FFF" stop-opacity="0" offset="100%"/></linearGradient><rect id="d" x="0" y=".528" width="72" height="95" rx="1.5"/><linearGradient x1="12.829%" y1="0%" x2="65.132%" y2="95.791%" id="e"><stop stop-color="#A5C9F9" offset="0%"/><stop stop-color="#709BEC" offset="100%"/></linearGradient><rect id="g" x="0" y="0" width="66" height="84" rx=".4"/><linearGradient x1="15.802%" y1="54.042%" x2="85.697%" y2="102.492%" id="h"><stop stop-color="#BBD0F1" offset="0%"/><stop stop-color="#DCEBFD" offset="100%"/></linearGradient><linearGradient x1="100%" y1="0%" x2="0%" y2="100%" id="l"><stop stop-color="#F9FCFF" offset="0%"/><stop stop-color="#FEFFFF" offset="100%"/></linearGradient><path d="M.658 86.016c21.826-.425 33.254-.638 34.283-.638 1.544 0 37.507-16.345 40.154-33.917.956-6.396 2.794-33.518 2.28-41.458h-65.36c-.385 17.753-1.16 31.323-2.326 40.71C8.523 60.1 5.513 71.868.658 86.016z" id="k"/><filter x="-5.9%" y="-9.9%" width="119.5%" height="119.7%" filterUnits="objectBoundingBox" id="j"><feOffset dx="3" in="SourceAlpha" result="shadowOffsetOuter1"/><feGaussianBlur stdDeviation="2" in="shadowOffsetOuter1" result="shadowBlurOuter1"/><feColorMatrix values="0 0 0 0 0.729411765 0 0 0 0 0.811764706 0 0 0 0 0.945098039 0 0 0 0.5 0" in="shadowBlurOuter1"/></filter><linearGradient x1="50%" y1="25.776%" x2="50%" y2="100%" id="m"><stop stop-color="#C3DAFC" offset="0%"/><stop stop-color="#94BBF9" offset="100%"/></linearGradient><linearGradient x1="100%" y1="50%" x2="0%" y2="50%" id="n"><stop stop-color="#89B5F9" offset="0%"/><stop stop-color="#6EA0F8" offset="100%"/></linearGradient><linearGradient x1="100%" y1="57.345%" x2="3.835%" y2="50%" id="o"><stop stop-color="#EAF4FE" stop-opacity=".384" offset="0%"/><stop stop-color="#CEE3FC" offset="100%"/></linearGradient><linearGradient x1="15.439%" y1="100%" x2="100%" y2="12.274%" id="p"><stop stop-color="#5092FF" offset="0%"/><stop stop-color="#4A8FFF" offset="100%"/></linearGradient><linearGradient x1="10.108%" y1="50%" x2="94.352%" y2="50%" id="q"><stop stop-color="#EBF3FF" offset="0%"/><stop stop-color="#BED8FF" offset="100%"/></linearGradient><linearGradient x1="100%" y1="50%" x2="0%" y2="50%" id="r"><stop stop-color="#BFDFFF" offset="0%"/><stop stop-color="#CAE2FF" offset="51.972%"/><stop stop-color="#DDECFF" offset="100%"/></linearGradient><linearGradient x1="50%" y1="30.082%" x2="-21.077%" y2="100%" id="s"><stop stop-color="#B9DCFF" offset="0%"/><stop stop-color="#FFF" stop-opacity=".626" offset="100%"/></linearGradient></defs><g fill="none" fill-rule="evenodd"><path d="M19.42 58.439c3.197.034 58.653-.045 166.368-.236 6.472-1.37 9.708-5.29 9.708-11.758 0-9.702-4.269-30.27-5.336-33.956C189.093 8.802 182.884.362 170.854.362H54.232c-11.742.302-19.183 6.1-22.324 17.392-.87 5.525-1.586 9.976-7.077 11.529-3.747.372-15.088-2.194-21.144 5.555-6.056 7.75-3.336 17.193 3.387 21.452 3.9 2.669 7.55 2.097 12.346 2.149z" fill="url(#a)" transform="translate(.5 42.454)"/><path d="M19.42 58.439c3.197.034 58.653-.045 166.368-.236 6.472-1.37 9.708-5.29 9.708-11.758 0-9.702-4.269-30.27-5.336-33.956C189.093 8.802 182.884.362 170.854.362H54.232c-11.742.302-19.183 6.1-22.324 17.392-.87 5.525-1.586 9.976-7.077 11.529-3.747.372-15.088-2.194-21.144 5.555-6.056 7.75-3.336 17.193 3.387 21.452 3.9 2.669 7.55 2.097 12.346 2.149z" fill="url(#b)" transform="translate(.5 42.454)"/><path d="M17.818 82.994l4.153-.805-5.218-2c-1.86-7.06-2.95-12.893-3.274-17.5 1.132.566 8.043 6.062 8.043 6.669v3.88l2.02-1.82c4.985 5.659 8.407 10.832 10.266 15.52-.71 2.913-1.084 4.553-1.125 4.92l2.136-1.913c1.647 4.527 2.47 8.182 2.47 10.966-5.32-.04-8.626-.04-9.916 0-4.522-5.735-7.586-11.304-9.193-16.705-.186-.55-.307-.955-.362-1.212z" fill="#E4EFFD"/><path d="M67.04 100.168c27.702 13.85 61.133 21.595 100.293 23.232 58.74 2.455 4.345-39.098-11.899-42.875-10.829-2.519-40.293 4.029-88.394 19.643z" fill="url(#c)"/><g transform="translate(52 .454)"><rect fill="#4274D2" x="9" y="5.364" width="72" height="95" rx="1.5"/><g transform="translate(9 3.864)"><mask id="f" fill="#fff"><use xlink:href="#d"/></mask><use fill="#B8D5FB" xlink:href="#d"/><path fill="url(#e)" mask="url(#f)" d="M10.821-1.71l22.1 35.175L3.366 90.98l10.917 8.52H84.31V-1.71z"/></g><rect fill="#638AEC" x="12" y="11" width="66" height="84" rx=".4"/><g transform="translate(12 10)"><mask id="i" fill="#fff"><use xlink:href="#g"/></mask><use fill="#DBE9FC" xlink:href="#g"/><path fill="url(#h)" mask="url(#i)" d="M.343 75.406L12.53 86.722h59.426V8.115H44.74z"/></g><use fill="#000" filter="url(#j)" xlink:href="#k"/><use fill="url(#l)" xlink:href="#k"/><path d="M20.366 20.996h46a1 1 0 0 1 1 1v2a1 1 0 0 1-1 1h-46a1 1 0 0 1-1-1v-2a1 1 0 0 1 1-1zm0 9.413h28.497a1 1 0 0 1 1 1v2a1 1 0 0 1-1 1H20.366a1 1 0 0 1-1-1v-2a1 1 0 0 1 1-1zM19.965 40.516h44.42c.552 0 .969.448.931 1l-.137 2c-.038.553-.516 1-1.068 1H19.69a.922.922 0 0 1-.932-1l.137-2c.038-.552.516-1 1.069-1zm-.63 9.194h31.151c.552 0 .97.448.932 1l-.137 2c-.038.552-.517 1-1.069 1H19.061a.922.922 0 0 1-.932-1l.137-2c.038-.552.517-1 1.069-1zM18.288 59.308h44.216c.552 0 .945.447.876 1l-.248 2c-.068.552-.571 1-1.124 1H17.793c-.553 0-.945-.448-.876-1l.247-2c.069-.553.572-1 1.124-1zm-1.063 8.58h26.66c.552 0 .945.449.876 1l-.248 2c-.068.553-.571 1-1.124 1H16.73c-.552 0-.944-.447-.876-1l.248-2c.068-.551.572-1 1.124-1z" fill="#C1DBFC" opacity=".4"/><path d="M33.367 85.406c13.315.384 24.066-3.868 32.251-12.756 6.076-6.78 9.339-14.852 9.789-24.219-3.105 8.101-10.112 11.49-21.02 10.168-.077 6.68-1.83 12.82-9.583 19.284-5.169 4.31-8.981 6.817-11.437 7.523z" fill="url(#m)"/><rect fill="#578FE5" x="31.848" y="1.112" width="26" height="12" rx=".3"/><rect fill="url(#n)" x="31.848" y=".394" width="26" height="12" rx=".3"/></g><g transform="translate(120 40)"><ellipse fill="url(#o)" opacity=".8" cx="24.171" cy="61.341" rx="18.098" ry="4.74"/><path d="M23.283 21.161c-2.133 1.704-3.766 2.497-4.898 2.378-1.325-.14-2.605-1.058-3.843-2.757l.06-.004-.199-.012c5.35-.26 8.725-2.181 10.127-5.765 2.104-5.375 1.247-9.037 7.245-13.243 4.986-3.584 8.725.934 7.479 4.206-1.247 3.272-4.62 3.144-5.399 8.052-.276 2.514.41 4.94-1.693 6.341-.938.626-3.898.894-8.879.804zm17.274-11.36c-.433-.577-.277-1.417.468-2.522 1.117-1.658 3.639-1.694 4.107-.649.469 1.045-.072 2.738-1.405 2.306-.889-.288-1.945 0-3.17.865z" fill="url(#p)" transform="translate(.653 .341)"/><path d="M6.642 60.705h21.196a1 1 0 0 0 .997-.92l3.105-38.217a1 1 0 0 0-.997-1.08H1.773a1 1 0 0 0-.993 1.126L5.65 59.83a1 1 0 0 0 .992.874z" fill="url(#q)" transform="translate(.653 .341)"/><path d="M3.837 45.608L2.314 33.656h28.644l-.971 11.952H3.837zM.627 20.484h31.395l-.216 2.599H.984l-.357-2.599z" fill="url(#r)" opacity=".6" style="mix-blend-mode:multiply" transform="translate(.653 .341)"/><path fill="url(#s)" opacity=".426" style="mix-blend-mode:color-burn" d="M25.013 60.705h3.747l3.268-40.218h-7.914z" transform="translate(.653 .341)"/></g></g></svg>