<svg width="160" height="67" xmlns="http://www.w3.org/2000/svg"><defs><linearGradient x1="50%" y1="169.886%" x2="50%" y2="27.931%" id="a"><stop stop-color="#F9FBFF" offset="0%"/><stop stop-color="#EDF5FE" offset="100%"/></linearGradient><linearGradient x1="51.308%" y1="-72.998%" x2="96.049%" y2="132.285%" id="b"><stop stop-color="#FFF" stop-opacity="0" offset="0%"/><stop stop-color="#FFF" stop-opacity=".831" offset="100%"/></linearGradient><linearGradient x1="12.829%" y1="0%" x2="65.132%" y2="95.791%" id="c"><stop stop-color="#A5C9F9" offset="0%"/><stop stop-color="#7BA4F2" offset="100%"/></linearGradient><linearGradient x1="12.829%" y1="0%" x2="65.132%" y2="95.791%" id="d"><stop stop-color="#A5C9F9" offset="0%"/><stop stop-color="#709BEC" offset="100%"/></linearGradient><linearGradient x1="10.108%" y1="50%" x2="94.352%" y2="50%" id="e"><stop stop-color="#EBF3FF" offset="0%"/><stop stop-color="#BED8FF" offset="100%"/></linearGradient><linearGradient x1="0%" y1="41.707%" x2="100%" y2="41.707%" id="f"><stop stop-color="#C3DAFC" offset="0%"/><stop stop-color="#94BBF9" offset="100%"/></linearGradient></defs><g fill="none" fill-rule="evenodd"><path d="M15.76 47.128c2.595.028 47.598-.036 135.011-.19 5.252-1.106 7.879-4.267 7.879-9.483 0-7.823-3.465-24.41-4.33-27.383-.867-2.973-5.905-9.78-15.668-9.78H44.01C34.482.535 28.443 5.21 25.894 14.318c-.705 4.456-1.287 8.045-5.743 9.297-3.04.3-12.245-1.769-17.159 4.48-4.914 6.25-2.707 13.865 2.749 17.3 3.165 2.152 6.127 1.692 10.019 1.733z" fill="url(#a)" transform="translate(.406 19.38)"/><path d="M15.76 47.128c2.595.028 47.598-.036 135.011-.19 5.252-1.106 7.879-4.267 7.879-9.483 0-7.823-3.465-24.41-4.33-27.383-.867-2.973-5.905-9.78-15.668-9.78H44.01C34.482.535 28.443 5.21 25.894 14.318c-.705 4.456-1.287 8.045-5.743 9.297-3.04.3-12.245-1.769-17.159 4.48-4.914 6.25-2.707 13.865 2.749 17.3 3.165 2.152 6.127 1.692 10.019 1.733z" fill="url(#b)" transform="translate(.406 19.38)"/><path d="M14.46 52.074l3.37-.65-4.235-1.613C12.087 44.12 11.201 39.414 10.94 35.7c.918.456 6.527 4.889 6.527 5.378v3.128l1.64-1.466c4.045 4.563 6.821 8.735 8.33 12.515-.575 2.35-.88 3.672-.913 3.968l1.734-1.543c1.336 3.651 2.005 6.6 2.005 8.844-4.319-.033-7.001-.033-8.048 0-3.67-4.625-6.157-9.116-7.46-13.472a9.797 9.797 0 0 1-.294-.977z" fill="#E4EFFD"/><g transform="translate(17.178 .165)"><path fill="url(#c)" d="M.208 25.54h132.423v7.286H.208z"/><path d="M47.723 61.974h22.118a4.217 4.217 0 0 1 4.217 4.217H43.506a4.217 4.217 0 0 1 4.217-4.217zM12.26 32.842v33.213h4.53l3.85-33.213zM121.566 32.842v33.213h-4.531l-3.849-33.213z" fill="url(#d)"/><rect fill="url(#d)" x="36.712" y="39.473" width="45.837" height="6.675" rx="1"/><path fill="#C2DAFF" d="M58.088 45.152h3.092v14.573h-3.092z"/><path fill="url(#d)" d="M56.259 48.576h6.75v14.573h-6.75z"/><path d="M50.596 1.851h17.883c5.523 0 10 4.477 10 10v34.297H40.596V11.85c0-5.523 4.477-10 10-10z" fill="url(#e)"/><path fill="#94BAF4" d="M24.627 13.575l7.591-9.943-2.725 10.91z"/><path fill="#94BAF4" d="M28.559 2.433L22.525 12.84h6.034z"/><path fill="#A5C9F9" d="M24.16.654l-2.881 11.954h6.034z"/><path fill="#94BAF4" d="M19.527 12.337l.234-9.865 5.761 9.865z"/><path fill="#A5C9F9" d="M15.4 3.865l2.375 8.433h5.372z"/><path fill="url(#e)" d="M2.587 12.144h13.442l-1.817 13.359H4.306z" transform="translate(14.933)"/><g><path fill="url(#f)" d="M2.618.544H27.65V19.43H2.618z" transform="translate(83.367 6.072)"/><path fill="url(#d)" d="M.449 16.384h29.37v3.084H.449z" transform="translate(83.367 6.072)"/></g></g></g></svg>