<svg width="375" height="34" xmlns="http://www.w3.org/2000/svg"><defs><linearGradient x1="50%" y1="105.829%" x2="50%" y2="0%" id="a"><stop stop-color="#68A4DE" offset="0%"/><stop stop-color="#5077AA" offset="100%"/></linearGradient></defs><g fill="none" fill-rule="evenodd"><path d="M0 192.883C102.481 100.646 227.472 63.686 374.972 82.004c.037-64.02.037-90.555 0-79.605H0v190.484z" fill="url(#a)" transform="translate(0 -3)"/><path d="M40 0h295c6.627 0 12 5.373 12 12v20.773H28V12c0-6.627 5.373-12 12-12z" fill="#FFF" opacity=".06"/><path d="M24 8.386h327c6.627 0 12 5.373 12 12v12.872H12V20.386c0-6.627 5.373-12 12-12z" fill="#91ACCE" opacity=".7"/><path d="M12 16.772h351c6.627 0 12 5.373 12 12v12.873H0V28.772c0-6.627 5.373-12 12-12z" fill="#FFF"/></g></svg>