<svg width="375" height="667" xmlns="http://www.w3.org/2000/svg"><g fill="none" fill-rule="evenodd"><path fill-opacity=".01" fill="#FFF" d="M0 0h375v667H0z"/><g transform="translate(25 278)"><g fill-rule="nonzero"><path d="M103.129 206.16l-.942.039c-.061-1.52-4.798-5.155-7.737-6.632-2.046-1.023-3.617-2.131-4.818-3.389-1.916-2-2.743-4.26-2.465-6.725.584-5.108-3.538-11.535-3.582-11.6l.79-.51c.178.274 4.347 6.771 3.727 12.215-.409 3.62 1.869 6.702 6.77 9.167 2.31 1.164 8.157 5.08 8.257 7.436z" fill="#D4D5E0"/><path d="M89.026 164.775c-3.924-6.567-11.558-9.222-17.082-5.93-5.523 3.292-6.798 11.287-2.874 17.854 3.801 6.377 11.132 9.064 16.597 6.199.323.712.434 1.503.318 2.277-.274 1.302 2.518-1.505 2.518-1.505a6.892 6.892 0 0 1-1.512-1.603c4.804-3.573 5.752-11.073 2.035-17.292z" fill="#FF925D"/><path d="M75.015 179.737c-2.366-1.945-3.193-4.88-1.95-6.725a3.44 3.44 0 0 0-.197.216c-1.485 1.804-.69 4.912 1.778 6.945 2.395 1.97 5.483 2.198 7.018.558.163.187-4.258.974-6.65-.994z" fill="#FFF" opacity=".2"/></g><g fill-rule="nonzero"><path d="M265.538 158.623l-.813-.471c.76-1.319-1.283-6.927-2.974-9.751a17.35 17.35 0 0 1-2.245-5.445c-.541-2.713-.026-5.067 1.53-6.994 3.23-4 3.215-11.632 3.215-11.696h.942c0 .325.035 8.044-3.41 12.307-2.289 2.833-2.023 6.658.793 11.366 1.31 2.204 4.143 8.637 2.962 10.684z" fill="#D4D5E0"/><path d="M275.854 116.126c.213-7.646-4.816-13.991-11.234-14.17-6.418-.178-11.793 5.874-12.006 13.52-.208 7.425 4.526 13.62 10.678 14.141a4.094 4.094 0 0 1-.953 2.09c-.933.95 2.924.082 2.924.082a6.944 6.944 0 0 1-.415-2.166c5.968-.442 10.804-6.255 11.006-13.497z" fill="#FF925D"/><path d="M255.997 121.231c-.95-2.91-.073-5.83 1.956-6.71a5.636 5.636 0 0 0-.292.078c-2.222.726-3.217 3.775-2.228 6.813.962 2.948 3.447 4.799 5.623 4.24.058.222-4.097-1.477-5.059-4.421z" fill="#FFF" opacity=".2"/><g><path d="M270.363 169.213l.941.038c.064-1.52 4.798-5.155 7.74-6.631a17.29 17.29 0 0 0 4.816-3.389c1.915-2 2.745-4.263 2.465-6.725-.585-5.105 3.54-11.532 3.581-11.597l-.789-.511c-.178.275-4.345 6.769-3.728 12.216.412 3.62-1.866 6.702-6.77 9.164-2.32 1.16-8.169 5.076-8.256 7.435z" fill="#D4D5E0"/><path d="M284.465 127.825c3.924-6.568 11.573-9.223 17.082-5.93 5.509 3.292 6.798 11.286 2.874 17.854-3.801 6.374-11.132 9.064-16.596 6.198a4.056 4.056 0 0 0-.32 2.275c.276 1.304-2.517-1.503-2.517-1.503a6.85 6.85 0 0 0 1.515-1.605c-4.795-3.57-5.754-11.07-2.038-17.29z" fill="#FF925D"/><path d="M298.477 142.787c2.365-1.945 3.193-4.88 1.95-6.726.07.068.135.14.196.217 1.485 1.804.69 4.912-1.778 6.941-2.395 1.971-5.482 2.202-7.018.562-.163.187 4.26.973 6.65-.994z" fill="#FFF" opacity=".2"/></g><g><path d="M253.108 204.48l-.585-.726c1.17-.967 1.231-6.935.644-10.172-.407-2.246-.471-4.173-.19-5.889.447-2.731 1.754-4.754 3.891-6.012 4.43-2.608 7.085-9.763 7.112-9.836l.877.325c-.111.292-2.796 7.54-7.518 10.324-3.137 1.848-4.23 5.52-3.251 10.918.456 2.544.845 9.57-.98 11.068z" fill="#D4D5E0"/><path d="M277.696 168.322c2.886-7.085.406-14.79-5.538-17.214-5.945-2.424-13.105 1.357-15.991 8.442-2.804 6.877-.547 14.327 5.026 16.988a4.05 4.05 0 0 1-1.626 1.623c-1.207.564 2.717 1.108 2.717 1.108.006-.74.132-1.475.371-2.175 5.749 1.684 12.307-2.062 15.04-8.772z" fill="#FF925D"/><path d="M257.313 166.126c.131-3.059 1.98-5.486 4.187-5.594-.094 0-.19-.023-.292-.026-2.34-.102-4.34 2.403-4.477 5.596-.135 3.097 1.538 5.705 3.775 5.945-.038.234-3.328-2.828-3.193-5.921z" fill="#FFF" opacity=".2"/></g></g><ellipse fill="#FF925D" fill-rule="nonzero" opacity=".1" cx="177.041" cy="206.933" rx="88.433" ry="6.573"/><path fill="#53425A" fill-rule="nonzero" d="M169.594 35.722v10.33h1.081v-10.83zM191.751 38.47v9.58h1.5l-.333-10.664zM149.1 40.304l-1 1.082v9.33h1z"/><path d="M153.266 67.792h-6.5V49.143h5c-.051.144-.09.291-.114.442-.196 1.073-.134 3.096.047 5.412.436 5.55 1.567 12.795 1.567 12.795zM175.927 67.792l-8.167 1V44.465h5.167c-.035.275-.059.585-.07.936-.015 1.835.092 3.67.321 5.49.176 1.586.407 3.287.658 4.972.196 1.312.407 2.631.614 3.86.749 4.464 1.477 8.07 1.477 8.07zM197.918 65.295l-7.997.667V46.468h5.5c-.196.415-.292 1.114-.292 2.006.035 1.608.178 3.212.43 4.8.789 5.46 2.36 12.021 2.36 12.021z" fill="#FF925D" fill-rule="nonzero"/><path d="M150.433 21.392s.5 2-4.749 7.497c-5.248 5.497-3.164 16.579 2.415 16.246 0 0 5.22.877 7.097-2.69a4.754 4.754 0 0 0-.333-4.875c-1.726-2.54-5.053-7.88-4.43-10.43v-5.748z" fill="#FFC13D" fill-rule="nonzero"/><path d="M149.377 28.947s.313 1.252-2.965 4.679c-3.277 3.427-1.985 10.36 1.524 10.152 0 0 3.333.55 4.47-1.755.455-.965.36-2.1-.251-2.976-1.018-1.5-2.924-4.55-2.804-6.225.017-.264.04-.524.04-.787l-.014-3.088z" fill="#FFF" fill-rule="nonzero" opacity=".5"/><path d="M193.749 18.886s.5 1.997-4.749 7.497-3.167 16.579 2.415 16.246c0 0 5.22.86 7.097-2.693a4.763 4.763 0 0 0-.334-4.875c-1.725-2.54-5.052-7.877-4.43-10.426v-5.749z" fill="#FFC13D" fill-rule="nonzero"/><path d="M193.085 30.801s.234.936-2.222 3.509c-2.457 2.573-1.48 7.76 1.131 7.602 0 0 2.442.4 3.322-1.26.37-.731.31-1.607-.158-2.28-.807-1.19-2.363-3.688-2.073-4.884v-2.687z" fill="#FFF" fill-rule="nonzero" opacity=".5"/><path d="M171.65 11.655s.607 2.43-5.776 9.117c-6.383 6.687-3.848 20.158 2.924 19.754 0 0 6.345 1.047 8.629-3.275a5.79 5.79 0 0 0-.407-5.926c-2.096-3.088-6.14-9.58-5.385-12.682l.014-6.988z" fill="#FFC13D" fill-rule="nonzero"/><path d="M170.98 23.722s.339 1.357-3.217 5.085c-3.555 3.728-2.146 11.249 1.64 11.023 0 0 3.541.585 4.813-1.827a3.216 3.216 0 0 0-.225-3.307c-1.17-1.722-3.427-5.345-3.006-7.073l-.005-3.9zM151.699 54.991c-1.526 1.605-3.638 4.483-4.93 6.304V54.7c1.427-1.72 3.47-3.763 4.883-5.126-.208 1.076-.134 3.1.047 5.418zM173.178 50.898a59.064 59.064 0 0 0-5.418 4.927V49.52a29.108 29.108 0 0 1 5.097-4.116 41.246 41.246 0 0 0 .321 5.494z" fill="#FFF" fill-rule="nonzero" opacity=".5"/><path d="M174.45 59.731c-2.008 1.754-4.769 4.26-6.69 6.006v-4.512a225.2 225.2 0 0 1 6.076-5.357c.196 1.316.415 2.632.614 3.863z" fill="#FF925D" fill-rule="nonzero"/><path d="M195.567 53.275c-1.927 1.614-4.16 3.833-5.646 5.36V52.36c1.579-1.568 3.67-2.956 5.216-3.875.036 1.605.18 3.205.43 4.79z" fill="#FFF" fill-rule="nonzero" opacity=".5"/><path fill="#C99398" fill-rule="nonzero" d="M132.687 72.292h81.556v37.325h-81.556z"/><path d="M214.246 72.292v5.617c-1.559.293-3.603-.163-5.316-.736a7.058 7.058 0 0 0-6.111.771c-4.7 3.07-8.369 2.421-10.927.895a9.41 9.41 0 0 0-8.518-.658 9.322 9.322 0 0 1-3.778.693 7.942 7.942 0 0 0-4.286 1.17c-3.857 2.339-7.705.985-10.12-.427a7.126 7.126 0 0 0-5.234-.754 7.602 7.602 0 0 1-2.339.187 8.749 8.749 0 0 0-5.135 1.108c-6.368 3.722-8.48-.798-9.728-1.462-1.418-.749-1.581 1.833-2 1.833-.418 0-1.83-3.415-2.166-2.251-.155.55-1.462 1.204-2.816 1.754a5.64 5.64 0 0 1-3.097.319v-8.059h81.57z" fill="#000" fill-rule="nonzero" opacity=".1"/><path d="M135.947 64.85s-13.365 5.966-6.234 13.419a5.556 5.556 0 0 0 6.082 1.272c1.348-.544 2.661-1.202 2.816-1.754.333-1.17 1.754 2.248 2.167 2.248.412 0 .585-2.582 2-1.833 1.254.663 3.36 5.184 9.728 1.462a8.728 8.728 0 0 1 5.137-1.106 7.444 7.444 0 0 0 2.322-.193 7.152 7.152 0 0 1 5.234.755c2.415 1.412 6.263 2.766 10.12.43a7.974 7.974 0 0 1 4.28-1.167 9.17 9.17 0 0 0 3.775-.693 9.427 9.427 0 0 1 8.518.658c2.558 1.53 6.228 2.178 10.927-.877a7.056 7.056 0 0 1 6.11-.772c3.416 1.143 8.165 1.874 7.735-3.129-.667-7.748-9.83-9.997-13.664-10.082-3.833-.084-10.164-.748-17.327 0-7.164.749-21.743.667-21.743.667s-24.474-.997-27.983.696z" fill="#F8F8FA" fill-rule="nonzero"/><path d="M214.246 84.854v9.79a9.713 9.713 0 0 1-1.246-.115c-1.936-.292-3.868-.918-5.807-.652-3.067.424-5.43 2.983-8.418 3.784-5.98 1.608-11.652-4.164-17.836-4-4.45.117-8.17 3.237-12.264 4.97a20.76 20.76 0 0 1-13.195.998c-3.726-.96-7.097-2.924-10.632-4.454-3.535-1.529-7.483-2.599-11.21-1.646-.316.08-.626.176-.942.263v-6.807c.448.068.9.098 1.354.091 1.462-.07 2.678-.403 4.175-.117 1.366.277 2.69.736 3.933 1.366 2.696 1.315 5.19 3.099 8.067 3.95 2.152.64 4.424.728 6.67.681 4.427-.096 8.973-.751 12.78-3.009 2.43-1.444 4.603-3.546 7.386-4.032 5.743-.997 10.483 5.263 16.313 5.448 1.462.052 2.89-.293 4.304-.62 2.182-.515 4.418-1.053 6.27-2.31 1.95-1.325 3.47-3.439 5.76-4.003 1.131-.278 2.339-.138 3.459.126.362.084.725.184 1.079.298z" fill="#000" fill-rule="nonzero" opacity=".1"/><path d="M214.246 83.854v9.79a10.269 10.269 0 0 1-1.246-.112c-1.936-.292-3.868-.92-5.807-.655-3.067.424-5.43 2.983-8.418 3.784-5.98 1.608-11.652-4.164-17.836-4-4.45.117-8.17 3.237-12.264 4.97a20.792 20.792 0 0 1-13.195 1c-3.743-.95-7.103-2.923-10.638-4.458-3.535-1.536-7.482-2.6-11.21-1.647-.316.082-.626.176-.942.263v-6.804c.448.07.9.1 1.354.091 1.462-.07 2.678-.403 4.175-.117 1.368.28 2.692.74 3.939 1.368 2.696 1.32 5.19 3.1 8.067 3.95 2.152.641 4.424.729 6.67.682 4.427-.096 8.973-.751 12.78-3.009 2.43-1.441 4.603-3.546 7.386-4.032 5.743-.997 10.483 5.249 16.313 5.447 1.462.053 2.89-.292 4.304-.62 2.182-.514 4.418-1.05 6.27-2.31 1.95-1.324 3.47-3.435 5.76-4.002 1.131-.278 2.339-.138 3.459.125.362.088.725.185 1.079.296z" fill="#000" fill-rule="nonzero" opacity=".1"/><path d="M128.213 88.643c-.935 1.936.34 4.679 2.477 4.921.997.109 1.97-.277 2.942-.526 3.728-.953 7.678.129 11.21 1.65 3.532 1.52 6.895 3.493 10.632 4.455a20.78 20.78 0 0 0 13.193-.997c4.093-1.754 7.815-4.862 12.28-4.97 6.19-.161 11.863 5.608 17.837 4 2.988-.802 5.353-3.36 8.418-3.781 1.938-.27 3.871.365 5.807.652 1.935.286 4.164.123 5.462-1.345 1.348-1.527 1.123-4.015-.1-5.646-1.222-1.632-3.216-2.52-5.196-2.983-1.134-.26-2.339-.403-3.459-.126-2.29.568-3.8 2.676-5.76 4.003-1.854 1.258-4.093 1.796-6.269 2.31-1.415.336-2.85.673-4.307.623-5.827-.202-10.567-6.447-16.313-5.45-2.783.485-4.953 2.59-7.383 4.032-3.801 2.257-8.357 2.924-12.78 3.009-2.246.046-4.521-.041-6.673-.679-2.874-.853-5.368-2.631-8.061-3.953a15.863 15.863 0 0 0-3.939-1.371c-1.5-.293-2.713.05-4.178.12-1.114.052-2.068-.354-3.217-.024a4.114 4.114 0 0 0-2.623 2.076z" fill="#FF925D" fill-rule="nonzero"/><path fill="#C99398" fill-rule="nonzero" d="M116.026 109.617h116.34v45.693h-116.34z"/><path d="M214.246 101.822v7.795h-45.351c-.08 0-.155-.018-.234-.023a6.05 6.05 0 0 0-1.152.023H132.69v-6.95c3.801.462 7.62 1.05 11.404 1.032 5.005-.02 9.941-1.062 14.967-.78 17.544.973 35.38 1.262 52.86-.814l2.325-.283zM232.365 109.617v4.12c-1.263-.161-2.482-.664-3.704-1.064-1.103-.36-2.293-.64-3.412-.343-.585.158-1.13.468-1.711.647-2.433.76-4.97-.822-7.523-.83-2.553-.01-4.793 1.51-7.26 2.066-3.82.857-7.72-.646-11.375-2.046-1.48-.562-3.196-1.1-4.576-.33-.608.336-1.064.891-1.658 1.257-1.73 1.07-4 .233-5.725-.845-1.094-.682-2.415-1.486-3.567-.91-.585.293-.968.877-1.462 1.334-1.559 1.397-4.015 1.023-5.927.172-1.912-.85-3.722-2.102-5.807-2.257-2.924-.223-5.515 1.754-8.076 3.216-2.562 1.462-6.123 2.313-8.214.234-.693-.687-1.204-1.684-2.152-1.921-1.567-.389-2.745 1.55-4.324 1.889-1.948.42-3.53-1.652-5.483-2.047-2.02-.421-3.897.983-5.68 2.02-1.785 1.039-4.387 1.62-5.665.015-.412-.512-.637-1.202-1.201-1.544a2.436 2.436 0 0 0-1.39-.222c-1.69.094-3.35.49-4.9 1.17-1.78.786-3.509 1.962-5.444 1.924h-.106v-5.705h116.342z" fill="#000" fill-rule="nonzero" opacity=".1"/><path d="M144.079 104.199c-8.924.038-18.129-3.307-26.553-.33-3.052 1.078-6.14 3.631-5.827 6.853a4.705 4.705 0 0 0 4.433 4.094c1.944.035 3.663-1.143 5.444-1.927 1.55-.68 3.21-1.077 4.9-1.17.477-.064.961.014 1.392.225.562.337.79 1.03 1.202 1.541 1.293 1.609 3.88 1.024 5.661-.014 1.78-1.038 3.664-2.445 5.681-2.02 1.95.406 3.535 2.479 5.483 2.046 1.579-.34 2.757-2.278 4.324-1.886.948.234 1.462 1.228 2.152 1.918 2.091 2.08 5.647 1.22 8.21-.234 2.565-1.453 5.141-3.432 8.08-3.216 2.085.158 3.897 1.412 5.81 2.263 1.912.851 4.365 1.222 5.924-.172.494-.445.877-1.041 1.462-1.337 1.152-.584 2.473.228 3.567.91 1.725 1.079 3.994 1.915 5.725.845.585-.366 1.05-.918 1.658-1.258 1.38-.769 3.097-.23 4.576.33 3.655 1.396 7.559 2.901 11.374 2.048 2.468-.556 4.731-2.076 7.26-2.068 2.53.01 5.091 1.591 7.524.834.585-.182 1.12-.492 1.708-.65 1.122-.292 2.312-.017 3.415.343 1.462.48 2.924 1.108 4.462 1.114 1.538.006 3.216-.837 3.593-2.34.293-1.143-.266-2.339-.953-3.289-2.488-3.482-6.807-5.263-11.061-5.751-4.255-.489-8.541.19-12.793.693-17.47 2.087-35.321 1.812-52.865.824-5.015-.28-9.96.76-14.968.78z" fill="#F8F8FA" fill-rule="nonzero"/><path d="M232.365 138.974v11.26c-11.88 2.137-24.029 2.631-36.11 3.131-7.828.32-15.661.638-23.492.477-5.848-.117-11.696-.506-17.52-.877l-18.714-1.24-17.608-1.17-2.895-.192v-10.041a11.135 11.135 0 0 1 2.34-1.15 12.231 12.231 0 0 1 11.733 2.1c5.901-3.55 14.05-2.871 19.281 1.614 7.208-5.415 18.032-5.345 25.17.16 4.728-5.792 14.35-6.686 20.061-1.859 5.46-5.1 14.813-5.263 20.468-.38 3.977-3.05 9.444-3.251 14.41-2.553.986.111 1.954.353 2.876.72z" fill="#000" fill-rule="nonzero" opacity=".1"/><path d="M237.363 149.728a152.415 152.415 0 0 1-19.512 2.898c-2.19.199-4.386.36-6.585.503-4.997.321-10.012.526-15.012.73-3.178.13-6.356.258-9.538.357l-1.994.056c-3.988.102-7.973.146-11.959.064-5.848-.117-11.696-.506-17.52-.877l-18.714-1.237-17.608-1.17-4.322-.292c-1.552-.102-2.704.231-3.333-1.155-.746-1.66-.088-3.313.825-4.757.163-.257.333-.506.505-.749a12.088 12.088 0 0 1 5.77-4.432 12.231 12.231 0 0 1 11.733 2.105c5.901-3.55 14.05-2.871 19.281 1.614 7.208-5.415 18.032-5.345 25.17.16 4.728-5.792 14.35-6.686 20.061-1.859 5.46-5.1 14.813-5.263 20.468-.38 3.977-3.05 9.444-3.251 14.41-2.553 1.461.208 2.979.512 4.113 1.462 1.58 1.32 1.939 3.407 2.372 5.492.266 1.424.605 2.85 1.389 4.02z" fill="#FF925D" fill-rule="nonzero"/><path fill="#C99398" fill-rule="nonzero" d="M108.155 151.184h128.637v52.983H108.155z"/><path d="M237.363 149.728a152.415 152.415 0 0 1-19.512 2.898 13.421 13.421 0 0 0-6.705.544c-4.052 1.432-7.54 4.836-11.839 4.78-3.418-.035-6.398-2.307-9.696-3.251a12.28 12.28 0 0 0-2.895-.47 12.626 12.626 0 0 0-1.994.055c-3.988.102-7.973.146-11.959.064-5.848-.117-11.696-.506-17.52-.877l-18.714-1.237-17.608-1.17-4.322-.292c-1.552-.102-2.704.23-3.333-1.155-.746-1.66-.088-3.313.825-4.757.786 0 1.573.07 2.339.125 11.89.837 23.775 1.703 35.652 2.6l-1.828.321a199.585 199.585 0 0 1 37.535-2.321c5.848.193 11.752.643 17.57-.105 4.094-.524 8.097-1.635 12.205-1.983 5.644-.477 11.299.497 16.883 1.462 1.18.186 2.348.434 3.5.743.293 1.43.632 2.856 1.416 4.026z" fill="#000" fill-rule="nonzero" opacity=".1"/><path d="M236.792 151.19v4.97c-1.605-.236-3.178-.473-4.152.667-.456.538-.634 1.267-1.079 1.816-.918 1.135-2.71 1.132-4.02.489-1.31-.644-2.304-1.755-3.43-2.693a13.652 13.652 0 0 0-12.965-2.27c-4.052 1.433-7.54 4.834-11.839 4.781-3.433-.046-6.398-2.313-9.696-3.263a13.105 13.105 0 0 0-11.047 1.877c-2.339 1.658-4.538 4.228-7.38 3.9-1.488-.172-2.74-1.14-4.006-1.946a21.322 21.322 0 0 0-8.389-3.112c-1.3-.184-2.684-.24-3.883.293-1.514.681-2.49 2.19-3.894 3.073-3.26 2.047-7.492.202-10.851-1.681-3.36-1.883-7.526-3.802-10.857-1.875-.786.457-1.462 1.106-2.286 1.462-4.679 2.047-9.29-5.868-14.097-4.117-1.085.395-1.95 1.246-3.017 1.688a3.65 3.65 0 0 1-1.755.245v-4.304h128.643z" fill="#000" fill-rule="nonzero" opacity=".1"/><path d="M150.1 148.079a7671.88 7671.88 0 0 0-35.656-2.6c-2.046-.146-4.178-.292-6.163.293-1.986.585-3.837 2.07-4.26 4.093-.64 3.062 2.99 6.082 5.885 4.89 1.068-.44 1.93-1.293 3.015-1.688 4.807-1.754 9.41 6.176 14.094 4.117.83-.365 1.503-1.011 2.286-1.462 3.334-1.935 7.494 0 10.857 1.874 3.362 1.875 7.602 3.734 10.854 1.682 1.406-.877 2.38-2.392 3.894-3.073 1.2-.541 2.58-.486 3.883-.293a21.254 21.254 0 0 1 8.39 3.108c1.265.807 2.517 1.775 4.005 1.948 2.842.33 5.047-2.246 7.38-3.9a13.108 13.108 0 0 1 11.047-1.878c3.295.95 6.263 3.216 9.693 3.263 4.301.056 7.79-3.348 11.842-4.783a13.652 13.652 0 0 1 12.965 2.274c1.126.924 2.123 2.047 3.433 2.69 1.31.644 3.1.647 4.017-.488.445-.547.62-1.278 1.08-1.816 1.877-2.193 5.961.705 8.236-1.07a3.126 3.126 0 0 0 1.044-1.716c.585-2.272-.86-4.679-2.816-5.96-1.956-1.28-4.336-1.721-6.646-2.125-5.582-.97-11.237-1.947-16.88-1.462-4.108.348-8.114 1.462-12.205 1.983-5.816.748-11.71.292-17.573.105a199.57 199.57 0 0 0-37.532 2.321" fill="#F8F8FA" fill-rule="nonzero"/><path d="M236.792 170.86v9.277a11.795 11.795 0 0 1-4.5-1.353c-2.596-1.342-4.932-3.26-7.74-4.094-8.742-2.561-17.62 6.307-26.511 4.328-3.412-.76-6.503-3.094-9.994-2.924-3.29.152-6.006 2.459-8.921 3.985a20.205 20.205 0 0 1-18.448 0c-3.292-1.731-6.225-4.433-9.909-4.939-5.749-.786-10.988 4.044-16.784 3.878-3.529-.103-6.698-2.047-9.853-3.617-3.155-1.57-6.84-2.875-10.152-1.655-1.48.543-2.737 1.546-4.115 2.304a8.564 8.564 0 0 1-1.71.725v-7.635a15.497 15.497 0 0 1 18.895.413c1.427 1.143 2.696 2.564 4.386 3.236 2.4.954 5.14.211 7.459-.912 2.318-1.123 4.485-2.631 6.97-3.324 6.024-1.664 12.117 1.8 17.65 4.707 3.234 1.696 6.86 3.287 10.424 2.503 1.701-.377 3.236-1.266 4.769-2.096 6.163-3.34 13.602-5.907 20.067-3.187 2.573 1.081 5.067 2.997 7.83 2.576 1.717-.264 3.152-1.398 4.544-2.436a59.941 59.941 0 0 1 9.395-5.722c1.573-.766 3.29-1.486 5.023-1.214 2.377.366 4.047 2.442 5.682 4.21 1.482 1.591 3.467 3.141 5.543 2.966z" fill="#000" fill-rule="nonzero" opacity=".1"/><path d="M236.792 171.86v9.28a11.795 11.795 0 0 1-4.5-1.353c-2.596-1.343-4.932-3.26-7.74-4.094-8.742-2.561-17.62 6.307-26.511 4.327-3.412-.76-6.503-3.093-9.994-2.924-3.29.153-6.006 2.46-8.921 3.986a20.196 20.196 0 0 1-18.448-.018c-3.292-1.728-6.225-4.43-9.909-4.935-5.749-.787-10.988 4.044-16.784 3.877-3.529-.102-6.698-2.032-9.853-3.617-3.155-1.585-6.84-2.877-10.152-1.655-1.48.544-2.737 1.547-4.115 2.304-.542.3-1.116.543-1.71.722v-7.62a15.497 15.497 0 0 1 18.895.413c1.427 1.143 2.696 2.564 4.386 3.236 2.4.954 5.14.211 7.459-.915 2.318-1.125 4.485-2.631 6.97-3.321 6.024-1.667 12.117 1.8 17.65 4.707 3.234 1.696 6.86 3.287 10.424 2.503 1.701-.377 3.236-1.266 4.769-2.096 6.163-3.34 13.602-5.907 20.067-3.187 2.573 1.081 5.067 2.994 7.83 2.576 1.717-.264 3.152-1.398 4.544-2.436a59.941 59.941 0 0 1 9.395-5.722c1.573-.766 3.29-1.486 5.023-1.214 2.377.366 4.047 2.442 5.682 4.21 1.482 1.594 3.467 3.138 5.543 2.966z" fill="#000" fill-rule="nonzero" opacity=".1"/><path d="M114.97 166.813a15.79 15.79 0 0 1 12.077 3.24c1.43 1.143 2.699 2.564 4.4 3.236 2.398.954 5.135.211 7.457-.915 2.321-1.125 4.485-2.631 6.97-3.321 6.024-1.664 12.117 1.8 17.65 4.707 3.233 1.696 6.859 3.287 10.423 2.503 1.702-.374 3.237-1.263 4.766-2.093 6.167-3.343 13.606-5.91 20.07-3.19 2.577 1.081 5.07 2.997 7.831 2.576 1.716-.264 3.15-1.398 4.544-2.433a59.725 59.725 0 0 1 9.395-5.725c1.573-.77 3.292-1.486 5.02-1.217 2.38.372 4.05 2.445 5.681 4.214 1.632 1.769 3.919 3.485 6.237 2.842.553-.155 1.07-.439 1.64-.503.98-.108 1.927.462 2.58 1.205 1.962 2.236 1.424 6.178-1.068 7.807-2.447 1.602-5.751.877-8.35-.46-2.6-1.336-4.933-3.26-7.74-4.093-8.743-2.561-17.62 6.307-26.512 4.327-3.412-.76-6.503-3.093-9.994-2.924-3.287.15-6.006 2.46-8.921 3.986a20.213 20.213 0 0 1-18.448-.018c-3.29-1.73-6.228-4.432-9.909-4.935-5.746-.79-10.988 4.04-16.787 3.874-3.526-.102-6.695-2.047-9.85-3.614-3.155-1.567-6.84-2.877-10.152-1.658-1.477.544-2.734 1.547-4.117 2.301-1.383.755-3.038 1.275-4.52.746-1.15-.41-2.34-1.948-1.872-3.217.36-1 2.047-2.084 2.79-2.818a15.93 15.93 0 0 1 8.71-4.43z" fill="#FF925D" fill-rule="nonzero"/><path d="M236.792 189.743v12.447c-4.924.253-9.849.505-14.774.754-7.95.404-15.913.81-23.872.655-6.725-.134-13.45-.663-20.175-.877-14.14-.438-28.319.55-42.421-.585-4.515-.362-9.012-.938-13.532-1.195a99.83 99.83 0 0 0-13.872.198v-11.725c.425-.034.852-.044 1.278-.029 2.228.075 4.417.604 6.433 1.556 1.579.748 3.073 1.754 4.792 2.046 4.474.772 8.36-3.456 12.889-3.8 3.646-.27 6.921 1.99 10.053 3.882.584.363 1.272.728 1.962.626.584-.085 1.058-.483 1.529-.83 4.465-3.293 11.266-2.895 15.31.903.438.41.877.877 1.462 1.023 1.146.293 2.175-.69 3.088-1.462 4.926-4.157 12.523-2.906 18.178.19 1.047.585 2.207 1.226 3.362.927.775-.201 1.375-.795 1.995-1.304 4.815-3.95 12.058-3.216 17.693-.558.543.257 1.12.535 1.716.468.72-.085 1.269-.638 1.819-1.1a9.28 9.28 0 0 1 9.76-1.21c.877.427 1.716 1.006 2.66 1.295 2.69.822 5.425-.85 8.112-1.699a13.924 13.924 0 0 1 4.555-.596z" fill="#000" fill-rule="nonzero" opacity=".1"/><path d="M250.348 202l-28.33 1.444c-7.95.404-15.913.81-23.872.655-6.725-.134-13.45-.663-20.175-.877-14.14-.438-28.319.547-42.421-.585-4.515-.362-9.012-.938-13.532-1.195a100.716 100.716 0 0 0-15.252.333c-1.085.102-2.754.646-3.801.433-1.132-.231-.699-.36-.33-1.433.114-.318.212-.642.292-.97.31-1.314.365-2.632.494-4 .164-1.74.421-3.653 1.86-4.837 1.131-.933 2.699-1.12 4.166-1.073 2.228.075 4.417.604 6.433 1.555 1.58.749 3.073 1.755 4.793 2.062 4.473.772 8.36-3.456 12.888-3.801 3.647-.27 6.921 1.99 10.053 3.883.585.362 1.272.728 1.962.625.585-.084 1.059-.482 1.53-.83 4.464-3.293 11.265-2.895 15.31.903.438.41.876.878 1.461 1.024 1.146.292 2.176-.69 3.088-1.462 4.927-4.158 12.523-2.907 18.178.19 1.047.585 2.208 1.225 3.363.927.775-.202 1.374-.796 1.994-1.304 4.816-3.95 12.058-3.217 17.693-.559.544.257 1.12.535 1.716.468.72-.085 1.27-.637 1.82-1.1a9.28 9.28 0 0 1 9.76-1.21c.876.427 1.716 1.006 2.66 1.295 2.69.822 5.424-.85 8.111-1.698 7.304-2.312 15.111 1.66 17.544 8.924.244.72.426 1.461.544 2.213z" fill="#F8F8FA" fill-rule="nonzero"/><g opacity=".1" transform="translate(107.018 195.614)" fill="#000" fill-rule="nonzero"><ellipse cx="5.281" cy="4.088" rx="5.126" ry="3.93"/><ellipse cx="24.401" cy="3.93" rx="5.126" ry="3.93"/><ellipse cx="43.933" cy="3.93" rx="5.126" ry="3.93"/><ellipse cx="67.135" cy="3.93" rx="5.126" ry="3.93"/><ellipse cx="90.336" cy="3.93" rx="5.126" ry="3.93"/><ellipse cx="110.289" cy="3.93" rx="5.126" ry="3.93"/><ellipse cx="128.365" cy="3.93" rx="5.126" ry="3.93"/></g><ellipse fill="#FF925D" fill-rule="nonzero" cx="112.298" cy="200.202" rx="5.126" ry="3.93"/><ellipse fill="#FF925D" fill-rule="nonzero" cx="131.418" cy="200.044" rx="5.126" ry="3.93"/><ellipse fill="#FF925D" fill-rule="nonzero" cx="150.95" cy="200.044" rx="5.126" ry="3.93"/><ellipse fill="#FF925D" fill-rule="nonzero" cx="174.152" cy="200.044" rx="5.126" ry="3.93"/><ellipse fill="#FF925D" fill-rule="nonzero" cx="197.354" cy="200.044" rx="5.126" ry="3.93"/><ellipse fill="#FF925D" fill-rule="nonzero" cx="217.307" cy="200.044" rx="5.126" ry="3.93"/><ellipse fill="#FF925D" fill-rule="nonzero" cx="235.383" cy="200.044" rx="5.126" ry="3.93"/><circle fill="#FF925D" fill-rule="nonzero" opacity=".5" cx="127.901" cy="130.649" r="4.787"/><circle fill="#FF925D" fill-rule="nonzero" opacity=".5" cx="186.392" cy="130.401" r="4.787"/><circle fill="#FF925D" fill-rule="nonzero" opacity=".5" cx="156.816" cy="124.497" r="4.787"/><circle fill="#FF925D" fill-rule="nonzero" opacity=".5" cx="215.988" cy="124.497" r="4.787"/><path d="M250.348 202l-28.33 1.444c-7.95.404-15.913.81-23.872.655-6.725-.134-13.45-.663-20.175-.877-14.14-.438-28.319.547-42.421-.585-4.515-.362-9.012-.938-13.532-1.195a100.716 100.716 0 0 0-15.252.333c-1.085.102-2.754.646-3.801.433-1.132-.231-.699-.36-.33-1.433.114-.318.212-.642.292-.97h146.862c.249.714.436 1.448.559 2.195z" fill="#000" fill-rule="nonzero" opacity=".1"/><path d="M99.263 200.044H252a4.97 4.97 0 0 1 4.97 4.97v.644H94.285v-.643a4.97 4.97 0 0 1 4.98-4.971z" fill="#D4D5E0" fill-rule="nonzero"/><path d="M136.952 69.605c.243.073.38.33.307.572l-.469 1.552a.459.459 0 1 1-.879-.265l.47-1.552a.459.459 0 0 1 .571-.307zM123.483 105.73c.242.074.38.329.307.57l-.465 1.55a.458.458 0 1 1-.877-.263l.465-1.55a.458.458 0 0 1 .57-.306zM109.217 148.212c.242.072.379.327.306.57l-.465 1.548a.458.458 0 1 1-.877-.263l.466-1.549a.458.458 0 0 1 .57-.306zM144.896 151.032c.242.073.38.328.306.57l-.465 1.549a.458.458 0 0 1-.877-.263l.466-1.55a.458.458 0 0 1 .57-.306zM166.081 149.439c.242.073.38.328.307.57l-.465 1.548a.458.458 0 0 1-.877-.263l.465-1.548a.458.458 0 0 1 .57-.307zM195.94 152.663c.242.073.38.328.307.57l-.465 1.549a.458.458 0 1 1-.877-.263l.465-1.55a.458.458 0 0 1 .57-.306zM216.365 147.95c.242.073.379.329.306.57l-.465 1.55a.458.458 0 0 1-.877-.263l.466-1.55a.458.458 0 0 1 .57-.306zM126.668 149.965c.242.072.38.328.307.57l-.465 1.548a.458.458 0 1 1-.877-.263l.465-1.548a.458.458 0 0 1 .57-.307zM169.969 154.245c.242.073.379.328.306.57l-.465 1.549a.458.458 0 0 1-.877-.263l.466-1.55a.458.458 0 0 1 .57-.306zM187.835 149.44c.242.072.38.327.307.57l-.465 1.548a.458.458 0 1 1-.877-.263l.465-1.549a.458.458 0 0 1 .57-.306zM225.57 147.951c.241.073.379.328.306.57l-.465 1.549a.458.458 0 0 1-.877-.263l.466-1.55a.458.458 0 0 1 .57-.306zM182.26 69.02a.458.458 0 0 1 .64-.097l1.303.958a.458.458 0 0 1-.542.737l-1.303-.957a.458.458 0 0 1-.097-.64zM171.135 68.188a.458.458 0 0 1 .64-.098l1.302.958a.458.458 0 0 1-.542.737l-1.302-.957a.458.458 0 0 1-.098-.64zM153.069 68.19a.458.458 0 0 1 .64-.097l1.302.958a.458.458 0 0 1-.542.737l-1.303-.958a.458.458 0 0 1-.097-.64zM129.003 104.983a.458.458 0 0 1 .64-.098l1.302.958a.458.458 0 1 1-.542.737l-1.303-.958a.458.458 0 0 1-.097-.64zM130.373 108.7a.458.458 0 0 1 .64-.098l1.303.958a.458.458 0 1 1-.542.737l-1.303-.958a.458.458 0 0 1-.098-.64zM160.074 105.279a.458.458 0 0 1 .64-.098l1.303.958a.458.458 0 1 1-.542.737l-1.303-.957a.458.458 0 0 1-.098-.64zM148.292 153.652a.458.458 0 0 1 .64-.098l1.302.958a.458.458 0 0 1-.542.737l-1.302-.958a.458.458 0 0 1-.098-.64zM192.24 107.195a.458.458 0 0 1 .64-.098l1.302.958a.458.458 0 1 1-.542.737l-1.303-.957a.458.458 0 0 1-.098-.64zM205.466 108.952a.458.458 0 0 1 .64-.098l1.303.958a.458.458 0 1 1-.542.737l-1.303-.958a.458.458 0 0 1-.098-.64zM201.462 148.444a.458.458 0 0 1 .64-.098l1.303.958a.458.458 0 1 1-.542.737l-1.303-.957a.458.458 0 0 1-.098-.64zM228.73 153.146a.458.458 0 0 1 .639-.098l1.303.958a.458.458 0 1 1-.542.737l-1.303-.958a.458.458 0 0 1-.098-.64zM136.257 150.451a.458.458 0 0 1 .64-.098l1.302.958a.458.458 0 0 1-.542.737l-1.303-.957a.458.458 0 0 1-.097-.64zM116.405 148.693a.458.458 0 0 1 .64-.097l1.302.958a.458.458 0 0 1-.542.737l-1.303-.958a.458.458 0 0 1-.097-.64zM155.8 151.77a.458.458 0 0 1 .64-.097l1.302.958a.458.458 0 1 1-.542.737l-1.303-.958a.458.458 0 0 1-.098-.64zM177.054 150.454a.458.458 0 0 1 .64-.098l1.302.958a.458.458 0 0 1-.542.737l-1.302-.957a.458.458 0 0 1-.098-.64zM205.892 70.155a.458.458 0 0 1-.109.638l-1.32.935a.458.458 0 0 1-.53-.747l1.321-.935a.458.458 0 0 1 .638.109zM182.454 73.603a.458.458 0 0 1-.11.638l-1.319.935a.458.458 0 1 1-.53-.747l1.32-.935a.458.458 0 0 1 .639.109zM143.682 107.549a.458.458 0 0 1-.11.638l-1.318.935a.458.458 0 1 1-.53-.747l1.32-.935a.458.458 0 0 1 .638.109zM155.402 108.704a.458.458 0 0 1-.109.637l-1.32.935a.458.458 0 1 1-.53-.747l1.32-.934a.458.458 0 0 1 .639.109zM178.062 108.702a.458.458 0 0 1-.11.638l-1.319.935a.458.458 0 0 1-.53-.747l1.32-.935a.458.458 0 0 1 .639.11zM185.148 106.3a.458.458 0 0 1-.109.639l-1.32.935a.458.458 0 1 1-.53-.747l1.32-.935a.458.458 0 0 1 .639.109zM201.913 107.199a.458.458 0 0 1-.11.638l-1.318.934a.458.458 0 1 1-.53-.747l1.32-.934a.458.458 0 0 1 .638.109zM214.147 105.284a.458.458 0 0 1-.11.637l-1.319.935a.458.458 0 1 1-.53-.747l1.32-.934a.458.458 0 0 1 .639.109zM230.76 106.303a.458.458 0 0 1-.11.638l-1.32.934a.458.458 0 0 1-.53-.747l1.321-.934a.458.458 0 0 1 .638.109zM179.134 67.182c.242.072.38.328.307.57l-.465 1.548a.458.458 0 1 1-.877-.263l.465-1.549a.458.458 0 0 1 .57-.306zM192.872 66.572c.242.073.38.328.307.57l-.465 1.549a.458.458 0 0 1-.877-.263l.466-1.549a.458.458 0 0 1 .57-.307zM174.014 72.126c.242.072.38.328.306.57l-.464 1.548a.458.458 0 1 1-.877-.263l.465-1.549a.458.458 0 0 1 .57-.306zM147.137 73.111c.242.073.38.328.307.57l-.465 1.549a.458.458 0 0 1-.877-.263l.465-1.549a.458.458 0 0 1 .57-.307zM194.98 70.894c.241.072.379.328.306.57l-.465 1.548a.458.458 0 1 1-.877-.263l.466-1.549a.458.458 0 0 1 .57-.306zM144.893 67.184c.242.073.38.328.307.57l-.465 1.549a.458.458 0 0 1-.877-.263l.465-1.55a.458.458 0 0 1 .57-.306zM159.01 69.664c.242.073.38.328.307.57l-.465 1.549a.458.458 0 1 1-.877-.263l.465-1.549a.458.458 0 0 1 .57-.307zM150.388 105.73c.242.072.38.327.307.57l-.465 1.548a.458.458 0 0 1-.877-.263l.465-1.549a.458.458 0 0 1 .57-.306zM171.477 105.729c.242.072.38.327.307.57l-.465 1.548a.458.458 0 0 1-.877-.263l.465-1.549a.458.458 0 0 1 .57-.306zM220.684 107.557c.242.073.38.33.306.572l-.469 1.552a.459.459 0 1 1-.879-.265l.47-1.552a.459.459 0 0 1 .572-.307zM225.569 106.705c.242.072.38.327.307.57l-.465 1.548a.458.458 0 1 1-.877-.263l.465-1.549a.458.458 0 0 1 .57-.306zM164.644 73.113c.242.072.379.327.306.57l-.465 1.548a.458.458 0 0 1-.877-.263l.466-1.549a.458.458 0 0 1 .57-.306z" fill="#FF925D" fill-rule="nonzero"/><ellipse fill="#FF925D" fill-rule="nonzero" opacity=".1" cx="127.901" cy="225.664" rx="52.339" ry="4.708"/><ellipse fill="#FF925D" fill-rule="nonzero" opacity=".1" cx="71.178" cy="203.348" rx="8.363" ry="1"/><ellipse fill="#FF925D" fill-rule="nonzero" opacity=".1" cx="35.673" cy="227.05" rx="8.363" ry="1"/><ellipse fill="#FF925D" fill-rule="nonzero" opacity=".1" cx="265.477" cy="224.506" rx="8.363" ry="1"/><ellipse fill="#FF925D" fill-rule="nonzero" opacity=".1" cx="245.152" cy="233.48" rx="8.363" ry="1"/><ellipse fill="#FF925D" fill-rule="nonzero" opacity=".1" cx="221.114" cy="218.994" rx="8.363" ry="1"/><ellipse fill="#FF925D" fill-rule="nonzero" opacity=".1" cx="183.275" cy="238.667" rx="8.363" ry="1"/><path d="M158.073 125.026l-3.722 7.916s-.55 1.485-.904 1.754c-.353.269-1.915 4.97-1.915 4.97l-3.997 6.141-.272.418-1.564-.433-1.097-4.093.065-1.19v-.152s2.47-2.582 3.017-2.778c0 0 .43.05 1.255-1.953.824-2.003 1.564-2.433 1.564-2.433l.43-1.462 4.623-7.363s3.877-5.555 4.932-3.09c1.056 2.465-2.415 3.748-2.415 3.748z" fill="#FFD2C6" fill-rule="nonzero"/><path d="M113.053 133.354c-.202.42-.347.864-.433 1.321-.026.117-.05.237-.08.363-.256 1.319-.432 2.98-.52 3.942-.043.485-.064.795-.064.795s-9.357-.626-7.73-2.193c.416-.434.711-.97.856-1.553.047-.167.088-.337.123-.509.075-.39.124-.786.146-1.184v-.292c.02-.647-.012-1.294-.094-1.936 0 0 3.041-.017 5.334.246 1.552.16 2.754.465 2.462 1z" fill="#D38884" fill-rule="nonzero"/><path d="M142.608 181.234a.822.822 0 0 1-.126.38c-.426.626-2.856 13.43-2.856 13.43.196.877-.351 2.588-.705 3.371-.354.784-1.137 4.857-1.137 4.857s-.193 8.772-.702 10.14c-.509 1.369.164 4.307.164 4.307-.05 1.351.76 2.778 1.242 3.51a8.074 8.074 0 0 0 .354.488c.134.26.321.49.55.675.035.03.07.058.108.085a6.237 6.237 0 0 0 2.196.927l.076.017c.313.067.517.097.517.097l.193 1.058-2.073.43-3.953.272s-4.66.354-3.602-1.722c.072-.143.136-.29.19-.439.038-.1.076-.205.108-.31.635-1.997.205-4.421.205-4.421l-.9-7.085c-1.486-6.579 1.169-13.903 1.169-13.903s-.234-.585.278-2.076c.511-1.492 0-4.737 0-4.737s-.272-4.19-.626-6.263a12.751 12.751 0 0 1-.143-2.632c.017-.517.065-1.032.143-1.544l8.927-1.17s.511 1.433.403 2.258z" fill="#FFD2C6" fill-rule="nonzero"/><path d="M142.482 224.582l-2.073.43-3.953.272s-4.66.353-3.602-1.723c.072-.142.136-.288.19-.438.038-.1.076-.205.108-.31a7.199 7.199 0 0 1 2.363.476c1.327.51 2.339-.824 2.339-.824l.643-1.231.094-.178c.158.225.26.353.26.353.156.302.381.563.658.76l-.108.229-.635 1.307s.801.082 1.898.257c.44.12.895-.13 1.032-.564l.076.017c.313.067.517.097.517.097l.193 1.07z" fill="#000" fill-rule="nonzero" opacity=".1"/><path d="M144.404 225.55c-.155.704-4.524.92-4.524.92s-2.427-.233-3.111.334c-.684.567-2.684.433-2.763.433-.08 0-1.135-.041-1.547-1.936-.4-1.848.538-2.172.585-2.187a7.088 7.088 0 0 1 2.47.48c1.328.508 2.34-.825 2.34-.825l.725-1.404c.158.226.26.354.26.354.156.302.382.563.658.76l-.734 1.55s.801.08 1.898.255c.877.143 1.067-.585 1.108-.86.002-.04.002-.08 0-.12 0 0 .684.199 1.526.433a1.573 1.573 0 0 1 1.109 1.813z" fill="#626696" fill-rule="nonzero"/><path d="M152.629 190.567c-.106.626-.21 2.246-.21 2.246.365 1.357-.586 4.582-.586 4.582l-.47 1.842c.21 2.339-1.29 8.09-1.29 8.09s-1.006 5.325-1.53 7.626a6.301 6.301 0 0 0 .314 3.936.991.991 0 0 0 .032.126c.014.063.033.126.055.187a2.772 2.772 0 0 0 .807 1.17v.017c.492.434 1.055.78 1.664 1.023a7.895 7.895 0 0 0 1.094.363l.096.023-.21 1.231-2.766-.707-3.708-1.205-1.786-1.05s.017-.1.055-.292v-.032l.053-.293c.292-1.617.994-6.14.64-9.468-.441-4.122 1.275-9.815 1.693-11.172a6.76 6.76 0 0 0 .316-2.404c-.681-.99-.836-4.97-.836-4.97s-1.255-2.559-2.293-5.263a13.924 13.924 0 0 1-.745-2.743 9.673 9.673 0 0 1-.15-2.006s8.41-7.675 9.334-.246c.029.252.058.492.087.728.807 6.805.44 8.056.34 8.661z" fill="#FFD2C6" fill-rule="nonzero"/><path d="M152.629 221.792l-.21 1.231-2.767-.707-3.708-1.205-1.81-1.044s.018-.1.056-.292v-.032l.053-.293.26-.026h.023a3.415 3.415 0 0 1 1.55.21c.605.226 1.395.486 1.559.375.276-.119.576-.172.877-.155l.389-.828.055-.125c.115.322.29.62.515.877.09.105.187.202.292.292v.293l-.023.424c.415.263.863.47 1.333.614a.78.78 0 0 0 .369 0 7.895 7.895 0 0 0 1.094.363l.093.028z" fill="#000" fill-rule="nonzero" opacity=".1"/><path d="M151.243 224.418c-.772-.225-2.632-.585-2.924-.292-.293.292-2.886 0-2.886 0a1.57 1.57 0 0 1-1.33-.784c-.536-.836-.103-3.538-.103-3.538l.19-.017.319-.033h.023a3.456 3.456 0 0 1 1.55.21c.605.226 1.395.486 1.558.375.277-.118.577-.171.878-.155l.441-.97a2.772 2.772 0 0 0 .807 1.169l-.038.72c.415.263.863.47 1.333.613.235.091.5.006.638-.204a.43.43 0 0 0 .047-.106c.023.044.292.132 1.09.363.877-.05 1.737.336 2.129 1.535.392 1.199-2.936 1.333-3.722 1.114z" fill="#626696" fill-rule="nonzero"/><path d="M142.608 181.234l-.476.146a6.912 6.912 0 0 1-1.152.243c-2.471.348-6.544.137-7.84.055.018-.517.066-1.032.144-1.543l8.927-1.17s.505 1.444.397 2.269z" fill="#000" fill-rule="nonzero" opacity=".1"/><path d="M150.398 179.067s-3.278.509-5.945 1.09c-.877.194-1.713.399-2.321.586a6.611 6.611 0 0 1-1.152.245c-2.971.416-8.246.032-8.246.032-1.447-4.698 1.754-10.614 1.754-10.614-.073-.47.667-1.918.667-1.918l.015-.046.456-1.676h12.178l.15.72.31 1.461 1.911 9.08.223 1.04z" fill="#626696" fill-rule="nonzero"/><path d="M152.284 181.915l-.073.032-1.424.632c-1.544.71-6.161.845-7.775.86a9.673 9.673 0 0 1-.15-2.006s8.41-7.676 9.334-.246c.03.252.058.491.088.728z" fill="#000" fill-rule="nonzero" opacity=".1"/><path d="M152.509 181.187l-.293.132-1.424.634c-1.57.722-6.336.851-7.862.857h-.4c-.705-.02-1.41-.681-1.41-.854 0-.093-.073-.558-.135-.956l-.099-.585s-3.135-1.357-4.737-2.453c-1.196-.813-.898-6.6-.664-9.509.082-1.003.152-1.664.152-1.664l12.328.72 1.73.1.99.218.262.059s.708 5.17 1.059 5.596c.35.427.12 1.88.079 2.705a5.03 5.03 0 0 1-.117 1.056s.509 1.462.389 2.263a4.532 4.532 0 0 0 .152 1.681z" fill="#626696" fill-rule="nonzero"/><path d="M96.865 177.83c-3.187-.108-.836-6.725-.47-7.631.365-.907-.547-3.073-.547-3.073s-1.073-6.319-1.073-6.725a16.985 16.985 0 0 0-.363-2.559c-.158-.585.05-1.93.415-2.506.366-.576.313-2.871.313-2.871v-2.985l.708-.942 1.819 1.716.503.477.877 3.327-.316 4.767-.143 4.646 1.102 6.433s.36 8.029-2.825 7.926z" fill="#D38884" fill-rule="nonzero"/><path fill="#000" fill-rule="nonzero" opacity=".1" d="M97.857 151.044l-2.717-1.123v-.441l.708-.942 1.816 1.716z"/><path d="M96.602 144.257c-.347.857-.599 1.75-.751 2.661-.14.877-.379 1.735-.71 2.559l3.029 1.254-1.568-6.474z" fill="#4C4981" fill-rule="nonzero"/><path d="M96.602 144.257c-.347.857-.599 1.75-.751 2.661-.14.877-.379 1.735-.71 2.559l3.029 1.254-1.568-6.474z" fill="#000" fill-rule="nonzero" opacity=".05"/><path d="M120.635 210.19l-.249.532s-.275 1.775-.275 1.816c0 .04-.78 1.225-.78 1.225l-1.971.418-.837-.1a11.83 11.83 0 0 0-.222-1.461c-.032-.135-.064-.272-.102-.412a10.854 10.854 0 0 0-1.374-3.117s-1.462-3.606-1.983-4.073c-.52-.468-2.506-5.223-2.298-6.369.114-.634.023-2.743-.08-4.503-.084-1.435-.18-2.631-.18-2.631l4.97-2.924.585.912.345.54s0 .106-.02.276v.064a9.035 9.035 0 0 1-.442 2.167s-.374 2.663 0 3.134c.374.471 1.55 6.752 1.813 9.65 0 .09.018.178.023.262.103 1.334.93 2.524 1.755 3.395.052.059.111.114.167.17.361.368.747.712 1.155 1.03z" fill="#D38884" fill-rule="nonzero"/><path d="M116.523 214.082l.837.1 1.97-.419s.781-1.187.781-1.225c0-.038.275-1.816.275-1.816l.249-.532.032-.064c-.48-.337-.935-.71-1.357-1.117l-.137-.135s.292 1.725-1.22 2.497c-.728.375-1.324.661-1.754.86l.324 1.85z" fill="#000" fill-rule="nonzero" opacity=".1"/><path d="M120.98 210.439l-.293.584s-.272 1.772-.272 1.813c0 .041-.783 1.225-.783 1.225l-1.971.419-1.132-.135c0-.228-.038-.55-.096-.941-.035-.24-.082-.503-.144-.784a53.287 53.287 0 0 0 1.957-.96c1.5-.768 1.219-2.496 1.219-2.496.325.325.668.63 1.03.915.218.175.385.29.485.36z" fill="#CEDDF9" fill-rule="nonzero"/><path d="M120.98 210.439l-.293.584s-.272 1.772-.272 1.813c0 .041-.783 1.225-.783 1.225l-1.971.419-1.132-.135c0-.228-.038-.55-.096-.941.241.008.481.04.716.096 0 0 2.693.585 2.819-1.553.076-1.21.327-1.684.526-1.868.22.175.386.29.486.36z" fill="#000" fill-rule="nonzero" opacity=".1"/><path d="M120.784 210.298s-.673-.149-.802 1.977c-.128 2.126-2.821 1.555-2.821 1.555s-1.319-.327-1.33.22c.045.502.165.994.353 1.462 0 0 .076 1.266.325 1.567.248.301.09 1.421.09 1.421s.106.836 2.182 0c0 0 1.856-.38 3.394-2.687.05-.08-.184-.316 1.17-.798 1.354-.483 5.196-3.576 4.895-5.091a1.28 1.28 0 0 0-.913-1.085 1.576 1.576 0 0 0-1.201.161c-.364.196-.739.37-1.123.52a5.556 5.556 0 0 1-1.605.384 6.017 6.017 0 0 0-1.243.236c-.462.152-1.041.275-1.371.158z" fill="#CC8294" fill-rule="nonzero"/><path d="M105.558 195.67a3.67 3.67 0 0 0-.754.877c-.763 1.17-1.216 2.78-1.734 3.476-.664.904-.842 2.664-.842 2.664-.175 1.17-2.632 7.31-3.29 8.421-.657 1.111-1.587 4.067-1.587 4.067-.564.708-.53 1.755-.474 2.258 0 .087.02.158.03.204l.014.082-.015.03-.906 1.538-2.88-.398-1.488-1.015c.123-.196.232-.401.324-.614.795-1.775 1.363-4.944 1.363-4.944s.8-3.623.742-4.465c-.058-.842.234-3.447.234-3.447s2.252-6.927 2.962-8.065c.302-.443.489-.955.544-1.488a1.28 1.28 0 0 0-.014-.325l.973-.968s8.05 1.117 6.798 2.112z" fill="#D38884" fill-rule="nonzero"/><path d="M96.924 217.406s0 .088-.015.231v.112l-.906 1.538-2.88-.398-1.488-1.015c.123-.196.232-.401.324-.614.722-.204 2.38.38 2.38.38s1.79.342 2.541-.207l.044-.027z" fill="#000" fill-rule="nonzero" opacity=".1"/><path d="M96.22 221.515l-2.925.71-2.67-1.982.138-1.114c.188-.121.355-.273.494-.448.195-.232.328-.51.386-.807.158-.818 2.705.08 2.705.08s1.86.353 2.585-.235a4.582 4.582 0 0 0 .125 1.6c.07.255.22.48.43.64.74.53-1.269 1.556-1.269 1.556z" fill="#CEDDF9" fill-rule="nonzero"/><path d="M96.22 221.515l-2.925.71-2.67-1.982.138-1.114c.188-.121.355-.273.494-.448h.585c.45.041 1.506 1.962 1.506 1.962 2.652.176 3.441-.69 3.722-1.327.069.255.22.48.43.64.728.532-1.28 1.559-1.28 1.559z" fill="#000" fill-rule="nonzero" opacity=".1"/><path d="M93.34 220.968s-1.056-1.918-1.507-1.956a9.614 9.614 0 0 0-1.137 0s-1.17 2.78-1.605 3.035c-.436.254-1.056 1.564-1.056 1.564s3.1 2.997 6.1 2.433a6.17 6.17 0 0 1 2.745.684c1.392.725 7.187.176 7.895-1.096.53-.954.737-1.65.272-2.158a1.246 1.246 0 0 0-1.09-.369c-.729.1-2.366.08-3.802-1.684 0 0-2.632-2.421-2.86-2.424-.228-.003.176 2.246-3.956 1.97z" fill="#CC8294" fill-rule="nonzero"/><path d="M116.17 190.371l-.024.027c-.178.196-1.462 1.596-1.842 1.698-.642.243-1.27.52-1.88.834 0 0-.784 1.044-1.41 1.096a2.313 2.313 0 0 0-.55.147 137.255 137.255 0 0 0-.18-2.632l4.97-2.924.585.912c.132.369.278.708.325.816l.006.026z" fill="#000" fill-rule="nonzero" opacity=".1"/><path d="M98.117 170.196s-1.933 2.515 0 5.848c1.933 3.333 3.968 5.014 3.968 5.014l6.579 13.626s1.722-.938 2.339-.991c.617-.053 1.41-1.097 1.41-1.097.61-.313 1.238-.592 1.88-.836.418-.105 1.865-1.722 1.865-1.722s-.716-1.567-.562-1.985c.155-.418-.47-1.462-.47-1.462a8.658 8.658 0 0 1-.415-1.617c0-.418-.682-1.41-.682-1.41s-.678-1.046-.678-1.62c0-.573-.991-2.818-.991-2.818l-.26-9.921-13.983.99z" fill="#CEDDF9" fill-rule="nonzero"/><path d="M116.17 190.047s-1.448 1.617-1.866 1.722c-.641.243-1.269.521-1.88.833 0 0-.784 1.047-1.41 1.097a5.14 5.14 0 0 0-1.283.462c-.561.257-1.064.532-1.064.532l-6.58-13.626a14.295 14.295 0 0 1-1.599-1.64 22.368 22.368 0 0 1-2.371-3.383 5.646 5.646 0 0 1-.749-4.062 4.678 4.678 0 0 1 .749-1.792l4.678-.33 9.313-.655.08 2.924.18 6.985s.155.35.343.813c.292.705.652 1.66.652 2.009 0 .584.675 1.62.675 1.62s.681.99.681 1.409c.087.552.226 1.094.416 1.62 0 0 .625 1.04.47 1.462-.155.42.565 2 .565 2z" fill="#000" fill-rule="nonzero" opacity=".05"/><path d="M105.558 195.67a3.67 3.67 0 0 0-.754.877c-2.842.204-6.14-1.28-7-1.69a1.28 1.28 0 0 0-.015-.325l.974-.968s8.047 1.111 6.795 2.106z" fill="#000" fill-rule="nonzero" opacity=".1"/><path d="M113.939 173.287s-.419 1.462-.585 2.087c-.167.626-.471 3.708-.471 3.708l-.181.877-2.971 14.214-.65 3.09c-1.148.629-4.02-1.044-4.02-1.044-3.342.366-7.467-1.775-7.467-1.775s.68-2.193.523-3.289c-.158-1.097.941-1.985.941-1.985-.26-.992.676-5.325.676-5.325s.21-1.617.994-2.047c.784-.43-.105-1.044-.316-1.41-.102-.177-.026-.584.076-.958.103-.374.24-.71.24-.71-1.991-1.989-2.298-5.103-2.301-6.831-.005-.42.014-.842.055-1.26l4.316-.758 9.415-1.646.96 2.956.242.743.524 1.363z" fill="#CEDDF9" fill-rule="nonzero"/><path d="M113.053 133.354c-.202.42-.347.864-.433 1.321-.026.117-.05.237-.08.363-.908.585-1.461.585-2.63.585-.404 0-.626-.766-1.004-.842 0 0-.57-2.047-.73-.325-1.094-.225-2.047.632-2.813-.114v-.015-.292c.02-.647-.012-1.294-.094-1.936 0 0 3.04-.017 5.333.246 1.541.17 2.743.474 2.45 1.009z" fill="#000" fill-rule="nonzero" opacity=".1"/><path d="M115.208 129.845a5.819 5.819 0 0 1-6.989 5.699 5.819 5.819 0 1 1 6.989-5.699z" fill="#D38884" fill-rule="nonzero"/><path d="M112.02 138.97c-.043.486-.064.796-.064.796s-9.357-.626-7.73-2.193c.416-.434.711-.969.856-1.553l4.053.664s1.146.877 2.046 1.722a3.6 3.6 0 0 0 .84.565zM113.415 172.243c-.41.054-.827.022-1.225-.094a2.187 2.187 0 0 1-.497-.22c-.784-.467-3.395.109-3.395.109s-7.102.468-7.415 0c-.178-.269-1.427-.231-2.456-.15-.415.036-.798.077-1.059.106a4.678 4.678 0 0 1 .749-1.792l4.678-.33 9.416-1.647.959 2.956c.114.608.245 1.062.245 1.062z" fill="#000" fill-rule="nonzero" opacity=".1"/><path d="M109.135 136.997l-5.097-.833c-.181.405-.532.71-.96.833-.68.158-3.707 1.725-5.066 3.605l-1.357 1.878s-1.097 1.36-.731 2.456c.365 1.096.784 4.792.784 4.792l.523 4.123s.991 2.976.678 4.28c-.313 1.305.155 6.79.155 6.79l-1.044 6.787s3.55-.471 3.866 0c.316.47 7.412 0 7.412 0s2.611-.585 3.395-.106c.526.285 1.13.396 1.722.316 0 0-.626-2.143-.26-3.342.365-1.199.26-3.395.26-3.395s.524-3.184.26-3.76c-.263-.576.585-2.66.585-2.66l2.766-14.568s-.333-2.611-1.813-3.509c-1.48-.897-3.146-1.149-4.035-1.982-.889-.834-2.043-1.705-2.043-1.705z" fill="#4C4981" fill-rule="nonzero"/><path d="M111.482 151.357v1.722l1.612 4.333.584 4.02s1.047 2.875 1.047 3.866c0 .991 2.559 5.796 2.559 5.796s.696 1.617.348 1.932c-.348.316-3.378 7.205.432 6.994 3.81-.21 2.611-7.412 2.611-7.412l-.517-3.134s-.731-7.83-.731-8.407c0 0-.942-3.339-1.044-4.07-.102-.73-.784-4.439-.784-4.439l-.584-2.403-5.533 1.202z" fill="#D38884" fill-rule="nonzero"/><path fill="#000" fill-rule="nonzero" opacity=".1" d="M109.667 156.787l-5.676 3.251-1.763 2.66 2.348-2.388zM107.947 163.015s-2.584 1.68-3.8 1.68c-1.217 0-4.036 2.899-4.036 2.899s3.994-2.58 4.307-2.503c.313.076 3.53-2.076 3.53-2.076zM101.327 163.915s-2.426 2.193-1.8 2.427c.625.234 3.877-2.427 3.877-2.427h-2.077zM112.058 156.082s-1.88 2.547-1.37 2.506c.508-.041 1.958-1.489 1.958-1.489l-.588-1.017zM112.333 158.588s-2.046 2.31-1.959 2.897c.088.588 1.96-2.897 1.96-2.897zM112.848 159.743s-1.371 2.447-.784 2.956c.588.509.784-2.956.784-2.956zM111.094 153.46s-1.018 1.721-.275 1.838c.742.117.818 0 .818 0l-.543-1.839zM111.354 147.155a18.02 18.02 0 0 1-1.044 3.073 13.573 13.573 0 0 1-.406-1.54c.431-.558.917-1.071 1.45-1.533zM114.462 126.982c-.103.22-.236.425-.395.609a4.41 4.41 0 0 0-.707.81c-.22.418-.182.918-.255 1.386-.073.467-.371.98-.839.994a1.79 1.79 0 0 1-.69-.205.699.699 0 0 0-.687.02.775.775 0 0 0-.22.518 6.842 6.842 0 0 0-.067 1.222c0 .164 0 .322.027.486.05.523.155 1.087-.094 1.552a1.86 1.86 0 0 1-.965.775 5.76 5.76 0 0 1-1.354.38c-.885.109-1.779.138-2.67.088a.731.731 0 0 1-.236-.038.345.345 0 0 1-.102-.067 8.79 8.79 0 0 0 .157-1.486 5.816 5.816 0 1 1 9.1-7.044h-.003z"/><path d="M112.026 122.044c-.532-.056-1.035.23-1.561.345-1.082.24-2.19-.254-3.301-.249a6.056 6.056 0 0 0-2.714.81 6.547 6.547 0 0 0-1.813 1.266 2.947 2.947 0 0 0-.86 1.992c0 .432.127.877-.04 1.28a3.836 3.836 0 0 1-.395.606c-.28.445-.348.993-.184 1.494.17.508.561.91.892 1.333.713.921 1.17 2.018 1.804 2.991.279.424.593.823.938 1.193.056.067.125.121.202.161a.65.65 0 0 0 .237.038c1.363.038 2.775.067 4.026-.468.4-.141.74-.414.965-.775.246-.465.146-1.029.097-1.555a7.102 7.102 0 0 1 .038-1.708.775.775 0 0 1 .219-.514.699.699 0 0 1 .687-.02c.213.113.447.183.687.204.471-.015.766-.53.842-.997.076-.468.033-.965.255-1.383.202-.298.44-.57.707-.81.653-.833.87-1.926.585-2.945-.286-.97-1.234-2.181-2.313-2.29z" fill="#1E1637" fill-rule="nonzero"/><circle fill="#FFD2C6" fill-rule="nonzero" cx="139.313" cy="133.213" r="5.053"/><path d="M136.845 135.322s.354 4.783-.626 5.88c-.98 1.096-3.508 3.172-3.508 3.172l.783 3.249 4.424.509 5.17-5.52-1.17-1.448s-.9-3.056-.158-4.582c.743-1.526-4.915-1.26-4.915-1.26z" fill="#FFD2C6" fill-rule="nonzero"/><path d="M147.535 145.83l-.272.419-1.564-.433-1.097-4.094.065-1.19.321-.465s1.725.041 1.65 1.608c-.074 1.375.713 3.635.897 4.155zM150.942 168.497s-1.246.278-2.673.465-3.076.292-3.749-.114c-1.134-.67-7.277-.48-9.04-.41h-.293l.456-1.675h12.179l.149.72 1.73.099.99.22.25.695z" fill="#000" fill-rule="nonzero" opacity=".1"/><path d="M144.678 140.371s1.723.038 1.644 1.606c-.08 1.567.941 4.269.941 4.269l-.392.9s-.55 2.193-.117 2.74c.433.547 1.997.55 1.097 5.053 0 0-.196 3.365.275 4.462.47 1.096.468 3.722 1.17 4.818.701 1.097 1.648 3.638 1.648 3.638s-5.09 1.137-6.432.354c-1.342-.784-9.515-.392-9.515-.392s.038-1.372 0-1.527a1.29 1.29 0 0 1 .196-1c.275-.37.705-.997.47-1.546-.233-.55.586-1.354.156-2.205-.43-.85-.956-1.018-.851-1.483.105-.464-.167-1.09-.48-1.482-.313-.392-2.43-4.53-2.43-4.53l-.35-1.932s-2.726-1.997-2.676-2.924c.05-.927 1.03-2.243 1.03-2.243l2.631-2.573s1.462 1.565 2.857 1.018c1.394-.547 4.438-3.173 4.438-3.173s1.085-.584 1.17-1.017c.085-.433.743-.038.743-.038s.98-.538 1.17-.348c.19.19 1.055.348 1.055.348l.552-.793z" fill="#FFCDE5" fill-rule="nonzero"/><path d="M129.874 148.538l-.833.652s-.848 1.526-1.044 4.27c-.196 2.742-1.058 6.61-1.058 6.61l-1.644 2.945s-2.704 5.672-3.055 7.18c-.351 1.51-1.96 4.056-1.96 4.056s-5.44 4.892-1.643 5.775c3.799.883 3.916-3.894 3.916-3.894s.877-.98 1.029-1.644c.152-.663 4.97-9.184 4.97-9.184s1.685-2.29 1.331-3.509c0 0 2.193-5.155 2.193-6.432a22.915 22.915 0 0 0-.35-3.217l.35-2.702-2.202-.906z" fill="#FFD2C6" fill-rule="nonzero"/><path d="M141.155 159.333s-3.84 2.01-4.582 2.114c-.743.106 3.249-.43 3.249-.43l1.333-1.684zM144.287 160.898s-5.091 1.725-7.31 1.412c-.012-.009 5.546 1.055 7.31-1.412z" fill="#000" fill-rule="nonzero" opacity=".1"/><path d="M144.6 161.462s-4.582 2.883-7.284 2.412c0 0 6.304 1.255 7.283.585l-2.804-.78s3.117-1.656 2.804-2.217zM139.319 124.325c-1.322-.267-2.793-.106-3.854.73-.784.618-1.304 1.559-2.19 2.021-.467.196-.946.364-1.433.503a4.135 4.135 0 0 0-2.52 4.447c.137.775.5 1.492.68 2.26.32 1.366.039 2.796-.309 4.156a43.827 43.827 0 0 1-4.35 10.795 1.15 1.15 0 0 0-.217.725c.046.175.137.335.266.462 1.813 2.094 4.757 2.81 7.52 2.906 1.02.033 2.085 0 2.983-.497.58-.33 1.08-.785 1.462-1.333a7.061 7.061 0 0 0 1.348-4.55c-.073-1.313-.515-2.631-.185-3.912.037-.177.119-.343.237-.48.293-.292.793-.225 1.214-.274 1.152-.132 1.892-1.345 2.029-2.495.137-1.149-.15-2.304-.158-3.462a7.251 7.251 0 0 1 1.366-4.26c.383-.529.877-1.044 1-1.704.16-.828-.316-1.433-.728-2.085-.644-1.018-.957-2.202-1.936-2.977a5.213 5.213 0 0 0-2.225-.976z" fill="#000" fill-rule="nonzero" opacity=".1"/><path d="M139.006 124.012c-1.322-.266-2.793-.106-3.854.73-.784.618-1.307 1.56-2.19 2.021-.467.196-.946.364-1.433.503a4.135 4.135 0 0 0-2.52 4.447c.137.775.5 1.492.681 2.26.319 1.366.038 2.796-.31 4.156a43.828 43.828 0 0 1-4.35 10.795c-.154.21-.23.466-.217.725.046.175.138.334.266.462 1.81 2.09 4.757 2.81 7.52 2.904 1.018.035 2.085 0 2.98-.495a4.462 4.462 0 0 0 1.462-1.333 7.061 7.061 0 0 0 1.348-4.55c-.073-1.312-.515-2.631-.184-3.912a1.03 1.03 0 0 1 .237-.48c.292-.292.792-.225 1.213-.274 1.15-.132 1.892-1.345 2.03-2.494.137-1.15-.15-2.304-.159-3.462a7.251 7.251 0 0 1 1.366-4.26c.383-.53.877-1.044 1-1.705.16-.828-.316-1.433-.728-2.088-.644-1.015-.956-2.202-1.936-2.974a5.213 5.213 0 0 0-2.222-.976z" fill="#985C7E" fill-rule="nonzero"/><path d="M117.62 146.804c-.21.833 0 2.14 0 2.14-.053.585 0 3.758 0 3.758-1.722-.524-6.108.523-6.108.523l-.524-1.567a3.801 3.801 0 0 1-.652-1.287 13.573 13.573 0 0 1-.412-1.52 32.26 32.26 0 0 1-.515-3.28c-.216-1.662 2.252-3.445 4.12-4.44 1.869-.994 3.509 3.237 3.509 3.237s.78 1.609.582 2.436z" fill="#000" fill-rule="nonzero" opacity=".1"/><path d="M117.62 146.512c-.21.833 0 2.137 0 2.137-.053.585 0 3.76 0 3.76-1.722-.523-6.108.524-6.108.524l-.524-1.568a3.801 3.801 0 0 1-.652-1.286 13.573 13.573 0 0 1-.406-1.541 32.26 32.26 0 0 1-.515-3.28c-.216-1.662 2.252-3.445 4.12-4.44 1.869-.993 3.509 3.238 3.509 3.238s.775 1.608.576 2.456z" fill="#4C4981" fill-rule="nonzero"/><path d="M137.316 172.974s1.006 4.699 2.675 5.976l-2.675-5.976z" fill="#000" fill-rule="nonzero" opacity=".1"/><path d="M114.31 124.333a3.509 3.509 0 0 0-.386-.839c.03.073.053.143.073.214a3.327 3.327 0 0 1-.585 2.944c-.268.24-.505.512-.707.81-.223.415-.179.918-.255 1.383-.076.465-.368.98-.842.997a1.842 1.842 0 0 1-.687-.205.699.699 0 0 0-.687.02.769.769 0 0 0-.22.516 7.254 7.254 0 0 0-.037 1.707c.05.526.149 1.088-.097 1.556-.224.36-.564.632-.965.772-1.251.538-2.664.505-4.023.467a.605.605 0 0 1-.24-.035.66.66 0 0 1-.199-.16 8.98 8.98 0 0 1-.941-1.193c-.64-.974-1.09-2.07-1.804-2.992-.196-.254-.413-.497-.585-.76 0 .018 0 .035.014.053.173.508.562.91.892 1.333.714.921 1.17 2.018 1.804 2.991.28.424.594.824.942 1.193a.62.62 0 0 0 .199.161c.077.027.158.04.24.038 1.36.038 2.771.067 4.023-.468.401-.14.743-.414.968-.775.245-.465.143-1.029.093-1.555a7.257 7.257 0 0 1 .038-1.708.775.775 0 0 1 .22-.514.705.705 0 0 1 .69-.02c.211.114.444.183.684.204.474-.015.769-.53.842-.997.073-.468.035-.965.254-1.383.203-.297.44-.57.708-.81.65-.834.863-1.927.576-2.945z" fill="#000" fill-rule="nonzero" opacity=".2"/><g opacity=".1" fill="#000" fill-rule="nonzero"><path d="M129.429 132.769a6.9 6.9 0 0 0-.3-.55c.09.182.195.366.3.55zM143.59 128.675c.014.149.007.298-.02.445-.128.66-.617 1.17-1 1.705a7.266 7.266 0 0 0-1.36 4.251c0 1.155.293 2.313.158 3.462-.134 1.15-.877 2.36-2.029 2.494-.42.05-.918-.032-1.216.272a1.07 1.07 0 0 0-.234.48c-.33 1.272.108 2.602.184 3.915a7.056 7.056 0 0 1-1.348 4.547 4.503 4.503 0 0 1-1.462 1.336c-.895.485-1.947.53-2.976.485-2.72-.093-5.612-.792-7.427-2.807a.708.708 0 0 0-.047.38c.046.175.138.334.266.462 1.81 2.091 4.757 2.81 7.52 2.904 1.018.035 2.085 0 2.98-.494a4.462 4.462 0 0 0 1.462-1.334 7.061 7.061 0 0 0 1.348-4.55c-.073-1.312-.515-2.63-.184-3.912a1.03 1.03 0 0 1 .237-.48c.292-.292.792-.224 1.213-.274 1.15-.132 1.892-1.345 2.03-2.494.137-1.15-.15-2.304-.159-3.462a7.251 7.251 0 0 1 1.366-4.26c.383-.53.877-1.044 1-1.705a1.95 1.95 0 0 0-.301-1.366z"/></g><path d="M38.594 213.07s-10.904 5.632-5.264 12.28c0 0 .533 1.463 2.065 1.34 0 0-.307-.558.877-1.003a5.722 5.722 0 0 0 1.17-.626 2.775 2.775 0 0 0 1.055-1.409s2.231-2.985.503-8.509c0 0 .222-1.561.026-1.813l-1.324 1.807s1.371.919 1.526 2.27c0 0-1.427-2.267-1.734-2.01-.064.053-.66.995-.66.995s2.374 1.61 2.552 3.702c0 0-1.34-2.924-2.78-3.348l-.817 1.462s2.594 1.579 2.886 3.953c0 0-1.505-3.012-3.043-3.62l-.609 1.558s2.5 1.591 2.731 3.568c0 0-2.09-3.304-2.845-3.202 0 0-.47 1.462-.406 1.915 0 0 1.754 1.17 1.798 2.34 0 0-1.631-2.047-1.883-1.925 0 0-.105 2.07.398 3.15 0 0-.857-1.539-.722-3.15a3.462 3.462 0 0 0-1.047 1.685s-.471-1.14 1.079-2.188c0 0 .146-1.61.324-1.81 0 0-1.675.816-2.386 1.822 0 0 .263-1.497 2.532-2.24l.585-1.579s-2.269.962-2.968 1.81c0 0 .503-1.485 3.147-2.196l.786-1.462s-2.02.679-3.003 1.462c0 0 .763-1.274 3.243-1.862l.637-.91s-1.462.524-1.871.711c-.41.187-.491.094-.491.094a5.287 5.287 0 0 1 2.631-1.19s1.404-1.764 1.302-1.872zM222.991 205.485s-10.906 5.635-5.263 12.281c0 0 .53 1.462 2.064 1.34 0 0-.307-.56.878-1.004a5.722 5.722 0 0 0 1.17-.625c.496-.344.866-.84 1.055-1.413 0 0 2.23-2.982.503-8.506 0 0 .222-1.56.026-1.812l-1.325 1.815s1.372.921 1.527 2.272c0 0-1.427-2.266-1.737-2.008-.062.052-.658.994-.658.994s2.374 1.608 2.553 3.701c0 0-1.34-2.924-2.784-3.347l-.842 1.467s2.593 1.58 2.889 3.954c0 0-1.506-3.015-3.044-3.62l-.608 1.558s2.5 1.59 2.73 3.567c0 0-2.093-3.307-2.844-3.216 0 0-.471 1.462-.41 1.915 0 0 1.77 1.17 1.802 2.34 0 0-1.632-2.062-1.884-1.925 0 0-.105 2.07.398 3.147 0 0-.86-1.535-.722-3.147a3.462 3.462 0 0 0-1.047 1.685s-.47-1.14 1.08-2.187c0 0 .145-1.612.324-1.81 0 0-1.676.815-2.386 1.821 0 0 .26-1.497 2.532-2.24l.585-1.578s-2.27.961-2.968 1.81c0 0 .503-1.486 3.146-2.196l.784-1.462s-2.018.678-3 1.462c0 0 .763-1.278 3.242-1.863l.638-.91s-1.462.524-1.872.711c-.409.187-.49.094-.49.094a5.263 5.263 0 0 1 2.63-1.19s1.419-1.784 1.328-1.875zM269.316 210.41s-10.907 5.634-5.263 12.28c0 0 .529 1.462 2.064 1.34 0 0-.292-.56.877-1.007a5.658 5.658 0 0 0 1.17-.625 2.763 2.763 0 0 0 1.055-1.41s2.231-2.985.5-8.506c0 0 .225-1.56.03-1.812l-1.345 1.807s1.368.92 1.526 2.269c0 0-1.427-2.266-1.737-2.01-.061.053-.658.995-.658.995s2.374 1.611 2.553 3.702c0 0-1.34-2.924-2.784-3.345l-.816 1.462s2.594 1.579 2.886 3.953c0 0-1.506-3.012-3.04-3.617l-.609 1.558s2.5 1.588 2.731 3.565c0 0-2.093-3.304-2.845-3.2 0 0-.47 1.463-.41 1.913 0 0 1.755 1.184 1.802 2.34 0 0-1.632-2.062-1.883-1.927 0 0-.105 2.073.398 3.149 0 0-.86-1.538-.723-3.15a3.456 3.456 0 0 0-1.046 1.685s-.471-1.14 1.078-2.184c0 0 .147-1.612.322-1.81 0 0-1.672.815-2.383 1.818 0 0 .26-1.494 2.53-2.237l.584-1.579s-2.269.962-2.97 1.81c0 0 .502-1.485 3.148-2.198l.784-1.462s-2.017.68-3 1.462c0 0 .763-1.275 3.243-1.86l.637-.912s-1.462.523-1.874.713c-.412.19-.491.094-.491.094a5.263 5.263 0 0 1 2.631-1.193s1.427-1.775 1.328-1.872z" fill="#FF925D" fill-rule="nonzero"/><path d="M349.69 245.03h.5"/></g><g fill="#FFF5EF"><path d="M67.845 315.345l-5.045-3.116c5.012-8.123-6.955-43.692-17.108-61.713-7.09-12.525-11.395-23.813-13.256-34.58-2.977-17.14.633-31.806 10.728-43.646 20.968-24.505-7.741-70.61-7.744-71.1l5.914.118C41.3 103.365 70.007 150 47.676 176.13c-14.832 17.383-13.757 41.425 3.167 71.49 7.97 14.18 24.75 55.12 17.002 67.725z"/><path d="M131.29 59.244c2.7-48.098-27.72-88.796-68.096-91.005-40.378-2.209-75.19 35.075-77.888 83.173-2.669 46.673 26.052 86.47 64.62 90.704a25.676 25.676 0 0 1-6.366 13.02c-6.017 5.832 18.422.98 18.422.98a43.38 43.38 0 0 1-2.23-13.683c37.62-1.786 68.984-37.638 71.538-83.189zM129.032 272.52l-19.751 92.924-76.296-16.218a3 3 0 0 1-2.31-3.558l18.504-87.055a3 3 0 0 1 3.558-2.31l76.295 16.217zm1.957.415l1.956.416a3 3 0 0 1 2.31 3.558l-18.504 87.056a3 3 0 0 1-3.558 2.31l-1.956-.416 19.752-92.924zm-41.71 37.04c-.267-2.02-2.413-2.758-4.092-3.905-1.845-1.26-3.882-2.7-5.727-3.935-.543-.274-1.087-.551-1.63-.826-.589-.606-.936-2.278-1.142-3.118-.355-.129-.71-.259-1.066-.386.308-1.166 1.068-1.07 1.554-1.908.428-.738.415-1.818.981-2.465.394-.45 1.04-.317 1.454-.685.376-.335.716-.986.91-1.453.354-.853.758-2.038.512-3.01-.141-.56-.288-.642-.227-1.271.075-.763.901-3.125 1.024-3.648.322-1.355.311-1.473.255-2.872 0 0-.156-1.289-.723-1.789l-1.239-.489-.641-.885c-2.79-2.597-6.506-1.98-8.496-1.646-2.825.273-5.035 2.443-5.013 8.084.004.962-.8 1.222-.861 1.734-.131 1.122-.671 3.768.256 4.646.087.081.804.426.81.376a3799.47 3799.47 0 0 0-.368 3.276c.114.769.736.982.708 2.027l-.857.02c-.53.683-1.529 2.07-2.312 2.384-.609.03-1.218.062-1.825.091-2.188.379-4.635.865-6.832 1.266-2.001.365-4.261.166-5.327 1.904-.27 1.276-1.035 4.265-1.357 5.945l17.597 3.74 3.12-8.32-.606-2.437 2.726-.631 1.847 1.578-1.633 2.029.216 8.986L88.1 315.96c.39-1.666.907-4.707 1.178-5.983zm9.955-22.32l-1.455 6.847 16.628 3.534 1.456-6.847-16.629-3.534zm-2.287 10.76l-1.455 6.847 16.628 3.534 1.456-6.847-16.629-3.534zm-2.287 10.76l-1.455 6.846 16.628 3.535 1.456-6.847-16.629-3.535zm-48.113 5.107l-1.456 6.848 62.602 13.306 1.455-6.847-62.601-13.307zm-2.287 10.76l-1.456 6.847 62.602 13.306 1.455-6.847-62.601-13.306zm-2.08 9.782l-1.455 6.847 29.345 6.237 1.455-6.847-29.344-6.237z"/></g></g></svg>