<svg width="24" height="24" xmlns="http://www.w3.org/2000/svg"><path d="M12.627 15.91a.638.638 0 0 0-.627-.645.638.638 0 0 0-.627.644v4.123c-3.83-.312-6.89-3.457-7.197-7.388H7.91c.344 0 .627-.29.627-.644a.638.638 0 0 0-.627-.644H4.176c.304-3.931 3.368-7.073 7.197-7.388v4.123c0 .354.282.644.627.644.345 0 .627-.29.627-.644V3.968c3.83.312 6.89 3.457 7.197 7.388h-3.731a.638.638 0 0 0-.627.644c0 .354.282.644.627.644h3.733c-.306 3.93-3.37 7.076-7.199 7.388v-4.123zm8.456-4.554c-.309-4.643-3.935-8.363-8.456-8.68V1.644A.638.638 0 0 0 12 1a.638.638 0 0 0-.627.644v1.032c-4.521.317-8.147 4.039-8.456 8.68h-1.29A.638.638 0 0 0 1 12c0 .354.282.644.627.644h1.29c.309 4.641 3.935 8.363 8.456 8.68v1.032c0 .354.282.644.627.644.345 0 .627-.29.627-.644v-1.032c4.521-.317 8.147-4.039 8.456-8.68h1.29c.345 0 .627-.29.627-.644a.638.638 0 0 0-.627-.644h-1.29z" fill="#D2D5DB" fill-rule="nonzero" stroke="#BABABA" stroke-width=".1"/></svg>