<svg width="38" height="37" xmlns="http://www.w3.org/2000/svg"><g fill="#0A1735" fill-rule="evenodd"><path d="M22.035 14.564h5.45V9.208h-5.45v5.356zm-.94 11.247H10.881c-1.359 0-2.378-1.02-2.378-2.379V7.633h1.532v15.984c0 .34.34.68.68.68h10.378v1.514zm6.201-18.178H22.2c-1.02 0-1.7.68-1.7 1.7v5.096c0 1.019.68 1.698 1.7 1.698h5.096c1.02 0 1.699-.68 1.699-1.698V9.332c0-1.02-.68-1.699-1.699-1.699z"/><path d="M22.032 26.803h5.443V21.42h-5.443v5.382zm5.27-6.938h-5.097c-1.019 0-1.698.68-1.698 1.699v5.096c0 1.02.68 1.699 1.698 1.699h5.097c1.02 0 1.699-.68 1.699-1.699v-5.096c0-1.02-.85-1.7-1.7-1.7zm-17.27-6.315h11.722v-1.5H10.033v1.5z"/></g></svg>