<svg width="24" height="29" xmlns="http://www.w3.org/2000/svg"><g fill="#7B7D80" fill-rule="nonzero"><path d="M17.111 20.658l1.878-1.878a9.72 9.72 0 0 0 2.859-6.901 9.726 9.726 0 0 0-2.859-6.903 9.726 9.726 0 0 0-6.903-2.859 9.721 9.721 0 0 0-6.901 2.859 9.727 9.727 0 0 0-2.86 6.903 9.726 9.726 0 0 0 2.86 6.902l6.902 6.902 5.024-5.025zM.625 11.878c0-3.08 1.222-5.968 3.358-8.104A11.42 11.42 0 0 1 12.086.417c3.081 0 5.97 1.222 8.105 3.357a11.426 11.426 0 0 1 3.357 8.105c0 3.08-1.222 5.97-3.356 8.102l-1.879 1.88-5.625 5.625-.6.602-8.106-8.105a11.426 11.426 0 0 1-3.357-8.104z"/><path d="M17.697 10.92a5.588 5.588 0 0 1-1.643 3.966 5.589 5.589 0 0 1-3.967 1.644 5.588 5.588 0 0 1-3.966-1.643 5.589 5.589 0 0 1-1.644-3.967c0-1.509.599-2.924 1.643-3.966a5.589 5.589 0 0 1 3.967-1.644c1.508 0 2.923.598 3.966 1.643a5.589 5.589 0 0 1 1.644 3.967zM14.85 8.155a3.889 3.889 0 0 0-2.764-1.145 3.89 3.89 0 0 0-2.765 1.146 3.889 3.889 0 0 0-1.145 2.764 3.89 3.89 0 0 0 1.146 2.765 3.889 3.889 0 0 0 2.764 1.145 3.89 3.89 0 0 0 2.765-1.146 3.889 3.889 0 0 0 1.145-2.764 3.889 3.889 0 0 0-1.145-2.764l.6-.602-.601.6z"/></g></svg>