<svg width="44" height="44" xmlns="http://www.w3.org/2000/svg"><g fill="none" fill-rule="evenodd"><rect fill="#FF5955" fill-rule="nonzero" width="44" height="44" rx="4"/><path d="M35.18 12.42v23.44c0 .63-.525 1.14-1.173 1.14H9.367c-.648 0-1.173-.51-1.173-1.14V8.14c0-.63.525-1.14 1.173-1.14h20.24l5.573 5.42z" fill="#FFF"/><path fill="#FF5955" opacity=".2" d="M29.02 8.173l5.28 5.28h-5.28z"/><path d="M22.75 18.44A8.623 8.623 0 1 1 16.654 29a8.622 8.622 0 0 1 6.096-10.56" fill="#FF5955"/><path d="M23.038 19.51a7.514 7.514 0 1 1 3.886 14.516 7.514 7.514 0 0 1-3.886-14.516" fill="#FFF"/><path d="M30.598 25.508l.882-.236c.073.34.118.684.135 1.031h-.919a5.454 5.454 0 0 0-.098-.795zm-1.306-2.606l.643-.644c.229.257.437.531.623.82l-.788.456a5.72 5.72 0 0 0-.478-.632zm-2.437-1.615l.237-.879c.326.11.643.245.948.404l-.456.786a5.672 5.672 0 0 0-.729-.31zm-2.92-.179l-.236-.88c.338-.07.682-.112 1.027-.127v.91a5.58 5.58 0 0 0-.79.098zm-3.262.661c.257-.233.532-.444.823-.632l.458.795a5.546 5.546 0 0 0-.636.482l-.645-.645zm-.961 3.087l-.88-.236c.109-.327.243-.646.402-.952l.788.455c-.12.237-.224.482-.31.734zm-.18 2.914l-.882.236a6.694 6.694 0 0 1-.133-1.024h.919c.013.265.045.528.096.788zm1.308 2.613l-.645.644a6.937 6.937 0 0 1-.621-.82l.788-.456c.145.222.305.433.478.633z" fill="#FFAD9E"/><path fill="#FF5955" d="M24.322 23.43l1.705 1.752 2.467-.184-1.173 2.156.921 2.257-2.43-.42-1.894 1.58-.33-2.415-2.095-1.282 2.228-1.073.601-2.37"/><path d="M23.154 12.316c.323 0 .586.263.586.587v1.173a.587.587 0 0 1-.586.587h-11.44a.587.587 0 0 1-.587-.587v-1.173c0-.324.263-.587.587-.587h11.44zm5.866 6.107c.324 0 .587.263.587.587v1.173a.587.587 0 0 1-.587.587H11.714a.587.587 0 0 1-.587-.587V19.01c0-.324.263-.587.587-.587H29.02z" fill="#FF5955" opacity=".2"/></g></svg>