<svg width="44" height="44" xmlns="http://www.w3.org/2000/svg"><g fill="none" fill-rule="evenodd"><rect fill="#FCB105" fill-rule="nonzero" width="44" height="44" rx="4"/><path d="M32.159 35.04c-.518-.428-1.37-.438-1.902-.02l-.026.02-1.928 1.585c-.026.02-.044.045-.07.067h-.215a.785.785 0 0 0-.066-.067l-1.928-1.584c-.52-.43-1.375-.439-1.908-.02l-.024.02-1.927 1.584a.785.785 0 0 0-.066.067h-.216c-.026-.022-.044-.046-.07-.067l-1.927-1.584c-.518-.43-1.37-.439-1.902-.02-.01.006-.018.013-.026.02l-1.932 1.584a.915.915 0 0 0-.066.067h-.215c-.026-.022-.044-.046-.07-.067l-1.928-1.584c-.518-.43-1.37-.439-1.902-.02l-.026.02-1.726 1.415c-.372-.22-.592-.57-.593-.943V7.873c0-.652.655-1.18 1.463-1.18h22.074c.808 0 1.463.528 1.463 1.18v27.64c-.001.377-.227.731-.607.951l-1.734-1.423z" fill="#FFF"/><path d="M13.5 30.206h11.343a.5.5 0 0 0 .5-.5v-.467a.5.5 0 0 0-.5-.5H13.5a.5.5 0 0 0-.5.5v.467a.5.5 0 0 0 .5.5zm0-3.78h17a.5.5 0 0 0 .5-.5v-.467a.5.5 0 0 0-.5-.5h-17a.5.5 0 0 0-.5.5v.466a.5.5 0 0 0 .5.5z" fill="#FCB105" opacity=".4"/><path fill="#FCB105" d="M20.388 10.086h-3.523l1.91 3.89h-1.91v1.53h2.687l.716 1.595h-3.403v1.53h3.523v3.188h3.165v-3.188h3.582V17.1h-3.403l.716-1.595h2.687v-1.53h-1.91l1.91-3.89h-3.523L22.06 14.04z"/></g></svg>