<svg width="26" height="25" xmlns="http://www.w3.org/2000/svg"><g transform="translate(0 -1)" fill="none" fill-rule="evenodd"><path d="M2.786 3.412c-.667 0-1.207.54-1.207 1.208v17.642c0 .667.54 1.208 1.207 1.208h20.428c.667 0 1.207-.54 1.207-1.208V4.62c0-.667-.54-1.208-1.207-1.208H2.786zm0-1.578h20.428A2.786 2.786 0 0 1 26 4.62v17.642a2.786 2.786 0 0 1-2.786 2.786H2.786A2.786 2.786 0 0 1 0 22.262V4.62a2.786 2.786 0 0 1 2.786-2.786z" fill="#7B7D80" fill-rule="nonzero"/><circle fill="#A7A7A7" cx="10.077" cy="8.635" r="2.011"/><path d="M1.194 19.438l-1.063-1.29 5.576-4.6a2.229 2.229 0 0 1 2.796-.034l5.051 3.97c.197.154.472.16.673.012l10.114-7.38.985 1.351-10.114 7.38a2.229 2.229 0 0 1-2.69-.049l-5.052-3.97a.557.557 0 0 0-.699.008l-5.577 4.602z" fill="#7B7D80" fill-rule="nonzero"/></g></svg>