<svg width="44" height="44" xmlns="http://www.w3.org/2000/svg"><g fill="none" fill-rule="evenodd"><rect fill="#FCB105" fill-rule="nonzero" width="44" height="44" rx="4"/><path d="M11.056 8.8h22c.648 0 1.173.525 1.173 1.173v26.4c0 .648-.525 1.174-1.173 1.174h-22a1.173 1.173 0 0 1-1.174-1.174v-26.4c0-.648.526-1.173 1.174-1.173" fill="#FFF"/><path d="M15.881 7.917h12.643a.985.985 0 0 1 1.012.957v3.367a.988.988 0 0 1-1.012.962H15.88a.988.988 0 0 1-1.012-.962V8.876a.985.985 0 0 1 1.01-.959h.002" fill="#FCB105"/><path d="M16.922 7.333h10.56c.325 0 .587.263.587.587v3.227a.588.588 0 0 1-.587.586h-10.56a.588.588 0 0 1-.586-.586V7.92c0-.324.263-.587.586-.587" fill="#FFF"/><path d="M19.562 5.573h5.574c.324.001.585.263.586.587v2.347a.588.588 0 0 1-.586.586h-5.574a.588.588 0 0 1-.586-.586V6.16c0-.324.263-.586.586-.587" fill="#FFF"/><path d="M23.962 28.747v-.587c0-3.227 4.169-2.983 4.295-6.779.105-3.244-2.276-5.342-6.143-5.342-3.76 0-6.072 2.068-6.072 5.961h3.227c0-1.962 1.432-2.933 2.933-2.933 1.625 0 2.512.59 2.512 1.965 0 2.784-3.978 2.863-3.978 5.996v1.719h3.226zm-3.226 3.81h3.23v-2.933h-3.23v2.933z" fill="#FCB105" opacity=".8"/></g></svg>