<svg width="26" height="26" xmlns="http://www.w3.org/2000/svg"><g fill="#7B7D80" fill-rule="evenodd"><path d="M13 1.579C6.692 1.579 1.579 6.692 1.579 13c0 6.308 5.113 11.421 11.421 11.421 6.308 0 11.421-5.113 11.421-11.421 0-6.308-5.113-11.421-11.421-11.421zM13 0c7.18 0 13 5.82 13 13s-5.82 13-13 13S0 20.18 0 13 5.82 0 13 0z" fill-rule="nonzero"/><path d="M12.231 14.908a.957.957 0 0 1-.923-.961l.029-6.263a.9.9 0 0 1 .932-.896.957.957 0 0 1 .924.96l-.03 6.263a.9.9 0 0 1-.932.897z"/><path d="M11.504 13.54a.924.924 0 0 1 1.277-.292l6.035 3.816a.933.933 0 0 1 .293 1.283.924.924 0 0 1-1.277.291l-6.035-3.815a.933.933 0 0 1-.293-1.283z"/></g></svg>