<svg width="26" height="26" xmlns="http://www.w3.org/2000/svg"><g fill="#7B7D80" fill-rule="evenodd"><path d="M2.786 1.579c-.667 0-1.207.54-1.207 1.207v20.428c0 .667.54 1.207 1.207 1.207h20.428c.667 0 1.207-.54 1.207-1.207V2.786c0-.667-.54-1.207-1.207-1.207H2.786zm0-1.579h20.428A2.786 2.786 0 0 1 26 2.786v20.428A2.786 2.786 0 0 1 23.214 26H2.786A2.786 2.786 0 0 1 0 23.214V2.786A2.786 2.786 0 0 1 2.786 0z" fill-rule="nonzero"/><path d="M6.378 8.758h.98v7.956H6.056V10.33c-.479.435-1.08.758-1.816.97v-1.293c.357-.089.735-.245 1.136-.468a4.968 4.968 0 0 0 1.003-.78zm5.607-.156c.769 0 1.404.223 1.905.669.49.446.736 1.014.736 1.727 0 .69-.268 1.315-.78 1.883-.312.334-.87.758-1.65 1.282-.813.534-1.303 1.002-1.481 1.404h3.922v1.147h-5.55c0-.813.257-1.515.792-2.117.29-.334.903-.824 1.828-1.46.512-.356.869-.657 1.091-.891.346-.39.524-.813.524-1.26 0-.434-.122-.757-.345-.969-.234-.211-.58-.312-1.037-.312-.49 0-.857.168-1.103.502-.245.312-.378.791-.4 1.415H9.132c.01-.891.267-1.605.78-2.15.523-.58 1.214-.87 2.072-.87zm6.8 0c.801 0 1.459.19 1.95.58.478.39.723.925.723 1.615 0 .87-.445 1.449-1.326 1.739.468.145.836.356 1.081.646.268.3.401.69.401 1.159 0 .735-.256 1.337-.768 1.805-.535.48-1.237.724-2.107.724-.824 0-1.493-.211-1.994-.635-.557-.468-.87-1.159-.936-2.05h1.326c.022.512.178.914.49 1.192.279.256.646.39 1.103.39.502 0 .903-.145 1.193-.423.256-.257.39-.569.39-.947 0-.457-.145-.792-.413-1.003-.267-.223-.657-.323-1.17-.323h-.557v-.981h.557c.468 0 .825-.1 1.07-.3.234-.201.357-.502.357-.892s-.112-.68-.324-.88c-.233-.201-.579-.301-1.036-.301-.468 0-.824.111-1.08.345-.268.234-.424.59-.469 1.07h-1.281c.067-.803.357-1.427.891-1.872.502-.446 1.148-.658 1.928-.658z"/></g></svg>