<svg width="44" height="44" xmlns="http://www.w3.org/2000/svg"><g fill="none" fill-rule="evenodd"><rect fill="#FF3F3F" fill-rule="nonzero" width="44" height="44" rx="4"/><rect fill="#FF7738" fill-rule="nonzero" width="44" height="44" rx="4"/><g transform="translate(6 8.5)"><rect fill="#FFF" fill-rule="nonzero" y=".5" width="32" height="26" rx="2"/><path d="M9.532 14.957h-2.11c-.078-2.545 1.334-4.5 3.94-4.5 1.987 0 3.724 1.303 3.724 3.482 0 3.372-3.49 3.642-5.073 5.932h5.135v1.94H7.173c0-2.592 1.552-3.657 3.43-4.977.946-.684 2.28-1.352 2.28-2.72 0-1.066-.683-1.718-1.63-1.718-1.302 0-1.721 1.384-1.721 2.56zm10.42 1.685v-1.558c.96.077 2.343-.11 2.343-1.356 0-.935-.739-1.449-1.556-1.449-1.132 0-1.714.826-1.698 1.947h-2.123c.079-2.243 1.525-3.77 3.805-3.77 1.761 0 3.695 1.075 3.695 3.023 0 1.044-.52 1.932-1.541 2.228v.031c1.21.265 1.95 1.246 1.95 2.477 0 2.29-1.95 3.584-4.088 3.584-2.469 0-4.135-1.465-4.088-3.973h2.122c.048 1.184.645 2.15 1.934 2.15 1.006 0 1.793-.67 1.793-1.714 0-1.652-1.463-1.62-2.547-1.62z" fill="#FF7738" opacity=".8"/><path fill="#EE6F60" fill-rule="nonzero" opacity=".3" d="M0 5.26h32v1.5H0z"/></g><path d="M13.717 12.462a1 1 0 1 1 0-2 1 1 0 0 1 0 2zm16.566 0a1 1 0 1 1 0-2 1 1 0 0 1 0 2z" fill="#FFEFEE" fill-rule="nonzero"/></g></svg>