<svg width="44" height="44" xmlns="http://www.w3.org/2000/svg"><g fill="none" fill-rule="evenodd"><rect fill="#01CAC5" fill-rule="nonzero" width="44" height="44" rx="4"/><path d="M7.219 9.5h29.562c.673 0 1.219.64 1.219 1.429V33.07c0 .79-.546 1.429-1.219 1.429H7.219C6.546 34.5 6 33.86 6 33.071V10.93c0-.79.546-1.429 1.219-1.429z" fill="#FFF"/><path d="M15.287 29.146L12.7 24.663s1.37 1.438 2.655 1.438c1.301 0 2.52-1.438 2.52-1.438l-2.588 4.483zm-.224-14.13c-.49 0-.415.15-.679.187a4.212 4.212 0 0 0-.738.112c-.792.152-1.07 1.162-1.108 1.537-.038.375-.047 1.429-.022 1.989.075.337-.188.337-.188.337-.475-.03-.261 1.44-.261 1.44.068.361-.025.543.677.822a2.894 2.894 0 0 0 1.186 1.425s.042.608.055 1.042c-.071-.038.23 1.103-1.952 1.425-2.181.323-2.6 1.021-3.01 1.411-.412.39-.382 2.197-.382 2.197h14.047s-.089-1.804-.5-2.197c-.41-.393-.86-1.091-3.04-1.41-2.182-.32-1.795-1.432-1.81-1.5.004-.17.08-.891.08-.891.464-.418.82-.943 1.037-1.529.526-.331.727-.378.813-.76 0 0 .178-1.437-.387-1.437 0 0-.235.038-.16-.299.06-.587.065-1.178.012-1.766-.037-.372.073-1.446-.72-1.596-.54-.099-.602.054-.866.015-.264-.038-.577-.716-1.068-.716l-1.016.162z" fill="#01CAC5"/><path d="M25.14 20.608h9.267a.5.5 0 0 0 .5-.5v-1a.5.5 0 0 0-.5-.5H25.14a.5.5 0 0 0-.5.5v1a.5.5 0 0 0 .5.5zm0 5.018h6.267a.5.5 0 0 0 .5-.5v-1a.5.5 0 0 0-.5-.5H25.14a.5.5 0 0 0-.5.5v1a.5.5 0 0 0 .5.5z" fill="#01CAC5" opacity=".4"/></g></svg>