<svg width="44" height="44" xmlns="http://www.w3.org/2000/svg"><g fill="none" fill-rule="evenodd"><rect fill="#4E97FE" fill-rule="nonzero" width="44" height="44" rx="4"/><path d="M36.474 25.332c.004.1.004.194 0 .285v9.29a.88.88 0 0 1-.88.88H8.608a.88.88 0 0 1-.88-.88V25.62a3.492 3.492 0 0 1 0-.294v-.393h.032c.053-.397.143-.79.27-1.17l3.242-14.077c.219-.663.746-1.18 1.187-1.18h19.284c.44 0 .968.517 1.187 1.18l3.24 14.077c.128.38.219.773.271 1.17h.033v.4z" fill="#FFF"/><path d="M17.114 24.053h10.267c.324 0 .587.263.587.587v2.64a.587.587 0 0 1-.587.587H17.114a.587.587 0 0 1-.586-.587v-2.64c0-.324.262-.587.586-.587m-2.98-13.786h16.227c.36 0 .791.425.968.97l2.26 11.576c.422 1.29.302 2.408-.296 2.408H10.907c-.598 0-.717-1.118-.294-2.408l2.552-11.575c.179-.546.61-.971.969-.971" fill="#4E97FE"/><path d="M33.248 33.733H10.954a.88.88 0 0 1-.88-.88v-4.986h4.987v1.466c0 .486.394.88.88.88h12.613a.88.88 0 0 0 .88-.88v-1.466h4.694v4.986a.88.88 0 0 1-.88.88" fill="#4E97FE"/><path d="M28.719 19.332c.332 0 .601.108.601.243l.406.98c0 .135-.27.243-.601.243H15.66c-.333 0-.602-.108-.602-.243l.406-.98c0-.135.269-.243.601-.243H28.72zm-1.243-4.962c.27 0 .49.109.49.244l.293.683c0 .135-.22.246-.49.246H17.015c-.27 0-.489-.11-.489-.246l.294-.683c0-.135.218-.244.488-.244h10.17z" fill="#FFF" opacity=".5"/></g></svg>