<svg width="22" height="26" xmlns="http://www.w3.org/2000/svg"><g transform="translate(-.143)" fill="none" fill-rule="evenodd"><path d="M3.682 1.579c-.667 0-1.208.54-1.208 1.207v20.428c0 .667.541 1.207 1.208 1.207h14.922c.667 0 1.207-.54 1.207-1.207V2.786c0-.667-.54-1.207-1.207-1.207H3.682zm0-1.579h14.922a2.786 2.786 0 0 1 2.786 2.786v20.428A2.786 2.786 0 0 1 18.604 26H3.682a2.786 2.786 0 0 1-2.786-2.786V2.786A2.786 2.786 0 0 1 3.682 0z" fill="#7B7D80" fill-rule="nonzero"/><rect fill="#A7A7A7" x="6.964" y="20.417" width="8.357" height="1.869" rx=".935"/></g></svg>