<svg width="16" height="16" xmlns="http://www.w3.org/2000/svg"><g fill="none" fill-rule="evenodd"><path fill="#F7F8FA" d="M-15-366h375v2420H-15z"/><path d="M-15-57h375v171H-15V-57z" fill="#FFF"/><path fill="#FFF" d="M1 1h14v14H1z"/><path d="M13.485 15.969H2.484C1.064 15.969 0 14.904 0 13.573V2.395C0 1.065 1.065 0 2.484 0h11.09a2.385 2.385 0 0 1 2.395 2.395v11.09c0 1.42-1.065 2.484-2.484 2.484zM2.484 1.33c-.621 0-1.065.532-1.065 1.153v11.09c0 .62.533 1.064 1.065 1.064h11.09c.62 0 1.064-.532 1.064-1.065V2.395c0-.62-.532-1.153-1.065-1.153H2.484v.089z" fill="#E3E4E8" fill-rule="nonzero"/><g><path fill="#FFF" d="M1 1h14v14H1z"/><path d="M13.485 15.969H2.484C1.064 15.969 0 14.904 0 13.573V2.395C0 1.065 1.065 0 2.484 0h11.09a2.385 2.385 0 0 1 2.395 2.395v11.09c0 1.42-1.065 2.484-2.484 2.484zM2.484 1.33c-.621 0-1.065.532-1.065 1.153v11.09c0 .62.533 1.064 1.065 1.064h11.09c.62 0 1.064-.532 1.064-1.065V2.395c0-.62-.532-1.153-1.065-1.153H2.484v.089z" fill="#E3E4E8" fill-rule="nonzero"/></g></g></svg>