<svg width="44" height="44" xmlns="http://www.w3.org/2000/svg"><g fill="none" fill-rule="evenodd"><rect fill="#4E97FE" fill-rule="nonzero" width="44" height="44" rx="4"/><path d="M8.716 7h22.62c.657 0 1.19.537 1.19 1.2v27.6c0 .663-.533 1.2-1.19 1.2H8.715c-.657 0-1.19-.537-1.19-1.2V8.2c0-.663.533-1.2 1.19-1.2" fill="#FFF"/><path d="M19.085 20.925c.324 0 .587.263.587.587v1.173a.587.587 0 0 1-.587.587h-8.626a.587.587 0 0 1-.587-.587v-1.173c0-.324.263-.587.587-.587h8.626zm-8.626-5.28a.587.587 0 0 1-.587-.586v-1.174c0-.324.263-.586.587-.586h16.427c.324 0 .586.262.586.586v1.174a.587.587 0 0 1-.586.586H10.459z" fill="#4E97FE" opacity=".4"/><path fill="#4E97FE" d="M34.762 12.613l5.619 5.541L26.525 32.76l-8.791 3.03 3.158-8.77z"/><path d="M24.812 32.152l-5.253 1.875 1.748-5.415 3.505 3.54zm.843-.651l-3.714-3.749L32.333 17.24l3.715 3.752L25.655 31.5zm12.618-12.76l-1.483 1.5-3.715-3.753 1.486-1.502a2.083 2.083 0 0 1 2.945-.024l.025.024.742.751c.819.833.818 2.17 0 3.004z" fill="#FFF"/></g></svg>