<svg width="44" height="44" xmlns="http://www.w3.org/2000/svg"><g fill="none" fill-rule="evenodd"><rect fill="#01CAC5" fill-rule="nonzero" width="44" height="44" rx="4"/><path d="M6.703 27.952a6.41 6.41 0 0 0 6.435 6.385h6.352v1.954H12.78a8.458 8.458 0 0 1-8.49-8.425 8.458 8.458 0 0 1 8.49-8.426H38.26v2.128H13.14a6.41 6.41 0 0 0-6.436 6.384" fill="#FFF"/><path d="M18.734 23.328c.446 0 .378.137.618.171.227.014.452.048.673.102.722.137.976 1.059 1.01 1.4.035.342.043 1.302.02 1.815-.068.307.172.307.172.307.432-.027.238 1.31.238 1.31-.062.33.023.495-.618.75a2.64 2.64 0 0 1-1.08 1.299s-.039.553-.05.948c.064-.033-.21 1.008 1.779 1.3 1.988.291 2.369.931 2.744 1.288.375.356.378 2.273.378 2.273l-12.836-.002s.08-1.913.457-2.27c.376-.356.783-.996 2.771-1.287 1.989-.292 1.636-1.304 1.65-1.365-.004-.155-.073-.814-.073-.814a3.49 3.49 0 0 1-.946-1.393c-.48-.301-.662-.343-.741-.69 0 0-.162-1.311.353-1.311 0 0 .214.034.146-.273a8.398 8.398 0 0 1-.011-1.609c.034-.342-.066-1.318.655-1.454.493-.091.55.047.79.013.241-.034.527-.654.974-.654l.927.146zM32.375 23.328c.447 0 .378.137.618.171.227.014.452.048.673.102.722.137.976 1.059 1.01 1.4.035.342.044 1.302.02 1.815-.068.307.172.307.172.307.433-.027.238 1.31.238 1.31-.062.33.023.495-.617.75a2.64 2.64 0 0 1-1.081 1.299s-.039.553-.05.948c.065-.033-.21 1.008 1.78 1.3 1.988.291 2.368.931 2.743 1.288.375.356.378 2.273.378 2.273l-12.835-.002s.08-1.913.456-2.27c.377-.356.783-.996 2.772-1.287 1.988-.292 1.636-1.304 1.65-1.365-.004-.155-.074-.814-.074-.814a3.49 3.49 0 0 1-.945-1.393c-.48-.301-.662-.343-.742-.69 0 0-.162-1.311.354-1.311 0 0 .214.034.146-.273a8.376 8.376 0 0 1-.012-1.609c.035-.342-.066-1.318.656-1.454.492-.091.55.047.79.013s.527-.654.973-.654l.927.146zM17.309 6.923c-.449 0-.38.137-.621.171a3.821 3.821 0 0 0-.676.103c-.725.137-.981 1.062-1.017 1.404-.035.343-.043 1.306-.02 1.82.07.307-.172.307-.172.307-.435-.026-.24 1.316-.24 1.316.063.33-.022.495.621.752.21.541.591 1 1.086 1.303 0 0 .039.555.051.95-.065-.032.21 1.011-1.789 1.304-1.998.292-2.38.934-2.757 1.292-.377.357-.348 2.007-.348 2.007h12.868s-.082-1.65-.459-2.007c-.377-.358-.787-1-2.785-1.292-1.998-.293-1.644-1.307-1.658-1.37.004-.155.073-.816.073-.816.426-.381.752-.86.95-1.397.482-.302.666-.344.746-.692 0 0 .162-1.316-.356-1.316 0 0-.215.035-.146-.273a8.38 8.38 0 0 0 .011-1.614c-.034-.342.066-1.321-.658-1.458-.495-.092-.553.047-.795.013-.241-.034-.529-.655-.978-.655l-.931.148zM31.182 6.923c-.449 0-.38.137-.621.171a3.803 3.803 0 0 0-.676.103c-.725.137-.981 1.062-1.017 1.404-.035.343-.043 1.306-.02 1.82.07.307-.172.307-.172.307-.435-.026-.24 1.316-.24 1.316.063.33-.022.495.621.752.21.541.591 1 1.086 1.303 0 0 .039.555.051.95-.066-.032.21 1.011-1.789 1.304-1.998.292-2.38.934-2.757 1.292-.376.357-.347 2.007-.347 2.007h12.867s-.081-1.65-.458-2.007c-.377-.358-.787-1-2.785-1.292-1.998-.293-1.644-1.307-1.659-1.37.004-.155.074-.816.074-.816.426-.381.752-.86.95-1.397.481-.302.665-.344.745-.692 0 0 .163-1.316-.355-1.316 0 0-.216.035-.147-.273.056-.537.06-1.077.012-1.614-.035-.342.066-1.321-.66-1.458-.494-.092-.551.047-.793.013s-.53-.655-.978-.655l-.932.148z" fill="#FFF"/><path d="M17.604 19.806l-2.359-4.084s1.248 1.31 2.42 1.31c1.187 0 2.298-1.31 2.298-1.31l-2.359 4.084zM31.734 19.806l-2.359-4.086s1.249 1.311 2.42 1.311c1.187 0 2.298-1.31 2.298-1.31l-2.359 4.085z" fill="#01CAC5"/></g></svg>