<svg width="24" height="24" xmlns="http://www.w3.org/2000/svg"><path d="M7.233 23.127a7.056 7.056 0 0 1-4.993-2.08 7.056 7.056 0 0 1-2.08-4.993c0-1.873.748-3.662 2.08-4.993a.804.804 0 0 1 1.165 0 .804.804 0 0 1 0 1.165 5.314 5.314 0 0 0-1.582 3.828c0 1.456.583 2.787 1.582 3.828a5.314 5.314 0 0 0 3.828 1.58c1.456 0 2.787-.582 3.828-1.58l8.82-8.821a5.314 5.314 0 0 0 1.582-3.828c0-1.457-.583-2.788-1.581-3.828a5.314 5.314 0 0 0-3.828-1.582c-1.457 0-2.788.583-3.828 1.582a.804.804 0 0 1-1.165 0 .804.804 0 0 1 0-1.165A7.056 7.056 0 0 1 16.054.16c1.872 0 3.661.748 4.993 2.08a7.056 7.056 0 0 1 2.08 4.993 7.056 7.056 0 0 1-2.08 4.993l-8.821 8.82a7.056 7.056 0 0 1-4.993 2.081zm0-6.241a.821.821 0 0 1-.583-.25.804.804 0 0 1 0-1.165l4.577-4.577c.874-.874.874-2.33 0-3.245a2.297 2.297 0 0 0-1.623-.666c-.624 0-1.206.25-1.622.666l-4.577 4.577a.804.804 0 0 1-1.165 0 .804.804 0 0 1 0-1.165l4.577-4.577a3.938 3.938 0 0 1 2.787-1.165c1.04 0 2.04.416 2.788 1.165a3.943 3.943 0 0 1 0 5.575l-4.577 4.577a.821.821 0 0 1-.582.25z" stroke="#B2B9C7" stroke-width=".2" fill="#7B7D80" fill-rule="nonzero"/></svg>