<svg width="44" height="44" xmlns="http://www.w3.org/2000/svg"><g fill="none" fill-rule="evenodd"><rect fill="#4E97FE" fill-rule="nonzero" width="44" height="44" rx="4"/><path d="M10.3 7.039h23.4c.718 0 1.3.527 1.3 1.176v27.647c0 .65-.582 1.177-1.3 1.177H10.3c-.718 0-1.3-.527-1.3-1.177V8.215c0-.65.582-1.176 1.3-1.176" fill="#FFF"/><path d="M18.093 33.743s-.669-.434-.575-1.023c3.198-5.915 5.105-5.137 5.562-5.137.228 0 .904.488 1.173 1.467.04 1.216-.811 3.229-.586 3.52.498.646 1.949-3.62 3.52-3.52.432.028.984.659.88 1.467-.041.316-.502 1.248-.587 1.76-.05.302.618 1.004 1.916-.725.094-.45.724-.187.724.365 0 .302-.677.774-.88.946-1.383.788-2.067.483-2.347.294-.217-.148-.385-.635-.293-.88.177-.471 1.016-2.347.587-2.347-.864 0-1.76 2.053-1.76 2.053-.758 1.32-1.226 1.467-2.054 1.467-.6-.146-.824-.672-.293-2.347.557-1.807.33-2.914-.88-2.64-1.867 1.155-2.16 2.42-3.303 4.55 0 .473-.575.73-.804.73" fill="#4E97FE"/><path d="M12.535 18.926h16.6a.5.5 0 0 0 .5-.5v-.5a.5.5 0 0 0-.5-.5h-16.6a.5.5 0 0 0-.5.5v.5a.5.5 0 0 0 .5.5zM12.535 22.749h13.02a.5.5 0 0 0 .5-.5v-.5a.5.5 0 0 0-.5-.5h-13.02a.5.5 0 0 0-.5.5v.5a.5.5 0 0 0 .5.5zM12.535 14.6h7.8a.5.5 0 0 0 .5-.5v-1.35a.5.5 0 0 0-.5-.5h-7.8a.5.5 0 0 0-.5.5v1.35a.5.5 0 0 0 .5.5z" fill="#4E97FE" opacity=".5"/></g></svg>