<svg width="44" height="44" xmlns="http://www.w3.org/2000/svg"><g fill="none" fill-rule="evenodd"><rect fill="#FF7738" fill-rule="nonzero" width="44" height="44" rx="4"/><path fill="#E66E59" d="M32.358 37.162h2.053V6.95h-2.053z"/><path d="M10.224 7h23.552C34.452 7 35 7.522 35 8.165v27.67c0 .643-.548 1.165-1.224 1.165H10.224C9.548 37 9 36.478 9 35.835V8.165C9 7.522 9.548 7 10.224 7" fill="#FFF"/><path d="M25.173 17.904a.5.5 0 0 1-.5-.5v-.5a.5.5 0 0 1 .5-.5h6.386a.5.5 0 0 1 .5.5v.5a.5.5 0 0 1-.5.5h-6.386zm0 3.814a.5.5 0 0 1-.5-.5v-.5a.5.5 0 0 1 .5-.5h6.386a.5.5 0 0 1 .5.5v.5a.5.5 0 0 1-.5.5h-6.386zm-13.2 10.02a.5.5 0 0 1-.5-.5v-.5a.5.5 0 0 1 .5-.5h12.253a.5.5 0 0 1 .5.5v.5a.5.5 0 0 1-.5.5H11.973zm0-3.603a.5.5 0 0 1-.5-.5v-.5a.5.5 0 0 1 .5-.5h19.586a.5.5 0 0 1 .5.5v.5a.5.5 0 0 1-.5.5H11.973z" fill="#FF7738" opacity=".2"/><path d="M17.09 12.468c.302 0 .255.087.419.11.153.007.305.029.454.065.49.089.663.681.687.903.024.388.028.778.011 1.167-.044.198.117.198.117.198.294-.017.16.845.16.845-.041.212.017.32-.417.483a1.723 1.723 0 0 1-.73.837s-.028.357-.035.609c.044-.019-.143.651 1.204.838 1.346.187 1.605.6 1.857.83.252.231.579 2.586.579 2.586h-9.333s.376-2.357.63-2.586c.254-.228.53-.641 1.876-.83 1.346-.19 1.108-.84 1.117-.88-.002-.098-.048-.523-.048-.523a2.273 2.273 0 0 1-.642-.898c-.325-.193-.448-.221-.502-.443 0 0-.11-.845.24-.845 0 0 .145.021.098-.177a5.107 5.107 0 0 1-.007-1.036c.024-.22-.044-.85.444-.936.333-.06.37.03.534.008.163-.024.357-.42.66-.42l.628.095z" fill="#FF7738"/><path d="M17.661 22.167c-.16-.915-.377-1.82-.648-2.708.212-.24.36-.527.431-.838a.099.099 0 0 0-.08-.114h-.001a3.084 3.084 0 0 0-1.263 0 .098.098 0 0 0-.084.114c.072.31.22.599.432.838-.272.888-.49 1.793-.65 2.708a.093.093 0 0 0 .025.073c.247.248.531.458.842.62a.127.127 0 0 0 .056.014c.01 0 .02-.002.03-.004a.11.11 0 0 0 .056-.026c.315-.147.598-.353.836-.607a.109.109 0 0 0 .018-.07" fill="#FFF"/></g></svg>