<svg width="44" height="44" xmlns="http://www.w3.org/2000/svg"><g fill="none" fill-rule="evenodd"><rect fill="#FF5955" fill-rule="nonzero" width="44" height="44" rx="4"/><path d="M7.92 9.093h28.16c.648 0 1.173.526 1.173 1.174v23.466c0 .648-.525 1.174-1.173 1.174H7.92a1.173 1.173 0 0 1-1.173-1.174V10.267c0-.648.525-1.174 1.173-1.174" fill="#FFF"/><path d="M22 16.098h11.59a.5.5 0 0 0 .5-.5v-1.5a.5.5 0 0 0-.5-.5H22a.5.5 0 0 0-.5.5v1.5a.5.5 0 0 0 .5.5zM22.027 20.726h8.387a.5.5 0 0 0 .5-.5v-.5a.5.5 0 0 0-.5-.5h-8.387a.5.5 0 0 0-.5.5v.5a.5.5 0 0 0 .5.5zM11.534 30.833h14.254a.5.5 0 0 0 .5-.5v-.5a.5.5 0 0 0-.5-.5H11.534a.5.5 0 0 0-.5.5v.5a.5.5 0 0 0 .5.5zM11.534 27.23h21.587a.5.5 0 0 0 .5-.5v-.5a.5.5 0 0 0-.5-.5H11.534a.5.5 0 0 0-.5.5v.5a.5.5 0 0 0 .5.5z" fill="#FF5955" opacity=".2"/><path fill="#FF5955" opacity=".8" d="M11.296 13.068h1.3l3.925 5.724h.044v-5.724h1.312v7.936h-1.268l-3.968-5.802h-.044v5.802h-1.301z"/></g></svg>