<svg width="44" height="44" xmlns="http://www.w3.org/2000/svg"><g fill="none" fill-rule="evenodd"><rect fill="#FF5955" fill-rule="nonzero" width="44" height="44" rx="4"/><path d="M29.993 37H11.147c-.648 0-1.174-.537-1.174-1.2V8.2c0-.663.526-1.2 1.174-1.2h22.88c.648 0 1.173.537 1.173 1.2V31l-5.207 6z" fill="#FFF"/><path d="M32.44 9.274c.324 0 .587.263.587.587v3.813a.587.587 0 0 1-.587.587H12.733a.587.587 0 0 1-.586-.587V9.861c0-.324.262-.587.586-.587H32.44z" fill="#FF5955"/><path d="M29.333 11.914a1.173 1.173 0 1 1-2.346 0 1.173 1.173 0 0 1 2.346 0zm-10.853 0a1.173 1.173 0 1 1-2.347 0 1.173 1.173 0 0 1 2.347 0z" fill="#FFF" opacity=".9"/><path d="M12.688 17.425h8.368a.5.5 0 0 1 .5.5v1.5a.5.5 0 0 1-.5.5h-8.368a.5.5 0 0 1-.5-.5v-1.5a.5.5 0 0 1 .5-.5zm11.45 0h8.368a.5.5 0 0 1 .5.5v1.5a.5.5 0 0 1-.5.5h-8.368a.5.5 0 0 1-.5-.5v-1.5a.5.5 0 0 1 .5-.5zM12.688 21.925h8.368a.5.5 0 0 1 .5.5v1.5a.5.5 0 0 1-.5.5h-8.368a.5.5 0 0 1-.5-.5v-1.5a.5.5 0 0 1 .5-.5zm11.45 0h8.368a.5.5 0 0 1 .5.5v1.5a.5.5 0 0 1-.5.5h-8.368a.5.5 0 0 1-.5-.5v-1.5a.5.5 0 0 1 .5-.5z" fill="#FF5955" fill-rule="nonzero" opacity=".4"/><rect fill="#FF5955" fill-rule="nonzero" opacity=".4" x="12.188" y="26.425" width="9.368" height="2.5" rx=".5"/><path fill="#FF5955" fill-rule="nonzero" opacity=".2" d="M29.05 34.886v-5.082h4.54z"/></g></svg>