<svg width="16" height="16" xmlns="http://www.w3.org/2000/svg"><g fill="none" fill-rule="evenodd"><path fill="#FFF" d="M-15-236h375v572H-15z"/><path fill="#F7F8FA" d="M-15-50h375v360H-15z"/><g fill-rule="nonzero"><path d="M2.229.453H13.77c.977 0 1.776.799 1.776 1.776V13.77c0 .977-.799 1.776-1.776 1.776H2.23c-.977 0-1.776-.799-1.776-1.776V2.23c0-.977.799-1.776 1.776-1.776z" fill="#5585F0"/><path d="M13.778 16H2.222A2.2 2.2 0 0 1 0 13.778V2.222A2.2 2.2 0 0 1 2.222 0h11.556A2.2 2.2 0 0 1 16 2.222v11.556A2.2 2.2 0 0 1 13.778 16zM2.222.889C1.512.889.89 1.51.89 2.222v11.556c0 .71.622 1.333 1.333 1.333h11.556c.71 0 1.333-.622 1.333-1.333V2.222c0-.71-.622-1.333-1.333-1.333H2.222z" fill="#5585F0"/><path d="M12.92 5.614l-5.678 5.744c-.178.176-.355.265-.533.265-.177 0-.354-.089-.532-.177l-3.194-3.27c-.177-.176-.266-.353-.266-.53 0-.441.355-.795.71-.795.177 0 .355.089.532.177l2.662 2.74 5.145-5.214c.267-.088.444-.177.622-.177.443 0 .71.354.71.796.088.176 0 .353-.178.441" fill="#FFF"/><path d="M6.689 11.623c-.177 0-.441-.088-.53-.265L2.894 8.101c-.177-.088-.177-.353-.177-.529a.79.79 0 0 1 .794-.792c.177 0 .442.088.53.264l2.648 2.642 5.12-5.195c.176-.177.352-.265.529-.265a.79.79 0 0 1 .794.793.95.95 0 0 1-.265.616l-5.649 5.723c-.088.177-.353.265-.53.265zM3.51 6.868a.695.695 0 0 0-.706.704c0 .176.089.353.177.44l3.177 3.258a.694.694 0 0 0 .971 0l5.649-5.723c.088-.088.177-.264.177-.528.088-.352-.177-.616-.618-.616a.675.675 0 0 0-.442.176L6.69 9.862 6.6 9.774l-2.648-2.73a.675.675 0 0 0-.442-.176z" fill="#FFF"/></g><g fill-rule="nonzero"><path d="M2.229.453H13.77c.977 0 1.776.799 1.776 1.776V13.77c0 .977-.799 1.776-1.776 1.776H2.23c-.977 0-1.776-.799-1.776-1.776V2.23c0-.977.799-1.776 1.776-1.776z" fill="#5585F0"/><path d="M13.778 16H2.222A2.2 2.2 0 0 1 0 13.778V2.222A2.2 2.2 0 0 1 2.222 0h11.556A2.2 2.2 0 0 1 16 2.222v11.556A2.2 2.2 0 0 1 13.778 16zM2.222.889C1.512.889.89 1.51.89 2.222v11.556c0 .71.622 1.333 1.333 1.333h11.556c.71 0 1.333-.622 1.333-1.333V2.222c0-.71-.622-1.333-1.333-1.333H2.222z" fill="#5585F0"/><path d="M12.92 5.614l-5.678 5.744c-.178.176-.355.265-.533.265-.177 0-.354-.089-.532-.177l-3.194-3.27c-.177-.176-.266-.353-.266-.53 0-.441.355-.795.71-.795.177 0 .355.089.532.177l2.662 2.74 5.145-5.214c.267-.088.444-.177.622-.177.443 0 .71.354.71.796.088.176 0 .353-.178.441" fill="#FFF"/><path d="M6.689 11.623c-.177 0-.441-.088-.53-.265L2.894 8.101c-.177-.088-.177-.353-.177-.529a.79.79 0 0 1 .794-.792c.177 0 .442.088.53.264l2.648 2.642 5.12-5.195c.176-.177.352-.265.529-.265a.79.79 0 0 1 .794.793.95.95 0 0 1-.265.616l-5.649 5.723c-.088.177-.353.265-.53.265zM3.51 6.868a.695.695 0 0 0-.706.704c0 .176.089.353.177.44l3.177 3.258a.694.694 0 0 0 .971 0l5.649-5.723c.088-.088.177-.264.177-.528.088-.352-.177-.616-.618-.616a.675.675 0 0 0-.442.176L6.69 9.862 6.6 9.774l-2.648-2.73a.675.675 0 0 0-.442-.176z" fill="#FFF"/></g></g></svg>