<svg width="44" height="44" xmlns="http://www.w3.org/2000/svg"><g fill="none" fill-rule="evenodd"><rect fill="#01CAC5" fill-rule="nonzero" width="44" height="44" rx="4"/><path d="M10 9h24a2 2 0 0 1 2 2v22a2 2 0 0 1-2 2H10a2 2 0 0 1-2-2V11a2 2 0 0 1 2-2z" fill="#FFF" fill-rule="nonzero"/><g fill="#01CAC5"><path d="M22 12.907a9.093 9.093 0 1 1 0 18.186 9.093 9.093 0 1 1 0-18.186" opacity=".1"/><path d="M22.604 22.092v-4.168a.5.5 0 0 0-.5-.5h-.174a.5.5 0 0 0-.5.5v4.807h.008l3.107 2.026a.5.5 0 0 0 .706-.168l.086-.15a.5.5 0 0 0-.16-.668l-2.573-1.679z"/><path d="M21.707 29.773V28.6h.586v1.173h-.586zm0-14.373v-1.173h.586V15.4h-.586zm-7.627 6.747v-.587h1.173v.587H14.08zm14.667 0v-.587h1.173v.587h-1.173zm-12.14-6.102l.83.83-.415.415-.83-.83.415-.415zm10.37 10.371l.83.83-.414.415-.83-.83.415-.415zm-10.785.83l.83-.83.414.415-.83.83-.414-.415zm10.37-10.37l.83-.83.415.414-.83.83-.414-.415z" opacity=".5"/></g></g></svg>