<svg width="72" height="72" xmlns="http://www.w3.org/2000/svg"><g fill="none" fill-rule="evenodd"><circle fill="#5F9FF3" opacity=".08" cx="36" cy="36" r="36"/><path fill="#FFF" d="M24.545 23.591H46.5v24.818H24.545z"/><path d="M47.548 18.876h-23.55a2.53 2.53 0 0 0-2.523 2.534v28.726A2.53 2.53 0 0 0 24 52.671h23.549a2.53 2.53 0 0 0 2.523-2.535V21.41a2.53 2.53 0 0 0-2.523-2.534zM35.79 43.417h-7.57a1.688 1.688 0 0 1-1.682-1.69c0-.931.755-1.69 1.682-1.69h7.57c.927 0 1.682.759 1.682 1.69 0 .932-.755 1.69-1.682 1.69zm5.887-6.759H28.22a1.688 1.688 0 0 1-1.682-1.69c0-.935.755-1.69 1.682-1.69h13.457c.927 0 1.682.759 1.682 1.69 0 .932-.755 1.69-1.682 1.69zm0-6.759H28.22a1.688 1.688 0 0 1-1.682-1.69c0-.931.755-1.69 1.682-1.69h13.457c.927 0 1.682.759 1.682 1.69 0 .932-.755 1.69-1.682 1.69z" fill="#5F9FF3" fill-rule="nonzero"/></g></svg>