<svg width="23" height="26" xmlns="http://www.w3.org/2000/svg"><g fill="none" fill-rule="evenodd"><path d="M2.786 1.579c-.667 0-1.207.54-1.207 1.207v20.428c0 .667.54 1.207 1.207 1.207H19.5c.667 0 1.207-.54 1.207-1.207V2.786c0-.667-.54-1.207-1.207-1.207H2.786zm0-1.579H19.5a2.786 2.786 0 0 1 2.786 2.786v20.428A2.786 2.786 0 0 1 19.5 26H2.786A2.786 2.786 0 0 1 0 23.214V2.786A2.786 2.786 0 0 1 2.786 0z" fill="#7B7D80" fill-rule="nonzero"/><rect fill="#A7A7A7" transform="rotate(-90 11.143 12.536)" x="10.214" y="6.036" width="1.857" height="13" rx=".929"/></g></svg>