<svg width="44" height="44" xmlns="http://www.w3.org/2000/svg"><g fill="none" fill-rule="evenodd"><rect fill="#5EC8FC" fill-rule="nonzero" width="44" height="44" rx="4"/><path d="M30.801 30.398c-.706.551-1.846 1.421-3.498 2.628a64.097 64.097 0 0 1-7.166 4.47c.386-1.472.703-2.961.947-4.463-8.169-.19-14.722-5.75-14.722-12.58 0-6.95 6.785-12.586 15.154-12.586s15.15 5.636 15.15 12.586c0 4.044-2.296 7.643-5.865 9.945z" fill="#FFF"/><path d="M27.77 18.559a1.946 1.946 0 0 1 1.948 1.943 1.946 1.946 0 0 1-1.957 1.935 1.945 1.945 0 0 1-1.948-1.938 1.95 1.95 0 0 1 1.957-1.94zm-6.35 0a1.945 1.945 0 0 1 1.947 1.943 1.946 1.946 0 0 1-1.957 1.935 1.945 1.945 0 0 1-1.947-1.938c0-1.072.877-1.94 1.956-1.94zm-6.357 0c1.077 0 1.951.87 1.95 1.94 0 1.071-.875 1.939-1.953 1.938a1.945 1.945 0 0 1-1.95-1.938c-.001-1.07.872-1.94 1.95-1.94h.003z" fill="#5EC8FC" opacity=".5"/></g></svg>