<svg width="24" height="24" xmlns="http://www.w3.org/2000/svg"><path d="M17.186 23.314c-1.493 0-3.42-.995-4.775-1.83-1.814-1.117-3.768-2.663-5.502-4.353l-.006-.006-.55-.551c-1.69-1.734-3.236-3.688-4.354-5.502C1.164 9.718.169 7.79.169 6.297c0-1.598 1.143-3.294 1.634-3.949C2.187 1.838 3.526.17 4.663.17c.468 0 .971.305 1.633.991.585.607 1.146 1.36 1.514 1.886.494.706.95 1.445 1.286 2.08.544 1.03.607 1.472.607 1.715 0 .49-.256.914-.76 1.262-.332.229-.73.401-1.116.568-.26.112-.675.292-.834.418.056.234.297.799.95 1.757.608.893 1.394 1.86 2.104 2.59.73.71 1.697 1.496 2.59 2.104.957.652 1.522.893 1.756.949.126-.159.306-.574.418-.833.167-.386.34-.785.569-1.117.347-.504.772-.76 1.262-.76.242 0 .684.063 1.714.607.636.336 1.374.793 2.08 1.286.526.368 1.28.93 1.886 1.515.686.66.992 1.164.992 1.631 0 1.138-1.668 2.477-2.18 2.86-.654.492-2.35 1.635-3.948 1.635zm-9.32-7.159c1.664 1.62 3.532 3.1 5.262 4.166 1.677 1.033 3.156 1.626 4.058 1.626.803 0 1.949-.49 3.064-1.312.49-.36.934-.762 1.253-1.13.3-.346.41-.572.437-.663-.116-.248-.803-1.025-2.407-2.132-.63-.434-1.28-.833-1.832-1.123-.693-.365-.982-.428-1.048-.438-.026.018-.101.08-.216.273-.129.216-.252.501-.371.777-.148.34-.3.691-.486.975-.303.461-.676.695-1.107.695h-.024c-.21-.004-.848-.018-2.582-1.199a21.812 21.812 0 0 1-2.78-2.261l-.012-.013a21.825 21.825 0 0 1-2.262-2.78C5.633 9.882 5.62 9.244 5.614 9.034c-.01-.439.222-.818.688-1.126.285-.189.64-.342.982-.49.276-.12.562-.243.777-.372.192-.114.256-.19.273-.216-.01-.066-.073-.355-.438-1.048A18.67 18.67 0 0 0 6.773 3.95C5.667 2.346 4.89 1.66 4.641 1.543c-.091.028-.317.138-.662.437-.369.32-.77.764-1.13 1.253-.822 1.115-1.313 2.26-1.313 3.064 0 .902.593 2.381 1.626 4.058 1.066 1.73 2.545 3.599 4.166 5.262l.538.538z" stroke="#7B7D80" stroke-width=".3" fill="#7B7D80" fill-rule="nonzero"/></svg>