<svg width="44" height="44" xmlns="http://www.w3.org/2000/svg"><g fill="none" fill-rule="evenodd"><rect fill="#63C422" fill-rule="nonzero" width="44" height="44" rx="4"/><path d="M10.089 12.273l8.373 23.297c.165.454.036.92-.287 1.041l-.871.323c-.323.12-.716-.156-.88-.61L8.065 13.066c-.413.123-.797.045-.884-.192l-.335-.926c-.038-.1 0-.966 1.332-1.464 1.335-.499 1.887.146 1.921.246l.338.927c.07.193-.078.436-.348.616zM12.367 10.845s-1.082 1.006-.874 1.757c.346 1.229 4.796 13.173 4.796 13.173s.37 1.69 1.713.49c1.78-1.593 3.857-4.168 6.565-3.22 4.05 1.413 7.685.923 9.911-1.417 1.667-1.749 2.626-6.052 2.673-6.929.064-1.19.405-7.034-.651-7.369-.185.575-.751 1.385-3.268 2.344-.742.285-4.21.534-7.794-1.026a12.287 12.287 0 0 0-13.071 2.197" fill="#FFF"/><path d="M31.973 18.187c-.008-.006 1.493-.863 2.054-1.76a6.646 6.646 0 0 0 .88-2.64c.04-.488.04-.979 0-1.467 0 0-.851 1.555-1.76 1.76-.674.16-1.362.259-2.054.293l.88 3.814zm-16.435-1.878s-.047-.498 1.182-1.349c.651-.447 1.338-.84 2.053-1.173l1.174 3.52s-.89.516-1.666 1.059c-.563.4-1.06.885-1.47 1.44l-1.273-3.497zm4.409.998a8.008 8.008 0 0 1 2.346-.587 6.798 6.798 0 0 1 1.76 0l1.76 4.693s-1.243-.26-2.252-.384c-1.27-.152-1.854.384-1.854.384l-1.76-4.106zm11.146-2.934c-.583.08-1.176.08-1.76 0-.962-.182-2.346-1.173-2.346-1.173l-.745-2.778s1.446 1.033 2.211 1.311a5.934 5.934 0 0 0 2.054.294l.586 2.346zm1.467 6.454s-.531.976-1.467.88c-.592-.06-1.18-.159-1.76-.294L28.16 17.6s1.352.777 2.347.88a2.22 2.22 0 0 0 1.466-.293l.587 2.64zm-9.973-8.214s1.748-.19 2.64 0a5.395 5.395 0 0 1 1.704.66L28.16 17.6a6.149 6.149 0 0 0-2.053-.88 7.407 7.407 0 0 0-2.054 0l-1.466-4.107zm-5.152-2.593a5.607 5.607 0 0 1 1.787-.92 4.605 4.605 0 0 1 1.924-.01l1.44 3.523c-.637.064-1.268.184-1.885.358a8.81 8.81 0 0 0-1.928.816l-1.338-3.767z" fill="#63C422" opacity=".5"/></g></svg>