<svg width="44" height="44" xmlns="http://www.w3.org/2000/svg"><g fill="none" fill-rule="evenodd"><rect fill="#FF5955" fill-rule="nonzero" width="44" height="44" rx="4"/><path d="M8.742 11.565h20.98c.804 0 1.457.652 1.457 1.457v20.98c0 .805-.653 1.457-1.457 1.457H8.742a1.457 1.457 0 0 1-1.457-1.457v-20.98c0-.805.652-1.457 1.457-1.457" fill="#FFF"/><path d="M11.073 13.896H27.39c.804 0 1.457.653 1.457 1.457v16.318c0 .805-.653 1.457-1.457 1.457H11.073a1.457 1.457 0 0 1-1.457-1.457V15.353c0-.804.652-1.457 1.457-1.457" fill="#FF5955"/><path d="M20.837 21.455s4.163-3.648 8.204-7.116a72.684 72.684 0 0 1 10.67-7.535l2.54 3.013s-4.477 3.546-10.248 9.674c-5.745 6.102-11.24 13.148-11.24 13.148s-1.318-2.582-4.423-6.242a66.97 66.97 0 0 0-4.648-4.942l4.138-3.599 5.007 3.599z" fill="#FF5955"/><path d="M20.853 23.169s2.068-1.845 5.548-4.881c4.392-3.835 10.639-8.474 10.639-8.474l2.589.967s-6.294 5.566-10.485 9.902c-4.458 4.61-8.632 10.697-8.632 10.697s-2.339-4.246-4.742-7.215c-1.648-2.037-2.655-2.716-2.655-2.716l2.04-1.891 5.698 3.61z" fill="#FFF"/></g></svg>