<svg width="26" height="26" xmlns="http://www.w3.org/2000/svg"><g fill="#7B7D80" fill-rule="evenodd"><path d="M2.786 1.579c-.667 0-1.207.54-1.207 1.207v20.428c0 .667.54 1.207 1.207 1.207h20.428c.667 0 1.207-.54 1.207-1.207V2.786c0-.667-.54-1.207-1.207-1.207H2.786zm0-1.579h20.428A2.786 2.786 0 0 1 26 2.786v20.428A2.786 2.786 0 0 1 23.214 26H2.786A2.786 2.786 0 0 1 0 23.214V2.786A2.786 2.786 0 0 1 2.786 0z" fill-rule="nonzero"/><path d="M12.385 15.87l-4.52-5.158a.3.3 0 0 1 .225-.498h8.891a.3.3 0 0 1 .226.498l-4.52 5.159a.2.2 0 0 1-.302 0z"/></g></svg>