<svg width="32" height="33" xmlns="http://www.w3.org/2000/svg"><defs><linearGradient x1="50%" y1="0%" x2="50%" y2="100%" id="a"><stop stop-color="#8CA3F8" offset="0%"/><stop stop-color="#4F75F6" offset="100%"/></linearGradient></defs><g fill="none" fill-rule="evenodd"><path d="M7.635 21.774H20.72l.867 7.017a1.007 1.007 0 0 1-1 1.131H7.767a1.007 1.007 0 0 1-.999-1.13l.867-7.018z" fill="#A6B9FA"/><path d="M2.518.087h21.147c1.113 0 2.015.902 2.015 2.015v20.14a2.015 2.015 0 0 1-2.015 2.015H2.518a2.015 2.015 0 0 1-2.014-2.015V2.102C.504.989 1.406.087 2.518.087z" fill="url(#a)" transform="translate(1.086 1.5)"/><g transform="translate(17.507 16.665)"><circle fill="#FFC363" cx="6.629" cy="6.629" r="6.214"/><path d="M5.8 5.8V3.314h1.657V5.8h2.486v1.657H7.457v2.486H5.8V7.457H3.314V5.8H5.8z" fill="#FFF"/></g><path d="M9.88 18.845a1.284 1.284 0 1 1-2.168-1.377l2.832-4.463a1.284 1.284 0 0 1 1.085-.596h4.208l2.657-3.94a1.284 1.284 0 1 1 2.13 1.437l-3.04 4.505a1.284 1.284 0 0 1-1.064.566h-4.185L9.88 18.845z" fill="#FFF" fill-rule="nonzero"/></g></svg>