<svg width="26" height="25" xmlns="http://www.w3.org/2000/svg"><g fill="#7B7D80" fill-rule="evenodd"><path d="M2.786 3.792c-.667 0-1.207.54-1.207 1.207v16.76c0 .667.54 1.208 1.207 1.208h20.428c.667 0 1.207-.54 1.207-1.207V4.999c0-.667-.54-1.207-1.207-1.207H2.786zm0-1.579h20.428A2.786 2.786 0 0 1 26 4.999v16.76a2.786 2.786 0 0 1-2.786 2.786H2.786A2.786 2.786 0 0 1 0 21.76V4.999a2.786 2.786 0 0 1 2.786-2.786z" fill-rule="nonzero"/><path d="M7.158.76h.786a1 1 0 0 1 1 1V4.46a1 1 0 0 1-1 1h-.786a1 1 0 0 1-1-1V1.76a1 1 0 0 1 1-1zM18.466.76h.786a1 1 0 0 1 1 1V4.46a1 1 0 0 1-1 1h-.786a1 1 0 0 1-1-1V1.76a1 1 0 0 1 1-1z"/><g><path d="M12.231 15.702a.957.957 0 0 1-.923-.96l.028-5.335a.901.901 0 0 1 .933-.896.957.957 0 0 1 .923.961l-.028 5.334a.901.901 0 0 1-.933.896z"/><path d="M11.504 14.334a.916.916 0 0 1 1.273-.284l5.248 3.379a.941.941 0 0 1 .29 1.29.916.916 0 0 1-1.274.285l-5.248-3.38a.941.941 0 0 1-.289-1.29z"/></g></g></svg>