<svg width="26" height="25" xmlns="http://www.w3.org/2000/svg"><g fill="#7B7D80" fill-rule="evenodd"><path d="M2.786 3.792c-.667 0-1.207.54-1.207 1.207v16.76c0 .667.54 1.208 1.207 1.208h20.428c.667 0 1.207-.54 1.207-1.207V4.999c0-.667-.54-1.207-1.207-1.207H2.786zm0-1.579h20.428A2.786 2.786 0 0 1 26 4.999v16.76a2.786 2.786 0 0 1-2.786 2.786H2.786A2.786 2.786 0 0 1 0 21.76V4.999a2.786 2.786 0 0 1 2.786-2.786z" fill-rule="nonzero"/><path opacity=".9" d="M.929 7.862h24.143v1.857H.929z"/><path d="M7.158.684h.786a1 1 0 0 1 1 1v2.702a1 1 0 0 1-1 1h-.786a1 1 0 0 1-1-1V1.684a1 1 0 0 1 1-1zM18.466.684h.786a1 1 0 0 1 1 1v2.702a1 1 0 0 1-1 1h-.786a1 1 0 0 1-1-1V1.684a1 1 0 0 1 1-1z"/></g></svg>