<svg width="26" height="25" xmlns="http://www.w3.org/2000/svg"><path d="M12.2 19.662a1.718 1.718 0 0 1 1.6 0l5.947 3.127a.14.14 0 0 0 .202-.147l-1.136-6.622a1.718 1.718 0 0 1 .494-1.52l4.811-4.69a.14.14 0 0 0-.077-.238l-6.65-.967a1.718 1.718 0 0 1-1.293-.94L13.125 1.64a.14.14 0 0 0-.25 0L9.901 7.666c-.25.507-.733.858-1.293.94l-6.65.966a.14.14 0 0 0-.076.237l4.811 4.69c.405.395.59.963.494 1.52l-1.136 6.623a.14.14 0 0 0 .202.147l5.948-3.127zm.735 1.397l-5.947 3.127a1.718 1.718 0 0 1-2.493-1.811l1.136-6.622a.14.14 0 0 0-.04-.124L.78 10.94a1.718 1.718 0 0 1 .952-2.93l6.65-.966a.14.14 0 0 0 .104-.076L11.46.942a1.718 1.718 0 0 1 3.08 0l2.974 6.025c.02.041.06.07.105.076l6.65.966a1.718 1.718 0 0 1 .951 2.93l-4.811 4.69a.14.14 0 0 0-.04.124l1.136 6.622a1.718 1.718 0 0 1-2.493 1.811l-5.947-3.127a.14.14 0 0 0-.13 0z" fill="#7B7D80" fill-rule="nonzero"/></svg>