<svg width="20" height="19" xmlns="http://www.w3.org/2000/svg"><g fill="#D2D5DB" fill-rule="evenodd"><path d="M2.143 2.686a.929.929 0 0 0-.929.928v12.893c0 .513.416.929.929.929h15.714a.929.929 0 0 0 .929-.929V3.614a.929.929 0 0 0-.929-.928H2.143zm0-1.214h15.714c1.184 0 2.143.959 2.143 2.142v12.893c0 1.184-.96 2.143-2.143 2.143H2.143A2.143 2.143 0 0 1 0 16.507V3.614c0-1.183.96-2.142 2.143-2.142z" fill-rule="nonzero"/><g transform="translate(4.737 .05)"><rect y=".304" width="1.818" height="3.616" rx=".909"/><rect x="8.699" y=".304" width="1.818" height="3.616" rx=".909"/></g><path d="M9.409 11.485a.736.736 0 0 1-.71-.74l.021-4.102a.693.693 0 0 1 .718-.69.736.736 0 0 1 .71.74l-.022 4.103a.693.693 0 0 1-.717.689z"/><path d="M8.85 10.433a.705.705 0 0 1 .978-.22l4.038 2.6a.724.724 0 0 1 .222.992.705.705 0 0 1-.98.22l-4.037-2.6a.724.724 0 0 1-.222-.992z"/></g></svg>