<svg width="72" height="72" xmlns="http://www.w3.org/2000/svg"><g fill="none" fill-rule="evenodd"><circle fill="#F48265" opacity=".08" cx="36" cy="36" r="36"/><path fill="#FFF" d="M23 22h26v31H23z"/><path d="M47.96 18.877H24.323a2.533 2.533 0 0 0-2.533 2.533v28.704a2.533 2.533 0 0 0 2.533 2.532h23.639a2.533 2.533 0 0 0 2.533-2.532V21.41a2.533 2.533 0 0 0-2.533-2.533zm-5.065 27.02H29.388v-.843h13.507v.844zm.8-2.532H28.588c-.49 0-.89-.35-.89-.78V40.24c0-1.078.995-1.953 2.22-1.953h4.1a70.01 70.01 0 0 1-.72-2.72c-.602-2.398-1.367-4.81-1.367-5.805 0-2.28 1.884-4.127 4.21-4.127 2.325 0 4.21 1.847 4.21 4.127 0 .999-.766 3.41-1.369 5.808-.237.938-.47 1.873-.72 2.717h4.097c1.225 0 2.22.875 2.22 1.953v2.344c.004.43-.396.78-.886.78z" fill="#F48265" fill-rule="nonzero"/></g></svg>