<svg width="14" height="17" xmlns="http://www.w3.org/2000/svg"><g stroke="#FF596D" stroke-width=".4" fill="#FF596D" fill-rule="nonzero"><path d="M2.945 16.764c-.556 0-1.018-.37-1.11-.926L.537 5.028c0-.277.093-.647.278-.833.278-.277.555-.37.926-.37h10.922c.277 0 .648.093.833.37.185.186.277.556.277.833l-1.296 10.81c-.092.556-.647.926-1.203.926h-8.33zM1.742 4.75c-.093 0-.093 0-.186.092v.093l1.296 10.81a.2.2 0 0 0 .185.185h8.33a.2.2 0 0 0 .186-.185l1.296-10.81v-.093s-.093-.092-.185-.092H1.742z"/><path d="M5.198 12.989c-.293 0-.587-.274-.587-.547V7.427c0-.274.294-.547.587-.547.294 0 .588.273.588.547v5.015c0 .273-.294.547-.588.547zm3.916 0c-.293 0-.587-.274-.587-.547V7.427c0-.274.294-.547.587-.547.294 0 .588.273.588.547v5.015c0 .273-.294.547-.588.547zM11.738 4.732H2.575l1.511-3.294c.189-.418.567-.731 1.04-.731h4.061c.284 0 .662.104 1.04.73l1.511 3.295zM4.086 3.84h6.14l-.85-1.88s-.081-.208-.189-.208H5.125c-.094 0-.094 0-.189.209l-.85 1.88z"/></g></svg>