<svg width="26" height="25" xmlns="http://www.w3.org/2000/svg"><g fill="#7B7D80" fill-rule="evenodd"><path d="M2.786 1.579c-.667 0-1.207.54-1.207 1.207v18.571c0 .667.54 1.207 1.207 1.207h20.428c.667 0 1.207-.54 1.207-1.207V2.786c0-.667-.54-1.207-1.207-1.207H2.786zm0-1.579h20.428A2.786 2.786 0 0 1 26 2.786v18.571a2.786 2.786 0 0 1-2.786 2.786H2.786A2.786 2.786 0 0 1 0 21.357V2.786A2.786 2.786 0 0 1 2.786 0z" fill-rule="nonzero"/><path d="M13.775 12.47a.958.958 0 0 1-1.283.365l-7.889-4.23a.9.9 0 0 1-.354-1.242.958.958 0 0 1 1.283-.366l7.888 4.23a.9.9 0 0 1 .355 1.243z"/><path d="M12.225 12.47a.9.9 0 0 1 .355-1.243l7.888-4.23a.958.958 0 0 1 1.283.366.9.9 0 0 1-.354 1.243l-7.889 4.23a.958.958 0 0 1-1.283-.366z"/></g></svg>