<svg width="28" height="28" xmlns="http://www.w3.org/2000/svg"><g fill="#7B7D80" fill-rule="evenodd"><path d="M3 1.7A1.3 1.3 0 0 0 1.7 3v22A1.3 1.3 0 0 0 3 26.3h22a1.3 1.3 0 0 0 1.3-1.3V3A1.3 1.3 0 0 0 25 1.7H3zM3 0h22a3 3 0 0 1 3 3v22a3 3 0 0 1-3 3H3a3 3 0 0 1-3-3V3a3 3 0 0 1 3-3z" fill-rule="nonzero"/><path d="M7.5 12.278a1 1 0 0 1 1.414 0l4.95 4.95a1 1 0 1 1-1.414 1.414l-4.95-4.95a1 1 0 0 1 0-1.414z"/><path d="M21.642 9.45a1 1 0 0 1 0 1.414l-7.778 7.778a1 1 0 1 1-1.414-1.414l7.778-7.778a1 1 0 0 1 1.414 0z"/></g></svg>