<svg width="20" height="20" xmlns="http://www.w3.org/2000/svg"><g fill="#D2D5DB" fill-rule="evenodd"><path d="M10 1.214a8.786 8.786 0 1 0 0 17.572 8.786 8.786 0 0 0 0-17.572zM10 0c5.523 0 10 4.477 10 10s-4.477 10-10 10S0 15.523 0 10 4.477 0 10 0z" fill-rule="nonzero"/><path d="M9.409 11.467a.736.736 0 0 1-.71-.739l.021-4.817a.693.693 0 0 1 .718-.69.736.736 0 0 1 .71.74l-.022 4.817a.693.693 0 0 1-.717.69z"/><path d="M8.85 10.415a.71.71 0 0 1 .982-.224l4.642 2.935a.718.718 0 0 1 .225.987.71.71 0 0 1-.982.224l-4.642-2.934a.718.718 0 0 1-.226-.988z"/></g></svg>