<svg width="44" height="44" xmlns="http://www.w3.org/2000/svg"><g fill="none" fill-rule="evenodd"><rect fill="#FF7738" fill-rule="nonzero" width="44" height="44" rx="4"/><path d="M37.397 19.65c-.258.068-.699.13-.94.165.177.52.312 1.055.402 1.598v3.814c.272.27.293.466.293.88v6.453c0 .821-.424 1.464-1.243 1.464h-2.223c-.818 0-1.227-.35-1.227-1.17v-1.467c-1.096.1-2.547.293-3.813.293H15.152c-1.266 0-2.717-.194-3.813-.293v1.466c0 .822-.409 1.17-1.227 1.17H7.89c-.818 0-1.243-.642-1.243-1.463v-6.453c0-.414.022-.61.293-.88v-3.814c.09-.543.225-1.078.403-1.598-.242-.035-.682-.097-.94-.165-.369-.096-.927-.416-.927-.745v-.745a.882.882 0 0 1 .877-.853h3.52c1.174-3.157 1.68-7.33 4.342-7.33h15.37c2.662 0 3.168 4.173 4.342 7.33h3.52a.882.882 0 0 1 .878.853v.745c0 .329-.558.649-.927.745" fill="#FFF"/><path d="M32.154 17.418a2.233 2.233 0 0 1-2.232 2.235H13.866a2.159 2.159 0 0 1-2.231-2.235c0-.324.072-.644.207-.939 0 0 .74-1.824 1.19-2.989.45-1.164 1.24-1.17 1.24-1.17H29.82s.792.003 1.24 1.17c.349.98.645 1.978.887 2.99.278.598.208.595.208.938" fill="#FF7738" opacity=".3"/><path d="M17.94 24.637h7.92c.399-.005.727.315.732.715v1.793a.727.727 0 0 1-.733.719h-7.92a.727.727 0 0 1-.733-.719v-1.792c.004-.4.332-.72.733-.716zm14.52.003a1.76 1.76 0 1 1-.001 3.52 1.76 1.76 0 0 1 0-3.52zm-21.12 0a1.76 1.76 0 1 1-.001 3.52 1.76 1.76 0 0 1 0-3.52z" fill="#FF7738" opacity=".8"/></g></svg>