<svg width="20" height="19" xmlns="http://www.w3.org/2000/svg"><g fill="#D2D5DB" fill-rule="evenodd"><path d="M2.143 2.686a.929.929 0 0 0-.929.928v12.893c0 .513.416.929.929.929h15.714a.929.929 0 0 0 .929-.929V3.614a.929.929 0 0 0-.929-.928H2.143zm0-1.214h15.714c1.184 0 2.143.959 2.143 2.142v12.893c0 1.184-.96 2.143-2.143 2.143H2.143A2.143 2.143 0 0 1 0 16.507V3.614c0-1.183.96-2.142 2.143-2.142z" fill-rule="nonzero"/><path opacity=".9" d="M.714 5.817h18.571v1.429H.714z"/><path d="M5.646.296a.91.91 0 0 1 .91.909v1.798a.91.91 0 1 1-1.818 0l-.001-1.798a.91.91 0 0 1 .909-.91zM14.345.296a.91.91 0 0 1 .909.909v1.798a.91.91 0 0 1-1.818 0V1.205a.91.91 0 0 1 .909-.91z"/></g></svg>