<svg width="26" height="26" xmlns="http://www.w3.org/2000/svg"><g fill="#7B7D80" fill-rule="evenodd"><path d="M3.515 2.394c-.619 0-1.12.502-1.12 1.121v18.97c0 .619.501 1.12 1.12 1.12h18.97c.619 0 1.12-.501 1.12-1.12V3.515c0-.619-.501-1.12-1.12-1.12H3.515zm0-1.465h18.97a2.587 2.587 0 0 1 2.586 2.586v18.97a2.587 2.587 0 0 1-2.586 2.586H3.515A2.587 2.587 0 0 1 .93 22.485V3.515A2.587 2.587 0 0 1 3.515.93z" fill-rule="nonzero"/><path d="M5.24 6.102h13.85v1.73h-6.094v12.604h-1.734V7.83H5.24z"/></g></svg>