<svg width="44" height="44" xmlns="http://www.w3.org/2000/svg"><g fill="none" fill-rule="evenodd"><rect fill="#FF6D26" fill-rule="nonzero" width="44" height="44" rx="4"/><path d="M29.425 16.94v3.52c-.055 4.015-3.19 7.15-7.095 7.15s-7.04-3.135-7.095-7.15v-3.52h14.19v-4.29H11.99c-.55.055-.99.495-.99 1.045v6.93c0 .77.055 1.485.22 2.255.165.715.33 1.43.715 2.09.275.715.66 1.375 1.045 1.925.44.55.825 1.155 1.32 1.65.275.275.66.55.935.88.22.22.495.33.715.55.55.44 1.265.77 1.925 1.045.715.275 1.43.495 2.145.66.715.165 1.485.22 2.255.22.77 0 1.54-.055 2.255-.22.715-.165 1.43-.33 2.145-.66.715-.275 1.32-.66 1.925-1.045.275-.22.495-.33.715-.55.275-.275.66-.55.935-.88.495-.495.99-1.045 1.32-1.65.44-.55.77-1.21 1.045-1.925.275-.715.495-1.43.715-2.09.165-.715.22-1.485.22-2.255V16.94h-4.125z" fill="#FFF"/></g></svg>