<svg width="30" height="30" xmlns="http://www.w3.org/2000/svg"><defs><linearGradient x1="50%" y1="0%" x2="50%" y2="100%" id="a"><stop stop-color="#F6C650" offset="0%"/><stop stop-color="#F1A541" offset="100%"/></linearGradient></defs><g transform="translate(-.732 -.469)" fill="none" fill-rule="evenodd"><rect fill="#FBEDB5" x="8.58" y=".938" width="14.304" height="5.537" rx="1.5"/><path d="M5.336 3.706h20.792c1.14 0 2.063.923 2.063 2.063v22.637c0 1.14-.923 2.063-2.063 2.063H5.336a2.063 2.063 0 0 1-2.062-2.063V5.77c0-1.14.923-2.063 2.062-2.063z" fill="url(#a)"/><path d="M9.987.938h11.491c.777 0 1.407.63 1.407 1.406v2.724c0 .777-.63 1.407-1.407 1.407H9.987c-.777 0-1.407-.63-1.407-1.407V2.344c0-.777.63-1.406 1.407-1.406z" fill="#F8D46A"/><path d="M22.885 3.706H8.58V2.344c0-.777.63-1.406 1.407-1.406h11.491c.777 0 1.407.63 1.407 1.406v1.362z" fill="#FBEDB5"/><path d="M20.4 13.604a1.219 1.219 0 0 1 1.74 1.708l-6.992 7.12a1.219 1.219 0 0 1-1.727.011l-4.083-4.045a1.219 1.219 0 0 1 1.715-1.732l3.214 3.184 6.133-6.246z" fill="#FFF" fill-rule="nonzero"/></g></svg>