<svg width="44" height="44" xmlns="http://www.w3.org/2000/svg"><g fill="none" fill-rule="evenodd"><rect fill="#FF7738" fill-rule="nonzero" width="44" height="44" rx="4"/><path d="M36.274 17.013v17.894a.587.587 0 0 1-.587.586H8.114a.587.587 0 0 1-.587-.586V17.013h-.88v-6.746c0-.324.263-.587.587-.587h29.333c.324 0 .587.263.587.587v6.746h-.88z" fill="#FFF"/><path fill="#FF7738" opacity=".2" d="M7.527 17.893h28.747v-.88H7.527z"/><path d="M33.634 33.147h.586V28.16h-.586v4.987zm-1.174 0h.587V28.16h-.587v4.987zm-7.506 0h1.173V28.16h-1.173v4.987zm-1.174 0h.587V28.16h-.587v4.987zm7.214 0h.88V28.16h-.88v4.987zm-1.174 0h.587V28.16h-.587v4.987zm-1.76 0h1.174V28.16H28.06v4.987zm-1.173 0h.587V28.16h-.587v4.987z" fill="#FF7738" opacity=".3"/><path fill="#FFAB85" d="M16.626 9.68h10.549v12.323l-1.452-.88-1.136.88-1.208-.88-1.209.88-1.279-.88-1.355.88-1.352-.88-1.558.88z"/></g></svg>