<svg width="44" height="44" xmlns="http://www.w3.org/2000/svg"><g fill="none" fill-rule="evenodd"><rect fill="#5EC8FC" fill-rule="nonzero" width="44" height="44" rx="4"/><path d="M12.372 7.333h18.732V36.96H12.55c-1.909 0-3.457-1.56-3.457-3.485V10.819c0-1.925 1.37-3.486 3.28-3.486" fill="#FFF"/><path fill="#FFF" d="M18.187 36.96h16.72V35.2h-16.72z"/><path fill="#FFF" d="M33.147 36.96h1.76V11.147h-1.76z"/><path d="M13.505 29.919h17.71v5.28h-17.53c-1.566 0-2.835-1.182-2.835-2.64 0-1.458 1.09-2.64 2.655-2.64" fill="#5EC8FC"/><path fill="#FFF" d="M31.093 31.68v1.76h-16.72v-1.76"/><path d="M20.535 20.995l-4.695 3.348V14.67l4.695 3.348V14.67l6.745 4.836-6.745 4.836v-3.348z" fill="#5EC8FC" opacity=".5"/></g></svg>