<svg width="46" height="46" xmlns="http://www.w3.org/2000/svg"><defs><linearGradient x1="50%" y1="0%" x2="50%" y2="100%" id="a"><stop stop-color="#CBCBCB" offset="0%"/><stop stop-color="#969696" offset="100%"/></linearGradient></defs><g transform="translate(-.75)" fill="none" fill-rule="evenodd"><rect fill="#C3C3C3" opacity=".359" x="14.921" y="5" width="17.165" height="6.645" rx="1.5"/><path d="M11.029 8.322h24.95a2.475 2.475 0 0 1 2.475 2.475v27.165a2.475 2.475 0 0 1-2.475 2.475H11.03a2.475 2.475 0 0 1-2.475-2.475V10.797a2.475 2.475 0 0 1 2.475-2.475z" fill="url(#a)"/><path d="M14.921 8.322h17.165v1.635c0 .932-.755 1.688-1.687 1.688h-13.79a1.687 1.687 0 0 1-1.688-1.688V8.322z" fill="#BABABA"/><path d="M17.83 26.207v2.636h2.595l9.36-8.888a1.816 1.816 0 0 0 .043-2.591 1.884 1.884 0 0 0-2.64-.044l-9.359 8.887z" fill="#FFF" fill-rule="nonzero"/><rect fill="#FFF" x="17.504" y="30" width="10" height="1.4" rx=".7"/></g></svg>