<svg width="32" height="33" xmlns="http://www.w3.org/2000/svg"><defs><linearGradient x1="50%" y1="13.221%" x2="50%" y2="100%" id="a"><stop stop-color="#5490F7" offset="0%"/><stop stop-color="#4670F6" offset="100%"/></linearGradient></defs><g fill="none" fill-rule="evenodd"><path d="M3.296 8.753L6.83 2.735C7.793 1.095 9.455.104 11.24.104h9.616c1.805 0 3.482 1.014 4.44 2.683l3.412 5.949a67.74 67.74 0 0 0 2.558-.56 9.9 9.9 0 0 1 .605 2.089c.136.791-.275 1.575-.992 1.894l-.41.182v6.216c0 1.69-.178 3.236-.536 4.639-.14.547-.62.929-1.17.929H24.42a.819.819 0 0 1-.807-.83v-2.283c-2.56.248-5.119.371-7.679.371-2.56 0-5.1-.123-7.624-.371l-.026 2.254a.818.818 0 0 1-.807.82H3.197c-.556 0-1.04-.39-1.174-.944a19.407 19.407 0 0 1-.554-4.58V12.31l-.462-.199c-.708-.305-1.116-1.075-.982-1.853C.107 9.784.31 9.09.63 8.176c.889.21 1.778.403 2.666.577z" fill="url(#a)" transform="translate(0 3.613)"/><g fill="#3A69F5" opacity=".4"><path d="M4.569 16.243l3.078.452a.5.5 0 0 1 .427.495v2.137a.5.5 0 0 1-.564.496l-3.078-.4a.5.5 0 0 1-.436-.496v-2.19a.5.5 0 0 1 .573-.494zM27.953 16.737v2.19a.5.5 0 0 1-.436.496l-3.078.4a.5.5 0 0 1-.565-.496V17.19a.5.5 0 0 1 .428-.495l3.078-.452a.5.5 0 0 1 .573.494z"/></g><path d="M10.558 12.098H21.36c.056 1.185.07 1.988.042 2.407-.042.629-.939 4.85-5.415 4.85-4.477 0-5.43-4.233-5.489-4.85-.04-.411-.02-1.214.059-2.407z" stroke="#FFF" stroke-width="2.2" stroke-linecap="round" stroke-linejoin="round"/></g></svg>