<svg width="26" height="26" xmlns="http://www.w3.org/2000/svg"><g fill="#7B7D80" fill-rule="evenodd"><path d="M12.552 2.179c-6.09 0-11.028 4.937-11.028 11.027 0 6.09 4.937 11.028 11.028 11.028 6.09 0 11.027-4.937 11.027-11.028 0-6.09-4.937-11.027-11.027-11.027zm0-1.524c6.932 0 12.551 5.62 12.551 12.551 0 6.932-5.62 12.552-12.551 12.552C5.62 25.758 0 20.138 0 13.206 0 6.274 5.62.655 12.552.655z" fill-rule="nonzero"/><path d="M11.19 19.782c.232.2.53.233.752.207.135-.018.282-.058.336-.072l2.167-.733c.465-.155.692-.462.526-1.003-.167-.465-.555-.592-.931-.5l-1.198.334 1.065-6.308a1.015 1.015 0 0 0-.235-.868c-.224-.238-.595-.276-.83-.215l-2.06.698c-.374.095-.575.58-.475.954.135.497.523.672.897.577l.902-.273-1.1 6.524c-.052.232.011.514.183.678z"/><circle cx="12.552" cy="6.677" r="1.364"/></g></svg>