<svg width="28" height="28" xmlns="http://www.w3.org/2000/svg"><defs><linearGradient x1="12.591%" y1="4.332%" x2="76.044%" y2="93.167%" id="a"><stop stop-color="#8AD4FB" offset="0%"/><stop stop-color="#4D99F7" offset="100%"/></linearGradient></defs><g transform="translate(-1 -1.469)" fill="none" fill-rule="evenodd"><rect fill="#93C4F7" x="12.324" y="25.21" width="15" height="3.852" rx="1.926"/><circle fill="url(#a)" cx="15" cy="15.469" r="13.594"/><g fill="#FFF" fill-rule="nonzero"><path d="M10.308 19.023a.966.966 0 0 1-.961-.972c0-.537.43-.972.96-.972h9.329c.53 0 .96.435.96.972 0 .537-.43.972-.96.972h-9.328zM10.308 14.898a.966.966 0 0 1-.961-.972c0-.537.43-.972.96-.972h9.329c.53 0 .96.435.96.972 0 .537-.43.972-.96.972h-9.328z"/><path d="M14 14.12a.972.972 0 1 1 1.943 0v6.952a.972.972 0 1 1-1.943 0V14.12z"/><path d="M10.408 10.308a.972.972 0 0 1 1.305-1.44l4.787 4.338a.972.972 0 1 1-1.305 1.44l-4.787-4.338zM18.431 11.114a.972.972 0 0 1-1.268-1.473l.987-.85a.972.972 0 0 1 1.269 1.472l-.988.85z"/></g></g></svg>