<?xml version="1.0" encoding="UTF-8"?>
<svg width="40px" height="40px" viewBox="0 0 40 40" version="1.1" xmlns="http://www.w3.org/2000/svg" xmlns:xlink="http://www.w3.org/1999/xlink">
    <!-- Generator: Sketch 52.4 (67378) - http://www.bohemiancoding.com/sketch -->
    <title>分组</title>
    <desc>Created with Sketch.</desc>
    <defs>
        <filter x="-98.3%" y="-127.8%" width="297.7%" height="357.8%" filterUnits="objectBoundingBox" id="filter-1">
            <feOffset dx="0" dy="3" in="SourceAlpha" result="shadowOffsetOuter1"></feOffset>
            <feGaussianBlur stdDeviation="3" in="shadowOffsetOuter1" result="shadowBlurOuter1"></feGaussianBlur>
            <feColorMatrix values="0 0 0 0 0.341055515   0 0 0 0 0.866363733   0 0 0 0 0.766114073  0 0 0 0 0" type="matrix" in="shadowBlurOuter1" result="shadowMatrixOuter1"></feColorMatrix>
            <feMerge>
                <feMergeNode in="shadowMatrixOuter1"></feMergeNode>
                <feMergeNode in="SourceGraphic"></feMergeNode>
            </feMerge>
        </filter>
        <linearGradient x1="88.0431957%" y1="50%" x2="0%" y2="50%" id="linearGradient-2">
            <stop stop-color="#FFFFFF" stop-opacity="0" offset="0%"></stop>
            <stop stop-color="#A6F9EA" offset="100%"></stop>
        </linearGradient>
    </defs>
    <g id="设计稿" stroke="none" stroke-width="1" fill="none" fill-rule="evenodd">
        <g id="A4_首页-Copy" transform="translate(-212.000000, -402.000000)" fill-rule="nonzero">
            <g id="Group-10" transform="translate(18.000000, 393.000000)">
                <g id="Oval-4-Copy" transform="translate(178.000000, 0.000000)">
                    <g id="首页入口/费控" transform="translate(16.000000, 8.915000)">
                        <g id="分组" transform="translate(0.826087, 0.826087)">
                            <rect id="矩形" x="0" y="0" width="38.3478261" height="38.3478261"></rect>
                            <g id="勾" transform="translate(4.336957, 4.336957)">
                                <g id="Group-11" transform="translate(0.260870, 0.260870)">
                                    <path d="M3.58637563,4.07530932 L26.1527548,4.07530932 C27.8096091,4.07530932 29.1527548,5.41845507 29.1527548,7.07530932 L29.1527548,26.1440155 C29.1527548,27.8008698 27.8096091,29.1440155 26.1527548,29.1440155 L3.58637563,29.1440155 C1.92952138,29.1440155 0.586375632,27.8008698 0.586375632,26.1440155 L0.586375632,7.07530932 C0.586375632,5.41845507 1.92952138,4.07530932 3.58637563,4.07530932 Z" id="Combined-Shape" fill="#65DEC6"></path>
                                    <g id="Group-8" transform="translate(4.597826, 0.000000)" fill="#65DEC6">
                                        <path d="M1.36451357,1.77243097 L4.78842661,1.77243097 C6.11210909,1.77243097 7.18516574,2.84548763 7.18516574,4.1691701 L7.18516574,4.1691701 C7.18516574,5.49285257 6.11210909,6.56590923 4.78842661,6.56590923 L1.36451357,6.56590923 C0.0408310997,6.56590923 -1.03222556,5.49285257 -1.03222556,4.1691701 L-1.03222556,4.1691701 C-1.03222556,2.84548763 0.0408310997,1.77243097 1.36451357,1.77243097 Z" id="Rectangle-8-Copy-9" transform="translate(3.076470, 4.169170) rotate(90.000000) translate(-3.076470, -4.169170) "></path>
                                        <path d="M16.3591107,1.77243097 L19.7830237,1.77243097 C21.1067062,1.77243097 22.1797628,2.84548763 22.1797628,4.1691701 L22.1797628,4.1691701 C22.1797628,5.49285257 21.1067062,6.56590923 19.7830237,6.56590923 L16.3591107,6.56590923 C15.0354282,6.56590923 13.9623715,5.49285257 13.9623715,4.1691701 L13.9623715,4.1691701 C13.9623715,2.84548763 15.0354282,1.77243097 16.3591107,1.77243097 Z" id="Rectangle-8-Copy-10" transform="translate(18.071067, 4.169170) rotate(90.000000) translate(-18.071067, -4.169170) "></path>
                                    </g>
                                    <g id="勾" filter="url(#filter-1)" transform="translate(5.967391, 9.761836)">
                                        <path d="M3.75967887,5.77235126 L17.455331,5.77235126 C18.211721,5.77235126 18.8248963,6.38552649 18.8248963,7.14191648 L18.8248963,7.14191648 C18.8248963,7.89830646 18.211721,8.5114817 17.455331,8.5114817 L6.49880931,8.5114817 C4.98602934,8.5114817 3.75967887,7.28513123 3.75967887,5.77235126 Z" id="Rectangle" fill="#FFFFFF" transform="translate(11.292288, 7.141916) rotate(-45.000000) translate(-11.292288, -7.141916) "></path>
                                        <path d="M1.1095477,7.84194816 L8.95149586,7.84194816 L8.95149586,7.84194816 C8.95149586,9.35472813 7.72514539,10.5810786 6.21236543,10.5810786 L1.1095477,10.5810786 C0.353157718,10.5810786 -0.260017516,9.96790336 -0.260017516,9.21151338 L-0.260017516,9.21151338 C-0.260017516,8.4551234 0.353157718,7.84194816 1.1095477,7.84194816 Z" id="Rectangle-2" fill="#FFFFFF" transform="translate(4.345739, 9.211513) rotate(45.000000) translate(-4.345739, -9.211513) "></path>
                                        <path d="M6.39797455,6.0545901 L14.2399227,6.0545901 C14.9963127,6.0545901 15.6094879,6.66776534 15.6094879,7.42415532 L15.6094879,7.42415532 C15.6094879,8.1805453 14.9963127,8.79372054 14.2399227,8.79372054 L7.89797455,8.79372054 C7.06954742,8.79372054 6.39797455,8.12214766 6.39797455,7.29372054 L6.39797455,6.0545901 Z" id="Rectangle-2" fill="url(#linearGradient-2)" transform="translate(11.003731, 7.424155) rotate(-45.000000) translate(-11.003731, -7.424155) "></path>
                                    </g>
                                </g>
                            </g>
                        </g>
                    </g>
                </g>
            </g>
        </g>
    </g>
</svg>