<svg width="25" height="28" xmlns="http://www.w3.org/2000/svg"><defs><linearGradient x1="50%" y1="0%" x2="50%" y2="100%" id="a"><stop stop-color="#8CA3F8" offset="0%"/><stop stop-color="#4F75F6" offset="100%"/></linearGradient></defs><g fill="none" fill-rule="evenodd"><path d="M6.502 19.514h12.177l.807 6.531a.938.938 0 0 1-.93 1.052H6.626a.938.938 0 0 1-.931-1.052l.807-6.53z" fill="#A6B9FA"/><path d="M5.156 2.727h19.681c1.036 0 1.875.84 1.875 1.875v18.744c0 1.035-.84 1.875-1.875 1.875H5.157a1.875 1.875 0 0 1-1.876-1.875V4.602c0-1.035.84-1.875 1.875-1.875z" fill="url(#a)" transform="translate(-2.406 -2)"/><path d="M8.591 16.788a1.195 1.195 0 0 1-2.018-1.28l2.636-4.155c.22-.345.6-.555 1.01-.555h3.916l2.473-3.666A1.195 1.195 0 1 1 18.59 8.47l-2.828 4.193c-.223.33-.594.527-.991.527h-3.895l-2.285 3.6z" fill="#FFF" fill-rule="nonzero"/></g></svg>