<svg width="27" height="28" xmlns="http://www.w3.org/2000/svg"><defs><linearGradient x1="50%" y1="0%" x2="50%" y2="100%" id="a"><stop stop-color="#EF879D" offset="0%"/><stop stop-color="#EA406B" offset="100%"/></linearGradient></defs><g fill="none" fill-rule="evenodd"><path d="M14.258 16.4h10.087c1.036 0 1.875.84 1.875 1.875v7.713c0 1.035-.84 1.875-1.875 1.875H14.258V16.4z" fill="#F3ABB9"/><path d="M1.575 5.036c0-1.026.826-1.862 1.852-1.875l17.804-.224a1.875 1.875 0 0 1 1.899 1.875V26.7c0 .917.626 2.04 1.878 3.371H7.2a5.625 5.625 0 0 1-5.625-5.625V5.036z" fill="url(#a)" transform="translate(-1.03 -2.208)"/><path d="M6.753 6.585h8.174a1.396 1.396 0 1 1 0 2.791H6.753a1.396 1.396 0 1 1 0-2.79zM6.753 13.19h4.585a1.396 1.396 0 1 1 0 2.791H6.753a1.396 1.396 0 0 1 0-2.79z" fill="#FFF"/></g></svg>