<?xml version="1.0" encoding="UTF-8"?>
<svg width="38px" height="39px" viewBox="0 0 38 39" version="1.1" xmlns="http://www.w3.org/2000/svg" xmlns:xlink="http://www.w3.org/1999/xlink">
    <!-- Generator: Sketch 52.4 (67378) - http://www.bohemiancoding.com/sketch -->
    <title>Group 7</title>
    <desc>Created with Sketch.</desc>
    <defs>
        <linearGradient x1="50%" y1="0%" x2="50%" y2="100%" id="linearGradient-1">
            <stop stop-color="#FFFFFF" offset="0%"></stop>
            <stop stop-color="#FFFFFF" offset="100%"></stop>
        </linearGradient>
    </defs>
    <g id="设计稿" stroke="none" stroke-width="1" fill="none" fill-rule="evenodd">
        <g id="A4_首页-Copy" transform="translate(-38.000000, -514.000000)" fill-rule="nonzero">
            <g id="Group-10-Copy" transform="translate(21.000000, 505.000000)">
                <g id="Oval-4">
                    <g id="首页入口/费控" transform="translate(17.000000, 9.915000)">
                        <g id="Group-7" transform="translate(0.048888, 0.048888)">
                            <rect id="矩形" x="0" y="0" width="37.9022243" height="37.9022243"></rect>
                            <g id="Group-2" transform="translate(2.707302, 2.115528)">
                                <circle id="Oval" fill="#6192FF" cx="16.2438104" cy="16.3552826" r="15.8184226"></circle>
                                <path d="M16.2438104,4.6746552 L16.2438104,4.6746552 C16.9914112,4.6746552 17.5974613,5.28070533 17.5974613,6.02830607 L17.5974613,16.2530617 C17.5974613,17.0006624 16.9914112,17.6067126 16.2438104,17.6067126 L16.2438104,17.6067126 C15.4962097,17.6067126 14.8901596,17.0006624 14.8901596,16.2530617 L14.8901596,6.02830607 C14.8901596,5.28070533 15.4962097,4.6746552 16.2438104,4.6746552 Z" id="Rectangle-24" fill="url(#linearGradient-1)" opacity="0.799999952"></path>
                                <path d="M21.7522094,11.4540422 L21.7522094,11.4540422 C22.4998101,11.4540422 23.1058603,12.0600923 23.1058603,12.8076931 L23.1058603,21.3184751 C23.1058603,22.0660758 22.4998101,22.672126 21.7522094,22.672126 L21.7522094,22.672126 C21.0046087,22.672126 20.3985585,22.0660758 20.3985585,21.3184751 L20.3985585,12.8076931 C20.3985585,12.0600923 21.0046087,11.4540422 21.7522094,11.4540422 Z" id="Rectangle-24-Copy-3" fill="url(#linearGradient-1)" opacity="0.699999988" transform="translate(21.752209, 17.063084) rotate(90.000000) translate(-21.752209, -17.063084) "></path>
                                <circle id="Oval-2" fill="#FFFFFF" cx="16.2438104" cy="17.0630841" r="2.57193665"></circle>
                            </g>
                        </g>
                    </g>
                </g>
            </g>
        </g>
    </g>
</svg>