<?xml version="1.0" encoding="UTF-8"?>
<svg width="24px" height="24px" viewBox="0 0 24 24" version="1.1" xmlns="http://www.w3.org/2000/svg" xmlns:xlink="http://www.w3.org/1999/xlink">
    <!-- Generator: Sketch 52.5 (67469) - http://www.bohemiancoding.com/sketch -->
    <title>矩形</title>
    <desc>Created with Sketch.</desc>
    <g id="Page-1" stroke="none" stroke-width="1" fill="none" fill-rule="evenodd">
        <g id="cut" transform="translate(-93.000000, -59.000000)">
            <g id="icon_a-fk_home_2_nor-copy" transform="translate(93.000000, 59.000000)">
                <rect id="矩形" fill="#FFFFFF" opacity="0" x="0" y="0" width="24" height="24"></rect>
                <path d="M5,14 L19,14 C20.1045695,14 21,14.8954305 21,16 L21,18 C21,18.5522847 20.5522847,19 20,19 L4,19 C3.44771525,19 3,18.5522847 3,18 L3,16 C3,14.8954305 3.8954305,14 5,14 Z" id="矩形" fill="#5585F0"></path>
                <rect id="矩形" fill="#5585F0" x="3" y="20" width="18" height="2" rx="1"></rect>
                <circle id="椭圆形" fill="#5585F0" cx="12" cy="6.03851929" r="4"></circle>
                <polygon id="矩形" fill="#5585F0" points="8 6.55050327 16 6.55050327 13.757485 15.5505033 10.242515 15.5505033"></polygon>
            </g>
        </g>
    </g>
</svg>