<?xml version="1.0" encoding="UTF-8"?>
<svg width="24px" height="24px" viewBox="0 0 24 24" version="1.1" xmlns="http://www.w3.org/2000/svg" xmlns:xlink="http://www.w3.org/1999/xlink">
    <!-- Generator: Sketch 52.5 (67469) - http://www.bohemiancoding.com/sketch -->
    <title>矩形</title>
    <desc>Created with Sketch.</desc>
    <g id="Page-1" stroke="none" stroke-width="1" fill="none" fill-rule="evenodd">
        <g id="cut" transform="translate(-38.000000, -22.000000)">
            <g id="icon_a-fk_home_1_nor" transform="translate(38.000000, 22.000000)">
                <rect id="矩形" fill="#FFFFFF" opacity="0" x="0" y="0" width="24" height="24"></rect>
                <rect id="矩形" fill="#B2BAC8" x="3" y="4.51281518" width="18" height="18" rx="1.5"></rect>
                <path d="M10.3087901,2.51281518 L13.8387935,2.51281518 C14.2571281,2.51281518 14.6312529,2.77321267 14.7765443,3.16550628 L16.0162662,6.51281518 L8,6.51281518 L9.38334635,3.13393009 C9.53715778,2.75823882 9.9028321,2.51281518 10.3087901,2.51281518 Z" id="矩形" stroke="#B2BAC8" stroke-width="2.5"></path>
                <g id="分组" transform="translate(9.000000, 8.512815)" stroke="#FFFFFF" stroke-linecap="round" stroke-width="1.7">
                    <polyline id="路径" transform="translate(3.000000, 1.959883) rotate(-45.000000) translate(-3.000000, -1.959883) " points="4.22745659 3.18733912 1.77254341 3.18733912 1.77254341 0.732425933"></polyline>
                    <path d="M0.394708878,4.5 L5.67841321,4.5" id="路径-2"></path>
                    <path d="M0,7.17835598 L6,7.17835598" id="路径-2-copy"></path>
                    <path d="M3,5 L3,9.51969121" id="路径-3"></path>
                </g>
            </g>
        </g>
    </g>
</svg>