<?xml version="1.0" encoding="UTF-8"?>
<svg width="24px" height="24px" viewBox="0 0 24 24" version="1.1" xmlns="http://www.w3.org/2000/svg" xmlns:xlink="http://www.w3.org/1999/xlink">
    <!-- Generator: Sketch 52.5 (67469) - http://www.bohemiancoding.com/sketch -->
    <title>矩形</title>
    <desc>Created with Sketch.</desc>
    <g id="Page-1" stroke="none" stroke-width="1" fill="none" fill-rule="evenodd">
        <g id="cut" transform="translate(-149.000000, -22.000000)">
            <g id="icon_a-fk_home_3_nor" transform="translate(149.000000, 22.000000)">
                <rect id="矩形" fill="#FFFFFF" opacity="0" x="0" y="0" width="24" height="24"></rect>
                <path d="M8.6627417,2 L19.4,2 C20.2836556,2 21,2.7163444 21,3.6 L21,20.4 C21,21.2836556 20.2836556,22 19.4,22 L4.6,22 C3.7163444,22 3,21.2836556 3,20.4 L3,7.6627417 C3,7.23839532 3.16857094,6.83142906 3.46862915,6.53137085 L7.53137085,2.46862915 C7.83142906,2.16857094 8.23839532,2 8.6627417,2 Z" id="矩形" fill="#B2BAC8"></path>
                <path d="M8,2 L8,5.4 C8,6.2836556 7.2836556,7 6.4,7 L3,7" id="路径" stroke="#FFFFFF" stroke-width="1.2"></path>
                <path d="M15.6347917,15.3868019 C15.0490528,15.1128632 14.1798729,14.4072151 12.8929134,14.1647399 C13.2220481,13.7941239 13.4711363,13.2145025 13.7273694,12.5278813 C13.8758635,12.1299437 13.8504186,11.7907157 13.8504186,11.3077285 C13.8504186,10.9509944 13.9142681,10.3784272 13.830108,10.0637595 C13.5462443,9.00034186 12.8290124,8.7069555 11.9886488,8.7069555 C11.1475944,8.7069555 10.4294861,9.0017225 10.1461585,10.066963 C10.0626789,10.3806599 10.1266933,10.9519112 10.1266933,11.3077824 C10.1266933,11.7918159 10.1017227,12.132198 10.2506086,12.5307612 C10.5088108,13.2209095 10.7542906,13.7997004 11.0821572,14.1687631 C9.80551794,14.4156607 8.94286424,15.1160343 8.36084724,15.3890994 C7.15650135,15.9541485 7.15059375,16.5727515 7.15059375,16.5727515 L7.15059375,17.6235493 L16.8494063,17.6223412 L16.8494063,16.5727515 C16.8494063,16.5727515 16.8437667,15.9520236 15.634802,15.3868019 L15.6347917,15.3868019 Z" id="路径" fill="#FFFFFF"></path>
            </g>
        </g>
    </g>
</svg>