<?xml version="1.0" encoding="UTF-8"?>
<svg width="24px" height="24px" viewBox="0 0 24 24" version="1.1" xmlns="http://www.w3.org/2000/svg" xmlns:xlink="http://www.w3.org/1999/xlink">
    <!-- Generator: Sketch 52.5 (67469) - http://www.bohemiancoding.com/sketch -->
    <title>icon_a-tabbars_mine_pes</title>
    <desc>Created with Sketch.</desc>
    <g id="Page-1" stroke="none" stroke-width="1" fill="none" fill-rule="evenodd">
        <g id="cut" transform="translate(-202.000000, -22.000000)" fill-rule="nonzero">
            <g id="icon_a-fk_home_4_sel-copy" transform="translate(202.000000, 22.000000)">
                <rect id="checkbox" x="0" y="0" width="24" height="24"></rect>
                <path d="M5.1,3.5 L9.4014831,3.5 C10.2851387,3.5 11.0014831,4.2163444 11.0014831,5.1 L11.0014831,9.4014831 C11.0014831,10.2851387 10.2851387,11.0014831 9.4014831,11.0014831 L5.1,11.0014831 C4.2163444,11.0014831 3.5,10.2851387 3.5,9.4014831 L3.5,5.1 C3.5,4.2163444 4.2163444,3.5 5.1,3.5 Z M5.1,13.0031755 L9.39682448,13.0031755 C10.2804801,13.0031755 10.9968245,13.7195199 10.9968245,14.6031755 L10.9968245,18.9 C10.9968245,19.7836556 10.2804801,20.5 9.39682448,20.5 L5.1,20.5 C4.2163444,20.5 3.5,19.7836556 3.5,18.9 L3.5,14.6031755 C3.5,13.7195199 4.2163444,13.0031755 5.1,13.0031755 Z M14.6009154,3.5 L18.9,3.5 C19.7836556,3.5 20.5,4.2163444 20.5,5.1 L20.5,9.39908462 C20.5,10.2827402 19.7836556,10.9990846 18.9,10.9990846 L14.6009154,10.9990846 C13.7172598,10.9990846 13.0009154,10.2827402 13.0009154,9.39908462 L13.0009154,5.1 C13.0009154,4.2163444 13.7172598,3.5 14.6009154,3.5 Z M14.5980779,12.9980779 L18.9,12.9980779 C19.7836556,12.9980779 20.5,13.7144223 20.5,14.5980779 L20.5,18.9 C20.5,19.7836556 19.7836556,20.5 18.9,20.5 L14.5980779,20.5 C13.7144223,20.5 12.9980779,19.7836556 12.9980779,18.9 L12.9980779,14.5980779 C12.9980779,13.7144223 13.7144223,12.9980779 14.5980779,12.9980779 Z" id="Combined-Shape" fill="#B2BAC8"></path>
            </g>
        </g>
    </g>
</svg>