<svg width="31" height="30" xmlns="http://www.w3.org/2000/svg"><defs><linearGradient x1="50%" y1="78.143%" x2="50%" y2="0%" id="a"><stop stop-color="#66D3BA" offset="0%"/><stop stop-color="#99F3E0" offset="100%"/></linearGradient></defs><g transform="translate(.54)" fill="none" fill-rule="evenodd"><ellipse fill="#A2F0DF" cx="15.053" cy="26.315" rx="7.031" ry="3.677"/><g transform="translate(2.813)"><path d="M12.24 27.032c7.82-6.241 11.73-11.449 11.73-15.623C23.97 5.147 18.72.07 12.24.07 5.762.071.51 5.147.51 11.41c0 4.174 3.91 9.382 11.73 15.623z" fill="url(#a)"/><ellipse fill="#FFF" cx="12.24" cy="11.897" rx="4.812" ry="4.814"/><path d="M8 23.396c1.18-.476 2.648-.758 4.24-.758 1.593 0 3.061.282 4.24.758a73.061 73.061 0 0 1-4.24 3.636A73.061 73.061 0 0 1 8 23.396z" fill="#70E0C3"/></g></g></svg>