<?xml version="1.0" encoding="UTF-8"?>
<svg width="40px" height="40px" viewBox="0 0 40 40" version="1.1" xmlns="http://www.w3.org/2000/svg" xmlns:xlink="http://www.w3.org/1999/xlink">
    <!-- Generator: Sketch 52.4 (67378) - http://www.bohemiancoding.com/sketch -->
    <title>分组</title>
    <desc>Created with Sketch.</desc>
    <defs>
        <linearGradient x1="105.201585%" y1="100%" x2="17.725656%" y2="-10.2238439%" id="linearGradient-1">
            <stop stop-color="#CFEFFF" offset="0%"></stop>
            <stop stop-color="#A2DBFE" offset="100%"></stop>
        </linearGradient>
    </defs>
    <g id="设计稿" stroke="none" stroke-width="1" fill="none" fill-rule="evenodd">
        <g id="A4_首页-Copy" transform="translate(-301.000000, -402.000000)" fill-rule="nonzero">
            <g id="Group-10" transform="translate(18.000000, 393.000000)">
                <g id="Oval-4-Copy-2" transform="translate(267.000000, 0.000000)">
                    <g id="首页入口/费控" transform="translate(16.000000, 8.915000)">
                        <g id="分组" transform="translate(0.826087, 0.826087)">
                            <rect id="矩形" x="0" y="0" width="38.3478261" height="38.3478261"></rect>
                            <g id="Group-10" transform="translate(2.739130, 2.739130)">
                                <path d="M16.5196056,0.444994107 C20.4024498,0.444994107 23.550117,3.63456063 23.550117,7.56909033 L23.550117,10.1593351 L9.4890941,10.1593351 L9.4890941,7.56909033 C9.4890941,3.63456063 12.6367613,0.444994107 16.5196056,0.444994107 Z M21.632771,8.21646693 L21.632771,7.56909033 C21.632771,4.70757711 19.3435289,2.38786231 16.5196056,2.38786231 C13.6956822,2.38786231 11.4064401,4.70757711 11.4064401,7.56909033 L11.4064401,8.21646693 L21.632771,8.21646693 Z" id="Combined-Shape" stroke="#67C1FB" stroke-width="0.75" fill="#67C1FB"></path>
                                <path d="M30.0408437,15.7415066 L30.7169056,15.7415066 L30.7169056,27.1442615 C30.7169056,28.5749501 29.5061727,29.7347524 28.012658,29.7347524 L5.02655314,29.7347524 C3.53303841,29.7347524 2.32230551,28.5749501 2.32230551,27.1442615 L2.32230551,15.7415066 L2.99836742,15.7415066 C1.50485269,15.7415066 0.29411979,14.5817043 0.29411979,13.1510156 L0.29411979,8.61765647 C0.29411979,7.18696783 1.50485269,6.02716553 2.99836742,6.02716553 L30.0408437,6.02716553 C31.5343584,6.02716553 32.7450913,7.18696783 32.7450913,8.61765647 L32.7450913,13.1510156 C32.7450913,14.5817043 31.5343584,15.7415066 30.0408437,15.7415066 Z" id="Combined-Shape" fill="#67C1FB"></path>
                                <g id="Group" transform="translate(10.980451, 14.844309)">
                                    <path d="M1.24883755,1.74070974 L1.24883755,5.4239205 L10.1792373,5.4239205 L10.1792373,1.74070974 L1.24883755,1.74070974 Z" id="Rectangle-24-Copy-5" stroke="#FFFFFF" stroke-width="2.1" opacity="0.899999976"></path>
                                    <polygon id="Path-8" fill="url(#linearGradient-1)" points="2.00879439 4.69661211 0.198228976 6.4862771 11.2628907 6.4862771 11.2496397 0.690198057 9.39472179 2.37473216 9.39472179 4.69661211"></polygon>
                                </g>
                            </g>
                        </g>
                    </g>
                </g>
            </g>
        </g>
    </g>
</svg>