<svg width="30" height="24" xmlns="http://www.w3.org/2000/svg"><defs><linearGradient x1="67.019%" y1="-43.416%" x2="50%" y2="100%" id="a"><stop stop-color="#6BA0FF" offset="0%"/><stop stop-color="#4F88F7" offset="100%"/></linearGradient><linearGradient x1="50%" y1="13.221%" x2="50%" y2="100%" id="b"><stop stop-color="#5490F7" offset="0%"/><stop stop-color="#4670F6" offset="100%"/></linearGradient></defs><g fill="none" fill-rule="evenodd"><path d="M2.971 14.077l3.453-5.88c.906-1.542 2.469-2.474 4.147-2.474h9.045c1.697 0 3.274.953 4.175 2.523l3.345 5.831c-4.11.77-8.156 1.156-12.14 1.156a63.97 63.97 0 0 1-12.025-1.156z" fill="url(#a)" opacity=".85" transform="translate(0 -4.767)"/><path d="M7.817 25.387l-.025 2.12a.77.77 0 0 1-.759.772H3.007c-.523 0-.978-.367-1.104-.888a18.253 18.253 0 0 1-.522-4.308v-5.88l-.434-.187a1.599 1.599 0 0 1-.923-1.743c.077-.445.266-1.098.569-1.958a62.526 62.526 0 0 0 14.442 1.709c4.815 0 9.605-.57 14.372-1.709a9.31 9.31 0 0 1 .569 1.964 1.643 1.643 0 0 1-.934 1.782l-.385.17v5.847c0 1.59-.168 3.044-.504 4.363a1.144 1.144 0 0 1-1.1.874h-4.084a.77.77 0 0 1-.759-.78v-2.148c-2.407.233-4.815.35-7.222.35-2.408 0-4.798-.117-7.171-.35z" fill="url(#b)" transform="translate(0 -4.767)"/><g fill="#FFF"><path d="M4.331 12.741l2.836.417a.5.5 0 0 1 .427.495v1.95a.5.5 0 0 1-.564.497l-2.836-.369a.5.5 0 0 1-.436-.495v-2a.5.5 0 0 1 .573-.495zM26.29 13.236v2a.5.5 0 0 1-.435.495l-2.836.368a.5.5 0 0 1-.564-.495v-1.951a.5.5 0 0 1 .427-.495l2.836-.417a.5.5 0 0 1 .572.495z"/></g></g></svg>