<svg width="26" height="28" xmlns="http://www.w3.org/2000/svg"><defs><linearGradient x1="11.649%" y1="0%" x2="100%" y2="100%" id="a"><stop stop-color="#99F1CA" offset="0%"/><stop stop-color="#5CC27F" offset="100%"/></linearGradient></defs><g fill="none" fill-rule="evenodd"><path d="M3.11 2.63h19.688a5.625 5.625 0 0 1 5.625 5.625v22.031H8.736a5.625 5.625 0 0 1-5.625-5.625V2.631z" fill="url(#a)" transform="translate(-2.767 -2.286)"/><path d="M7.855 18.612a.73.73 0 0 1-.88-.18l-3.004-3.515a.73.73 0 0 1 .821-1.154l3.071 1.208c.317.125.675.083.955-.11l7.356-5.084a4.59 4.59 0 0 1 4.153-.546l1.323.473a.474.474 0 0 1 .102.842c-3.504 2.314-5.927 3.856-7.27 4.624-1.368.783-3.577 1.93-6.627 3.442z" fill="#FFF"/><path d="M11.458 19.79c1.666 0 2.318-1.664 3.747-5.11a4068.99 4068.99 0 0 0-3.542 1.998c-.697 1.914-.765 2.951-.205 3.111z" fill="#FFF"/></g></svg>