<?xml version="1.0" encoding="UTF-8"?>
<svg width="18px" height="18px" viewBox="0 0 18 18" version="1.1" xmlns="http://www.w3.org/2000/svg" xmlns:xlink="http://www.w3.org/1999/xlink">
    <!-- Generator: Sketch 52.2 (67145) - http://www.bohemiancoding.com/sketch -->
    <title>icon_a-details_tab-write</title>
    <desc>Created with Sketch.</desc>
    <g id="icon_a-details_tab-write" stroke="none" stroke-width="1" fill="none" fill-rule="evenodd">
        <g id="Group" transform="translate(-8.000000, -8.000000)" fill="#E3E4E8" fill-rule="nonzero">
            <path d="M9.93807531,26 C9.46019388,26 9.07279443,25.5970563 9.07279443,25.1 C9.07279443,24.6029437 9.46019388,24.2 9.93807531,24.2 L23.3980002,24.2 C23.8758816,24.2 24.2632811,24.6029437 24.2632811,25.1 C24.2632811,25.5970563 23.8758816,26 23.3980002,26 L9.93807531,26 Z" id="Shape"></path>
            <g id="Group-2" transform="translate(16.000000, 15.500000) rotate(45.000000) translate(-16.000000, -15.500000) translate(5.000000, 5.000000)">
                <path d="M8.20190712,3.95740467 L14.1765646,3.95740453 C14.7265166,3.95740452 15.1723408,4.40322872 15.1723408,4.95318076 L15.1723406,16.0945451 C15.1723406,16.617686 14.9665004,17.1198203 14.5993027,17.4924356 L11.8984928,20.2330927 C11.5124761,20.6248047 10.8820023,20.6294216 10.4902903,20.2434048 C10.4868278,20.2399927 10.4833904,20.2365552 10.4799782,20.2330927 L7.77916849,17.4924357 C7.41197077,17.1198204 7.20613064,16.6176862 7.20613065,16.0945453 L7.20613085,4.95318093 C7.20613087,4.4032289 7.65195509,3.95740468 8.20190712,3.95740467 Z M8.98923592,6.0465562 L8.98923592,15.9266953 C8.98923592,15.9792312 9.00990725,16.0296577 9.04678277,16.0670772 L10.8331031,17.8797526 C11.0269301,18.0764393 11.3435041,18.0787576 11.5401909,17.8849305 C11.5419295,17.8832172 11.5436555,17.8814912 11.5453688,17.8797526 L13.3316891,16.0670772 C13.3685646,16.0296577 13.3892359,15.9792312 13.3892359,15.9266953 L13.3892359,6.0465562 C13.3892359,5.77041382 13.1653783,5.5465562 12.8892359,5.5465562 L9.48923592,5.5465562 C9.21309355,5.5465562 8.98923592,5.77041382 8.98923592,6.0465562 Z" id="Combined-Shape"></path>
            </g>
        </g>
    </g>
</svg>