<svg width="20" height="19" xmlns="http://www.w3.org/2000/svg"><path d="M12.945 4.882c.21.426.617.72 1.086.79l4.066.59c1.183.172 1.655 1.626.799 2.461l-2.941 2.867c-.34.332-.496.81-.415 1.277l.694 4.049c.202 1.178-1.035 2.078-2.093 1.52l-3.636-1.91c-.42-.221-.923-.221-1.343 0l-3.636 1.91c-1.058.558-2.296-.342-2.093-1.52l.694-4.049a1.443 1.443 0 0 0-.415-1.277L.77 8.723c-.857-.835-.384-2.289.8-2.461l4.064-.59c.47-.07.877-.364 1.087-.79l1.817-3.684c.53-1.072 2.06-1.072 2.588 0l1.818 3.684z" fill="#FFC363" fill-rule="evenodd"/></svg>