<?xml version="1.0" encoding="UTF-8"?>
<svg width="36px" height="36px" viewBox="0 0 36 36" version="1.1" xmlns="http://www.w3.org/2000/svg" xmlns:xlink="http://www.w3.org/1999/xlink">
    <!-- Generator: Sketch 52.2 (67145) - http://www.bohemiancoding.com/sketch -->
    <title>分组 6@2x</title>
    <desc>Created with Sketch.</desc>
    <defs>
        <polygon id="path-1" points="-2.27373675e-13 7.10542736e-15 361 7.10542736e-15 361 80 -2.27373675e-13 80"></polygon>
        <filter x="-0.1%" y="-0.6%" width="100.3%" height="101.2%" filterUnits="objectBoundingBox" id="filter-2">
            <feOffset dx="0" dy="-1" in="SourceAlpha" result="shadowOffsetInner1"></feOffset>
            <feComposite in="shadowOffsetInner1" in2="SourceAlpha" operator="arithmetic" k2="-1" k3="1" result="shadowInnerInner1"></feComposite>
            <feColorMatrix values="0 0 0 0 0.968627451   0 0 0 0 0.97254902   0 0 0 0 0.980392157  0 0 0 1 0" type="matrix" in="shadowInnerInner1"></feColorMatrix>
        </filter>
        <linearGradient x1="50%" y1="0%" x2="50%" y2="100%" id="linearGradient-3">
            <stop stop-color="#98CDFA" offset="0%"></stop>
            <stop stop-color="#5F9FF3" offset="100%"></stop>
        </linearGradient>
        <linearGradient x1="50%" y1="0%" x2="50%" y2="100%" id="linearGradient-4">
            <stop stop-color="#FFFFFF" offset="0%"></stop>
            <stop stop-color="#AACFFF" offset="100%"></stop>
        </linearGradient>
        <path d="M15.2797888,2.02570827 L15.2797888,2.46797421 C15.2797888,5.38724197 13.9297888,7.95436395 11.8860388,9.44421152 L11.8860388,11.3445486 C11.8860388,12.2655452 11.2147888,13.0115109 10.3860388,13.0115109 L5.13603876,13.0115109 C4.30728876,13.0115109 3.63603876,12.2655452 3.63603876,11.3445486 L3.63603876,9.41712338 C1.61291376,7.9231084 0.279788756,5.36848865 0.279788756,2.46797421 L0.279788756,2.02570827 L0.279788756,1.61865374 C0.279788756,0.967746715 0.807453158,0.440082313 1.45836018,0.440082313 L14.1012173,0.440082313 C14.7521244,0.440082313 15.2797888,0.967746715 15.2797888,1.61865374 L15.2797888,2.02570827 Z" id="path-5"></path>
        <linearGradient x1="50%" y1="0%" x2="50%" y2="112.625089%" id="linearGradient-7">
            <stop stop-color="#FFFFFF" offset="0%"></stop>
            <stop stop-color="#70ADF5" offset="100%"></stop>
        </linearGradient>
        <linearGradient x1="50%" y1="47.611763%" x2="50%" y2="100%" id="linearGradient-8">
            <stop stop-color="#FFFFFF" offset="0%"></stop>
            <stop stop-color="#AACFFF" offset="100%"></stop>
        </linearGradient>
        <linearGradient x1="50%" y1="0%" x2="50%" y2="112.625089%" id="linearGradient-9">
            <stop stop-color="#FFFFFF" offset="0%"></stop>
            <stop stop-color="#AACFFF" offset="100%"></stop>
        </linearGradient>
        <linearGradient x1="50%" y1="0%" x2="50%" y2="283.200898%" id="linearGradient-10">
            <stop stop-color="#FFFFFF" offset="0%"></stop>
            <stop stop-color="#AACFFF" offset="100%"></stop>
        </linearGradient>
        <polygon id="path-11" points="-2.27373675e-13 7.10542736e-15 361 7.10542736e-15 361 80 -2.27373675e-13 80"></polygon>
        <filter x="-0.1%" y="-0.6%" width="100.3%" height="101.2%" filterUnits="objectBoundingBox" id="filter-12">
            <feOffset dx="0" dy="-1" in="SourceAlpha" result="shadowOffsetInner1"></feOffset>
            <feComposite in="shadowOffsetInner1" in2="SourceAlpha" operator="arithmetic" k2="-1" k3="1" result="shadowInnerInner1"></feComposite>
            <feColorMatrix values="0 0 0 0 0.968627451   0 0 0 0 0.97254902   0 0 0 0 0.980392157  0 0 0 1 0" type="matrix" in="shadowInnerInner1"></feColorMatrix>
        </filter>
        <path d="M15.2797888,2.02570827 L15.2797888,2.46797421 C15.2797888,5.38724197 13.9297888,7.95436395 11.8860388,9.44421152 L11.8860388,11.3445486 C11.8860388,12.2655452 11.2147888,13.0115109 10.3860388,13.0115109 L5.13603876,13.0115109 C4.30728876,13.0115109 3.63603876,12.2655452 3.63603876,11.3445486 L3.63603876,9.41712338 C1.61291376,7.9231084 0.279788756,5.36848865 0.279788756,2.46797421 L0.279788756,2.02570827 L0.279788756,1.61865374 C0.279788756,0.967746715 0.807453158,0.440082313 1.45836018,0.440082313 L14.1012173,0.440082313 C14.7521244,0.440082313 15.2797888,0.967746715 15.2797888,1.61865374 L15.2797888,2.02570827 Z" id="path-13"></path>
        <path d="M15.2797888,2.02570827 L15.2797888,2.46797421 C15.2797888,5.38724197 13.9297888,7.95436395 11.8860388,9.44421152 L11.8860388,11.3445486 C11.8860388,12.2655452 11.2147888,13.0115109 10.3860388,13.0115109 L5.13603876,13.0115109 C4.30728876,13.0115109 3.63603876,12.2655452 3.63603876,11.3445486 L3.63603876,9.41712338 C1.61291376,7.9231084 0.279788756,5.36848865 0.279788756,2.46797421 L0.279788756,2.02570827 L0.279788756,1.61865374 C0.279788756,0.967746715 0.807453158,0.440082313 1.45836018,0.440082313 L14.1012173,0.440082313 C14.7521244,0.440082313 15.2797888,0.967746715 15.2797888,1.61865374 L15.2797888,2.02570827 Z" id="path-15"></path>
    </defs>
    <g id="界面" stroke="none" stroke-width="1" fill="none" fill-rule="evenodd">
        <g id="A_预约页面-男" transform="translate(-14.000000, -138.000000)">
            <rect fill="#FFFFFF" x="0" y="0" width="375" height="667"></rect>
            <g id="分组-2" transform="translate(14.000000, 116.000000)">
                <g id="列表">
                    <g id="分组-2" stroke-width="1" fill-rule="evenodd">
                        <g id="Rectangle-2-Copy" fill="black" fill-opacity="1">
                            <use filter="url(#filter-2)" xlink:href="#path-1"></use>
                        </g>
                        <g id="分组-3" transform="translate(48.000000, 19.000000)">
                            <g id="分组-4">
                                <text id="1号厕位" font-family="PingFangSC-Medium, PingFang SC" font-size="16" font-weight="400" fill="#0A1735">
                                    <tspan x="0" y="17">1号厕位</tspan>
                                </text>
                                <text id="广州总部二楼-男厕" font-family="PingFangSC-Regular, PingFang SC" font-size="13" font-weight="normal" fill="#85868F">
                                    <tspan x="0" y="38">广州总部二楼 男厕</tspan>
                                </text>
                            </g>
                        </g>
                        <g id="如厕" transform="translate(0.000000, 22.000000)">
                            <g id="分组-6">
                                <rect id="矩形" fill="url(#linearGradient-3)" fill-rule="nonzero" x="0" y="0" width="36" height="36" rx="18"></rect>
                                <g id="分组-copy-3" transform="translate(9.500000, 6.500000)">
                                    <g id="椭圆形" transform="translate(1.000000, 9.000000)">
                                        <mask id="mask-6" fill="white">
                                            <use xlink:href="#path-5"></use>
                                        </mask>
                                        <use id="Mask" fill="url(#linearGradient-4)" fill-rule="nonzero" xlink:href="#path-5"></use>
                                        <ellipse fill="url(#linearGradient-7)" fill-rule="nonzero" mask="url(#mask-6)" cx="7.77978876" cy="3.24" rx="7.5" ry="8"></ellipse>
                                        <ellipse id="椭圆形-copy" fill="url(#linearGradient-8)" fill-rule="nonzero" mask="url(#mask-6)" cx="7.77978876" cy="2.73716319" rx="7.5" ry="8"></ellipse>
                                    </g>
                                    <path d="M7.12945516,0 L10.6205448,8.8817842e-16 C12.1533952,6.06598386e-16 13.4626502,1.10579602 13.7191039,2.61704105 L14.875,9.42857143 L2.875,9.42857143 L4.03089606,2.61704105 C4.28734977,1.10579602 5.59660485,2.05793687e-15 7.12945516,1.77635684e-15 Z" id="矩形" fill="url(#linearGradient-9)" fill-rule="nonzero"></path>
                                    <g id="分组-5" transform="translate(0.000000, 9.428571)">
                                        <rect id="矩形" fill="#7BB6F6" x="0" y="0.5" width="17" height="2" rx="1"></rect>
                                        <rect id="矩形-copy-2" fill="url(#linearGradient-10)" fill-rule="nonzero" x="0" y="0" width="17" height="2" rx="1"></rect>
                                    </g>
                                </g>
                            </g>
                        </g>
                    </g>
                    <g id="数据输入/按钮/小/主操作/默认" transform="translate(275.000000, 24.000000)">
                        <rect id="BG" fill="#5585F0" fill-rule="evenodd" x="0" y="0" width="72" height="32" rx="4"></rect>
                        <text id="文字" font-family="PingFangSC-Regular, PingFang SC" font-size="14" font-weight="normal" line-spacing="22" fill="#FFFFFF">
                            <tspan x="21.5" y="20">预约</tspan>
                        </text>
                    </g>
                </g>
                <g id="列表">
                    <g id="分组-2">
                        <g id="Rectangle-2-Copy" fill="black" fill-opacity="1">
                            <use filter="url(#filter-12)" xlink:href="#path-11"></use>
                        </g>
                        <g id="如厕" transform="translate(0.000000, 22.000000)">
                            <g id="分组-6">
                                <rect id="矩形" fill="url(#linearGradient-3)" fill-rule="nonzero" x="0" y="0" width="36" height="36" rx="18"></rect>
                                <g id="分组-copy-3" transform="translate(9.500000, 6.500000)">
                                    <g id="椭圆形" transform="translate(1.000000, 9.000000)">
                                        <mask id="mask-14" fill="white">
                                            <use xlink:href="#path-13"></use>
                                        </mask>
                                        <use id="Mask" fill="url(#linearGradient-4)" fill-rule="nonzero" xlink:href="#path-13"></use>
                                        <ellipse fill="url(#linearGradient-7)" fill-rule="nonzero" mask="url(#mask-14)" cx="7.77978876" cy="3.24" rx="7.5" ry="8"></ellipse>
                                        <ellipse id="椭圆形-copy" fill="url(#linearGradient-8)" fill-rule="nonzero" mask="url(#mask-14)" cx="7.77978876" cy="2.73716319" rx="7.5" ry="8"></ellipse>
                                    </g>
                                    <path d="M7.12945516,0 L10.6205448,8.8817842e-16 C12.1533952,6.06598386e-16 13.4626502,1.10579602 13.7191039,2.61704105 L14.875,9.42857143 L2.875,9.42857143 L4.03089606,2.61704105 C4.28734977,1.10579602 5.59660485,2.05793687e-15 7.12945516,1.77635684e-15 Z" id="矩形" fill="url(#linearGradient-9)" fill-rule="nonzero"></path>
                                    <g id="分组-5" transform="translate(0.000000, 9.428571)">
                                        <rect id="矩形" fill="#7BB6F6" x="0" y="0.5" width="17" height="2" rx="1"></rect>
                                        <rect id="矩形-copy-2" fill="url(#linearGradient-10)" fill-rule="nonzero" x="0" y="0" width="17" height="2" rx="1"></rect>
                                    </g>
                                </g>
                            </g>
                        </g>
                        <g id="分组-6" transform="translate(0.000000, 22.000000)">
                            <rect id="矩形" fill="url(#linearGradient-3)" fill-rule="nonzero" x="0" y="0" width="36" height="36" rx="18"></rect>
                            <g id="分组-copy-3" transform="translate(9.500000, 6.500000)">
                                <g id="椭圆形" transform="translate(1.000000, 9.000000)">
                                    <mask id="mask-16" fill="white">
                                        <use xlink:href="#path-15"></use>
                                    </mask>
                                    <use id="Mask" fill="url(#linearGradient-4)" fill-rule="nonzero" xlink:href="#path-15"></use>
                                    <ellipse fill="url(#linearGradient-7)" fill-rule="nonzero" mask="url(#mask-16)" cx="7.77978876" cy="3.24" rx="7.5" ry="8"></ellipse>
                                    <ellipse id="椭圆形-copy" fill="url(#linearGradient-8)" fill-rule="nonzero" mask="url(#mask-16)" cx="7.77978876" cy="2.73716319" rx="7.5" ry="8"></ellipse>
                                </g>
                                <path d="M7.12945516,0 L10.6205448,8.8817842e-16 C12.1533952,6.06598386e-16 13.4626502,1.10579602 13.7191039,2.61704105 L14.875,9.42857143 L2.875,9.42857143 L4.03089606,2.61704105 C4.28734977,1.10579602 5.59660485,2.05793687e-15 7.12945516,1.77635684e-15 Z" id="矩形" fill="url(#linearGradient-9)" fill-rule="nonzero"></path>
                                <g id="分组-5" transform="translate(0.000000, 9.428571)">
                                    <rect id="矩形" fill="#7BB6F6" x="0" y="0.5" width="17" height="2" rx="1"></rect>
                                    <rect id="矩形-copy-2" fill="url(#linearGradient-10)" fill-rule="nonzero" x="0" y="0" width="17" height="2" rx="1"></rect>
                                </g>
                            </g>
                        </g>
                    </g>
                </g>
            </g>
        </g>
    </g>
</svg>