<svg width="22" height="23" xmlns="http://www.w3.org/2000/svg"><path d="M7.038 11.434l3.16 3.16c.214.214.499.331.802.331.304 0 .589-.118.803-.332l3.16-3.16a.634.634 0 0 0-.895-.894l-2.435 2.434V5.132a.634.634 0 0 0-1.266 0v7.842l-2.435-2.435a.629.629 0 0 0-1.08.447c0 .17.066.328.186.448zm8.649-5.261a.633.633 0 0 0 0 1.266c.758 0 1.375.617 1.375 1.375v7.365c0 .759-.617 1.376-1.375 1.376H6.313a1.377 1.377 0 0 1-1.375-1.376V8.814c0-.758.617-1.375 1.375-1.375a.633.633 0 0 0 0-1.266 2.644 2.644 0 0 0-2.641 2.641v7.365a2.644 2.644 0 0 0 2.641 2.642h9.374a2.644 2.644 0 0 0 2.641-2.642V8.814a2.644 2.644 0 0 0-2.641-2.641z" fill="#D8DADD" fill-rule="nonzero"/></svg>