<svg width="26" height="26" xmlns="http://www.w3.org/2000/svg"><g stroke="#B2B9C8" fill="none" fill-rule="evenodd"><path d="M15.51 20.97c-.083-.062-.12-.17-.083-.27.045-.12.739-.686 2.08-1.696a.24.24 0 0 1 .214-.042c.68.203 1.292.172 1.826-.098a2.14 2.14 0 0 0 .426-.286l-.986-.81a.242.242 0 0 1-.068-.269.23.23 0 0 1 .239-.14l1.816.197c.384-.28.721-.768.898-1.059l-1.744-.591a.238.238 0 0 1-.155-.25.227.227 0 0 1 .207-.201l2.221-.208c1.001-1.339 1.09-3.238 1.085-3.918-1.485.244-2.777.732-3.835 1.443a7.446 7.446 0 0 0-2.174 2.273c-.945 1.54-1.438 3.118-1.443 3.134a.231.231 0 0 1-.244.218.235.235 0 0 1-.218-.244c.005-.063.504-1.707 1.51-3.347.924-1.51 2.823-3.425 6.606-3.97.062-.01.13.01.176.047a.209.209 0 0 1 .083.166c.005.114.166 2.787-1.235 4.572a.23.23 0 0 1-.16.088l-1.246.12.986.336a.24.24 0 0 1 .14.135.226.226 0 0 1-.01.192c-.021.042-.555 1.054-1.256 1.516a.226.226 0 0 1-.15.036l-1.132-.125.581.478a.23.23 0 0 1 .037.321c-.031.042-.67.856-1.93.856-.26 0-.55-.036-.867-.119l-1.915 1.526c-.041.015-.093.036-.145.036a.223.223 0 0 1-.135-.047z" stroke-width=".4" fill="#B2B9C8"/><path d="M10.08 14.066a7.874 7.874 0 0 0-4.947 4.817c-.266.74.264 1.523 1.05 1.523M17.631 9.865a4.865 4.865 0 1 1-9.73 0 4.865 4.865 0 0 1 9.73 0h0z"/></g></svg>