<svg width="36" height="37" xmlns="http://www.w3.org/2000/svg"><g stroke="#0A1735" fill="none" fill-rule="evenodd"><path d="M21.475 29.536a.327.327 0 0 1-.115-.374c.063-.167 1.023-.95 2.882-2.35a.331.331 0 0 1 .294-.056c.941.28 1.79.237 2.53-.137.258-.13.452-.28.588-.395l-1.365-1.121a.335.335 0 0 1-.093-.374.318.318 0 0 1 .33-.194l2.515.273c.532-.388.999-1.063 1.243-1.465l-2.414-.82a.33.33 0 0 1-.216-.344.314.314 0 0 1 .288-.28l3.075-.288c1.386-1.854 1.509-4.483 1.501-5.424-2.054.337-3.843 1.013-5.309 1.997a10.31 10.31 0 0 0-3.01 3.147c-1.308 2.134-1.99 4.318-1.998 4.34a.32.32 0 0 1-.338.301.325.325 0 0 1-.301-.337c.007-.087.697-2.364 2.09-4.635 1.28-2.09 3.909-4.742 9.147-5.496a.325.325 0 0 1 .244.065.289.289 0 0 1 .115.23c.007.158.23 3.858-1.71 6.33a.318.318 0 0 1-.223.122l-1.724.165 1.365.467c.086.029.158.1.194.187a.313.313 0 0 1-.014.265c-.03.058-.77 1.459-1.74 2.098a.312.312 0 0 1-.208.05l-1.566-.172.805.661a.318.318 0 0 1 .05.446c-.043.057-.927 1.185-2.673 1.185-.359 0-.761-.05-1.2-.165l-2.65 2.112c-.058.022-.13.05-.202.05a.309.309 0 0 1-.187-.064z" stroke-width=".7" fill="#0A1735"/><path d="M13.958 19.976a10.903 10.903 0 0 0-6.851 6.669c-.368 1.025.366 2.11 1.455 2.11M24.413 14.16a6.736 6.736 0 1 1-13.473-.002 6.736 6.736 0 0 1 13.473.001h0z" stroke-width="1.5"/></g></svg>