<svg width="18" height="18" xmlns="http://www.w3.org/2000/svg"><g fill="#5585F0" fill-rule="evenodd"><path d="M3.932 7.459a.838.838 0 1 0 1.675 0 .838.838 0 0 0-1.675 0zM7.7 7.459a.838.838 0 1 0 1.676 0 .838.838 0 0 0-1.675 0zM11.47 7.459a.838.838 0 1 0 1.675 0 .838.838 0 0 0-1.675 0z" stroke="#B2B9C8" stroke-width=".3"/><path d="M14.82 2.015H2.256C1.564 2.015 1 2.578 1 3.27v8.376c0 .693.564 1.256 1.256 1.256l3.716-.004c.283.09 1.16 1.113 1.686 1.725l.199.232c.182.212.42.328.67.328.184 0 .459-.062.722-.359.158-.178.316-.36.472-.54.454-.526 1.142-1.32 1.356-1.382h3.743c.693 0 1.257-.563 1.257-1.256V3.271c0-.693-.564-1.256-1.257-1.256zm.419 9.632a.42.42 0 0 1-.419.419h-3.743c-.52 0-1.04.573-1.99 1.67-.153.178-.309.358-.464.533a.282.282 0 0 1-.093.076.198.198 0 0 1-.038-.035l-.199-.231c-1.2-1.4-1.779-2.013-2.28-2.013H2.256a.42.42 0 0 1-.418-.419V3.271a.42.42 0 0 1 .418-.419H14.82a.42.42 0 0 1 .419.42v8.375z" stroke="#5585F0" stroke-width=".1"/></g></svg>