<svg width="22" height="23" xmlns="http://www.w3.org/2000/svg"><path d="M17.094 6.417v11.25c0 .518-.42.937-.938.937H5.844a.937.937 0 0 1-.938-.937V6.417H3.97a.469.469 0 0 1 0-.938h4.304V4.073c0-.259.21-.469.47-.469h4.687c.258 0 .468.21.468.469v1.406h4.133a.469.469 0 0 1 0 .938h-.937zM9.21 4.542v.937h3.75v-.937H9.21zm6.945 2.343v-.468H5.844v10.78c0 .26.21.47.468.47h9.375c.26 0 .47-.21.47-.47V6.886zM13.21 9.698v5.625h-.938V9.698h.938zm-3.482 0v5.625H8.79V9.698h.938z" fill="#D8DADD" stroke="#D8DADD" stroke-width=".4" fill-rule="evenodd"/></svg>