<svg width="12" height="12" xmlns="http://www.w3.org/2000/svg"><g fill="#B2B9C8" stroke="#B2B9C8" stroke-width=".3" fill-rule="evenodd"><path d="M2.594 4.9a.598.598 0 1 0 1.197 0 .598.598 0 0 0-1.197 0zM5.286 4.9a.598.598 0 1 0 1.197 0 .598.598 0 0 0-1.197 0zM7.979 4.9a.598.598 0 1 0 1.196 0 .598.598 0 0 0-1.196 0z"/><path d="M10.372 1.01H1.397a.899.899 0 0 0-.897.898V7.89c0 .494.403.897.897.897l2.655-.003c.202.064.829.795 1.203 1.232l.143.166c.13.151.3.234.479.234.131 0 .327-.044.515-.256.113-.127.226-.258.337-.386.325-.375.816-.943.969-.987h2.674a.899.899 0 0 0 .897-.897V1.908a.899.899 0 0 0-.897-.898zm.299 6.88a.3.3 0 0 1-.3.3H7.699c-.371 0-.743.409-1.422 1.193-.109.127-.22.256-.331.38a.201.201 0 0 1-.066.055.141.141 0 0 1-.028-.025l-.141-.165c-.858-1-1.271-1.438-1.629-1.438H1.397a.3.3 0 0 1-.299-.3V1.909a.3.3 0 0 1 .3-.3h8.974a.3.3 0 0 1 .299.3V7.89z"/></g></svg>