<svg width="56" height="56" xmlns="http://www.w3.org/2000/svg"><g fill="none" fill-rule="evenodd"><path fill="#FFF" d="M-304-430H71v667h-375z"/><g><circle fill="#FFF" cx="28" cy="28" r="28"/><path d="M25.21 32.077a25.951 25.951 0 0 1 3.028-.173c5.758 0 10.427 1.816 10.427 4.056s-4.669 4.056-10.427 4.056S17.812 38.2 17.812 35.96c0-1.631 2.474-3.037 6.042-3.681a5309.105 5309.105 0 0 0-3.997-12.585c-.226-.73-.49-1.46-.717-2.177-.126-.39-.164-.78.314-.944.516-.176.806.088.97.554.113.239.176.478.239.667 1.22-.365 2.416-.78 3.612-1.083 1.925-.49 3.8-.113 5.625.516 2.051.705 4.09.982 6.167.151.742-.289 1.41-.792 2.114-1.132.29-.139.717-.264.97-.151.175.075.289.579.263.868-.163 2.48-.377 4.959-.54 7.438-.039.541-.202.919-.655 1.22-2.09 1.498-4.418 2.14-6.972 1.863-1.775-.188-3.486-.05-5.06.843-.289.164-.578.365-.83.592-.63.541-.906 1.107-.567 1.988.15.386.289.777.42 1.17zm0 0c-.466.056-.92.123-1.356.202l1.075 3.398c.151.453.352.818.893.667.529-.163.567-.554.403-1.07-.357-1.063-.662-2.14-1.014-3.197z" fill="#FFA67E"/></g></g></svg>