<svg width="38" height="39" xmlns="http://www.w3.org/2000/svg"><g fill="none" fill-rule="evenodd"><path d="M1.185 1.685h35.63v35.63H1.185z"/><path d="M29.747 27.966c.86 0 1.441-.857 1.15-1.668a8.623 8.623 0 0 0-5.417-5.274M23.476 11.178a5.33 5.33 0 0 1 1.628 9.915M24.52 29.216c1.022 0 1.71-1.017 1.365-1.978a10.222 10.222 0 0 0-6.421-6.25M12.492 20.988a10.219 10.219 0 0 0-6.421 6.25c-.344.962.343 1.978 1.364 1.978" stroke="#0A1735" stroke-width="1.5"/><path d="M22.292 15.536a6.313 6.313 0 1 1-12.627 0 6.313 6.313 0 0 1 12.627 0h0z" stroke="#0A1735" stroke-width="1.5"/></g></svg>