<svg width="23" height="23" xmlns="http://www.w3.org/2000/svg"><path d="M19.952 13.674L12.387 6.11a1.2 1.2 0 0 0-1.696 0l-7.565 7.565a.461.461 0 1 0 .652.652l.625-.624v6.54a1.2 1.2 0 0 0 1.199 1.2h11.805a1.2 1.2 0 0 0 1.199-1.2v-6.61l.694.694a.46.46 0 0 0 .652 0 .461.461 0 0 0 0-.652zm-6.326 6.845H9.383v-4.63c0-.152.124-.276.277-.276h3.689c.152 0 .277.124.277.276v4.63zm4.058-.276a.277.277 0 0 1-.277.276h-2.86v-4.63a1.2 1.2 0 0 0-1.198-1.199h-3.69a1.2 1.2 0 0 0-1.198 1.2v4.63H5.6a.277.277 0 0 1-.276-.277V12.78l6.018-6.019a.277.277 0 0 1 .392 0l5.949 5.95v7.532z" fill="#B2B9C8" stroke="#B2B9C8" stroke-width=".1" fill-rule="evenodd"/></svg>