<svg width="56" height="56" xmlns="http://www.w3.org/2000/svg"><g fill="none" fill-rule="evenodd"><path fill="#FFF" d="M-304-507H71v667h-375z"/><g><circle fill="#FFF" cx="28" cy="28" r="28"/><g transform="translate(17 15)"><path d="M5.539 1.108v.898c0 .426.345.772.771.772h9.535a.771.771 0 0 0 .771-.772v-.898h.396a5.143 5.143 0 0 1 5.143 5.143v14.084a5.143 5.143 0 0 1-5.143 5.143H5.142A5.143 5.143 0 0 1 0 20.335V6.251a5.143 5.143 0 0 1 5.143-5.143h.396z" fill="#65DEC6"/><path d="M9.76 21.25h2.158v-2.306H9.761v2.305zM14.197 8.02c-.736-.736-1.787-1.106-3.127-1.106-.514 0-1.082.102-1.69.304-.588.148-1.075.44-1.585.95-.456.456-.783.783-.95 1.437-.093.284-.304 1.044-.304 2.13v.273h2.013v-.273c0-.962.207-1.674.608-2.13.409-.455 1.032-.678 1.904-.678.724 0 1.27.207 1.714.655.47.47.506 1.094.506 1.273 0 .374-.125.892-.362 1.13l-1.32 1.32c-.624.623-1.071 1.07-1.239 1.573-.07.21-.14.385-.214.572a10.9 10.9 0 0 0-.226.604c-.16.483-.16 1.082-.16 1.845v.273h2.014V17.9c0-.572 0-.98.132-1.382.094-.28.257-.568.401-.821.063-.113.125-.219.172-.316.09-.175.377-.533 1.246-1.23l.023-.02a11.136 11.136 0 0 0 1.355-1.655c.34-.51.34-1.02.34-1.472.003-1.164-.406-2.138-1.251-2.983z" fill="#FFF"/><rect fill="#65DEC6" x="7.2" width="7.754" height="6.647" rx="2.571"/></g></g></g></svg>