<svg width="23" height="23" xmlns="http://www.w3.org/2000/svg"><g fill="#B2B9C8" fill-rule="evenodd"><path d="M13.971 11.367h3.857v-3.79h-3.857v3.79zm-.666 7.959H6.078c-.961 0-1.683-.722-1.683-1.683V6.463H5.48v11.31c0 .24.24.481.481.481h7.345v1.072zm4.389-12.864h-3.606c-.722 0-1.203.481-1.203 1.202v3.607c0 .721.481 1.202 1.203 1.202h3.606c.721 0 1.202-.48 1.202-1.202V7.664c0-.72-.48-1.202-1.202-1.202z"/><path d="M13.97 20.028h3.85v-3.809h-3.85v3.809zm3.728-4.91h-3.606c-.722 0-1.203.48-1.203 1.202v3.607c0 .721.481 1.202 1.203 1.202h3.606c.721 0 1.202-.48 1.202-1.202V16.32c0-.721-.6-1.202-1.202-1.202zM5.478 10.65h8.294V9.588H5.477v1.062z"/></g></svg>