<svg width="19" height="18" xmlns="http://www.w3.org/2000/svg"><g fill="#FE5354" fill-rule="evenodd"><path d="M13.153 2.013h-8.75c-1.207 0-2.323.842-2.323 2.05v8.75c0 1.207 1.116 2.323 2.324 2.323h8.749c1.208 0 2.05-1.116 2.05-2.324V4.063c0-1.208-.842-2.05-2.05-2.05zm1.23 10.8c0 .753-.476 1.503-1.23 1.503h-8.75c-.753 0-1.503-.75-1.503-1.504V4.063c0-.753.75-1.23 1.504-1.23h8.749c.754 0 1.23.477 1.23 1.23v8.75z" stroke="#FE5354" stroke-width=".2"/><path d="M5.383 9.386a1.42 1.42 0 0 0-1.42 1.419 1.42 1.42 0 0 0 2.838 0 1.42 1.42 0 0 0-1.418-1.42zm0 2.064a.646.646 0 1 1 .001-1.291.646.646 0 0 1-.001 1.29zm.887-5.822l-1.04 1.04-.502-.418a.387.387 0 0 0-.496.594l.774.645c.154.129.38.119.522-.023l1.29-1.29a.387.387 0 0 0-.548-.548z"/><path d="M12.737 10.418a.387.387 0 1 1 0 .774H8.608a.387.387 0 0 1 0-.774h4.129zm0-4.129a.387.387 0 0 1 0 .774H8.608a.387.387 0 1 1 0-.774h4.129z" stroke="#FE5354" stroke-width=".2"/></g></svg>