<svg width="10" height="10" xmlns="http://www.w3.org/2000/svg"><g fill="none" fill-rule="evenodd"><path fill="#FFF" d="M-345-699H30V672h-375z"/><path d="M9.127 10H.874L.82 9.968a4.297 4.297 0 0 1-.465-.306A.954.954 0 0 1 0 8.896l.002-.08c0-.162.003-.328.048-.498.106-.4.403-.66.698-.89.387-.305.843-.563 1.482-.836a14.5 14.5 0 0 1 .992-.382c.156-.055.319-.224.415-.432.076-.164.098-.328.062-.444l-.018-.02c-.433-.525-.778-.99-.94-1.798-.131-.65-.112-1.263.055-1.823.258-.86.815-1.418 1.61-1.616.119-.03.236-.05.351-.063V.001L5.244 0v.014c.115.012.233.034.352.063.795.198 1.351.756 1.608 1.616.17.56.186 1.173.057 1.822-.165.808-.508 1.274-.941 1.798l-.016.018-.002.003c-.036.116-.013.28.062.443.097.209.259.378.416.432.363.126.687.251.992.382.638.274 1.093.531 1.48.835.282.222.593.491.699.892.044.17.046.336.048.496v.082a.95.95 0 0 1-.352.765 4.342 4.342 0 0 1-.464.306L9.127 10z" fill="#FFF" fill-rule="nonzero"/></g></svg>