<?xml version="1.0" encoding="UTF-8"?>
<svg width="40px" height="40px" viewBox="0 0 40 40" version="1.1" xmlns="http://www.w3.org/2000/svg" xmlns:xlink="http://www.w3.org/1999/xlink">
    <!-- Generator: Sketch 52.2 (67145) - http://www.bohemiancoding.com/sketch -->
    <title>icon_a-feedback_state copy 2</title>
    <desc>Created with Sketch.</desc>
    <g id="icon_a-feedback_state-copy-2" stroke="none" stroke-width="1" fill="none" fill-rule="evenodd">
        <path d="M7,5.53571429 C6.30964406,5.53571429 5.75,6.09535835 5.75,6.78571429 L5.75,11.3571429 C5.75,12.0474988 6.30964406,12.6071429 7,12.6071429 L33,12.6071429 C33.6903559,12.6071429 34.25,12.0474988 34.25,11.3571429 L34.25,6.78571429 C34.25,6.09535835 33.6903559,5.53571429 33,5.53571429 L7,5.53571429 Z M7,16.4642857 C6.30964406,16.4642857 5.75,17.0239298 5.75,17.7142857 L5.75,22.2857143 C5.75,22.9760702 6.30964406,23.5357143 7,23.5357143 L33,23.5357143 C33.6903559,23.5357143 34.25,22.9760702 34.25,22.2857143 L34.25,17.7142857 C34.25,17.0239298 33.6903559,16.4642857 33,16.4642857 L7,16.4642857 Z M7,27.3928571 C6.30964406,27.3928571 5.75,27.9525012 5.75,28.6428571 L5.75,33.2142857 C5.75,33.9046417 6.30964406,34.4642857 7,34.4642857 L33,34.4642857 C33.6903559,34.4642857 34.25,33.9046417 34.25,33.2142857 L34.25,28.6428571 C34.25,27.9525012 33.6903559,27.3928571 33,27.3928571 L7,27.3928571 Z" id="Combined-Shape" stroke="#B2B9C8" stroke-width="1.5"></path>
    </g>
</svg>