<svg width="33" height="33" xmlns="http://www.w3.org/2000/svg" xmlns:xlink="http://www.w3.org/1999/xlink"><defs><circle id="b" cx="16.19" cy="15.77" r="11.77"/><filter x="-29.7%" y="-21.2%" width="159.5%" height="159.5%" filterUnits="objectBoundingBox" id="a"><feOffset dy="2" in="SourceAlpha" result="shadowOffsetOuter1"/><feGaussianBlur stdDeviation="2" in="shadowOffsetOuter1" result="shadowBlurOuter1"/><feColorMatrix values="0 0 0 0 0.888589204 0 0 0 0 0.89590802 0 0 0 0 0.911591199 0 0 0 1 0" in="shadowBlurOuter1"/></filter></defs><g fill="none" fill-rule="evenodd"><g transform="translate(.784 .5)"><use fill="#000" filter="url(#a)" xlink:href="#b"/><use fill="#FFF" xlink:href="#b"/></g><path d="M13.244 11.27a.84.84 0 0 1 .84.84v8.319a.84.84 0 1 1-1.68 0V12.11a.84.84 0 0 1 .84-.84zm3.73 0a.84.84 0 0 1 .84.84v8.319a.84.84 0 1 1-1.681 0V12.11a.84.84 0 0 1 .84-.84zm3.729 0a.84.84 0 0 1 .84.84v8.319a.84.84 0 1 1-1.68 0V12.11a.84.84 0 0 1 .84-.84z" fill="#89B2FF"/></g></svg>