<svg width="12" height="12" xmlns="http://www.w3.org/2000/svg"><g fill="#B2B9C8" stroke="#B2B9C8" stroke-width=".1" fill-rule="evenodd"><path d="M7.465 4.257h2.396V1.861H7.465v2.396zm2.396-3.194H7.465c-.48 0-.799.32-.799.798v2.396c0 .48.32.799.8.799H9.86c.479 0 .798-.32.798-.799V1.861c0-.479-.32-.798-.798-.798zM7.465 9.607h-5.27c-.64 0-1.119-.479-1.119-1.118V1.063h.799v7.426c0 .16.16.32.32.32h5.27v.798z"/><path d="M7.545 10.007H9.94V7.61H7.545v2.396zM9.94 6.812H7.545c-.48 0-.799.32-.799.799v2.396c0 .479.32.798.799.798H9.94c.479 0 .798-.32.798-.798V7.61a.8.8 0 0 0-.798-.799zM1.795 3.938h5.51v-.799h-5.51v.799z"/></g></svg>