<svg width="19" height="19" xmlns="http://www.w3.org/2000/svg"><path d="M10.794 1.198l1.818 3.684c.21.426.616.72 1.086.79l4.065.59c1.183.172 1.656 1.626.8 2.461L15.62 11.59c-.34.332-.495.81-.415 1.277l.695 4.049c.202 1.178-1.035 2.078-2.094 1.52l-3.635-1.91c-.42-.221-.923-.221-1.343 0l-3.636 1.91c-1.059.558-2.296-.342-2.094-1.52l.695-4.049a1.443 1.443 0 0 0-.415-1.277L.437 8.723c-.856-.835-.383-2.289.8-2.461l4.065-.59c.47-.07.876-.364 1.086-.79l1.818-3.684c.53-1.072 2.059-1.072 2.588 0z" fill="#F0F1F5" fill-rule="evenodd"/></svg>