<?xml version="1.0" encoding="UTF-8"?>
<svg width="40px" height="40px" viewBox="0 0 40 40" version="1.1" xmlns="http://www.w3.org/2000/svg" xmlns:xlink="http://www.w3.org/1999/xlink">
    <!-- Generator: Sketch 52.2 (67145) - http://www.bohemiancoding.com/sketch -->
    <title>icon_a-feedback_state copy 4</title>
    <desc>Created with Sketch.</desc>
    <g id="icon_a-feedback_state-copy-4" stroke="none" stroke-width="1" fill="none" fill-rule="evenodd">
        <path d="M7,5.87551356 C6.30964406,5.87551356 5.75,6.43515762 5.75,7.12551356 L5.75,12.1052557 C5.75,12.7956116 6.30964406,13.3552557 7,13.3552557 L12.2307692,13.3552557 C12.9211252,13.3552557 13.4807692,12.7956116 13.4807692,12.1052557 L13.4807692,7.12551356 C13.4807692,6.43515762 12.9211252,5.87551356 12.2307692,5.87551356 L7,5.87551356 Z M7,16.1346154 C6.30964406,16.1346154 5.75,16.6942594 5.75,17.3846154 L5.75,22.6153846 C5.75,23.3057406 6.30964406,23.8653846 7,23.8653846 L12.2307692,23.8653846 C12.9211252,23.8653846 13.4807692,23.3057406 13.4807692,22.6153846 L13.4807692,17.3846154 C13.4807692,16.6942594 12.9211252,16.1346154 12.2307692,16.1346154 L7,16.1346154 Z M7,26.5192308 C6.30964406,26.5192308 5.75,27.0788748 5.75,27.7692308 L5.75,33 C5.75,33.6903559 6.30964406,34.25 7,34.25 L12.2307692,34.25 C12.9211252,34.25 13.4807692,33.6903559 13.4807692,33 L13.4807692,27.7692308 C13.4807692,27.0788748 12.9211252,26.5192308 12.2307692,26.5192308 L7,26.5192308 Z M17.3846154,5.75 C16.6942594,5.75 16.1346154,6.30964406 16.1346154,7 L16.1346154,12.2307692 C16.1346154,12.9211252 16.6942594,13.4807692 17.3846154,13.4807692 L22.6153846,13.4807692 C23.3057406,13.4807692 23.8653846,12.9211252 23.8653846,12.2307692 L23.8653846,7 C23.8653846,6.30964406 23.3057406,5.75 22.6153846,5.75 L17.3846154,5.75 Z M17.3846154,16.1346154 C16.6942594,16.1346154 16.1346154,16.6942594 16.1346154,17.3846154 L16.1346154,22.6153846 C16.1346154,23.3057406 16.6942594,23.8653846 17.3846154,23.8653846 L22.6153846,23.8653846 C23.3057406,23.8653846 23.8653846,23.3057406 23.8653846,22.6153846 L23.8653846,17.3846154 C23.8653846,16.6942594 23.3057406,16.1346154 22.6153846,16.1346154 L17.3846154,16.1346154 Z M17.3846154,26.5192308 C16.6942594,26.5192308 16.1346154,27.0788748 16.1346154,27.7692308 L16.1346154,33 C16.1346154,33.6903559 16.6942594,34.25 17.3846154,34.25 L22.6153846,34.25 C23.3057406,34.25 23.8653846,33.6903559 23.8653846,33 L23.8653846,27.7692308 C23.8653846,27.0788748 23.3057406,26.5192308 22.6153846,26.5192308 L17.3846154,26.5192308 Z M27.7692308,16.1346154 C27.0788748,16.1346154 26.5192308,16.6942594 26.5192308,17.3846154 L26.5192308,22.6153846 C26.5192308,23.3057406 27.0788748,23.8653846 27.7692308,23.8653846 L33,23.8653846 C33.6903559,23.8653846 34.25,23.3057406 34.25,22.6153846 L34.25,17.3846154 C34.25,16.6942594 33.6903559,16.1346154 33,16.1346154 L27.7692308,16.1346154 Z M27.7692308,26.5192308 C27.0788748,26.5192308 26.5192308,27.0788748 26.5192308,27.7692308 L26.5192308,33 C26.5192308,33.6903559 27.0788748,34.25 27.7692308,34.25 L33,34.25 C33.6903559,34.25 34.25,33.6903559 34.25,33 L34.25,27.7692308 C34.25,27.0788748 33.6903559,26.5192308 33,26.5192308 L27.7692308,26.5192308 Z M27.7692308,5.75 C27.0788748,5.75 26.5192308,6.30964406 26.5192308,7 L26.5192308,12.2307692 C26.5192308,12.9211252 27.0788748,13.4807692 27.7692308,13.4807692 L33,13.4807692 C33.6903559,13.4807692 34.25,12.9211252 34.25,12.2307692 L34.25,7 C34.25,6.30964406 33.6903559,5.75 33,5.75 L27.7692308,5.75 Z" id="Combined-Shape" stroke="#B2B9C8" stroke-width="1.5"></path>
    </g>
</svg>