<svg width="16" height="16" xmlns="http://www.w3.org/2000/svg" xmlns:xlink="http://www.w3.org/1999/xlink"><defs><path d="M12.303 7.325a.8.8 0 1 1 1.6 0v4.646c0 .94-.716 1.733-1.642 1.733H1.74c-.926 0-1.642-.793-1.642-1.733V2.152C.097 1.212.813.42 1.74.42h5.047a.8.8 0 0 1 0 1.6H1.74c-.004 0-.042.043-.042.133v9.82c0 .09.038.132.042.132H12.26c.004 0 .042-.042.042-.133V7.325zm-6.237 1.74a.8.8 0 1 1-1.132-1.13l7-7a.8.8 0 1 1 1.132 1.13l-7 7z" id="a"/></defs><g transform="translate(1 1)" fill="none" fill-rule="evenodd"><mask id="b" fill="#fff"><use xlink:href="#a"/></mask><path fill="#B2B9C8" mask="url(#b)" d="M-1-1h16v16H-1z"/></g></svg>