<svg width="26" height="27" xmlns="http://www.w3.org/2000/svg"><g fill="#B2B9C8" fill-rule="evenodd"><path d="M12.858 4.392a7.162 7.162 0 1 0 0 14.323 7.162 7.162 0 0 0 0-14.323m0 1.023a6.143 6.143 0 0 1 6.139 6.139 6.144 6.144 0 0 1-6.14 6.138 6.145 6.145 0 0 1-6.138-6.138 6.144 6.144 0 0 1 6.139-6.139"/><path d="M11.313 18.552l-2.63 2.63-.808-1.628-.153-.307-.307-.153-1.627-.808 1.842-1.842a8.208 8.208 0 0 1-.655-.798l-1.913 1.913a1.022 1.022 0 0 0 .266 1.637l1.627.819.818 1.626c.184.359.542.563.91.563.256 0 .522-.102.727-.297l3.202-3.202c-.45-.01-.88-.061-1.3-.153m9.342-.993l-1.913-1.913c-.205.275-.42.553-.655.798l1.842 1.842-1.934.96-.154.307-.808 1.627-2.63-2.63c-.419.093-.848.144-1.299.154l3.203 3.203c.204.194.47.296.726.296.368 0 .727-.205.91-.563l.82-1.626 1.626-.819a1.022 1.022 0 0 0 .266-1.637M12.858 7.461a4.092 4.092 0 1 0 0 8.185 4.092 4.092 0 0 0 0-8.185m0 1.023a3.073 3.073 0 0 1 3.07 3.07 3.073 3.073 0 0 1-3.07 3.069 3.073 3.073 0 0 1-3.07-3.07 3.073 3.073 0 0 1 3.07-3.069"/></g></svg>