<svg width="56" height="56" xmlns="http://www.w3.org/2000/svg"><g fill="none" fill-rule="evenodd"><path fill="#FFF" d="M-305-506H70v667h-375z"/><g><circle fill="#FFF" cx="28" cy="28" r="28"/><g transform="translate(18 15)"><rect fill="#B2B9C8" y="2" width="20" height="23" rx="2"/><rect fill="#B2B9C8" x="5" width="10" height="5.647" rx="2.571"/><path d="M13.023 26.164V20a2 2 0 0 1 2-2H21v.187a7.977 7.977 0 0 1-7.977 7.977z" stroke="#FFF" stroke-width="2" fill="#B2B9C8" fill-rule="nonzero"/><path d="M5 15.049v2.088h2.057l7.416-7.042a1.44 1.44 0 0 0 .035-2.054 1.493 1.493 0 0 0-2.092-.035L5 15.05z" fill="#FFF" fill-rule="nonzero"/></g></g></g></svg>