<?xml version="1.0" encoding="UTF-8"?>
<svg width="36px" height="36px" viewBox="0 0 36 36" version="1.1" xmlns="http://www.w3.org/2000/svg" xmlns:xlink="http://www.w3.org/1999/xlink">
    <!-- Generator: Sketch 52.2 (67145) - http://www.bohemiancoding.com/sketch -->
    <title>icon_a-add_pic</title>
    <desc>Created with Sketch.</desc>
    <g id="icon_a-add_pic" stroke="none" stroke-width="1" fill="none" fill-rule="evenodd">
        <g id="Group-2" transform="translate(6.000000, 6.000000)" stroke="#0A1735" stroke-width="1.5">
            <path d="M19.8915103,21.7099069 L4.10848966,21.7099069 C2.24045642,21.7099069 0.726413795,20.1958643 0.726413795,18.327831 L0.726413795,3.67216897 C0.726413795,1.80413573 2.24045642,0.290093105 4.10848966,0.290093105 L19.8915103,0.290093105 C21.7595436,0.290093105 23.2735862,1.80413573 23.2735862,3.67216897 L23.2735862,18.327831 C23.2735862,20.1958643 21.7595436,21.7099069 19.8915103,21.7099069 Z" id="Shape"></path>
            <circle id="Oval" cx="7.13873845" cy="6.40321012" r="1.5"></circle>
            <path d="M0.893563398,16.5733973 L5.18971092,12.3272054 C5.55887596,11.9623331 6.14583234,11.9405628 6.54101214,12.2770857 L9.51898905,14.8130383 C9.91416884,15.1495611 10.5011252,15.1277909 10.8702903,14.7629185 L16.2890625,9.40715584 C16.6804593,9.02031017 17.3108653,9.02240202 17.6996862,9.41183666 L23,14.7205162" id="Path-2"></path>
        </g>
    </g>
</svg>