<svg width="47" height="46" xmlns="http://www.w3.org/2000/svg" xmlns:xlink="http://www.w3.org/1999/xlink"><defs><linearGradient x1="50%" y1="0%" x2="50%" y2="100%" id="a"><stop stop-color="#9FABF7" offset="0%"/><stop stop-color="#8395F7" offset="100%"/></linearGradient><path d="M2.124 17.64a11.095 11.095 0 0 1-1.99-6.359C.134 5.125 5.125.134 11.281.134c6.156 0 11.147 4.991 11.147 11.147 0 6.156-4.99 11.147-11.147 11.147H2.558a.434.434 0 0 1-.434-.434V17.64z" id="c"/><filter x="-22.4%" y="-17.9%" width="144.9%" height="144.9%" filterUnits="objectBoundingBox" id="b"><feOffset dy="1" in="SourceAlpha" result="shadowOffsetOuter1"/><feGaussianBlur stdDeviation="1.5" in="shadowOffsetOuter1" result="shadowBlurOuter1"/><feColorMatrix values="0 0 0 0 0.47139926 0 0 0 0 0.546034351 0 0 0 0 0.952380952 0 0 0 0.66 0" in="shadowBlurOuter1"/></filter></defs><g transform="translate(.5)" fill="none" fill-rule="evenodd"><circle fill="url(#a)" cx="23" cy="23" r="23"/><path d="M35.317 31.048a6.909 6.909 0 1 0-5.676 2.968h5.407c.148 0 .269-.12.269-.268v-2.7z" fill="#B6BFFF"/><g transform="translate(8.5 11)"><use fill="#000" filter="url(#b)" xlink:href="#c"/><use fill="#F2F4FF" xlink:href="#c"/></g><path d="M15.252 23.249a1.525 1.525 0 1 1 0-3.05 1.525 1.525 0 0 1 0 3.05zm4.424 0a1.525 1.525 0 1 1 0-3.05 1.525 1.525 0 0 1 0 3.05zm4.635 0a1.525 1.525 0 1 1 0-3.05 1.525 1.525 0 0 1 0 3.05z" fill="#ADB8FF"/></g></svg>