<svg width="18" height="18" xmlns="http://www.w3.org/2000/svg"><g fill="#B2B9C8" stroke="#B2B9C8" fill-rule="evenodd"><path d="M8.715 1.286a5.631 5.631 0 1 0 0 11.262 5.631 5.631 0 0 0 0-11.262m0 .804a4.83 4.83 0 0 1 4.827 4.827 4.831 4.831 0 0 1-4.827 4.827 4.832 4.832 0 0 1-4.827-4.827A4.831 4.831 0 0 1 8.715 2.09" stroke-width=".9"/><path d="M7.274 12.503l-2.451 2.451-.754-1.516-.143-.287-.286-.143-1.517-.753 1.717-1.717a7.653 7.653 0 0 1-.61-.744l-1.784 1.784a.953.953 0 0 0 .248 1.526l1.517.763.763 1.517a.957.957 0 0 0 .849.524.994.994 0 0 0 .677-.276l2.986-2.986c-.42-.01-.82-.057-1.212-.143m8.71-.925L14.2 9.794c-.19.256-.391.515-.61.744l1.717 1.717-1.803.896-.143.286-.754 1.516-2.452-2.451a6.28 6.28 0 0 1-1.211.143l2.986 2.986c.19.181.438.276.677.276.343 0 .677-.19.849-.524l.763-1.517 1.517-.763a.953.953 0 0 0 .248-1.526" stroke-width=".7"/></g></svg>