<svg width="18" height="18" xmlns="http://www.w3.org/2000/svg"><path d="M13.643 15.5H4.357A1.857 1.857 0 0 1 2.5 13.643V9.929c0-.513.416-.929.929-.929V3.429c0-.513.415-.929.928-.929h9.286c.513 0 .928.416.928.929V9c.513 0 .929.412.929.929v3.714a1.857 1.857 0 0 1-1.857 1.857zm0-12.071H4.357V9h2.786v1.857h3.714V9h2.786V3.429zm.928 6.5h-2.785v.928a.929.929 0 0 1-.929.929H7.143a.929.929 0 0 1-.929-.929V9.93H3.43v3.714c0 .513.415.928.928.928h9.286a.929.929 0 0 0 .928-.928V9.929z" fill="#5585F0" fill-rule="evenodd"/></svg>