<svg width="56" height="56" xmlns="http://www.w3.org/2000/svg"><g fill="none" fill-rule="evenodd"><path fill="#FFF" d="M-304-354H71v667h-375z"/><g><circle fill="#FFF" cx="28" cy="28" r="28"/><g transform="translate(13.671 14)"><path d="M27.402 21.28a7.333 7.333 0 1 0-6.024 3.15h5.738a.285.285 0 0 0 .286-.286V21.28z" fill="#8E9DF7"/><path d="M2.255 18.722a11.777 11.777 0 0 1-2.112-6.748C.143 5.44 5.44.143 11.973.143c6.535 0 11.832 5.297 11.832 11.83 0 6.535-5.297 11.832-11.831 11.832H2.715a.46.46 0 0 1-.46-.46v-4.623z" stroke="#FFF" stroke-width="2" fill="#8E9DF7"/><rect fill="#F7F8FA" fill-rule="nonzero" x="7.189" y="8.298" width="9.987" height="2.219" rx="1.11"/><rect fill="#F7F8FA" fill-rule="nonzero" x="7.189" y="12.737" width="9.987" height="2.219" rx="1.11"/></g></g></g></svg>