<svg width="157" height="101" xmlns="http://www.w3.org/2000/svg" xmlns:xlink="http://www.w3.org/1999/xlink"><defs><linearGradient x1="58.116%" y1="100%" x2="16.654%" y2="12.19%" id="a"><stop stop-color="#FAFDFF" offset="0%"/><stop stop-color="#F2F9FF" offset="100%"/></linearGradient><linearGradient x1="6.23%" y1="2.838%" x2="84.299%" y2="96.99%" id="b"><stop stop-color="#BBD6FF" offset="0%"/><stop stop-color="#7DBCFF" offset="100%"/></linearGradient><linearGradient x1="0%" y1="0%" x2="95.809%" y2="100%" id="c"><stop stop-color="#7DBCFF" offset="0%"/><stop stop-color="#4E8EFC" offset="100%"/></linearGradient><path d="M8.851 29.334L.707 22.207l8.68-8.492C12.674 6.104 20.248.777 29.067.777c11.836 0 21.43 9.594 21.43 21.43 0 11.835-9.594 21.43-21.43 21.43-9.337 0-17.28-5.971-20.217-14.303z" id="e"/><filter x="-35.1%" y="-36.2%" width="170.3%" height="181.7%" filterUnits="objectBoundingBox" id="d"><feOffset dy="2" in="SourceAlpha" result="shadowOffsetOuter1"/><feGaussianBlur stdDeviation="5.5" in="shadowOffsetOuter1" result="shadowBlurOuter1"/><feColorMatrix values="0 0 0 0 0.545098039 0 0 0 0 0.768627451 0 0 0 0 1 0 0 0 0.509227808 0" in="shadowBlurOuter1"/></filter></defs><g fill="none" fill-rule="evenodd"><path d="M51.12 98.548H15.358C5.478 97.983.539 93.521.539 85.161c0-7.16 4.616-12.273 13.044-14.355 5.464-1.35 9.636-4.825 7.797-10.713-1.692-5.42 2.54-18.427 8.16-22.87 6.042-4.777 17.505-8.813 27.128-1.753 10.038 7.366 55.03 15.9 62.037 10.031 7.007-5.87 33.663-7.984 30.221 17.153-1.262 9.218 3.442 16.523 5.579 20.895 4.384 8.967 1.998 16.608-17.287 16.608-20.134 0-48.833-.536-86.098-1.609z" fill="url(#a)"/><g transform="translate(29 .155)"><path d="M16.233 0h72.375a5 5 0 0 1 5 5v83.032c0 6.628-5.373 12-12 12H11.233V5a5 5 0 0 1 5-5z" fill="url(#b)"/><path d="M77.803 84.305h15.805v7.825a7.903 7.903 0 1 1-15.805 0v-7.825z" fill="#85C0FF"/><path d="M86.233 100.032H8.523a8.408 8.408 0 0 1-8.2-10.277h77.486v1.852a8.425 8.425 0 0 0 8.424 8.425z" fill="url(#c)"/><rect fill="#FFF" opacity=".6" x="20.588" y="31.34" width="42.091" height="3.251" rx="1.625"/><path d="M22.213 54.096H36.3a1.625 1.625 0 0 1 0 3.25H22.213a1.625 1.625 0 1 1 0-3.25zM22.213 21.588h22.402a1.625 1.625 0 0 1 0 3.25H22.213a1.625 1.625 0 1 1 0-3.25zM22.213 63.848h35.759a1.625 1.625 0 0 1 0 3.25H22.213a1.625 1.625 0 1 1 0-3.25z" fill="#FFF" opacity=".5"/><g><g transform="translate(58.764 21.839)"><use fill="#000" filter="url(#d)" xlink:href="#e"/><use fill="#F7FBFF" xlink:href="#e"/></g><g transform="rotate(-45 89.604 -68.914)" fill="#4F8FFD"><rect y=".496" width="3.627" height="14.012" rx="1.814"/><rect transform="rotate(90 10.82 12.695)" x="9.006" y="1.875" width="3.627" height="21.64" rx="1.814"/></g></g></g></g></svg>