<svg width="110" height="110" xmlns="http://www.w3.org/2000/svg" xmlns:xlink="http://www.w3.org/1999/xlink"><defs><linearGradient x1="10.038%" y1="7.868%" x2="31.144%" y2="43.443%" id="b"><stop stop-color="#FFEC90" offset="0%"/><stop stop-color="#FEDA55" offset="100%"/></linearGradient><path d="M4.997 30.414C2.216 27.292.565 23.396.565 19.171.565 8.906 10.312.584 22.336.584c12.024 0 21.771 8.322 21.771 18.587 0 10.266-9.747 18.588-21.771 18.588-3.794 0-7.36-.828-10.466-2.285-4.954 2.176-7.964 3.077-9.029 2.703-1.528-.537 1.373-2.832 2.156-7.763z" id="a"/><linearGradient x1="50%" y1="0%" x2="50%" y2="100%" id="c"><stop stop-color="#A0ACF7" offset="0%"/><stop stop-color="#8395F7" offset="100%"/></linearGradient></defs><g fill="none" fill-rule="evenodd"><use fill="url(#b)" xlink:href="#a" transform="translate(23.158 32.61)"/><path d="M60.764 43.262c1.12 6.99 5.229 10.243 3.06 11.005-1.542.541-5.95-.797-13.227-4.016a29.047 29.047 0 0 1-10.754 2.041c-15.188 0-27.5-11.519-27.5-25.728 0-14.21 12.312-25.729 27.5-25.729 15.187 0 27.5 11.52 27.5 25.729 0 6.373-2.477 12.204-6.579 16.698z" fill="url(#c)" transform="translate(22.332 25)"/><path d="M51.536 54.593a2.818 2.818 0 1 1 0-5.636 2.818 2.818 0 0 1 0 5.636zm10.846 0a2.818 2.818 0 1 1 0-5.636 2.818 2.818 0 0 1 0 5.636zm10.845 0a2.818 2.818 0 1 1 0-5.636 2.818 2.818 0 0 1 0 5.636z" fill="#FFF"/></g></svg>