<svg width="117" height="65" xmlns="http://www.w3.org/2000/svg" xmlns:xlink="http://www.w3.org/1999/xlink"><defs><linearGradient x1="100%" y1="0%" x2="100%" y2="100%" id="a"><stop stop-color="#E8EBEF" offset="5.146%"/><stop stop-color="#DFE2E9" offset="100%"/></linearGradient><path d="M6.084 34.007h-.79c-2.478 0-4.489-1.825-4.489-4.073V.756h7.513c1.241 0 2.25.915 2.25 2.041v27.137c.004 2.248-2.007 4.073-4.484 4.073z" id="b"/><path d="M6.084 34.007h-.79c-2.478 0-4.489-1.825-4.489-4.073V.756h7.513c1.241 0 2.25.915 2.25 2.041v27.137c.004 2.248-2.007 4.073-4.484 4.073z" id="d"/></defs><g fill="none" fill-rule="evenodd"><path fill="#FFF" d="M-244-916h375V455h-375z"/><path d="M-244 80h375v1h-375z" fill="#F7F8FA"/><path fill="#FFF" d="M-244-16h375v97h-375z"/><g transform="translate(0 -1)"><rect fill="url(#a)" y="1" width="117" height="65" rx="2"/><g transform="translate(0 .584)"><g transform="translate(73.813 24.416)"><mask id="c" fill="#fff"><use xlink:href="#b"/></mask><use fill="#FFF" fill-rule="nonzero" xlink:href="#b"/><path d="M10.572 29.695V12.529L.81.833v28.862c-.03 1.383.437 2.154 1.028 2.83.87.99 2.264 1.576 3.997 1.482 1.182.05 2.32-.266 3.387-1.163 1.067-1.005 1.395-2.063 1.35-3.15z" fill-opacity=".469" fill="#E4E5E9" fill-rule="nonzero" mask="url(#c)"/></g><path d="M73.477 58.298h-35.88a2.25 2.25 0 0 1-2.25-2.25V12.446a2.25 2.25 0 0 1 2.25-2.249h35.88a2.25 2.25 0 0 1 2.25 2.25v42.159c.581 2.396 2.009 3.68 5.522 3.692h-7.772z" fill="#FFF" fill-rule="nonzero"/><rect fill="#FFF" x="38.349" y="13.732" width="34.377" height="41.03" rx="1"/><rect fill="#F6F7FB" fill-rule="nonzero" x="41" y="17" width="29" height="8" rx="2"/><path d="M68.666 45.83H41.818c-.621 0-1.128-.502-1.128-1.128v-.124c0-.62.502-1.127 1.128-1.127h26.848c.62 0 1.127.501 1.127 1.127v.124a1.13 1.13 0 0 1-1.127 1.127zm0 4.746H41.818c-.621 0-1.128-.501-1.128-1.127v-.124c0-.62.502-1.127 1.128-1.127h26.848c.62 0 1.127.501 1.127 1.127v.124c0 .626-.506 1.127-1.127 1.127zm0-19.003H57.85c-.62 0-1.127-.501-1.127-1.127v-.124c0-.62.501-1.127 1.127-1.127h10.815c.62 0 1.127.501 1.127 1.127v.124c0 .626-.506 1.127-1.127 1.127zm0 4.752H57.85c-.62 0-1.127-.501-1.127-1.127v-.124c0-.62.501-1.127 1.127-1.127h10.815c.62 0 1.127.501 1.127 1.127v.124c0 .626-.506 1.127-1.127 1.127zm0 4.752H57.85c-.62 0-1.127-.501-1.127-1.127v-.124c0-.62.501-1.127 1.127-1.127h10.815c.62 0 1.127.501 1.127 1.127v.124a1.13 1.13 0 0 1-1.127 1.127zM51.446 41.077h-9.628c-.621 0-1.128-.501-1.128-1.127v-9.623c0-.62.502-1.127 1.128-1.127h9.628c.62 0 1.127.501 1.127 1.127v9.628a1.132 1.132 0 0 1-1.127 1.122z" fill="#F6F7FB" fill-rule="nonzero"/><path d="M46.549 37.033a5.408 5.408 0 0 1-2.397 1.027c.263-.31.486-.656.663-1.027h-.682a1.336 1.336 0 0 1 .014-2.67 1.192 1.192 0 0 1 1.07-1.378 1.24 1.24 0 0 0-.75 1.14c0 .357.187.718.429.944 0 0-.341-.086-.696-.086a.667.667 0 0 0-.067 1.332l1.463.003a3.8 3.8 0 0 1-.49 1.003 4.141 4.141 0 0 0 1.235-1.003h2.303a.882.882 0 0 0-.005-1.764c-.357 0-.558.048-.558.048a1.335 1.335 0 0 0-2.382-1.206 1.526 1.526 0 0 1 1.486-1.178c.901 0 1.526.736 1.526 1.525 0 .256-.045.4-.076.476a1.432 1.432 0 0 1 1.792 1.384c0 .79-.64 1.43-1.43 1.43h-2.448z" fill="#FFF"/></g></g><text font-family="PingFangSC-Medium, PingFang SC" font-size="16" font-weight="400" fill="#0A1735" transform="translate(-244 -16)"><tspan x="14" y="31">2018年天河科技园超级羽毛球</tspan> <tspan x="14" y="53">大赛快来报名</tspan></text><text opacity=".99" font-family="PingFangSC-Regular, PingFang SC" font-size="12" fill="#B2B9C8" transform="translate(-244 -16)"><tspan x="14" y="79">截止时间 08-24 18:00</tspan></text><text font-family="PingFangSC-Regular, PingFang SC" font-size="12" fill="#B2B9C8" transform="translate(-244 -16)"><tspan x="195.588" y="79">12/40</tspan></text><g><path fill="#FFF" d="M-244-16h375v97h-375z"/><g transform="translate(0 -1)"><rect fill="url(#a)" y="1" width="117" height="65" rx="2"/><g transform="translate(0 .584)"><g transform="translate(73.813 24.416)"><mask id="e" fill="#fff"><use xlink:href="#d"/></mask><use fill="#FFF" fill-rule="nonzero" xlink:href="#d"/><path d="M10.572 29.695V12.529L.81.833v28.862c-.03 1.383.437 2.154 1.028 2.83.87.99 2.264 1.576 3.997 1.482 1.182.05 2.32-.266 3.387-1.163 1.067-1.005 1.395-2.063 1.35-3.15z" fill-opacity=".469" fill="#E4E5E9" fill-rule="nonzero" mask="url(#e)"/></g><path d="M73.477 58.298h-35.88a2.25 2.25 0 0 1-2.25-2.25V12.446a2.25 2.25 0 0 1 2.25-2.249h35.88a2.25 2.25 0 0 1 2.25 2.25v42.159c.581 2.396 2.009 3.68 5.522 3.692h-7.772z" fill="#FFF" fill-rule="nonzero"/><rect fill="#FFF" x="38.349" y="13.732" width="34.377" height="41.03" rx="1"/><rect fill="#F6F7FB" fill-rule="nonzero" x="41" y="17" width="29" height="8" rx="2"/><path d="M68.666 45.83H41.818c-.621 0-1.128-.502-1.128-1.128v-.124c0-.62.502-1.127 1.128-1.127h26.848c.62 0 1.127.501 1.127 1.127v.124a1.13 1.13 0 0 1-1.127 1.127zm0 4.746H41.818c-.621 0-1.128-.501-1.128-1.127v-.124c0-.62.502-1.127 1.128-1.127h26.848c.62 0 1.127.501 1.127 1.127v.124c0 .626-.506 1.127-1.127 1.127zm0-19.003H57.85c-.62 0-1.127-.501-1.127-1.127v-.124c0-.62.501-1.127 1.127-1.127h10.815c.62 0 1.127.501 1.127 1.127v.124c0 .626-.506 1.127-1.127 1.127zm0 4.752H57.85c-.62 0-1.127-.501-1.127-1.127v-.124c0-.62.501-1.127 1.127-1.127h10.815c.62 0 1.127.501 1.127 1.127v.124c0 .626-.506 1.127-1.127 1.127zm0 4.752H57.85c-.62 0-1.127-.501-1.127-1.127v-.124c0-.62.501-1.127 1.127-1.127h10.815c.62 0 1.127.501 1.127 1.127v.124a1.13 1.13 0 0 1-1.127 1.127zM51.446 41.077h-9.628c-.621 0-1.128-.501-1.128-1.127v-9.623c0-.62.502-1.127 1.128-1.127h9.628c.62 0 1.127.501 1.127 1.127v9.628a1.132 1.132 0 0 1-1.127 1.122z" fill="#F6F7FB" fill-rule="nonzero"/><path d="M46.549 37.033a5.408 5.408 0 0 1-2.397 1.027c.263-.31.486-.656.663-1.027h-.682a1.336 1.336 0 0 1 .014-2.67 1.192 1.192 0 0 1 1.07-1.378 1.24 1.24 0 0 0-.75 1.14c0 .357.187.718.429.944 0 0-.341-.086-.696-.086a.667.667 0 0 0-.067 1.332l1.463.003a3.8 3.8 0 0 1-.49 1.003 4.141 4.141 0 0 0 1.235-1.003h2.303a.882.882 0 0 0-.005-1.764c-.357 0-.558.048-.558.048a1.335 1.335 0 0 0-2.382-1.206 1.526 1.526 0 0 1 1.486-1.178c.901 0 1.526.736 1.526 1.525 0 .256-.045.4-.076.476a1.432 1.432 0 0 1 1.792 1.384c0 .79-.64 1.43-1.43 1.43h-2.448z" fill="#FFF"/></g></g></g></g></svg>