<svg width="110" height="110" xmlns="http://www.w3.org/2000/svg" xmlns:xlink="http://www.w3.org/1999/xlink"><defs><linearGradient x1="100%" y1="13.224%" x2="25.237%" y2="50%" id="a"><stop stop-color="#FDF18D" offset="0%"/><stop stop-color="#FADF54" offset="100%"/></linearGradient><linearGradient x1="20.194%" y1="18.631%" x2="75.718%" y2="78.781%" id="c"><stop stop-color="#F2A375" offset="0%"/><stop stop-color="#ED6C5D" offset="100%"/></linearGradient><ellipse id="b" cx="27.275" cy="27.222" rx="27.149" ry="26.868"/><linearGradient x1="99.069%" y1="22.48%" x2="19.473%" y2="83.423%" id="g"><stop stop-color="#F08F6C" offset="0%"/><stop stop-color="#F08B6B" offset="100%"/></linearGradient><path d="M17.551 5.92l11.445 1.057a1 1 0 0 1 .887 1.202c-.81 3.857-3.054 5.631-6.734 5.323-3.63-.305-5.853-2.433-6.67-6.385a1 1 0 0 1 1.072-1.198z" id="e"/><filter x="-8.9%" y="-15.7%" width="117.9%" height="131.5%" filterUnits="objectBoundingBox" id="f"><feOffset dy=".4" in="SourceAlpha" result="shadowOffsetInner1"/><feComposite in="shadowOffsetInner1" in2="SourceAlpha" operator="arithmetic" k2="-1" k3="1" result="shadowInnerInner1"/><feColorMatrix values="0 0 0 0 1 0 0 0 0 0.26128417 0 0 0 0 0.161616162 0 0 0 1 0" in="shadowInnerInner1"/></filter></defs><g fill="none" fill-rule="evenodd"><path d="M35.946 64.493c-1.166 1.796-2.869 3.063-4.99 2.627-2.123-.436-3.124-1.506-3.685-4.557-.374-2.035-.507-3.356-.4-3.963l2.883-.555c.48 2.932 1.174 4.333 2.082 4.2 1.362-.198 3.524-3.685 3.524-5.666 0-1.982 3.324 2.983 2.643 4.081-.681 1.099-.89 2.037-2.057 3.833z" fill="#D34C35"/><path d="M26.677 60.684c1.733.026 2.949-.755 3.647-2.342-.077-.807-.271-1.076 0-1.805.272-.73-.194-3.341-1.474-4.416-1.28-1.075-4.113-.576-5.044.998-.932 1.575-.621 4.608.737 5.223.905.41 1.617 1.19 2.134 2.342z" fill="#D34C35"/><path d="M3.637 25.338c2.577-2.55 7.12-3.647 13.633-3.293 9.768.531 11.092 1.877 17.783.814 2.099-.188 4.58-1.369 7.442-3.54-1.145-10.86-1.717-16.927-1.717-18.201C40.742-.3 39.776.516 39.454.693c-.322.177-3.65 3.505-10.27 3.505-6.619 0-9.839-1.204-13.489-1.204-3.65 0-9.374-.566-14.312 3.4.077 1.247.829 7.562 2.254 18.944z" fill="url(#a)" transform="rotate(15 -50.486 126.963)"/><path d="M30.05 23.386a.552.552 0 0 1 .626-.468.555.555 0 0 1 .475.623L26.238 59.01a.552.552 0 0 1-.626.467.555.555 0 0 1-.475-.623l4.913-35.467z" fill="#DBB554" fill-rule="nonzero"/><path d="M25.047 58.418c-.18-1.05.013-1.574.582-1.574.854 0 2.406-.307 2.406-1.728 0-1.42-.078-2.918-1.009-3.302-.931-.384-2.988.384-3.57 1.843-.582 1.459-.116 3.955.388 4.377.337.282.738.41 1.203.384z" fill="#E3563E"/><g transform="translate(33 33)"><mask id="d" fill="#fff"><use xlink:href="#b"/></mask><use fill="url(#c)" xlink:href="#b"/><g mask="url(#d)"><g transform="scale(-1 1) rotate(-10 74.06 231.41)"><circle fill="#EE7A63" cx="6.024" cy="8.396" r="5.156"/><circle fill="#EF8869" cx="36.101" cy="10.544" r="5.156"/><use fill="#FFFEFE" xlink:href="#e"/><use fill="#000" filter="url(#f)" xlink:href="#e"/><path stroke="url(#g)" d="M17.597 5.421L29.042 6.48a1.5 1.5 0 0 1 1.33 1.801c-.86 4.099-3.327 6.05-7.265 5.719-3.859-.324-6.257-2.62-7.117-6.782a1.5 1.5 0 0 1 1.607-1.797z"/></g></g></g><path d="M82.052 58.403c3.77 3.655 5.482 6.168 5.136 7.539-.346 1.37-.958 2.09-1.834 2.158a77.177 77.177 0 0 1-.804 2.047c-.391.953-.87 1.872-1.436 2.757 1.33-.12 2.264-.332 2.8-.64.805-.46 4.448-2.381 5.314-5.466.865-3.084-3.117-8.738-4.588-10.566-1.472-1.827-5.063-.31-5.063.776 0 .723.158 1.188.475 1.395z" fill="#D34C35"/></g></svg>