<svg width="161" height="161" xmlns="http://www.w3.org/2000/svg" xmlns:xlink="http://www.w3.org/1999/xlink"><defs><path d="M27 48h77a4 4 0 0 1 4 4v50a4 4 0 0 1-4 4H27a4 4 0 0 1-4-4V52a4 4 0 0 1 4-4z" id="a"/><mask id="b" maskContentUnits="userSpaceOnUse" maskUnits="objectBoundingBox" x="0" y="0" width="85" height="58" fill="#fff"><use xlink:href="#a"/></mask><rect id="c" x="0" y="0" width="48" height="62" rx="4"/><filter x="-4.2%" y="-3.2%" width="108.3%" height="106.5%" filterUnits="objectBoundingBox" id="d"><feOffset dy="4" in="SourceAlpha" result="shadowOffsetInner1"/><feComposite in="shadowOffsetInner1" in2="SourceAlpha" operator="arithmetic" k2="-1" k3="1" result="shadowInnerInner1"/><feColorMatrix values="0 0 0 0 1 0 0 0 0 1 0 0 0 0 1 0 0 0 0.5 0" in="shadowInnerInner1"/></filter><rect id="e" x="0" y="0" width="33" height="34" rx="4"/><filter x="-6.1%" y="-5.9%" width="112.1%" height="111.8%" filterUnits="objectBoundingBox" id="f"><feOffset dy="4" in="SourceAlpha" result="shadowOffsetInner1"/><feComposite in="shadowOffsetInner1" in2="SourceAlpha" operator="arithmetic" k2="-1" k3="1" result="shadowInnerInner1"/><feColorMatrix values="0 0 0 0 1 0 0 0 0 1 0 0 0 0 1 0 0 0 0.5 0" in="shadowInnerInner1"/></filter></defs><g transform="translate(.5 .143)" fill="none" fill-rule="evenodd"><path d="M0 0h160v160H0z"/><use stroke="#E4E5E9" mask="url(#b)" stroke-width="2" stroke-dasharray="2,2" xlink:href="#a"/><g transform="translate(36 37)"><rect stroke="#A2A5B2" fill="#F5F6FA" x=".5" y="34.5" width="92" height="53" rx="4"/><g transform="translate(33)"><use fill="#FFF" xlink:href="#c"/><use fill="#000" filter="url(#d)" xlink:href="#c"/><rect stroke="#A2A5B2" stroke-linejoin="square" x=".5" y=".5" width="47" height="61" rx="4"/><rect fill="#F6F7FB" x="8" y="7" width="18" height="2" rx="1"/><g transform="translate(31 7)"><circle fill="#F6F7FB" cx="4.5" cy="4.5" r="4.5"/><g transform="translate(2 2)" fill="#FFF"><rect y="2" width="5" height="1" rx=".5"/><rect x="2" width="1" height="5" rx=".5"/></g></g><rect fill="#F6F7FB" x="8" y="12" width="18" height="2" rx="1"/><rect fill="#F6F7FB" x="8" y="20" width="32" height="2" rx="1"/></g><g transform="translate(14 18)"><use fill="#FFF" xlink:href="#e"/><use fill="#000" filter="url(#f)" xlink:href="#e"/><rect stroke="#A2A5B2" stroke-linejoin="square" x=".5" y=".5" width="32" height="33" rx="4"/><rect fill="#E4E5E9" x="4.454" y="4.787" width="13.936" height="2.123" rx="1.062"/><rect fill="#E4E5E9" x="4.454" y="10.041" width="13.936" height="2.123" rx="1.062"/><rect fill="#E4E5E9" x="4.597" y="14.877" width="24.418" height="2.123" rx="1.062"/></g><rect stroke="#A2A5B2" fill="#F6F7FB" x=".5" y="43.5" width="92" height="53" rx="4"/><rect fill="#FFF" x="5" y="48" width="83" height="44" rx="2"/><path d="M34 70c0 6.627 5.373 12 12 12 5.917 0 10.88-4.298 11.834-10H44V58.166C38.298 59.12 34 64.083 34 70zm11 1h13.962c-.51 6.712-6.119 12-12.962 12-7.18 0-13-5.82-13-13 0-6.843 5.288-12.451 12-12.962V71z" fill="#A2A5B2" fill-rule="nonzero"/><path d="M47 57.032c.283-.021.569-.032.857-.032C54.011 57 59 61.96 59 68.077c0 .31-.013.619-.038.923H47V57.032z" fill="#4D7CFE"/></g><g fill="#A2A5B2"><path d="M25 133h113.242v1H25zM141 133h3.7v1H141zM16 133h7v1h-7z"/></g></g></svg>