<svg width="110" height="110" xmlns="http://www.w3.org/2000/svg"><defs><linearGradient x1="50%" y1="0%" x2="50%" y2="100%" id="a"><stop stop-color="#6CDFB7" offset="0%"/><stop stop-color="#67D7D6" offset="100%"/></linearGradient><linearGradient x1="50%" y1="0%" x2="50%" y2="98.266%" id="b"><stop stop-color="#FCE55E" offset="0%"/><stop stop-color="#FFD854" offset="100%"/></linearGradient></defs><g fill="none" fill-rule="evenodd"><path d="M5 1.047h44a3 3 0 0 1 3 3v37c0 7.732-6.268 14-14 14H5a3 3 0 0 1-3-3v-48a3 3 0 0 1 3-3z" fill="url(#a)" transform="translate(29.488 29.225)"/><g opacity=".9"><path stroke="#FFF" d="M37.408 42.64h5v5h-5z"/><path fill="#FFF" d="M47 47.14h28v-4H47z"/></g><g opacity=".5"><path stroke="#FFF" d="M37.408 53.946h5v5h-5z"/><path fill="#FFF" d="M47 58.447h28v-4H47z"/></g><g opacity=".3"><path stroke="#FFF" d="M37.408 65.253h5v5h-5z"/><path fill="#FFF" d="M47 69.753h28v-4H47z"/></g><g transform="translate(42.488 22)"><path d="M8.73 3.437c1.048-1.561 3.077-2.62 5.409-2.62 2.331 0 4.36 1.059 5.41 2.62h4.047a4 4 0 0 1 4 4v3.074a1 1 0 0 1-1 1H1.682a1 1 0 0 1-1-1V7.437a4 4 0 0 1 4-4h4.047z" fill="url(#b)"/><ellipse stroke="#F8D86B" fill="#FFF" cx="14.139" cy="5.864" rx="2.743" ry="2.519"/></g><g transform="translate(70.527 69.499)"><circle fill="#FFF" cx="8.99" cy="9.031" r="8.974"/><path d="M8.141 13.967h1.486v-1.588H8.14v1.588zm3.054-9.11c-.506-.507-1.23-.762-2.153-.762-.354 0-.745.07-1.164.21-.405.102-.74.303-1.091.654-.314.314-.54.539-.655.99-.064.195-.209.718-.209 1.466v.188H7.31v-.188c0-.662.142-1.153.418-1.466.282-.314.71-.467 1.311-.467.5 0 .875.142 1.18.45.325.325.349.754.349.877 0 .258-.086.615-.25.778l-.909.91c-.429.428-.737.737-.852 1.083-.049.144-.097.265-.148.394a7.506 7.506 0 0 0-.155.416c-.11.332-.11.745-.11 1.27v.188H9.53v-.187c0-.395 0-.676.091-.952.065-.194.177-.392.276-.566.043-.078.086-.15.118-.217.062-.121.26-.368.859-.848l.016-.013c.429-.43.743-.856.933-1.14.233-.351.233-.703.233-1.014.003-.802-.279-1.472-.86-2.054z" fill="#63D4D2"/></g></g></svg>