<svg width="24" height="24" xmlns="http://www.w3.org/2000/svg"><g fill-rule="nonzero" fill="none"><path opacity=".2" d="M0 0h24v24H0z"/><path d="M12.012 21.335c-5.128 0-9.324-4.196-9.324-9.323 0-.56.373-.933.932-.933.56 0 .933.373.933.933 0 4.102 3.356 7.458 7.459 7.458 4.102 0 7.458-3.356 7.458-7.458 0-4.103-3.356-7.46-7.458-7.46-2.518 0-4.849 1.213-6.154 3.357-.373.373-.932.466-1.305.187-.466-.28-.56-.84-.28-1.306 1.678-2.517 4.662-4.102 7.739-4.102 5.127 0 9.323 4.196 9.323 9.324 0 5.127-4.196 9.323-9.323 9.323zM8.282 8.282h-3.73c-.559 0-.932-.373-.932-.932V3.62c0-.559.373-.932.933-.932s.932.373.932.932v2.797h2.797c.56 0 .932.373.932.933s-.372.932-.932.932z" fill="#5585F0"/><path d="M11.521 12.826c-.276-.151-.442-.441-.442-.813V7.35c0-.56.373-.933.933-.933.559 0 .932.373.932.933v4.289l2.517 2.517a.901.901 0 0 1 0 1.305.846.846 0 0 1-.652.28.846.846 0 0 1-.653-.28l-2.635-2.635z" fill="#BBCEF9"/></g></svg>