<svg width="24" height="24" xmlns="http://www.w3.org/2000/svg"><g fill-rule="nonzero" fill="none"><path fill="#FFF" opacity=".2" d="M0 0h24v24H0z"/><path d="M19.226 5.612h-3.96l-1.634-2.72c-.327-.548-.925-.876-1.588-.88h-.011c-.663 0-1.257.325-1.592.865L8.76 5.612H4.855c-1.523 0-2.76 1.17-2.76 2.611V17.4c0 1.44 1.237 2.611 2.76 2.611h14.367c1.522 0 2.76-1.17 2.76-2.611V8.223c.003-1.44-1.234-2.611-2.756-2.611zM4.856 18.219c-.526 0-.953-.368-.953-.82V8.224c0-.452.427-.82.952-.82h4.92l2.21-3.595.1.005 2.154 3.59h4.987c.375 0 .61.179.716.285a.742.742 0 0 1 .233.53v9.18c0 .452-.428.82-.953.82H4.855z" fill="#5585F0"/><path d="M19.226 5.612H4.856c-1.524 0-2.761 1.17-2.761 2.611V17.4c0 1.44 1.237 2.611 2.76 2.611h14.367c1.522 0 2.76-1.17 2.76-2.611V8.223c.003-1.44-1.234-2.611-2.756-2.611zM4.856 18.219c-.526 0-.953-.368-.953-.82V8.224c0-.452.427-.82.952-.82h14.37c.376 0 .61.179.717.285a.742.742 0 0 1 .233.53v9.18c0 .452-.428.82-.953.82H4.855z" fill="#5585F0"/><path d="M8.121 10.061h7.834a.799.799 0 1 1 0 1.597H8.121a.799.799 0 1 1 0-1.597zm0 3.603h4.664a.799.799 0 0 1 0 1.598H8.121a.799.799 0 1 1 0-1.598z" fill="#BBCEF9"/></g></svg>