<svg width="24" height="24" xmlns="http://www.w3.org/2000/svg"><g fill-rule="nonzero" fill="none"><path fill="#FFF" opacity=".2" d="M0 0h24v24H0z"/><path d="M16.143 10.373a1.29 1.29 0 1 1 0 2.578 1.29 1.29 0 0 1 0-2.578zm-4.128 0a1.29 1.29 0 1 1 0 2.578 1.29 1.29 0 0 1 0-2.578zm-4.127 0a1.29 1.29 0 1 1 0 2.578 1.29 1.29 0 0 1 0-2.578z" fill="#BBCEF9"/><path d="M3.496 21.717a1.032 1.032 0 0 1-.84-1.629c.46-.646.759-1.453 1.023-2.163.309-.83.293-1.285-.067-2.033a12.344 12.344 0 0 1-.557-1.342 8.937 8.937 0 0 1-.5-2.89c0-5.213 4.24-9.452 9.452-9.452 5.211 0 9.453 4.241 9.453 9.453a9.49 9.49 0 0 1-1.954 5.756c-1.098 1.427-2.613 2.545-4.266 3.147-.903.33-1.92.5-3.198.541-.307.01-.614.012-.92.01-1.447-.008-2.582.053-3.688.204-.74.1-1.488.17-2.212.237-.321.03-.642.06-.964.092-.034.004-.11.008-.21.008-.06 0-.141 0-.213.004a1.062 1.062 0 0 1-.34.057zm8.513-17.389c-4.042 0-7.33 3.288-7.33 7.33 0 .714.129 1.457.385 2.205.121.355.272.716.458 1.105.603 1.253.643 2.268.141 3.62-.097.257-.2.536-.316.824a46.383 46.383 0 0 0 1.851-.202c1.194-.161 2.407-.228 3.946-.22.274.003.557 0 .835-.008 1.045-.032 1.852-.165 2.537-.413a7.456 7.456 0 0 0 3.31-2.447 7.366 7.366 0 0 0 1.515-4.464c-.002-4.042-3.29-7.33-7.332-7.33z" fill="#5585F0"/></g></svg>