<svg width="28" height="28" xmlns="http://www.w3.org/2000/svg"><g fill="none" fill-rule="evenodd"><path d="M1 1h26v26H1z"/><path d="M21.842 20.178c.628 0 1.052-.626.84-1.217a6.293 6.293 0 0 0-3.953-3.849M17.266 7.928a3.889 3.889 0 0 1 1.188 7.235M18.029 21.09c.745 0 1.246-.742.996-1.443a7.46 7.46 0 0 0-4.687-4.561M9.251 15.086a7.457 7.457 0 0 0-4.686 4.561c-.25.701.251 1.443.996 1.443" stroke="#B2B9C8"/><path d="M16.402 11.107a4.607 4.607 0 1 1-9.214 0 4.607 4.607 0 0 1 9.214 0h0z" stroke="#B2B9C8"/></g></svg>