<svg width="28" height="26" xmlns="http://www.w3.org/2000/svg"><g fill="none" fill-rule="evenodd"><path d="M1 0h26v26H1z"/><g stroke="#B2B9C8"><path d="M8.127 6.23C6.734 6.23 5.5 7.357 5.5 8.75v8.826c0 1.393 1.34 2.585 2.732 2.585H19.58c1.392 0 2.311-1.192 2.311-2.585V8.751c0-1.393-1.076-2.522-2.469-2.522"/><path d="M8.778 12.147h1.5M12.876 12.147h1.5M17.384 12.147h1.5M8.778 15.605h1.5M12.876 15.605h1.5M17.384 15.605h1.5" stroke-width="1.2"/><path d="M7.959 6.23h11.578M10.008 5v2.5M17.384 5v2.5"/></g></g></svg>