<?xml version="1.0" encoding="UTF-8"?>
<svg width="16px" height="16px" viewBox="0 0 16 16" version="1.1" xmlns="http://www.w3.org/2000/svg" xmlns:xlink="http://www.w3.org/1999/xlink">
    <!-- Generator: Sketch 52.5 (67469) - http://www.bohemiancoding.com/sketch -->
    <title>btn_b-commom_del</title>
    <desc>Created with Sketch.</desc>
    <g id="Page-1" stroke="none" stroke-width="1" fill="none" fill-rule="evenodd">
        <g id="X_2.2_生日祝福语-逐条发送" transform="translate(-977.000000, -406.000000)">
            <g id="时间选择框" transform="translate(494.000000, 388.000000)">
                <g id="图标/删除/灰-2" transform="translate(483.000000, 18.000000)">
                    <g id="图标/删除/灰">
                        <path d="M2.5,3.46019618 L2.5,12.5585585 L8,13.2454259 L13.5,12.5585585 L13.5,3.45966343 L8.04138272,2.99998219 L2.5,3.46019618 Z" id="Rectangle" stroke="#979797" stroke-width="1" fill="#FFFFFF"></path>
                        <path d="M9.06375698,8.01449842 L11.8921841,5.1860713 C12.1850773,4.89317808 12.1850773,4.41830435 11.8921841,4.12541113 C11.5992909,3.83251791 11.1244172,3.83251791 10.8315239,4.12541113 L8.00309681,6.95383825 L5.17466969,4.12541113 C4.88177647,3.83251791 4.40690273,3.83251791 4.11400951,4.12541113 C3.8211163,4.41830435 3.8211163,4.89317808 4.11400951,5.1860713 L6.94243664,8.01449842 L4.11400951,10.8429255 C3.8211163,11.1358188 3.8211163,11.6106925 4.11400951,11.9035857 C4.40690273,12.1964789 4.88177647,12.1964789 5.17466969,11.9035857 L8.00309681,9.0751586 L10.8315239,11.9035857 C11.1244172,12.1964789 11.5992909,12.1964789 11.8921841,11.9035857 C12.1850773,11.6106925 12.1850773,11.1358188 11.8921841,10.8429255 L9.06375698,8.01449842 Z M8,16 C3.581722,16 0,12.418278 0,8 C0,3.581722 3.581722,0 8,0 C12.418278,0 16,3.581722 16,8 C16,12.418278 12.418278,16 8,16 Z" id="图标/删除" fill="#AFAFAF"></path>
                    </g>
                </g>
            </g>
        </g>
    </g>
</svg>