<svg 
 xmlns="http://www.w3.org/2000/svg"
 xmlns:xlink="http://www.w3.org/1999/xlink"
 width="16px" height="16px">
<path fill-rule="evenodd"  fill="rgb(204, 204, 204)"
 d="M8.000,16.000 C3.582,16.000 -0.000,12.418 -0.000,8.000 C-0.000,3.582 3.582,-0.000 8.000,-0.000 C12.418,-0.000 16.000,3.582 16.000,8.000 C16.000,12.418 12.418,16.000 8.000,16.000 ZM6.996,12.997 L8.996,12.997 L8.996,10.997 L6.996,10.997 L6.996,12.997 ZM10.995,3.997 L9.996,3.997 L9.996,2.997 L5.995,2.997 L5.995,3.997 L4.995,3.997 L4.995,5.997 L6.996,5.997 L6.996,3.997 L8.996,3.997 L8.996,6.997 L7.995,6.997 L7.995,7.997 L6.996,7.997 L6.996,9.997 L8.996,9.997 L8.996,7.997 L9.996,7.997 L9.996,6.997 L10.995,6.997 L10.995,3.997 Z"/>
</svg>