<svg width="36" height="44" xmlns="http://www.w3.org/2000/svg"><g fill="none" fill-rule="evenodd"><path d="M2 0h24l10 10v32a2 2 0 0 1-2 2H2a2 2 0 0 1-2-2V2a2 2 0 0 1 2-2z" fill="#47CCAB"/><path d="M26.006 0l9.976 9.975L28 9.999c-1.968 0-2-.032-2-2l.006-8z" fill="#97EFB1"/><path d="M17.555 25.852c-1.883-2.407-5.808-7.604-6.14-9.575 2.722-.718 7.744-2.238 12.34-4.282.716 3.352-.11 5.114-3.67 7.149-1.003.572-1.672.92-2.325 1.116-.59.176 5.186 7.738 5.057 8.505.398.651.62 1.377.62 2.141C23.437 33.72 20.43 36 16.72 36c-3.711 0-6.72-2.28-6.72-5.094 0-2.813 3.009-5.094 6.72-5.094.283 0 .562.014.836.04z" fill="#FFF"/></g></svg>