<svg width="36" height="44" xmlns="http://www.w3.org/2000/svg"><g fill="none" fill-rule="evenodd"><path d="M2 0h24l10 10v32a2 2 0 0 1-2 2H2a2 2 0 0 1-2-2V2a2 2 0 0 1 2-2z" fill="#F86162"/><path d="M26.006 0l9.976 9.975L28 10c-1.968 0-2-.033-2-2l.006-8z" fill="#FFA7A7"/><path d="M28.727 25.086c-7.2-.39-13.358-2.556-17.781-6.19.978 3.98.686 7.616.032 10.471 3.221-2.873 6.514-4.462 6.697-4.55.578-.276 1.303-.094 1.621.404.32.5.11 1.127-.468 1.402-.055.026-5.563 2.697-8.981 7.23l-1.212 1.662-.009-.004a.747.747 0 0 1-.05.078 1.257 1.257 0 0 1-.95.41c-.234 0-.471-.059-.676-.182-.518-.31-.669-.913-.347-1.377.186-.304 6.035-10.148-.408-20.934-.293-.489-.088-1.091.465-1.367.553-.277 1.259-.128 1.603.336l1.692 2.279c3.937 4.874 10.666 7.823 18.925 8.272.658.036 1.158.525 1.117 1.095-.046.569-.618 1.003-1.27.965z" fill="#FFF"/></g></svg>