<?xml version="1.0" encoding="UTF-8"?>
<svg width="37px" height="37px" viewBox="0 0 37 37" version="1.1" xmlns="http://www.w3.org/2000/svg" xmlns:xlink="http://www.w3.org/1999/xlink">
    <!-- Generator: Sketch 52.3 (67297) - http://www.bohemiancoding.com/sketch -->
    <title>Rectangle-path</title>
    <desc>Created with Sketch.</desc>
    <g id="Page-1" stroke="none" stroke-width="1" fill="none" fill-rule="evenodd">
        <g id="X_2.2_生日祝福-设置背景" transform="translate(-788.000000, -368.000000)" fill-rule="nonzero">
            <g id="add-img" transform="translate(722.000000, 300.000000)">
                <g id="添加" transform="translate(66.000000, 68.000000)">
                    <rect id="Rectangle-path" fill="#000000" opacity="0" x="0" y="0" width="37" height="37"></rect>
                    <path d="M18.5,2 C9.40666667,2 2,9.40666667 2,18.5 C2,27.5933333 9.40666667,35 18.5,35 C27.5933333,35 35,27.5933333 35,18.5 C35,9.40666667 27.5933333,2 18.5,2 Z M24.9333333,19.2333333 L19.6,19.2333333 L19.6,24.5666667 C19.6,25.0066667 19.3066667,25.3 18.8666667,25.3 C18.4266667,25.3 18.1333333,25.0066667 18.1333333,24.5666667 L18.1333333,19.2333333 L12.8,19.2333333 C12.36,19.2333333 12.0666667,18.94 12.0666667,18.5 C12.0666667,18.06 12.36,17.7666667 12.8,17.7666667 L18.1333333,17.7666667 L18.1333333,12.4333333 C18.1333333,11.9933333 18.4266667,11.7 18.8666667,11.7 C19.3066667,11.7 19.6,11.9933333 19.6,12.4333333 L19.6,17.7666667 L24.9333333,17.7666667 C25.3733333,17.7666667 25.6666667,18.06 25.6666667,18.5 C25.6666667,18.94 25.3733333,19.2333333 24.9333333,19.2333333 Z" id="Shape" fill="#A6A6A6"></path>
                </g>
            </g>
        </g>
    </g>
</svg>