<svg width="36" height="44" xmlns="http://www.w3.org/2000/svg"><g fill="none" fill-rule="evenodd"><path d="M2 0h24l10 10v32a2 2 0 0 1-2 2H2a2 2 0 0 1-2-2V2a2 2 0 0 1 2-2z" fill="#5EC7FB"/><path d="M26.006 0l9.976 9.975L28 9.999c-1.968 0-2-.032-2-2L26.006 0z" fill="#ABE4FF"/><path d="M10 18h10c.454 0 2 1.542 2 2v8c0 .456-1.546 2-2 2H10c-.454 0-2-1.544-2-2v-8c0-.458 1.546-2 2-2zm15 3.545l3-3.546c.552 0 2 .375 2 .868v10.266c0 .493-1.448.866-2 .866l-3-3.098c-.521-.432-1-1.293-1-1.786V23.33c0-.493.432-1.255 1-1.785z" fill="#FFF"/></g></svg>