<svg width="36" height="44" xmlns="http://www.w3.org/2000/svg"><g fill="none" fill-rule="evenodd"><path d="M2 0h24l10 10v32a2 2 0 0 1-2 2H2a2 2 0 0 1-2-2V2a2 2 0 0 1 2-2z" fill="#FE875D"/><path d="M26.006 0l9.976 9.975L28 10c-1.968 0-2-.033-2-2l.006-8z" fill="#FFBB84"/><path d="M10.97 12.997h8.595c4.936 0 7.404 2.219 7.404 6.688 0 4.499-2.497 6.748-7.462 6.748h-5.372V35H10.97V12.997zm3.165 2.866v7.705h5.168c1.568 0 2.7-.309 3.427-.925.697-.616 1.074-1.603 1.074-2.958 0-1.357-.377-2.343-1.103-2.897-.726-.617-1.858-.925-3.398-.925h-5.168z" fill="#FFF"/></g></svg>