<svg width="36" height="44" xmlns="http://www.w3.org/2000/svg"><g fill="none" fill-rule="evenodd"><path d="M2.005-.004h23.992l9.997 10.002v32.006a2 2 0 0 1-2 2H2.004a2 2 0 0 1-1.998-2V1.996a2 2 0 0 1 1.999-2z" fill="#8383D9"/><path d="M17.156 27.815c1.855-4.15 4.063-7.815 6.2-7.815 3.467 0 6.558 8.062 8.33 13.098H5.504C7.08 29.643 9.38 23.58 12.7 23.58c2.088 0 3.428 1.932 4.457 4.234zM9.966 12.26a2.678 2.678 0 1 1 0 5.357 2.678 2.678 0 0 1 0-5.357z" fill="#FBFBFB"/><path d="M26.004-.004l9.972 9.977-7.98.025c-1.967 0-2-.033-2-2l.008-8.002z" fill="#A9A9E4"/></g></svg>